<svg shape-rendering="geometricPrecision" xmlns="http://www.w3.org/2000/svg" xmlns:mdcr="http://sensory.com/mdcr" viewBox="0 0 400 300" preserveAspectRatio="none">
  <style>polygon,polyline,line,path{stroke-linejoin:round;stroke-linecap:round}</style>
  <metadata>
    <mdcr:info xmlns:mdcr="http://sensory.com/mdcr">
      <mdcr:source format="WMF" generator="wmf2svg.html"/>
      <mdcr:bounds left="0" top="0" right="6000" bottom="4500" inch="1440"/>
      <mdcr:records count="11">
        <mdcr:record tag="MDCR-{"/>
        <mdcr:record tag="MDCR-{"/>
        <mdcr:record tag="MDCR-S"/>
        <mdcr:record tag="MDCR-}$"/>
        <mdcr:record tag="MDCR-V(0xb8)" region="1" layer="1" file="\Resources\Midi\mid7.mid| 17|C:\Sensory\Build Some More\Resources\Midi\start7.mid" value=" 1| 1|\Resources\Midi\mid7.mid| 17|C:\Sensory\Build Some More\Resources\Midi\start7.mid"/>
        <mdcr:record tag="MDCR-S"/>
        <mdcr:record tag="MDCR-{"/>
        <mdcr:record tag="MDCR-}"/>
        <mdcr:record tag="MDCR-VF" region="2" layer="1" file="\Resources\Midi\end7.mid" value=" 2| 1|\Resources\Midi\end7.mid"/>
        <mdcr:record tag="MDCR-S"/>
        <mdcr:record tag="MDCR-}"/>
      </mdcr:records>
    </mdcr:info>
  </metadata>
  <g data-mdcr="group" class="mdcr-region">
    <g data-mdcr="group" class="mdcr-region" data-mdcr-region="1" data-mdcr-layer="1" data-mdcr-sound="\Resources\Midi\mid7.mid| 17|C:\Sensory\Build Some More\Resources\Midi\start7.mid" data-mdcr-tag="MDCR-V(0xb8)" data-mdcr-value=" 1| 1|\Resources\Midi\mid7.mid| 17|C:\Sensory\Build Some More\Resources\Midi\start7.mid">
      <polygon points="250,55 262,57 264,58 267,59 268,59 272,60 278,61 278,61 287,61 293,62 296,62 299,64 302,64 304,65 305,67 307,67 311,71 312,73 313,74 316,76 320,78 326,85 329,89 333,91 336,94 339,97 340,99 340,100 340,102 342,104 344,109 346,113 350,118 351,120 351,125 352,126 352,128 352,128 353,128 351,130 351,128 351,128 351,128 352,130 351,128 351,128 351,128 351,130 351,130 352,130 352,132 353,132 353,131 352,132 353,131 355,132 353,134 357,134 355,136 358,134 358,136 357,138 357,136 357,136 358,136 357,136 358,138 358,136 358,136 355,136 357,137 358,138 355,138 357,136 355,136 355,136 355,136 355,136 355,133 355,137 355,136 355,136 358,145 357,147 357,149 357,152 357,156 357,160 357,163 357,170 357,175 358,180 358,186 356,189 357,195 355,201 354,201 352,207 354,205 355,201 354,206 354,210 359,212 363,215 364,216 364,216 366,217 367,219 367,220 368,222 368,225 368,227 368,229 369,231 368,236 366,237 364,238 363,240 362,241 360,243 357,245 354,245 352,246 349,246 345,246 339,247 335,247 331,248 321,248 308,248 284,248 272,248 260,248 249,248 239,248 234,247 228,247 223,246 221,246 217,246 211,246 206,245 199,245 194,243 188,243 183,241 173,238 164,234 154,231 146,228 138,228 133,228 129,226 126,228 121,225 113,224 100,231 94,217 81,216 74,216 69,216 63,216 58,216 52,216 47,216 46,216 42,216 36,216 33,211 31,208 29,207 27,205 28,204 26,203 26,203 26,197 24,195 24,192 24,192 24,192 26,201 26,199 26,199 26,197 26,196 26,194 18,184 19,182 20,175 22,170 23,162 24,155 24,149 24,144 24,137 24,132 24,130 24,128 24,124 26,120 27,115 29,109 31,106 32,102 33,101 34,100 36,97 36,93 37,91 38,88 42,83 44,81 47,76 48,76 51,73 53,72 56,70 58,69 60,67 64,64 69,64 73,61 78,60 82,59 87,57 98,55 108,53 119,52 130,51 141,50 179,51 211,53 238,55 263,58 251,55 272,59 284,61 287,61 281,61 246,55 258,58" fill="#800080" stroke="none" stroke-width="0" fill-rule="evenodd"/>
      <polygon points="313,80 302,75 271,75 239,79 236,83 237,88 250,102 261,135 261,135 271,135 281,135 291,132 302,132 312,129 312,129 323,129 312,129 312,129 312,129 333,129 344,127 343,117 333,99 323,89 315,82" fill="#ffffff" stroke="none" stroke-width="0" fill-rule="evenodd"/>
      <polygon points="221,241 219,238 216,235 215,231 213,227 211,218 208,213 207,209 205,206 203,201 201,198 197,194 193,192 192,191 191,190 188,190 186,189 184,189 182,189 179,189 177,189 174,190 172,191 170,192 169,194 168,196 167,198 167,203 165,206 164,211 163,212 162,215 160,218 158,220 154,225 151,229 150,231 150,234 149,236 149,237 149,239 149,240 149,243 150,243 151,245 153,247 154,249 158,253 162,257 167,260 170,264 173,264 175,266 178,267 181,268 184,268 187,269 191,269 193,269 197,269 200,269 203,268 205,267 207,267 208,266 211,264 212,262 215,260 215,259 216,257 217,255 220,250 221,245 221,241" fill="#808080" stroke="none" stroke-width="0" fill-rule="evenodd"/>
      <polygon points="92,256 87,256 82,256 77,255 74,254 69,252 64,250 60,249 55,247 52,245 49,243 45,239 43,237 41,232 38,228 37,225 37,223 37,221 37,217 37,215 37,211 37,207 37,204 37,201 38,198 38,195 40,193 41,191 42,189 43,186 44,184 46,182 47,180 50,178 52,177 54,176 56,176 59,176 64,176 69,177 74,178 77,180 81,183 85,185 87,189 89,192 92,195 94,200 95,204 97,210 98,215 99,219 99,225 99,231 101,230 102,228 106,226 108,225 110,225 112,224 113,224 116,224 116,228 116,231 115,234 115,238 113,240 112,243 111,245 110,247 109,249 107,252 106,252 103,254 101,255 98,256 95,256 92,256" fill="#808080" stroke="none" stroke-width="0" fill-rule="evenodd"/>
      <polygon points="325,250 262,250 263,251 264,253 268,257 271,259 276,262 281,264 286,266 291,266 295,267 297,267 300,266 302,266 305,265 308,264 311,262 315,259 317,255 323,251 325,250" fill="#000000" stroke="none" stroke-width="0" fill-rule="evenodd"/>
      <polygon points="153,230 121,225 120,226 120,226 119,227 119,228 119,230 119,233 120,235 121,236 123,237 125,240 127,240 129,242 133,243 138,244 143,245 147,245 151,245 153,245 153,230" fill="#000000" stroke="none" stroke-width="0" fill-rule="evenodd"/>
      <polygon points="289,63 284,61 279,60 270,58 264,57 260,56 254,54 248,54 241,54 234,52 226,52 219,51 212,51 206,50 192,49 179,49 174,49 165,49 159,49 153,49 145,49 137,50 132,50 130,50 120,51 112,51 107,52 105,52 96,54 88,56 82,58 75,59 68,63 62,64 57,68 52,72 47,75 44,78 42,81 38,84 36,89 34,91 32,96 29,100 27,105 26,110 25,114 23,120 22,124 21,129 19,141 19,143 18,146 18,150 17,153 17,160 17,167 17,174 18,181 18,184 19,187 21,190 22,193 23,196 23,199 26,202 28,204 33,209 34,213 36,215 37,216 37,216 37,215 37,215 36,211 35,208 34,205 33,202 32,196 31,193 29,190 28,187 28,184 27,182 27,178 26,172 26,166 26,160 26,153 27,151 27,148 27,144 28,142 29,132 32,123 34,113 35,109 36,105 37,100 40,96 42,93 44,90 47,87 48,83 52,80 56,78 61,75 66,71 70,69 77,66 84,64 91,63 97,61 106,59 108,59 113,59 121,58 130,57 132,57 137,56 145,56 153,56 159,56 166,54 174,54 179,54 192,54 205,56 212,56 219,56 225,56 234,57 241,57 248,58 254,58 259,59 269,60 279,63 284,63 289,63 290,63 290,63 290,63 289,63" fill="#000000" stroke="none" stroke-width="0" fill-rule="evenodd"/>
      <polygon points="239,78 241,78 246,78 251,77 255,77 266,76 276,75 281,75 286,75 291,75 295,76 300,76 303,77 307,78 311,80 314,82 315,83 320,87 325,92 328,96 332,101 335,106 338,112 340,117 341,119 342,122 342,124 341,127 342,127 342,127 344,126 344,126 344,125 344,125 337,125 329,126 321,127 314,127 299,131 291,131 285,131 284,133 282,133 279,133 276,134 272,134 269,134 266,134 266,134 265,134 264,133 264,133 262,129 261,127 260,124 260,122 259,119 259,116 257,113 256,110 254,106 254,103 251,99 247,96 245,92 243,90 240,89 236,86 235,86 235,86 235,87 235,87 239,89 241,92 243,95 245,98 246,101 247,105 250,108 251,113 252,115 254,119 254,122 254,124 255,127 255,131 256,133 259,136 259,136 260,137 261,137 264,137 265,137 266,138 270,138 275,138 278,138 282,138 284,137 285,137 291,136 299,135 315,133 321,131 329,131 337,129 344,129 345,129 345,128 345,128 346,127 346,124 346,121 345,119 344,115 341,110 338,105 335,99 331,94 327,89 321,85 316,80 315,80 312,77 309,76 305,75 301,74 296,73 291,73 287,73 281,73 277,73 266,74 255,75 251,76 246,76 241,77 239,77 237,77 237,78 237,78 239,78" fill="#000000" stroke="none" stroke-width="0" fill-rule="evenodd"/>
      <polygon points="305,68 311,74 318,78 323,82 329,89 333,93 334,96 337,99 339,102 342,106 344,109 345,114 347,117 348,121 349,126 352,130 353,135 354,138 354,144 356,150 356,155 356,161 356,166 356,171 356,176 356,184 354,189 354,194 353,198 353,201 352,204 351,208 351,209 349,211 349,213 349,215 348,216 349,217 349,217 351,218 352,218 353,218 354,217 354,216 356,213 356,210 358,203 360,199 360,195 361,185 362,176 362,171 362,166 362,161 362,155 361,149 360,143 358,138 357,133 356,129 354,124 353,120 351,116 348,111 346,108 344,105 342,101 338,98 336,95 334,91 330,87 326,84 324,81 319,77 313,72 306,67 306,67 305,67 305,68 305,68" fill="#000000" stroke="none" stroke-width="0" fill-rule="evenodd"/>
      <polygon points="243,115 245,119 245,124 246,129 246,135 247,140 247,147 247,159 246,170 246,177 245,182 243,188 243,194 242,197 241,202 240,206 240,208 238,210 238,212 237,215 233,218 233,220 233,221 233,222 233,223 234,224 236,225 237,225 238,224 238,224 238,223 242,220 245,215 246,213 247,211 247,208 247,204 249,200 250,194 250,189 251,183 251,178 251,171 250,159 249,147 249,142 247,135 247,129 247,124 246,119 245,114 245,114 243,114 243,114 243,115" fill="#000000" stroke="none" stroke-width="0" fill-rule="evenodd"/>
      <polygon points="356,212 359,213 360,215 362,215 364,215 364,217 364,218 364,220 364,221 364,221 364,222 364,224 362,225 361,225 360,227 358,228 356,228 352,229 347,229 344,229 340,229 332,229 328,229 323,229 317,230 310,231 302,231 295,231 280,230 263,230 260,230 256,230 252,230 248,230 244,230 241,230 239,230 236,229 233,229 232,229 229,228 229,228 228,227 227,225 227,224 225,222 227,221 227,219 228,215 229,213 229,212 229,212 228,212 228,212 225,217 224,220 223,222 223,225 223,228 223,230 224,231 225,234 227,234 229,236 231,237 233,238 237,238 240,238 243,239 248,239 252,239 256,239 260,238 263,238 280,239 296,239 302,239 310,238 317,238 325,237 330,237 333,237 336,236 341,236 349,234 353,234 358,234 360,232 362,231 364,230 366,229 368,228 369,225 369,224 370,222 370,221 369,219 368,217 366,215 365,213 364,212 360,211 356,210 356,210 356,210 355,211 355,212 356,212 356,212" fill="#000000" stroke="none" stroke-width="0" fill-rule="evenodd"/>
      <polygon points="369,220 369,224 368,227 368,230 368,233 366,235 365,236 365,238 364,239 362,240 361,241 359,242 356,242 354,243 352,243 350,245 346,245 336,245 327,247 316,247 304,245 293,245 282,245 272,245 268,245 263,245 258,245 253,245 244,243 239,242 233,242 229,242 224,243 224,243 224,243 225,243 227,245 227,245 227,243 224,242 223,240 220,239 220,236 219,235 219,231 218,229 218,226 218,224 216,224 216,224 215,224 215,224 214,224 214,226 214,226 214,230 215,233 215,236 216,240 216,243 219,245 220,248 222,250 223,250 224,251 224,251 225,251 230,250 234,250 239,250 244,250 254,250 258,251 263,251 268,251 272,251 282,251 293,251 305,252 316,252 327,252 337,252 342,251 347,251 351,250 354,250 356,249 359,248 361,247 364,245 364,245 365,243 366,241 368,240 369,238 369,235 370,231 370,228 370,224 370,220 370,220 369,219 369,219 369,220" fill="#000000" stroke="none" stroke-width="0" fill-rule="evenodd"/>
      <polygon points="339,220 326,222 314,222 301,222 289,222 278,220 265,220 252,220 238,220 238,218 237,218 236,218 234,218 233,220 232,220 232,222 232,223 232,224 233,225 234,225 238,227 251,227 263,226 277,226 289,225 314,224 339,222 340,222 340,222 340,220 339,220" fill="#000000" stroke="none" stroke-width="0" fill-rule="evenodd"/>
      <polygon points="349,200 349,197 348,195 347,193 347,191 345,189 343,188 342,187 342,186 339,186 338,186 337,186 334,186 333,187 331,188 329,189 328,191 327,193 326,195 324,196 323,198 322,200 322,202 322,204 322,205 322,207 323,209 323,209 324,212 326,213 327,214 328,215 329,216 332,216 333,216 336,215 338,214 340,213 343,209 345,207 348,206 348,206 348,206 348,205 348,204 348,204 347,204 344,205 343,205 340,207 339,207 337,207 334,207 332,209 331,207 329,205 329,204 329,203 329,200 329,200 331,197 332,196 334,194 337,193 339,191 340,191 342,191 342,191 343,193 344,193 345,194 345,195 347,197 347,198 347,200 348,202 348,202 349,200 349,200 349,200" fill="#000000" stroke="none" stroke-width="0" fill-rule="evenodd"/>
      <polygon points="283,199 282,195 281,193 278,190 278,188 277,187 274,186 273,185 272,185 269,185 268,185 267,185 265,186 263,187 262,188 259,190 258,192 257,195 255,197 254,202 253,205 253,207 253,208 253,211 253,213 254,214 255,216 257,217 258,218 263,218 268,217 271,217 273,216 274,216 277,215 278,214 278,214 278,213 278,208 279,207 278,206 278,206 278,205 278,205 277,205 275,205 275,206 272,208 269,209 268,211 264,211 259,211 259,209 258,209 258,208 258,207 258,206 258,205 258,202 259,201 261,199 262,197 263,196 265,193 267,193 268,192 268,190 269,190 271,190 272,190 273,190 274,190 275,192 277,193 278,194 278,196 278,197 279,199 281,199 281,201 281,201 282,201 282,199 283,199 283,199 283,199" fill="#000000" stroke="none" stroke-width="0" fill-rule="evenodd"/>
      <polygon points="40,219 40,214 40,211 39,208 39,206 39,203 40,201 40,198 42,195 43,192 45,190 48,187 51,185 52,183 54,181 60,181 64,181 68,183 73,183 76,186 79,188 83,191 86,195 88,198 91,202 92,206 93,210 94,214 94,220 94,225 94,231 94,232 94,232 94,234 96,234 97,235 98,235 100,234 101,233 101,232 102,225 102,219 101,213 101,208 98,203 96,199 94,195 91,190 87,187 83,183 78,181 74,179 69,177 64,176 59,176 52,176 48,179 44,183 40,187 36,191 36,193 35,195 34,199 34,202 34,205 34,208 35,211 36,216 38,220 38,221 39,221 39,221 40,221 40,221 40,220 40,220 40,219" fill="#000000" stroke="none" stroke-width="0" fill-rule="evenodd"/>
      <polygon points="212,227 211,219 210,213 210,209 208,208 207,205 207,202 206,199 203,197 202,196 200,193 197,191 196,190 193,189 190,189 186,188 184,188 182,188 178,188 176,189 175,190 173,191 171,193 168,195 167,196 163,199 162,203 159,208 157,219 157,221 157,223 158,223 159,223 159,225 161,225 161,226 162,227 162,228 162,228 163,228 163,227 163,226 163,225 163,225 163,225 163,223 165,223 165,223 165,220 167,209 168,207 171,203 173,200 175,198 176,197 177,196 178,195 181,195 183,193 185,193 186,193 188,193 191,195 194,196 196,197 198,198 200,199 202,202 203,203 204,205 206,208 207,209 207,211 208,214 210,220 210,227 211,227 211,227 212,227 212,227" fill="#000000" stroke="none" stroke-width="0" fill-rule="evenodd"/>
      <polygon points="219,221 219,217 218,213 218,209 217,205 215,201 214,197 212,194 210,191 208,188 205,185 203,183 199,181 196,180 192,180 190,180 187,180 186,180 185,181 182,182 180,182 176,185 174,187 172,188 171,189 167,194 166,194 166,195 166,197 166,199 167,200 168,201 171,201 172,200 172,200 173,199 175,195 177,194 179,194 180,191 181,190 182,189 185,188 186,187 189,187 193,187 196,187 199,188 201,189 204,190 208,192 209,195 211,197 212,201 214,203 215,207 215,210 217,213 217,218 217,221 218,221 218,222 219,222 219,221" fill="#000000" stroke="none" stroke-width="0" fill-rule="evenodd"/>
      <polygon points="110,224 109,220 109,216 109,213 108,210 106,204 105,202 105,197 104,195 101,193 100,190 97,188 96,187 94,185 91,183 89,181 83,180 83,180 82,180 81,181 81,181 81,182 81,183 81,183 82,185 86,185 91,188 92,190 95,191 96,193 97,195 99,197 101,200 102,203 104,206 105,211 105,214 106,216 108,221 108,224 109,225 109,225 110,225 110,224 110,224" fill="#000000" stroke="none" stroke-width="0" fill-rule="evenodd"/>
      <polygon points="203,82 197,85 192,89 185,94 184,97 182,99 179,103 177,105 174,108 173,111 172,115 171,119 170,122 170,127 170,130 170,134 170,136 170,138 170,140 169,141 165,146 164,148 163,150 163,154 163,158 163,166 163,173 164,178 164,181 165,182 165,183 167,183 168,183 169,183 170,182 170,181 170,180 170,176 169,173 169,170 170,166 170,159 171,152 172,149 173,147 174,145 175,143 177,140 178,137 177,135 177,134 177,133 177,131 177,130 177,129 177,127 178,124 178,119 179,116 180,113 182,110 183,106 184,104 185,101 187,98 189,95 192,93 194,91 196,89 198,86 203,83 204,83 204,82 203,82 203,82" fill="#000000" stroke="none" stroke-width="0" fill-rule="evenodd"/>
      <polygon points="195,142 193,142 190,141 186,141 185,141 184,141 182,141 181,142 181,142 180,144 180,146 180,148 181,150 182,150 182,151 184,151 185,151 186,151 189,151 193,151 194,151 195,151 195,151 198,150 198,149 199,148 199,146 198,144 197,143 197,143 195,142" fill="#000000" stroke="none" stroke-width="0" fill-rule="evenodd"/>
      <polygon points="237,190 236,192 235,194 232,198 230,203 226,206 226,207 226,208 226,209 227,210 227,210 228,210 230,210 231,209 232,207 233,205 235,201 237,197 239,194 241,191 241,191 241,190 241,189 240,189 240,189 239,189 239,189 237,190" fill="#000000" stroke="none" stroke-width="0" fill-rule="evenodd"/>
      <polygon points="147,217 142,217 138,217 129,214 122,213 117,212 114,212 113,212 111,212 110,213 109,214 109,215 109,217 110,219 111,220 113,220 113,220 117,220 120,220 129,221 138,221 147,222 148,222 148,221 149,221 149,220 149,219 149,217 148,217 147,217" fill="#000000" stroke="none" stroke-width="0" fill-rule="evenodd"/>
      <polygon points="152,230 148,227 143,227 137,225 131,224 126,223 122,222 116,222 111,222 110,222 108,222 107,223 107,223 106,225 106,227 106,229 107,230 108,231 108,231 110,231 111,231 122,231 126,231 131,231 137,231 141,232 146,233 150,234 152,234 153,234 153,233 154,232 154,232 154,231 153,230 152,230" fill="#000000" stroke="none" stroke-width="0" fill-rule="evenodd"/>
      <polygon points="319,159 316,158 315,157 312,155 310,155 308,155 306,155 305,156 304,157 302,158 301,159 301,162 300,164 300,166 300,168 300,171 300,175 300,176 301,176 302,177 304,177 305,177 305,177 306,177 308,177 309,177 309,177 310,177 309,177 309,177 308,177 306,177 305,177 305,177 305,177 305,177 305,177 305,177 306,177 308,177 309,178 310,178 312,177 315,177 315,177 316,176 318,176 318,175 319,173 320,171 320,169 320,168 319,168 319,167 318,167 316,167 315,168 315,168 315,169 315,171 314,171 314,171 314,171 312,171 311,171 310,171 309,171 306,171 305,171 305,171 305,171 305,169 304,169 305,169 305,169 305,169 306,169 309,171 309,171 310,171 310,171 310,171 310,171 309,171 308,171 306,171 305,171 304,171 304,171 304,171 304,171 305,173 305,173 305,174 306,174 306,174 306,169 306,166 306,164 306,162 308,160 309,159 309,159 310,158 311,158 312,158 314,158 315,159 316,159 319,160 319,162 319,160 320,160 319,159" fill="#000000" stroke="none" stroke-width="0" fill-rule="evenodd"/>
      <polygon points="314,160 312,161 312,162 311,166 310,167 308,169 307,170 307,171 307,172 308,173 308,174 310,174 311,174 312,173 312,172 314,170 314,167 315,164 315,162 316,161 316,160 316,160 316,159 315,159 315,159 314,159 314,159 314,160" fill="#000000" stroke="none" stroke-width="0" fill-rule="evenodd"/>
      <polygon points="307,160 312,169 312,170 314,170 314,170 315,170 315,169 316,168 316,168 315,167 310,158 310,158 308,158 308,158 307,158 307,159 307,159 307,159 307,160" fill="#000000" stroke="none" stroke-width="0" fill-rule="evenodd"/>
      <polygon points="61,206 61,211 62,215 62,219 62,221 62,224 62,225 62,225 62,226 63,227 65,228 66,228 67,228 70,227 70,226 70,226 71,225 71,224 71,221 71,219 70,215 70,209 69,205 67,204 67,203 66,202 66,202 65,202 63,202 62,203 61,204 61,205 61,206" fill="#000000" stroke="none" stroke-width="0" fill-rule="evenodd"/>
      <polygon points="114,231 114,233 114,236 114,238 114,239 112,241 111,241 110,243 110,245 107,247 104,249 100,251 97,252 91,254 86,254 81,254 76,254 73,254 68,251 63,250 61,248 57,245 52,242 50,240 47,236 44,233 42,230 40,227 38,222 38,221 37,220 36,220 34,220 33,221 32,222 32,223 32,224 32,225 34,229 37,233 38,238 42,241 46,245 49,248 52,251 57,254 62,256 66,258 71,260 75,260 81,261 86,261 92,260 99,259 102,257 106,254 110,251 111,248 112,245 114,245 115,242 115,240 116,238 116,236 116,233 116,230 115,230 115,230 114,230 114,231" fill="#000000" stroke="none" stroke-width="0" fill-rule="evenodd"/>
      <polygon points="85,240 84,242 84,243 83,244 80,246 78,246 75,248 74,249 71,249 70,249 69,251 69,252 69,254 69,255 70,255 71,256 74,256 77,255 79,254 80,253 83,251 84,249 84,248 87,246 88,244 89,242 89,241 89,240 89,239 88,239 87,239 87,239 85,239 85,240" fill="#000000" stroke="none" stroke-width="0" fill-rule="evenodd"/>
      <polygon points="184,225 181,234 181,235 181,236 181,238 181,238 181,238 181,238 181,238 181,238 180,240 180,241 180,242 180,243 180,244 181,244 182,245 184,245 185,244 185,243 185,243 185,242 186,241 186,241 186,241 188,240 188,240 188,238 188,238 189,236 190,226 190,225 190,224 189,223 188,222 186,222 185,222 185,222 184,223 184,225" fill="#000000" stroke="none" stroke-width="0" fill-rule="evenodd"/>
      <polygon points="220,246 218,251 216,254 214,257 210,261 206,262 203,264 198,265 193,265 189,265 185,264 185,264 181,263 177,262 175,262 172,261 171,259 167,257 165,255 163,253 161,251 159,247 156,245 155,242 154,238 154,237 152,236 152,236 152,235 151,235 148,235 147,236 146,237 146,238 146,238 146,240 146,240 147,245 150,249 152,253 154,256 156,259 160,263 163,265 166,268 169,268 172,270 175,271 179,272 182,272 185,273 189,273 193,273 196,273 198,272 201,272 204,271 206,270 208,268 210,268 211,265 214,264 216,262 218,257 222,253 224,247 224,247 224,246 223,246 223,245 222,245 222,245 220,246 220,246" fill="#000000" stroke="none" stroke-width="0" fill-rule="evenodd"/>
      <polygon points="205,248 204,250 203,251 202,254 200,258 199,259 198,261 195,263 194,265 194,265 194,267 194,268 195,269 196,270 198,270 199,270 200,269 200,269 204,266 204,263 205,261 206,258 208,254 209,252 210,250 210,249 210,248 209,247 209,247 208,247 206,247 206,247 205,248" fill="#000000" stroke="none" stroke-width="0" fill-rule="evenodd"/>
      <polygon points="319,251 317,254 313,256 311,258 307,259 304,260 301,260 297,261 293,261 291,260 288,260 284,259 280,258 274,256 268,252 264,250 263,249 262,249 259,249 258,250 258,251 258,254 258,254 259,256 263,260 267,261 270,263 274,265 278,266 282,267 285,268 290,268 293,268 297,267 302,267 304,266 308,265 312,263 315,260 318,258 322,254 323,254 323,252 323,252 322,251 322,251 321,250 319,251 319,251" fill="#000000" stroke="none" stroke-width="0" fill-rule="evenodd"/>
      <polygon points="207,87 199,100 187,109 181,132 207,132 213,132 220,132 241,137 239,132 239,132 236,126 233,109 226,95 226,95 226,95 220,87 213,87 213,81" fill="#ffffff" stroke="none" stroke-width="0" fill-rule="evenodd"/>
      <polygon points="241,137 237,135 234,133 226,131 223,130 219,129 214,129 211,129 208,128 204,129 198,129 192,129 189,129 185,129 185,129 185,128 185,128 185,127 187,124 188,124 188,124 189,119 192,116 194,112 196,109 198,106 200,102 204,100 207,97 207,97 208,94 209,91 210,90 211,89 211,88 212,88 214,89 217,89 219,91 222,94 223,94 225,98 226,100 228,103 231,109 233,115 236,120 236,122 236,126 237,126 237,126 237,126 238,124 237,122 236,119 236,112 233,106 229,99 228,94 227,92 225,89 223,85 221,83 218,82 216,81 213,80 212,80 211,80 210,81 208,82 207,85 204,85 202,88 200,89 199,91 198,94 194,98 192,101 188,106 185,109 184,112 181,117 180,121 180,124 179,126 179,128 179,130 180,133 180,133 181,133 181,135 183,136 184,136 185,136 188,136 192,136 194,136 198,135 203,133 207,133 210,133 214,133 218,133 223,135 226,135 229,135 233,136 237,137 241,138 242,138 242,137 242,137 241,137" fill="#000000" stroke="none" stroke-width="0" fill-rule="evenodd"/>
      <g data-mdcr="group" class="mdcr-region" data-mdcr-region="2" data-mdcr-layer="1" data-mdcr-sound="\Resources\Midi\end7.mid" data-mdcr-tag="MDCR-VF" data-mdcr-value=" 2| 1|\Resources\Midi\end7.mid">
        <polygon points="72,101 75,102 77,103 79,104 81,104 77,126 72,146 72,147 72,147 72,148 72,148 71,149 71,149 71,149 71,150 71,150 71,150 71,150 71,151 71,151 71,152 72,152 72,153 70,153 68,152 67,151 65,151 65,150 66,149 66,148 67,147 67,146 67,146 67,145 67,144 67,144 67,143 68,142 68,142 68,140 68,139 68,137 69,136 69,135 69,134 69,133 68,132 69,131 69,130 68,130 68,129 67,129 67,128 67,128 66,128 66,128 65,127 65,127 64,127 64,127 64,127 63,127 63,128 63,128 62,128 62,129 62,129 61,130 61,130 61,131 60,130 59,132 59,133 58,134 58,135 57,136 57,138 56,139 56,140 56,141 57,141 56,142 56,143 56,144 56,145 56,146 55,147 54,147 53,145 51,144 49,144 49,143 49,143 49,142 49,142 49,141 49,141 49,141 50,140 50,140 50,139 50,139 50,138 53,115 55,93 57,94 58,95 60,96 61,96 63,98 64,98 66,98 66,99 64,109 61,119 62,119 63,118 63,118 64,117 64,117 65,117 65,117 66,117 67,117 68,117 69,117 70,117 72,101 72,101 72,101" fill="#ff0000" stroke="#000000" stroke-linejoin="round" stroke-linecap="round" stroke-width="2" fill-rule="evenodd"/>
        <polygon points="82,106 84,106 87,105 89,106 91,106 86,125 83,143 82,145 82,146 82,147 82,148 81,149 81,150 81,150 81,151 81,152 81,152 81,153 81,153 81,154 81,154 81,155 81,156 80,156 78,156 77,156 75,155 76,154 76,154 77,153 77,153 77,152 77,152 77,151 77,150 77,149 78,148 78,148 78,147 78,146 78,145 78,145 78,144 82,106 82,106 82,106" fill="#ff00ff" stroke="#000000" stroke-linejoin="round" stroke-linecap="round" stroke-width="2" fill-rule="evenodd"/>
        <polygon points="96,131 97,126 98,126 98,127 99,127 99,127 99,126 100,127 100,126 100,126 101,125 101,124 102,123 102,122 102,121 102,120 101,120 101,119 101,119 102,118 102,118 101,118 101,118 101,118 101,118 100,117 100,117 99,118 98,118 98,119 98,119 98,120 97,121 97,122 96,123 96,123 96,124 96,125 96,125 96,126 96,127 96,128 92,149 92,149 91,150 91,150 91,151 91,151 91,151 91,151 91,152 92,153 92,154 92,155 91,156 89,155 87,156 87,155 88,154 88,153 88,152 88,152 88,152 88,151 88,151 88,150 88,150 89,149 89,148 92,115 92,115 92,115 92,115 92,115 92,114 92,114 92,114 92,113 92,112 93,111 93,110 93,109 93,109 92,108 92,107 92,107 93,107 95,106 95,106 95,106 96,107 96,107 97,107 97,107 98,107 99,106 100,106 100,106 100,106 101,106 101,106 101,106 102,107 103,107 104,107 104,108 104,108 105,108 105,109 106,109 106,110 107,111 107,112 107,112 108,113 107,114 107,115 108,116 108,117 108,118 107,119 107,120 107,122 107,123 106,124 106,125 106,127 105,128 105,129 104,130 103,130 103,131 102,132 102,133 101,134 101,134 100,134 99,135 98,134 98,134 97,134 98,133 98,133 97,133 97,133 97,132 97,132 96,132 96,131 96,131 96,131 96,131" fill="#ffff00" stroke="#000000" stroke-linejoin="round" stroke-linecap="round" stroke-width="2" fill-rule="evenodd"/>
        <polygon points="113,128 115,123 115,123 116,123 116,124 117,124 117,123 118,123 118,123 118,122 119,122 119,121 119,121 120,120 120,119 120,118 119,117 119,116 119,116 119,116 120,115 119,114 119,114 119,114 119,114 118,114 118,114 117,114 116,115 116,116 115,116 115,117 115,118 115,119 115,120 115,120 114,121 114,121 114,122 114,123 114,124 114,124 110,145 110,146 109,147 109,147 109,147 109,148 109,148 109,148 109,149 109,149 109,150 109,151 108,152 107,152 105,153 105,152 106,151 106,150 106,149 106,149 106,148 106,148 106,148 106,147 106,147 107,146 107,145 110,113 110,112 110,112 110,112 110,112 110,112 110,111 110,111 110,110 110,109 111,108 111,107 111,106 111,106 110,105 110,105 110,104 111,104 112,103 113,103 114,103 114,103 114,103 114,103 116,103 116,103 117,103 117,103 118,103 118,103 119,103 119,103 119,103 120,103 121,104 122,104 122,105 123,105 123,106 124,106 124,107 125,107 125,108 126,110 125,111 126,111 126,112 126,113 126,114 127,115 126,117 126,118 126,119 126,120 125,121 125,123 125,124 124,125 124,126 123,127 122,127 122,128 121,129 121,130 120,130 120,131 119,131 117,131 117,131 116,131 116,131 115,131 115,130 115,130 115,130 115,130 114,129 114,129 114,129 114,128 113,128 113,128 113,128" fill="#ff00ff" stroke="#000000" stroke-linejoin="round" stroke-linecap="round" stroke-width="2" fill-rule="evenodd"/>
        <polygon points="130,103 132,104 134,104 135,104 137,105 136,105 136,106 136,106 136,107 136,107 136,108 136,108 136,108 136,109 136,109 136,110 135,111 135,112 136,114 136,116 135,116 135,117 135,118 135,119 135,120 134,122 134,123 134,125 135,127 134,127 134,128 134,128 135,130 135,131 136,132 135,133 135,134 136,134 136,133 137,132 138,132 138,131 139,130 139,130 139,129 140,129 140,129 140,128 140,128 142,126 142,125 143,124 143,123 144,121 145,120 145,119 145,117 146,116 146,115 146,113 146,112 147,111 147,110 147,109 147,108 148,109 150,110 152,110 153,112 152,113 153,114 153,115 153,116 153,117 153,118 153,118 152,119 152,121 152,122 152,123 151,125 150,125 150,127 150,128 149,129 148,131 147,133 146,135 145,137 145,137 144,137 144,138 142,139 142,140 141,141 141,142 140,143 140,144 138,144 137,145 137,146 137,147 136,148 136,148 135,149 134,150 134,150 134,151 134,151 134,152 134,152 134,153 134,153 134,153 134,154 134,154 133,155 132,155 130,154 130,153 129,153 129,152 128,151 128,151 128,150 128,149 129,147 130,146 130,144 130,143 130,143 132,142 132,141 132,140 132,139 133,138 134,137 133,137 133,136 132,136 132,135 131,135 131,134 131,134 130,133 130,133 130,132 130,132 130,131 129,130 129,130 129,129 128,127 129,126 129,125 128,124 128,123 128,122 129,120 128,119 128,118 129,115 128,113 129,110 129,108 129,107 129,107 129,106 129,106 129,105 129,105 130,104 130,103 130,103 130,103" fill="#ff0000" stroke="#000000" stroke-linejoin="round" stroke-linecap="round" stroke-width="2" fill-rule="evenodd"/>
      </g>
    </g>
  </g>
</svg>