<svg shape-rendering="geometricPrecision" xmlns="http://www.w3.org/2000/svg" xmlns:mdcr="http://sensory.com/mdcr" viewBox="0 0 401 300" preserveAspectRatio="none">
  <style>polygon,polyline,line,path{stroke-linejoin:round;stroke-linecap:round}</style>
  <metadata>
    <mdcr:info xmlns:mdcr="http://sensory.com/mdcr">
      <mdcr:source format="WMF" generator="wmf2svg.html"/>
      <mdcr:bounds left="0" top="0" right="6015" bottom="4500" inch="1440"/>
      <mdcr:records count="7">
        <mdcr:record tag="MDCR-{"/>
        <mdcr:record tag="MDCR-{"/>
        <mdcr:record tag="MDCR-}"/>
        <mdcr:record tag="MDCR-V" region="0" layer="0" extra="| 0|-" value=" 0| 0|| 0|-"/>
        <mdcr:record tag="MDCR-Vh" region="1" layer="0" file="\Resources\Several Pictures\Set 2\cow.wav" value=" 1| 0|\Resources\Several Pictures\Set 2\cow.wav"/>
        <mdcr:record tag="MDCR-S"/>
        <mdcr:record tag="MDCR-}"/>
      </mdcr:records>
    </mdcr:info>
  </metadata>
  <g data-mdcr="group" class="mdcr-region">
    <g data-mdcr="group" class="mdcr-region" data-mdcr-region="1" data-mdcr-layer="0" data-mdcr-extra="| 0|-" data-mdcr-tag="MDCR-Vh" data-mdcr-value=" 1| 0|\Resources\Several Pictures\Set 2\cow.wav" data-mdcr-sound="\Resources\Several Pictures\Set 2\cow.wav">
      <polygon points="394,41 390,46 389,48 387,49 384,51 383,52 380,53 377,53 374,56 377,61 378,63 379,68 380,72 382,75 383,80 384,84 384,88 385,100 388,111 388,122 387,133 384,142 379,148 373,153 363,154 361,154 360,154 357,154 357,154 355,154 353,153 352,153 350,153 347,158 345,161 342,165 340,169 336,170 333,172 330,175 325,176 325,188 325,202 325,215 326,230 326,244 329,257 330,270 334,282 333,284 330,285 329,287 326,288 324,289 323,289 320,289 318,288 317,278 317,270 314,261 312,252 310,244 309,235 309,226 309,215 308,213 307,208 307,204 306,202 306,197 306,193 304,190 304,186 303,197 301,208 299,218 298,229 297,240 297,250 299,261 302,271 302,273 302,274 302,274 302,276 302,277 302,277 302,278 302,281 301,281 298,282 297,282 296,282 295,282 292,282 291,282 288,282 287,268 285,255 283,241 282,229 282,215 282,202 283,188 286,175 282,175 279,175 275,176 270,177 268,179 263,180 260,181 255,181 250,181 245,182 240,182 234,182 229,182 225,182 220,181 215,181 215,187 215,191 213,193 212,195 210,195 207,196 206,198 204,202 201,203 201,203 200,202 198,202 198,202 195,202 194,201 194,201 193,202 191,204 190,207 189,208 189,209 188,211 188,214 188,215 188,215 188,215 188,215 188,215 188,218 185,222 184,225 183,229 182,234 182,236 180,240 180,242 182,246 183,250 185,256 188,262 189,267 191,273 193,277 193,279 191,279 189,281 188,281 186,282 184,282 183,282 182,283 180,283 179,276 177,270 175,263 173,258 170,254 167,247 164,241 161,235 161,234 162,233 163,229 166,228 167,224 167,222 168,219 168,217 167,215 167,213 167,209 167,208 168,204 168,202 168,201 168,198 167,201 163,203 161,206 159,208 157,211 153,214 152,215 150,218 150,219 150,220 147,220 147,222 145,223 143,225 141,228 140,229 139,230 136,233 135,233 134,234 134,235 131,235 130,236 129,238 126,238 126,240 127,247 130,254 130,260 132,267 134,272 136,278 140,283 142,290 140,293 139,295 135,295 132,297 129,297 125,297 123,298 120,299 120,288 119,279 116,271 114,265 110,257 107,251 100,246 96,239 97,235 99,230 103,226 107,222 112,218 115,215 120,211 121,208 121,191 120,175 120,159 119,142 118,126 115,108 114,93 113,77 107,81 99,88 93,96 87,107 82,117 77,128 72,137 67,147 61,156 53,164 45,169 37,170 28,169 19,164 11,156 5,148 5,148 5,148 3,147 2,148 1,147 1,145 1,144 2,143 2,142 1,142 5,140 6,139 8,137 11,134 13,132 17,129 18,127 21,124 22,126 23,126 23,128 23,132 23,136 23,140 23,143 23,148 23,150 23,155 27,158 32,160 34,161 38,163 43,161 45,161 50,156 55,153 64,137 71,122 78,107 86,94 94,80 104,69 115,61 129,54 135,53 140,52 147,52 153,51 159,49 166,51 172,51 177,52 188,52 199,52 210,52 221,53 231,54 242,54 253,56 264,57 269,57 275,58 280,58 283,58 288,58 293,57 298,54 303,53 301,47 296,43 295,38 292,32 291,26 291,20 292,14 295,8 296,8 296,8 296,14 298,20 301,24 303,27 306,32 309,35 312,40 317,43 317,43 317,43 322,40 325,37 330,35 336,34 340,34 345,34 350,35 356,35 357,32 358,27 360,22 362,19 363,14 363,9 365,6 367,4 368,8 368,14 368,18 368,22 368,27 368,32 368,37 368,41 371,41 373,41 377,41 380,41 384,40 388,40 390,38 393,38 394,40 394,41" fill="#153d3d" stroke="none" stroke-width="0" fill-rule="evenodd"/>
      <polygon points="389,43 385,46 384,48 380,50 378,51 374,52 372,53 371,55 369,57 373,61 376,68 379,78 379,88 380,99 382,108 383,115 383,121 377,120 372,120 366,119 361,120 356,120 351,122 346,126 342,131 341,127 339,125 338,121 338,120 338,115 336,114 334,110 333,108 330,100 326,94 323,88 320,82 317,75 315,68 313,61 313,53 318,45 324,40 330,37 338,36 344,37 351,40 357,41 364,45 367,45 371,43 373,43 377,43 379,42 383,42 385,41 389,41 389,41 389,43" fill="#9d6937" stroke="none" stroke-width="0" fill-rule="evenodd"/>
      <polygon points="386,131 382,141 377,147 369,151 360,152 352,150 347,146 343,140 347,131 349,127 354,125 360,122 365,122 370,121 376,122 381,123 386,126 386,128 386,130 386,131 386,131" fill="#ec9896" stroke="none" stroke-width="0" fill-rule="evenodd"/>
      <polygon points="379,138 374,140 373,139 373,139 373,136 375,135 377,135 379,138" fill="#131516" stroke="none" stroke-width="0" fill-rule="evenodd"/>
      <polygon points="371,76 371,79 369,80 366,77 366,75 369,71 369,71 371,74 371,76" fill="#131516" stroke="none" stroke-width="0" fill-rule="evenodd"/>
      <polygon points="366,29 365,40 361,39 356,36 356,34 361,29 361,26 361,24 362,23 362,20 364,19 364,18 365,15 366,14 366,29" fill="#faf8cc" stroke="none" stroke-width="0" fill-rule="evenodd"/>
      <polygon points="361,59 361,61 360,61 359,63 359,65 357,66 356,67 355,69 354,70 352,70 351,71 350,70 349,70 346,69 345,67 345,67 342,66 336,60 335,59 335,55 335,54 335,52 335,49 335,47 335,46 336,42 337,41 344,38 344,37 345,37 349,38 351,39 354,42 356,44 357,47 360,49 361,54 361,59" fill="#131516" stroke="none" stroke-width="0" fill-rule="evenodd"/>
      <polygon points="359,58 354,67 352,67 350,68 349,67 349,67 347,66 345,64 344,64 343,63 338,57 338,44 344,40 347,40 348,41 349,42 350,44 353,44 354,45 355,46 357,50 359,52 359,58" fill="#f3c695" stroke="none" stroke-width="0" fill-rule="evenodd"/>
      <polygon points="358,140 358,141 356,141 356,142 354,142 352,141 352,138 354,137 354,137 356,136 358,137 358,140" fill="#131516" stroke="none" stroke-width="0" fill-rule="evenodd"/>
      <polygon points="347,152 343,156 342,160 340,163 337,166 335,168 331,171 329,172 325,174 325,172 325,170 325,168 325,165 324,162 324,160 324,157 324,156 324,156 324,156 324,170 322,183 322,197 324,210 324,224 324,237 324,251 326,264 324,265 324,267 322,267 321,268 320,268 318,269 316,269 316,269 316,267 315,264 315,262 314,261 313,257 313,256 311,253 311,251 310,245 310,235 309,222 309,208 307,194 305,182 303,172 302,167 289,170 277,173 266,177 255,178 243,181 230,181 219,178 208,176 205,173 202,171 200,170 197,168 195,167 192,165 189,163 188,162 189,157 190,152 192,147 195,143 196,136 197,130 197,124 196,120 196,120 196,120 195,136 189,155 181,171 172,189 159,204 148,219 135,230 123,237 123,238 123,238 123,242 125,247 126,252 129,257 129,263 130,269 131,273 131,277 129,277 129,277 127,278 126,278 124,279 123,279 121,279 120,279 119,270 118,264 115,258 111,256 108,251 104,248 102,245 98,241 99,238 102,236 104,231 108,227 110,224 114,221 116,218 119,218 119,216 120,215 120,214 121,213 121,211 123,210 123,209 124,209 124,203 124,195 124,188 124,179 123,171 123,163 121,157 121,152 121,146 121,136 121,125 119,115 118,103 115,91 115,81 115,72 119,66 121,63 126,58 130,56 135,55 141,55 147,55 152,55 152,58 151,61 150,64 150,66 148,70 148,72 148,76 148,79 148,84 151,86 153,91 156,95 157,98 159,103 161,107 162,111 167,111 170,109 175,109 179,108 183,107 188,106 191,104 196,104 197,102 199,96 199,88 199,81 197,72 196,65 195,59 194,54 197,54 202,55 206,55 210,55 215,55 218,56 223,56 227,56 230,59 235,64 239,71 244,80 249,85 255,88 260,85 266,76 267,75 268,72 270,71 270,70 271,68 271,65 272,64 273,63 275,63 276,63 275,64 275,64 273,64 273,65 276,69 276,70 276,72 278,76 280,77 281,80 283,82 286,84 289,84 293,84 297,84 300,84 303,81 308,80 311,79 315,79 319,86 324,93 329,102 332,109 337,118 338,127 341,135 342,144 342,145 343,146 343,147 343,149 345,149 345,150 346,150 347,151 347,151 347,152" fill="#9d6937" stroke="none" stroke-width="0" fill-rule="evenodd"/>
      <polygon points="346,83 346,85 345,86 341,85 341,82 341,78 344,77 346,77 346,78 346,83" fill="#131516" stroke="none" stroke-width="0" fill-rule="evenodd"/>
      <polygon points="330,283 326,284 326,284 325,284 324,284 324,285 322,285 321,285 320,285 320,285 317,277 316,270 319,272 320,270 320,270 322,270 326,268 327,274 330,283" fill="#62263a" stroke="none" stroke-width="0" fill-rule="evenodd"/>
      <polygon points="315,77 311,77 306,78 303,80 299,81 294,82 291,82 286,81 282,80 277,71 276,66 286,64 292,62 299,59 302,59 304,56 305,56 308,56 309,56 310,55 313,57 315,73 315,77" fill="#6b3c2b" stroke="none" stroke-width="0" fill-rule="evenodd"/>
      <polygon points="314,47 312,51 309,51 307,51 304,49 303,47 301,45 297,42 296,40 295,36 293,34 293,31 292,29 291,26 291,25 291,22 291,20 291,19 291,17 292,15 293,19 295,24 297,26 302,31 303,35 308,40 310,42 314,46 314,47" fill="#faf8cc" stroke="none" stroke-width="0" fill-rule="evenodd"/>
      <polygon points="301,178 300,194 299,201 299,208 297,217 296,224 295,232 294,239 294,248 295,255 295,258 287,260 287,249 284,239 284,235 284,233 283,228 284,211 284,201 285,199 285,195 285,192 285,189 287,186 287,183 287,180 288,176 288,173 290,173 300,169 301,178" fill="#9d6937" stroke="none" stroke-width="0" fill-rule="evenodd"/>
      <polygon points="297,278 290,279 287,260 296,258 297,278" fill="#62263a" stroke="none" stroke-width="0" fill-rule="evenodd"/>
      <polygon points="271,61 270,63 269,67 267,71 266,73 264,77 261,80 260,82 257,84 255,83 254,83 252,83 250,82 247,82 246,80 246,79 244,78 241,75 241,73 236,60 235,56 271,61" fill="#f3c695" stroke="none" stroke-width="0" fill-rule="evenodd"/>
      <polygon points="257,116 255,121 253,122 251,124 248,124 245,127 241,136 237,139 235,140 234,141 217,137 214,135 213,132 212,130 211,126 211,122 209,119 209,116 208,111 207,109 207,104 207,101 209,96 211,95 212,95 214,94 217,93 218,91 219,89 222,88 223,86 224,85 225,84 227,84 228,84 229,84 230,85 231,85 233,86 235,88 236,90 237,93 241,94 242,95 245,95 247,96 248,99 252,101 253,104 253,105 255,106 255,109 256,109 256,110 257,111 257,114 257,115 257,116" fill="#131516" stroke="none" stroke-width="0" fill-rule="evenodd"/>
      <polygon points="255,116 254,116 254,118 251,119 251,121 250,122 249,122 248,122 246,122 243,127 241,128 240,129 239,131 239,133 238,134 237,136 235,137 234,138 227,138 217,134 212,129 212,128 211,124 211,122 209,116 207,103 207,102 211,98 212,97 213,96 214,96 217,95 217,93 218,91 221,90 223,88 224,87 227,87 227,86 228,87 229,87 230,87 232,88 232,90 233,90 234,91 237,93 239,96 243,97 245,98 249,101 251,102 253,106 255,111 255,116" fill="#f3c695" stroke="none" stroke-width="0" fill-rule="evenodd"/>
      <polygon points="212,191 211,192 205,193 201,200 200,200 194,198 191,198 187,205 187,205 181,202 180,200 178,208 173,215 171,215 169,215 170,193 173,188 173,188 174,186 176,183 179,178 180,175 185,165 210,180 211,181 212,191" fill="#ec9896" stroke="none" stroke-width="0" fill-rule="evenodd"/>
      <polygon points="197,98 195,102 166,109 164,109 161,107 159,100 149,78 149,76 155,54 191,54 191,55 192,55 193,56 193,58 193,58 193,59 195,59 195,60 196,63 196,64 196,65 196,66 196,69 196,70 196,71 196,72 196,76 193,83 197,94 197,98" fill="#f3c695" stroke="none" stroke-width="0" fill-rule="evenodd"/>
      <polygon points="189,276 185,279 182,280 179,269 179,268 184,264 185,266 187,268 187,269 189,276" fill="#62263a" stroke="none" stroke-width="0" fill-rule="evenodd"/>
      <polygon points="185,210 183,216 181,223 180,229 179,236 178,242 179,250 180,257 183,263 179,266 176,267 174,260 172,253 168,246 167,242 163,237 163,236 169,219 172,219 174,216 176,213 178,209 181,204 185,209 185,210" fill="#9d6937" stroke="none" stroke-width="0" fill-rule="evenodd"/>
      <polygon points="138,291 134,292 131,295 124,295 121,296 120,281 131,279 132,281 138,291" fill="#62263a" stroke="none" stroke-width="0" fill-rule="evenodd"/>
      <polygon points="114,67 114,68 113,70 113,71 113,72 104,78 96,88 89,98 83,109 76,120 71,131 65,143 59,153 54,159 49,164 44,167 40,168 34,167 29,166 23,163 17,158 17,158 18,157 21,158 24,161 27,163 29,164 33,166 35,166 39,166 42,164 51,158 60,148 67,135 75,119 82,103 89,88 99,76 110,67 112,66 113,66 113,66 114,67" fill="#9d6937" stroke="none" stroke-width="0" fill-rule="evenodd"/>
      <polygon points="18,153 13,157 4,145 4,144 17,130 18,129 18,153" fill="#cd9a39" stroke="none" stroke-width="0" fill-rule="evenodd"/>
    </g>
    <rect x="2" y="191" width="145" height="109" fill="none" stroke="none" stroke-width="0"/>
  </g>
</svg>