<svg shape-rendering="geometricPrecision" xmlns="http://www.w3.org/2000/svg" xmlns:mdcr="http://sensory.com/mdcr" viewBox="0 0 400 301" preserveAspectRatio="none">
  <style>polygon,polyline,line,path{stroke-linejoin:round;stroke-linecap:round}</style>
  <metadata>
    <mdcr:info xmlns:mdcr="http://sensory.com/mdcr">
      <mdcr:source format="WMF" generator="wmf2svg.html"/>
      <mdcr:bounds left="0" top="0" right="6000" bottom="4515" inch="1440"/>
      <mdcr:records count="108">
        <mdcr:record tag="MDCR-{"/>
        <mdcr:record tag="MDCR-V" region="0" layer="0" extra="| 0|-" value=" 0| 0|| 0|-"/>
        <mdcr:record tag="MDCR-V(0x16)" region="0" layer="0" value=" 0| 0|"/>
        <mdcr:record tag="MDCR-V(0x16)" region="0" layer="0" value=" 0| 0|"/>
        <mdcr:record tag="MDCR-V(0x16)" region="0" layer="0" value=" 0| 0|"/>
        <mdcr:record tag="MDCR-V(0x16)" region="0" layer="0" value=" 0| 0|"/>
        <mdcr:record tag="MDCR-V(0x16)" region="0" layer="0" value=" 0| 0|"/>
        <mdcr:record tag="MDCR-V(0x16)" region="0" layer="0" value=" 0| 0|"/>
        <mdcr:record tag="MDCR-V(0x16)" region="0" layer="0" value=" 0| 0|"/>
        <mdcr:record tag="MDCR-V(0x16)" region="0" layer="0" value=" 0| 0|"/>
        <mdcr:record tag="MDCR-V(0x16)" region="0" layer="0" value=" 0| 0|"/>
        <mdcr:record tag="MDCR-V(0x16)" region="0" layer="0" value=" 0| 0|"/>
        <mdcr:record tag="MDCR-V(0x16)" region="0" layer="0" value=" 0| 0|"/>
        <mdcr:record tag="MDCR-V(0x16)" region="0" layer="0" value=" 0| 0|"/>
        <mdcr:record tag="MDCR-V(0x16)" region="0" layer="0" value=" 0| 0|"/>
        <mdcr:record tag="MDCR-V(0x16)" region="0" layer="0" value=" 0| 0|"/>
        <mdcr:record tag="MDCR-V(0x16)" region="0" layer="0" value=" 0| 0|"/>
        <mdcr:record tag="MDCR-V(0x16)" region="0" layer="0" value=" 0| 0|"/>
        <mdcr:record tag="MDCR-V(0x16)" region="0" layer="0" value=" 0| 0|"/>
        <mdcr:record tag="MDCR-V(0x16)" region="0" layer="0" value=" 0| 0|"/>
        <mdcr:record tag="MDCR-V(0x16)" region="0" layer="0" value=" 0| 0|"/>
        <mdcr:record tag="MDCR-V(0x16)" region="0" layer="0" value=" 0| 0|"/>
        <mdcr:record tag="MDCR-V(0x16)" region="0" layer="0" value=" 0| 0|"/>
        <mdcr:record tag="MDCR-V(0x16)" region="0" layer="0" value=" 0| 0|"/>
        <mdcr:record tag="MDCR-V(0x16)" region="0" layer="0" value=" 0| 0|"/>
        <mdcr:record tag="MDCR-V(0x16)" region="0" layer="0" value=" 0| 0|"/>
        <mdcr:record tag="MDCR-V(0x16)" region="0" layer="0" value=" 0| 0|"/>
        <mdcr:record tag="MDCR-V(0x16)" region="0" layer="0" value=" 0| 0|"/>
        <mdcr:record tag="MDCR-V(0x16)" region="0" layer="0" value=" 0| 0|"/>
        <mdcr:record tag="MDCR-V(0x16)" region="0" layer="0" value=" 0| 0|"/>
        <mdcr:record tag="MDCR-V(0x16)" region="0" layer="0" value=" 0| 0|"/>
        <mdcr:record tag="MDCR-V(0x16)" region="0" layer="0" value=" 0| 0|"/>
        <mdcr:record tag="MDCR-V(0x16)" region="0" layer="0" value=" 0| 0|"/>
        <mdcr:record tag="MDCR-V(0x16)" region="0" layer="0" value=" 0| 0|"/>
        <mdcr:record tag="MDCR-V(0x16)" region="0" layer="0" value=" 0| 0|"/>
        <mdcr:record tag="MDCR-V(0x16)" region="0" layer="0" value=" 0| 0|"/>
        <mdcr:record tag="MDCR-V(0x16)" region="0" layer="0" value=" 0| 0|"/>
        <mdcr:record tag="MDCR-V(0x16)" region="0" layer="0" value=" 0| 0|"/>
        <mdcr:record tag="MDCR-V(0x16)" region="0" layer="0" value=" 0| 0|"/>
        <mdcr:record tag="MDCR-V(0x16)" region="0" layer="0" value=" 0| 0|"/>
        <mdcr:record tag="MDCR-V(0x16)" region="0" layer="0" value=" 0| 0|"/>
        <mdcr:record tag="MDCR-V(0x16)" region="0" layer="0" value=" 0| 0|"/>
        <mdcr:record tag="MDCR-V(0x16)" region="0" layer="0" value=" 0| 0|"/>
        <mdcr:record tag="MDCR-V(0x16)" region="0" layer="0" value=" 0| 0|"/>
        <mdcr:record tag="MDCR-V(0x16)" region="0" layer="0" value=" 0| 0|"/>
        <mdcr:record tag="MDCR-V(0x16)" region="0" layer="0" value=" 0| 0|"/>
        <mdcr:record tag="MDCR-V(0x16)" region="0" layer="0" value=" 0| 0|"/>
        <mdcr:record tag="MDCR-V(0x16)" region="0" layer="0" value=" 0| 0|"/>
        <mdcr:record tag="MDCR-V(0x16)" region="0" layer="0" value=" 0| 0|"/>
        <mdcr:record tag="MDCR-V(0x16)" region="0" layer="0" value=" 0| 0|"/>
        <mdcr:record tag="MDCR-V(0x16)" region="0" layer="0" value=" 0| 0|"/>
        <mdcr:record tag="MDCR-V(0x16)" region="0" layer="0" value=" 0| 0|"/>
        <mdcr:record tag="MDCR-V(0x16)" region="0" layer="0" value=" 0| 0|"/>
        <mdcr:record tag="MDCR-V(0x16)" region="0" layer="0" value=" 0| 0|"/>
        <mdcr:record tag="MDCR-V(0x16)" region="0" layer="0" value=" 0| 0|"/>
        <mdcr:record tag="MDCR-V(0x16)" region="0" layer="0" value=" 0| 0|"/>
        <mdcr:record tag="MDCR-V(0x16)" region="0" layer="0" value=" 0| 0|"/>
        <mdcr:record tag="MDCR-V(0x16)" region="0" layer="0" value=" 0| 0|"/>
        <mdcr:record tag="MDCR-V(0x16)" region="0" layer="0" value=" 0| 0|"/>
        <mdcr:record tag="MDCR-V(0x16)" region="0" layer="0" value=" 0| 0|"/>
        <mdcr:record tag="MDCR-V(0x16)" region="0" layer="0" value=" 0| 0|"/>
        <mdcr:record tag="MDCR-V(0x16)" region="0" layer="0" value=" 0| 0|"/>
        <mdcr:record tag="MDCR-V(0x16)" region="0" layer="0" value=" 0| 0|"/>
        <mdcr:record tag="MDCR-V(0x16)" region="0" layer="0" value=" 0| 0|"/>
        <mdcr:record tag="MDCR-V(0x16)" region="0" layer="0" value=" 0| 0|"/>
        <mdcr:record tag="MDCR-V(0x16)" region="0" layer="0" value=" 0| 0|"/>
        <mdcr:record tag="MDCR-V(0x16)" region="0" layer="0" value=" 0| 0|"/>
        <mdcr:record tag="MDCR-V(0x16)" region="0" layer="0" value=" 0| 0|"/>
        <mdcr:record tag="MDCR-V(0x16)" region="0" layer="0" value=" 0| 0|"/>
        <mdcr:record tag="MDCR-V(0x16)" region="0" layer="0" value=" 0| 0|"/>
        <mdcr:record tag="MDCR-V(0x16)" region="0" layer="0" value=" 0| 0|"/>
        <mdcr:record tag="MDCR-V(0x16)" region="0" layer="0" value=" 0| 0|"/>
        <mdcr:record tag="MDCR-V(0x16)" region="0" layer="0" value=" 0| 0|"/>
        <mdcr:record tag="MDCR-V(0x16)" region="0" layer="0" value=" 0| 0|"/>
        <mdcr:record tag="MDCR-V(0x16)" region="0" layer="0" value=" 0| 0|"/>
        <mdcr:record tag="MDCR-V(0x16)" region="0" layer="0" value=" 0| 0|"/>
        <mdcr:record tag="MDCR-V(0x16)" region="0" layer="0" value=" 0| 0|"/>
        <mdcr:record tag="MDCR-V(0x16)" region="0" layer="0" value=" 0| 0|"/>
        <mdcr:record tag="MDCR-V(0x16)" region="0" layer="0" value=" 0| 0|"/>
        <mdcr:record tag="MDCR-V(0x16)" region="0" layer="0" value=" 0| 0|"/>
        <mdcr:record tag="MDCR-V(0x16)" region="0" layer="0" value=" 0| 0|"/>
        <mdcr:record tag="MDCR-V(0x16)" region="0" layer="0" value=" 0| 0|"/>
        <mdcr:record tag="MDCR-V(0x16)" region="0" layer="0" value=" 0| 0|"/>
        <mdcr:record tag="MDCR-V(0x16)" region="0" layer="0" value=" 0| 0|"/>
        <mdcr:record tag="MDCR-V(0x16)" region="0" layer="0" value=" 0| 0|"/>
        <mdcr:record tag="MDCR-V(0x16)" region="0" layer="0" value=" 0| 0|"/>
        <mdcr:record tag="MDCR-V(0x16)" region="0" layer="0" value=" 0| 0|"/>
        <mdcr:record tag="MDCR-V(0x16)" region="0" layer="0" value=" 0| 0|"/>
        <mdcr:record tag="MDCR-V(0x16)" region="0" layer="0" value=" 0| 0|"/>
        <mdcr:record tag="MDCR-V(0x16)" region="0" layer="0" value=" 0| 0|"/>
        <mdcr:record tag="MDCR-V(0x16)" region="0" layer="0" value=" 0| 0|"/>
        <mdcr:record tag="MDCR-V(0x16)" region="0" layer="0" value=" 0| 0|"/>
        <mdcr:record tag="MDCR-V(0x16)" region="0" layer="0" value=" 0| 0|"/>
        <mdcr:record tag="MDCR-V(0x16)" region="0" layer="0" value=" 0| 0|"/>
        <mdcr:record tag="MDCR-V(0x16)" region="0" layer="0" value=" 0| 0|"/>
        <mdcr:record tag="MDCR-V(0x16)" region="0" layer="0" value=" 0| 0|"/>
        <mdcr:record tag="MDCR-V(0x16)" region="0" layer="0" value=" 0| 0|"/>
        <mdcr:record tag="MDCR-V(0x16)" region="0" layer="0" value=" 0| 0|"/>
        <mdcr:record tag="MDCR-V(0x16)" region="0" layer="0" value=" 0| 0|"/>
        <mdcr:record tag="MDCR-V(0x16)" region="0" layer="0" value=" 0| 0|"/>
        <mdcr:record tag="MDCR-V(0x16)" region="0" layer="0" value=" 0| 0|"/>
        <mdcr:record tag="MDCR-V(0x16)" region="0" layer="0" value=" 0| 0|"/>
        <mdcr:record tag="MDCR-V(0x16)" region="0" layer="0" value=" 0| 0|"/>
        <mdcr:record tag="MDCR-V(0x16)" region="0" layer="0" value=" 0| 0|"/>
        <mdcr:record tag="MDCR-V(0x16)" region="0" layer="0" value=" 0| 0|"/>
        <mdcr:record tag="MDCR-VL" region="1" layer="0" file="\Resources\Wav\elephnt2.wav" value=" 1| 0|\Resources\Wav\elephnt2.wav"/>
        <mdcr:record tag="MDCR-S"/>
        <mdcr:record tag="MDCR-}i"/>
      </mdcr:records>
    </mdcr:info>
  </metadata>
  <g data-mdcr="group" class="mdcr-region" data-mdcr-region="1" data-mdcr-layer="0" data-mdcr-extra="| 0|-" data-mdcr-tag="MDCR-VL" data-mdcr-value=" 1| 0|\Resources\Wav\elephnt2.wav" data-mdcr-sound="\Resources\Wav\elephnt2.wav">
    <polygon points="184,270 182,273 181,276 179,279 176,282 173,283 170,285 167,286 163,286 156,287 148,287 141,286 134,285 130,285 128,283 125,282 122,281 120,278 118,276 116,273 115,270 114,267 114,265 115,262 115,259 118,254 121,249 122,247 122,245 122,243 121,241 120,236 119,231 119,228 119,224 120,221 121,218 123,213 125,209 130,203 132,201 184,270" fill="#848282" stroke="none" stroke-width="0" fill-rule="evenodd"/>
    <polygon points="134,287 134,287 141,288 149,288 156,289 164,288 168,287 171,286 174,285 177,283 180,281 183,277 184,274 186,270 183,269 181,272 180,275 177,278 175,280 172,281 170,283 167,284 163,284 156,285 149,284 142,284 134,283 134,283" fill="#1f1a17" stroke="none" stroke-width="0" fill-rule="evenodd"/>
    <polygon points="113,271 113,271 115,274 116,277 118,280 121,282 123,284 126,286 129,287 133,288 133,284 130,283 128,282 125,281 123,279 121,277 119,275 117,272 116,269 116,269" fill="#1f1a17" stroke="none" stroke-width="0" fill-rule="evenodd"/>
    <polygon points="119,248 119,248 116,253 114,259 113,262 112,265 113,268 114,271 117,269 116,267 116,265 116,263 117,260 119,256 122,251 122,250" fill="#1f1a17" stroke="none" stroke-width="0" fill-rule="evenodd"/>
    <polygon points="118,232 118,231 119,237 120,242 121,243 121,245 121,246 120,248 123,250 124,248 124,245 124,243 124,241 122,236 122,231 122,231" fill="#1f1a17" stroke="none" stroke-width="0" fill-rule="evenodd"/>
    <polygon points="133,200 131,203 129,201 124,207 121,212 119,218 118,221 117,224 117,228 117,232 121,231 121,228 121,225 121,222 123,219 124,214 126,210 131,204 132,199 130,202" fill="#1f1a17" stroke="none" stroke-width="0" fill-rule="evenodd"/>
    <polygon points="185,270 185,268 133,199 130,201 182,271 185,270 185,270 186,269 185,268" fill="#1f1a17" stroke="none" stroke-width="0" fill-rule="evenodd"/>
    <polygon points="287,267 285,271 283,276 281,279 277,282 274,285 270,287 266,289 262,290 257,290 253,291 248,291 244,290 235,289 227,286 225,285 222,284 221,281 220,280 219,277 218,275 217,272 217,269 218,263 219,257 220,254 221,252 223,249 225,247 226,246 226,244 226,242 225,239 224,233 224,227 258,225 287,267" fill="#848282" stroke="none" stroke-width="0" fill-rule="evenodd"/>
    <polygon points="226,288 226,288 235,291 243,293 248,293 253,293 258,293 262,292 266,291 271,289 275,287 279,284 282,281 285,277 287,272 289,267 285,266 284,270 281,274 279,278 276,281 273,283 270,285 265,287 262,288 257,289 253,289 248,289 244,289 235,287 228,285 228,285" fill="#1f1a17" stroke="none" stroke-width="0" fill-rule="evenodd"/>
    <polygon points="223,246 223,246 221,248 219,251 218,254 217,257 215,264 215,270 215,273 216,276 217,279 218,282 219,284 221,286 223,288 225,289 227,285 225,284 223,283 222,281 221,279 220,278 219,275 219,272 219,270 219,265 220,259 221,256 222,254 224,251 225,249 225,249" fill="#1f1a17" stroke="none" stroke-width="0" fill-rule="evenodd"/>
    <polygon points="225,226 223,228 223,234 224,239 224,242 225,244 225,245 225,245 227,248 228,246 228,243 228,241 227,239 227,233 226,228 225,230 225,226 223,226 223,228" fill="#1f1a17" stroke="none" stroke-width="0" fill-rule="evenodd"/>
    <polygon points="260,225 258,224 224,227 224,231 259,228 260,225 260,225 259,224 258,224" fill="#1f1a17" stroke="none" stroke-width="0" fill-rule="evenodd"/>
    <polygon points="289,267 288,265 260,224 257,227 286,268 289,267 289,267 289,266 288,265" fill="#1f1a17" stroke="none" stroke-width="0" fill-rule="evenodd"/>
    <polygon points="126,60 232,21 238,21 244,20 250,21 256,21 262,22 267,23 273,25 278,27 284,29 288,32 293,36 298,40 302,44 306,49 309,54 313,60 317,70 321,79 324,88 326,98 328,108 329,118 331,128 331,138 331,140 332,142 332,143 333,144 336,147 339,148 342,148 346,147 347,147 349,145 350,144 351,143 353,139 354,137 355,137 356,137 357,139 357,139 356,143 355,148 354,152 352,156 349,159 347,162 345,163 344,164 341,164 339,164 337,164 334,163 333,163 331,163 330,163 329,164 328,169 326,175 324,179 321,184 318,189 314,194 310,199 306,204 301,208 298,213 295,218 293,224 292,227 292,230 292,233 292,237 294,243 295,249 296,253 298,256 300,259 302,262 304,265 305,269 306,272 305,276 304,280 301,285 299,288 295,292 292,294 288,296 284,298 280,299 275,299 271,300 266,300 262,299 253,298 245,295 243,294 240,293 239,291 237,289 236,286 236,284 235,281 235,278 235,272 237,266 238,264 239,261 241,259 243,256 244,255 244,253 244,251 243,248 242,243 242,237 236,238 231,239 225,240 219,240 214,240 208,239 203,238 197,237 198,239 199,242 200,244 200,247 200,250 199,252 198,255 197,257 199,257 200,258 202,259 203,260 205,262 207,266 209,269 209,273 210,276 210,278 208,282 206,285 204,288 202,290 199,292 196,293 192,294 189,295 182,295 174,295 166,295 159,293 156,293 153,292 150,291 148,289 146,286 144,284 142,281 141,278 140,275 140,273 140,270 141,267 143,262 146,257 148,255 148,253 147,251 146,249 145,247 145,244 145,242 145,239 148,233 149,230 143,227 137,222 132,217 126,212 122,206 118,200 115,193 111,187 108,180 106,173 104,165 102,158 101,150 100,143 100,135 100,128 126,60" fill="#aaa9a9" stroke="none" stroke-width="0" fill-rule="evenodd"/>
    <polygon points="233,18 233,19 127,57 128,61 234,22 233,18" fill="#1f1a17" stroke="none" stroke-width="0" fill-rule="evenodd"/>
    <polygon points="316,58 316,58 313,52 309,47 305,41 301,37 296,33 291,30 286,27 281,24 275,22 270,20 264,19 258,18 252,17 246,17 240,17 234,18 235,22 240,21 246,21 252,21 258,22 263,22 269,24 274,25 279,28 285,30 290,33 294,37 298,40 303,44 306,49 310,55 313,60 313,60" fill="#1f1a17" stroke="none" stroke-width="0" fill-rule="evenodd"/>
    <polygon points="334,137 334,137 333,126 333,116 331,106 330,96 327,86 324,77 320,67 315,58 312,60 316,69 320,79 323,88 326,98 327,107 329,116 330,126 330,136 330,137" fill="#1f1a17" stroke="none" stroke-width="0" fill-rule="evenodd"/>
    <polygon points="351,141 351,141 350,142 349,143 349,144 348,144 344,145 342,144 339,144 336,142 336,141 335,139 335,138 335,137 331,137 331,139 332,141 333,143 334,145 337,147 341,148 345,149 348,148 350,147 352,146 353,144 354,142 354,142" fill="#1f1a17" stroke="none" stroke-width="0" fill-rule="evenodd"/>
    <polygon points="360,137 356,137 360,136 359,134 357,133 354,134 352,136 350,140 353,142 356,138 357,137 357,137 356,137 357,138 360,137 356,137" fill="#1f1a17" stroke="none" stroke-width="0" fill-rule="evenodd"/>
    <polygon points="341,164 341,164 344,164 346,163 348,163 349,162 353,159 355,154 357,150 358,146 359,141 360,137 356,136 356,140 355,145 354,149 352,153 350,156 347,158 346,159 345,160 343,160 341,160 341,160" fill="#1f1a17" stroke="none" stroke-width="0" fill-rule="evenodd"/>
    <polygon points="333,163 333,164 334,163 334,163 335,163 336,163 338,164 341,165 341,161 339,161 336,160 335,159 333,159 331,160 330,162 330,162" fill="#1f1a17" stroke="none" stroke-width="0" fill-rule="evenodd"/>
    <polygon points="325,183 325,183 328,178 330,173 331,168 333,162 330,161 328,166 326,172 324,176 322,181 322,181" fill="#1f1a17" stroke="none" stroke-width="0" fill-rule="evenodd"/>
    <polygon points="295,223 295,223 297,217 301,212 304,208 308,203 312,199 316,194 320,189 324,183 321,181 317,186 314,191 309,196 305,200 301,205 297,210 294,215 292,222 292,222" fill="#1f1a17" stroke="none" stroke-width="0" fill-rule="evenodd"/>
    <polygon points="299,247 299,247 297,241 296,234 296,231 296,229 296,226 296,223 293,222 292,225 292,229 292,232 293,235 294,242 295,248 295,248" fill="#1f1a17" stroke="none" stroke-width="0" fill-rule="evenodd"/>
    <polygon points="308,275 308,275 309,270 308,267 307,263 305,260 303,257 301,254 299,251 299,248 295,249 296,253 298,256 300,259 302,262 304,265 305,268 305,270 305,274 305,274" fill="#1f1a17" stroke="none" stroke-width="0" fill-rule="evenodd"/>
    <polygon points="246,295 246,295 254,298 263,300 268,300 273,300 278,300 282,299 287,298 291,296 295,294 299,291 302,288 305,284 307,279 309,274 306,273 304,277 302,281 299,285 297,288 293,290 289,292 286,294 281,295 277,296 273,296 268,296 264,296 255,294 247,292 247,292" fill="#1f1a17" stroke="none" stroke-width="0" fill-rule="evenodd"/>
    <polygon points="242,253 242,253 240,256 239,258 237,261 236,264 235,267 235,271 234,274 234,277 235,280 235,283 236,286 237,289 238,291 240,293 242,295 245,296 246,292 244,291 242,290 241,288 240,286 239,285 238,282 238,280 238,277 238,275 238,272 239,269 239,266 240,263 242,261 243,258 245,256 245,256" fill="#1f1a17" stroke="none" stroke-width="0" fill-rule="evenodd"/>
    <polygon points="245,237 242,235 243,241 243,247 244,250 244,252 244,253 244,253 246,256 247,254 247,252 247,249 247,247 246,241 246,235 244,234 246,235 246,233 244,234" fill="#1f1a17" stroke="none" stroke-width="0" fill-rule="evenodd"/>
    <polygon points="200,235 198,238 203,239 209,240 215,241 221,241 227,241 232,240 238,239 244,238 243,234 238,235 232,236 226,237 221,237 215,237 210,236 205,235 199,234 197,237" fill="#1f1a17" stroke="none" stroke-width="0" fill-rule="evenodd"/>
    <polygon points="198,254 201,257 202,254 203,251 203,249 204,246 203,243 203,240 202,237 200,234 197,236 198,239 200,241 200,243 200,246 200,247 200,250 198,252 197,254 199,258 197,254 195,258 199,258" fill="#1f1a17" stroke="none" stroke-width="0" fill-rule="evenodd"/>
    <polygon points="213,277 213,277 213,274 213,271 212,267 210,263 209,259 206,256 204,255 202,254 200,254 198,254 199,258 200,258 201,258 202,259 203,259 205,262 207,265 209,268 209,272 209,274 209,275 209,275" fill="#1f1a17" stroke="none" stroke-width="0" fill-rule="evenodd"/>
    <polygon points="160,294 160,294 168,295 175,295 183,296 190,295 194,294 197,293 200,292 203,289 206,287 208,284 210,280 212,277 208,275 207,279 206,282 203,284 201,286 199,288 196,289 193,290 189,291 183,292 175,291 168,291 161,290 161,290" fill="#1f1a17" stroke="none" stroke-width="0" fill-rule="evenodd"/>
    <polygon points="140,278 140,278 141,281 143,284 145,287 148,289 150,291 153,293 156,294 159,295 160,291 157,290 154,289 152,288 150,286 148,284 146,282 144,279 143,276 143,276" fill="#1f1a17" stroke="none" stroke-width="0" fill-rule="evenodd"/>
    <polygon points="146,254 146,254 143,259 141,265 140,268 139,271 140,274 141,277 144,275 143,273 143,271 143,269 144,266 146,262 149,256 149,256" fill="#1f1a17" stroke="none" stroke-width="0" fill-rule="evenodd"/>
    <polygon points="145,238 145,238 144,241 145,244 145,246 146,249 147,250 147,252 147,253 146,255 149,257 150,255 150,252 150,249 149,247 149,245 148,243 148,241 148,239 148,239" fill="#1f1a17" stroke="none" stroke-width="0" fill-rule="evenodd"/>
    <polygon points="150,230 150,230 148,231 145,237 148,238 151,233 152,227 152,227" fill="#1f1a17" stroke="none" stroke-width="0" fill-rule="evenodd"/>
    <polygon points="100,126 99,127 99,134 100,141 100,149 102,156 103,164 105,172 108,179 110,186 114,193 118,199 122,206 126,212 131,217 137,222 143,226 149,230 151,226 145,223 139,219 134,214 129,209 125,203 120,197 117,190 114,184 111,177 109,170 107,163 105,156 104,148 103,141 103,134 103,127 103,127" fill="#1f1a17" stroke="none" stroke-width="0" fill-rule="evenodd"/>
    <polygon points="127,57 126,58 100,127 103,128 129,59 127,57 127,57 126,57 126,58" fill="#1f1a17" stroke="none" stroke-width="0" fill-rule="evenodd"/>
    <polygon points="137,26 130,19 122,12 119,9 114,6 112,5 110,5 108,5 106,5 99,8 92,11 85,15 79,19 76,22 73,26 70,31 68,35 63,45 60,54 59,60 58,66 57,72 57,79 57,82 58,85 59,88 60,91 61,93 63,96 66,98 68,100 137,26" fill="#848282" stroke="none" stroke-width="0" fill-rule="evenodd"/>
    <polygon points="107,8 107,8 109,7 110,7 112,8 113,8 118,11 121,14 129,21 136,28 138,24 132,18 124,11 119,7 115,4 113,4 111,3 108,3 106,4 106,4" fill="#1f1a17" stroke="none" stroke-width="0" fill-rule="evenodd"/>
    <polygon points="81,20 81,20 87,16 93,13 99,9 107,7 106,3 98,6 91,9 84,12 79,17 78,17" fill="#1f1a17" stroke="none" stroke-width="0" fill-rule="evenodd"/>
    <polygon points="61,55 61,55 65,46 69,36 71,32 74,28 77,24 80,21 77,18 74,22 71,26 68,30 66,34 61,44 58,54 58,54" fill="#1f1a17" stroke="none" stroke-width="0" fill-rule="evenodd"/>
    <polygon points="67,98 69,98 67,96 65,94 63,92 62,90 61,87 60,84 59,82 59,79 59,73 59,66 61,60 62,55 59,54 57,60 56,66 55,72 55,79 56,82 56,86 57,89 58,91 60,94 62,97 65,100 68,101 70,101 68,101 69,102 70,101" fill="#1f1a17" stroke="none" stroke-width="0" fill-rule="evenodd"/>
    <polygon points="138,24 136,24 67,99 70,101 138,27 138,24 138,27 140,25 138,24" fill="#1f1a17" stroke="none" stroke-width="0" fill-rule="evenodd"/>
    <polygon points="115,34 112,31 108,29 105,27 102,26 100,25 98,25 97,26 95,26 94,27 93,29 91,30 91,33 88,38 84,43 81,48 78,53 77,56 77,61 77,66 78,72 79,74 80,76 81,78 82,80 84,80 86,81 88,80 90,79 115,34" fill="#ee9b86" stroke="none" stroke-width="0" fill-rule="evenodd"/>
    <polygon points="92,34 92,34 92,32 93,31 95,30 96,29 97,28 98,28 100,28 101,28 104,29 107,31 111,33 114,37 116,34 113,31 109,28 105,26 102,24 100,24 98,24 96,25 94,25 92,26 91,28 90,30 88,33 88,33" fill="#1f1a17" stroke="none" stroke-width="0" fill-rule="evenodd"/>
    <polygon points="80,54 80,54 83,49 87,44 90,39 93,33 89,32 87,37 83,42 80,47 77,52 77,52" fill="#1f1a17" stroke="none" stroke-width="0" fill-rule="evenodd"/>
    <polygon points="89,79 89,79 88,80 86,80 85,80 84,79 83,78 82,77 81,74 80,73 79,67 79,62 79,58 80,55 77,53 76,57 75,62 76,68 77,73 77,76 78,79 80,81 82,83 84,84 86,84 89,83 91,82 92,82" fill="#1f1a17" stroke="none" stroke-width="0" fill-rule="evenodd"/>
    <polygon points="117,35 114,35 89,80 92,82 117,37 117,35 117,37 118,36 117,35" fill="#1f1a17" stroke="none" stroke-width="0" fill-rule="evenodd"/>
    <polygon points="109,77 106,80 104,82 101,83 98,84 95,85 93,85 91,85 88,84 84,82 80,79 75,74 72,69 69,64 67,62 66,62 66,62 65,63 65,63 64,69 64,75 65,80 66,85 67,90 70,95 73,98 76,102 80,104 85,106 88,106 92,107 95,107 99,106 102,106 105,104 108,102 110,98 109,77" fill="#e0dc92" stroke="none" stroke-width="0" fill-rule="evenodd"/>
    <polygon points="71,69 71,69 75,75 80,80 84,84 89,86 92,87 94,87 97,87 100,86 102,85 105,83 108,82 111,79 109,75 106,78 103,80 101,82 99,82 96,83 94,83 92,83 90,82 86,80 82,77 78,72 74,67 74,68" fill="#1f1a17" stroke="none" stroke-width="0" fill-rule="evenodd"/>
    <polygon points="67,75 67,75 67,69 67,64 68,64 68,64 67,64 67,64 68,66 71,70 74,68 71,63 69,61 67,60 66,61 65,62 64,63 63,69 64,75 63,75" fill="#1f1a17" stroke="none" stroke-width="0" fill-rule="evenodd"/>
    <polygon points="86,104 86,104 82,103 79,100 75,97 73,94 70,89 68,85 67,80 67,75 63,75 64,81 65,86 67,91 69,96 73,100 76,104 81,106 85,108 85,108" fill="#1f1a17" stroke="none" stroke-width="0" fill-rule="evenodd"/>
    <polygon points="109,98 109,97 107,100 105,102 102,103 99,104 96,105 93,104 89,104 86,103 85,107 88,108 92,108 96,109 100,108 104,107 107,106 110,103 112,99 113,98" fill="#1f1a17" stroke="none" stroke-width="0" fill-rule="evenodd"/>
    <polygon points="109,75 108,77 109,98 113,98 112,77 109,75 112,77 111,73 109,75" fill="#1f1a17" stroke="none" stroke-width="0" fill-rule="evenodd"/>
    <polygon points="196,28 195,26 195,23 194,21 192,19 196,28" fill="#aaa9a9" stroke="none" stroke-width="0" fill-rule="evenodd"/>
    <polygon points="191,20 192,22 193,24 194,26 194,28 198,27 197,25 196,22 195,19 194,17" fill="#1f1a17" stroke="none" stroke-width="0" fill-rule="evenodd"/>
    <polygon points="138,82 140,85 141,89 141,92 140,96 139,100 138,103 136,106 134,110 132,113 129,115 127,117 125,119 120,122 115,124 110,125 105,127 99,129 94,132 90,136 86,139 84,140 82,142 79,143 77,143 69,144 62,145 59,145 55,144 52,143 48,141 45,143 42,144 38,144 34,143 30,142 26,141 21,139 18,136 13,136 8,136 7,135 6,134 5,133 4,131 3,127 3,124 4,120 5,117 6,116 8,114 9,113 11,113 9,107 9,103 9,100 9,98 11,97 13,95 15,94 17,94 19,94 20,95 22,95 24,97 25,98 27,100 27,103 27,107 29,107 31,106 33,106 34,106 38,106 41,106 48,101 55,97 59,95 63,94 67,94 72,94 73,91 73,88 75,85 76,82 80,78 85,74 89,70 94,66 98,63 100,59 102,53 106,46 109,40 113,35 118,30 122,24 127,20 132,15 136,12 140,9 144,7 148,5 153,4 158,3 162,3 167,4 173,7 180,9 184,11 186,12 189,15 192,18 198,15 204,13 210,12 217,12 220,12 223,13 226,14 228,15 231,16 233,18 235,20 237,23 240,31 245,40 247,44 249,49 253,53 257,56 259,59 261,63 262,66 263,71 263,74 262,78 262,82 261,86 258,92 255,98 252,103 248,108 245,113 241,119 238,124 235,130 234,133 232,136 231,138 228,140 224,143 219,145 214,146 209,147 205,146 200,145 195,143 192,140 188,137 184,133 182,129 180,126 180,122 179,117 178,108 177,100 138,82" fill="#aaa9a9" stroke="none" stroke-width="0" fill-rule="evenodd"/>
    <polygon points="136,111 136,111 138,107 140,104 141,100 142,97 143,93 143,89 142,85 141,81 137,83 139,86 139,90 139,93 139,96 138,99 137,102 135,106 133,109 133,109" fill="#1f1a17" stroke="none" stroke-width="0" fill-rule="evenodd"/>
    <polygon points="96,134 96,134 101,131 106,129 111,128 117,126 121,124 127,121 130,119 132,117 134,114 136,111 133,109 131,112 129,114 127,116 125,117 120,120 115,122 110,124 105,125 99,128 94,131 94,131" fill="#1f1a17" stroke="none" stroke-width="0" fill-rule="evenodd"/>
    <polygon points="78,146 78,146 80,145 83,144 85,143 88,141 92,138 96,135 94,131 89,135 86,138 84,139 81,141 79,141 77,142 77,142" fill="#1f1a17" stroke="none" stroke-width="0" fill-rule="evenodd"/>
    <polygon points="49,143 47,143 51,145 55,146 58,147 62,147 70,147 77,146 76,141 69,143 62,143 59,143 56,142 52,141 49,140 47,140 49,140 48,139 47,140" fill="#1f1a17" stroke="none" stroke-width="0" fill-rule="evenodd"/>
    <polygon points="17,139 17,139 21,141 26,143 30,145 34,146 39,147 42,146 47,146 50,143 48,140 45,142 42,143 39,143 35,142 31,141 27,140 23,137 19,135 19,135" fill="#1f1a17" stroke="none" stroke-width="0" fill-rule="evenodd"/>
    <polygon points="8,137 8,137 14,138 17,138 19,135 14,134 10,134 10,134" fill="#1f1a17" stroke="none" stroke-width="0" fill-rule="evenodd"/>
    <polygon points="10,114 11,111 9,112 7,113 6,115 4,116 3,120 2,125 2,129 3,132 4,134 5,136 6,137 8,138 10,134 9,134 8,133 7,132 6,131 6,128 5,125 6,122 7,119 9,117 10,116 11,116 12,115 13,113 12,115 14,115 13,113" fill="#1f1a17" stroke="none" stroke-width="0" fill-rule="evenodd"/>
    <polygon points="13,94 13,94 10,96 8,98 8,101 7,103 8,109 10,114 13,113 12,108 11,103 11,102 12,100 13,99 15,98 14,98" fill="#1f1a17" stroke="none" stroke-width="0" fill-rule="evenodd"/>
    <polygon points="29,99 29,100 27,98 26,96 24,95 22,94 20,93 18,93 15,94 13,94 15,98 16,97 18,97 19,97 20,98 22,98 24,99 25,100 26,102 26,102" fill="#1f1a17" stroke="none" stroke-width="0" fill-rule="evenodd"/>
    <polygon points="26,107 29,108 29,104 28,99 25,102 26,104 25,108 28,110 25,108 25,112 28,110" fill="#1f1a17" stroke="none" stroke-width="0" fill-rule="evenodd"/>
    <polygon points="41,105 41,105 39,106 35,105 33,105 31,105 29,106 26,107 29,110 30,109 32,109 33,109 35,109 39,109 42,109 42,109" fill="#1f1a17" stroke="none" stroke-width="0" fill-rule="evenodd"/>
    <polygon points="71,95 73,93 69,92 64,93 59,94 55,96 48,101 41,105 42,109 50,104 57,99 60,97 64,96 68,96 72,97 75,95 72,97 74,98 75,95" fill="#1f1a17" stroke="none" stroke-width="0" fill-rule="evenodd"/>
    <polygon points="99,59 99,59 97,62 93,65 89,69 84,73 79,77 75,82 74,85 72,88 71,91 71,95 75,95 75,92 76,90 77,87 78,84 82,80 86,76 91,73 95,68 99,65 102,61 102,61" fill="#1f1a17" stroke="none" stroke-width="0" fill-rule="evenodd"/>
    <polygon points="131,14 131,14 126,19 121,24 117,29 112,35 108,40 104,47 101,53 98,59 101,61 104,54 107,49 111,43 115,37 119,32 124,26 129,22 134,18 134,18" fill="#1f1a17" stroke="none" stroke-width="0" fill-rule="evenodd"/>
    <polygon points="167,4 167,4 162,3 157,3 152,4 148,5 143,6 139,9 135,12 131,15 134,18 137,15 141,12 145,10 149,8 153,7 157,6 162,7 166,8 166,8" fill="#1f1a17" stroke="none" stroke-width="0" fill-rule="evenodd"/>
    <polygon points="192,17 194,17 191,14 188,12 185,10 182,8 175,5 168,3 167,7 173,9 180,12 183,13 186,15 189,17 191,20 193,20 191,20 192,21 193,20" fill="#1f1a17" stroke="none" stroke-width="0" fill-rule="evenodd"/>
    <polygon points="239,22 239,22 237,20 235,18 233,15 230,14 227,13 224,12 221,11 217,11 211,11 204,12 197,14 192,17 194,20 199,18 205,16 211,15 217,15 221,15 223,16 226,16 229,18 231,19 233,20 234,22 236,24 236,24" fill="#1f1a17" stroke="none" stroke-width="0" fill-rule="evenodd"/>
    <polygon points="259,56 259,56 255,52 252,48 250,44 248,40 243,31 239,22 236,24 240,33 244,42 246,46 249,51 252,55 256,59 256,59" fill="#1f1a17" stroke="none" stroke-width="0" fill-rule="evenodd"/>
    <polygon points="263,88 263,88 264,84 265,80 265,75 265,71 264,67 263,63 261,59 258,56 255,59 258,61 259,64 261,68 261,71 261,75 261,79 261,83 259,86 259,86" fill="#1f1a17" stroke="none" stroke-width="0" fill-rule="evenodd"/>
    <polygon points="238,132 238,132 240,126 243,120 247,115 250,110 254,105 258,99 260,94 263,88 260,86 257,92 254,97 251,102 247,107 244,113 240,118 237,124 234,130 234,130" fill="#1f1a17" stroke="none" stroke-width="0" fill-rule="evenodd"/>
    <polygon points="220,148 220,148 226,146 230,143 233,140 235,138 236,136 238,133 234,131 233,133 232,136 230,137 228,139 223,142 219,144 219,144" fill="#1f1a17" stroke="none" stroke-width="0" fill-rule="evenodd"/>
    <polygon points="183,134 183,134 186,138 191,142 195,145 199,147 204,148 209,149 214,149 219,147 218,144 214,145 209,145 205,145 201,143 196,141 193,138 189,136 186,132 186,132" fill="#1f1a17" stroke="none" stroke-width="0" fill-rule="evenodd"/>
    <polygon points="176,101 177,109 178,118 179,123 180,127 182,131 184,135 187,133 185,129 184,126 183,122 182,118 181,109 180,100" fill="#1f1a17" stroke="none" stroke-width="0" fill-rule="evenodd"/>
    <polygon points="203,46 200,53 197,59 195,67 194,74 193,81 193,89 194,97 194,105 195,108 197,111 199,113 201,115 203,115 206,116 207,116 210,115 217,107 223,99 229,90 235,81 236,78 238,75 239,72 239,71 239,69 238,67 234,59 231,52 229,49 227,46 225,44 222,42 219,41 217,40 214,40 212,40 210,41 207,42 205,44 203,46" fill="#ee9b86" stroke="none" stroke-width="0" fill-rule="evenodd"/>
    <polygon points="195,105 195,105 194,97 194,89 194,82 195,75 196,68 198,61 201,54 204,47 201,45 198,52 195,59 193,67 191,74 191,82 190,89 191,98 192,106 192,106" fill="#1f1a17" stroke="none" stroke-width="0" fill-rule="evenodd"/>
    <polygon points="207,113 207,113 206,113 205,114 203,113 201,113 199,111 198,109 196,106 196,104 192,105 193,108 195,111 197,114 199,116 202,117 205,118 208,117 210,116 210,116" fill="#1f1a17" stroke="none" stroke-width="0" fill-rule="evenodd"/>
    <polygon points="234,80 234,80 228,89 222,97 215,105 208,113 211,116 218,108 224,100 231,91 237,82 237,82" fill="#1f1a17" stroke="none" stroke-width="0" fill-rule="evenodd"/>
    <polygon points="236,68 236,68 237,70 237,71 237,73 236,74 235,78 233,81 236,83 238,80 240,76 240,73 241,71 240,68 239,66 239,66" fill="#1f1a17" stroke="none" stroke-width="0" fill-rule="evenodd"/>
    <polygon points="221,44 221,44 224,45 226,48 228,50 230,53 233,60 237,68 240,66 236,59 233,51 231,48 229,45 226,42 223,40 223,40" fill="#1f1a17" stroke="none" stroke-width="0" fill-rule="evenodd"/>
    <polygon points="205,47 205,47 207,45 208,44 211,43 213,42 215,42 217,42 219,43 221,44 223,40 220,39 218,39 215,38 212,38 210,39 207,40 204,42 202,45 202,45" fill="#1f1a17" stroke="none" stroke-width="0" fill-rule="evenodd"/>
    <polygon points="179,97 176,99 174,101 171,103 168,104 165,104 163,104 161,104 158,104 154,101 150,98 146,94 142,88 139,83 137,82 136,81 136,82 135,82 135,83 134,89 134,95 135,100 136,105 138,110 140,114 143,118 146,122 151,124 155,126 158,126 162,127 165,127 169,126 172,125 175,123 178,121 180,118 179,97" fill="#e0dc92" stroke="none" stroke-width="0" fill-rule="evenodd"/>
    <polygon points="139,86 140,86 143,92 148,97 152,100 157,103 160,104 162,104 165,104 168,103 170,102 173,100 176,98 179,96 177,92 174,95 171,97 169,98 167,99 164,100 162,100 160,100 158,99 154,97 150,94 146,89 142,84 142,84" fill="#1f1a17" stroke="none" stroke-width="0" fill-rule="evenodd"/>
    <polygon points="135,93 135,93 135,87 135,82 135,82 135,82 135,82 134,82 137,84 139,88 142,86 139,81 137,79 135,78 133,79 132,80 132,81 131,87 131,93 131,93" fill="#1f1a17" stroke="none" stroke-width="0" fill-rule="evenodd"/>
    <polygon points="154,121 154,121 150,120 146,117 143,114 140,110 138,106 136,102 135,97 135,92 131,92 132,97 133,103 135,108 137,113 140,117 144,120 149,123 153,125 153,125" fill="#1f1a17" stroke="none" stroke-width="0" fill-rule="evenodd"/>
    <polygon points="177,115 177,114 176,117 173,119 170,121 167,122 164,122 161,122 157,121 154,121 153,125 157,125 161,126 164,126 168,125 172,124 175,122 178,120 180,116 181,115" fill="#1f1a17" stroke="none" stroke-width="0" fill-rule="evenodd"/>
    <polygon points="177,94 176,95 177,116 181,116 180,95 177,94 180,95 179,91 177,94" fill="#1f1a17" stroke="none" stroke-width="0" fill-rule="evenodd"/>
    <polygon points="128,49 131,50 134,49 135,48 136,48 136,46 137,45 137,44 137,43 136,41 136,40 134,38 131,37 127,36 125,37 124,37 123,38 122,40 122,41 121,42 122,43 122,45 123,46 125,48 128,49" fill="#1f1a17" stroke="none" stroke-width="0" fill-rule="evenodd"/>
    <polygon points="136,45 136,45 135,46 135,47 134,47 134,47 131,48 129,48 128,51 132,52 135,51 136,50 137,49 138,48 139,46 139,46" fill="#1f1a17" stroke="none" stroke-width="0" fill-rule="evenodd"/>
    <polygon points="131,39 131,39 134,40 135,42 136,43 136,44 136,44 136,45 139,46 140,44 139,43 139,41 138,39 135,37 132,35 132,35" fill="#1f1a17" stroke="none" stroke-width="0" fill-rule="evenodd"/>
    <polygon points="124,41 124,41 124,40 124,40 125,39 126,38 128,38 131,38 132,34 128,34 125,35 123,35 122,37 121,38 120,40 120,40" fill="#1f1a17" stroke="none" stroke-width="0" fill-rule="evenodd"/>
    <polygon points="129,48 129,48 127,47 125,45 125,45 124,43 124,43 124,42 120,41 120,43 120,45 121,47 122,48 125,51 128,52 128,52" fill="#1f1a17" stroke="none" stroke-width="0" fill-rule="evenodd"/>
    <polygon points="150,55 154,55 156,54 158,54 159,53 159,52 160,51 160,50 160,48 159,47 158,46 156,44 154,43 150,42 148,43 146,43 146,44 145,45 144,46 144,48 144,49 145,50 146,51 148,54 150,55" fill="#1f1a17" stroke="none" stroke-width="0" fill-rule="evenodd"/>
    <polygon points="157,50 157,50 157,51 157,51 156,52 156,52 153,53 150,52 149,56 153,57 156,56 158,55 159,54 160,53 161,51 161,51" fill="#1f1a17" stroke="none" stroke-width="0" fill-rule="evenodd"/>
    <polygon points="153,44 153,44 156,45 158,47 158,48 158,48 159,49 158,50 162,51 162,49 162,48 161,46 160,44 158,42 154,40 154,40" fill="#1f1a17" stroke="none" stroke-width="0" fill-rule="evenodd"/>
    <polygon points="146,47 146,47 146,46 146,46 147,45 148,45 150,44 153,45 154,41 150,40 147,41 145,42 144,43 143,45 142,46 142,46" fill="#1f1a17" stroke="none" stroke-width="0" fill-rule="evenodd"/>
    <polygon points="151,53 151,53 149,52 147,50 146,49 146,48 145,48 146,47 142,46 142,48 142,50 143,52 144,53 147,55 150,57 150,57" fill="#1f1a17" stroke="none" stroke-width="0" fill-rule="evenodd"/>
    <rect x="1" y="226" width="98" height="74" fill="none" stroke="none" stroke-width="0"/>
  </g>
</svg>