<svg shape-rendering="geometricPrecision" xmlns="http://www.w3.org/2000/svg" xmlns:mdcr="http://sensory.com/mdcr" viewBox="0 0 400 300" preserveAspectRatio="none">
  <style>polygon,polyline,line,path{stroke-linejoin:round;stroke-linecap:round}</style>
  <metadata>
    <mdcr:info xmlns:mdcr="http://sensory.com/mdcr">
      <mdcr:source format="WMF" generator="wmf2svg.html"/>
      <mdcr:bounds left="0" top="0" right="6000" bottom="4500" inch="1440"/>
      <mdcr:records count="7">
        <mdcr:record tag="MDCR-{"/>
        <mdcr:record tag="MDCR-{"/>
        <mdcr:record tag="MDCR-}\"/>
        <mdcr:record tag="MDCR-V" region="0" layer="0" extra="| 0|-" value=" 0| 0|| 0|-"/>
        <mdcr:record tag="MDCR-VF" region="1" layer="0" file="\Resources\Wav\BOING.WAV" value=" 1| 0|\Resources\Wav\BOING.WAV"/>
        <mdcr:record tag="MDCR-S"/>
        <mdcr:record tag="MDCR-}"/>
      </mdcr:records>
    </mdcr:info>
  </metadata>
  <g data-mdcr="group" class="mdcr-region">
    <g data-mdcr="group" class="mdcr-region" data-mdcr-region="1" data-mdcr-layer="0" data-mdcr-extra="| 0|-" data-mdcr-tag="MDCR-VF" data-mdcr-value=" 1| 0|\Resources\Wav\BOING.WAV" data-mdcr-sound="\Resources\Wav\BOING.WAV">
      <polygon points="238,37 238,35 238,33 239,31 240,29 242,26 243,24 245,22 247,20 249,18 250,17 252,15 254,14 256,14 257,14 258,14 259,15 260,17 260,19 260,22 259,25 258,31 257,37 256,38 256,39 256,40 256,41 257,43 258,43 238,37" fill="#917c68" stroke="none" stroke-width="0" fill-rule="evenodd"/>
      <polygon points="261,14 261,14 260,13 258,12 256,12 254,13 252,14 250,15 248,17 246,18 244,20 243,23 241,25 240,28 238,30 238,32 237,35 237,37 240,37 240,35 240,33 241,31 242,29 243,26 245,24 246,22 248,20 250,18 252,17 254,16 255,15 256,15 257,14 258,15 259,15 259,15" fill="#1f1a17" stroke="none" stroke-width="0" fill-rule="evenodd"/>
      <polygon points="258,37 259,37 260,30 261,24 262,21 262,19 262,16 261,14 259,15 259,17 259,19 259,21 259,24 257,30 256,36 256,36" fill="#1f1a17" stroke="none" stroke-width="0" fill-rule="evenodd"/>
      <polygon points="258,43 259,41 259,40 258,39 258,39 258,38 258,37 258,36 256,35 255,37 255,38 255,39 256,41 257,42 257,43 258,40" fill="#1f1a17" stroke="none" stroke-width="0" fill-rule="evenodd"/>
      <polygon points="238,36 239,37 258,43 259,40 240,35 238,36 238,36 238,37 239,37" fill="#1f1a17" stroke="none" stroke-width="0" fill-rule="evenodd"/>
      <polygon points="230,136 216,115 224,112 225,115 227,118 228,121 230,124 232,127 234,130 237,132 239,135 242,137 244,139 247,142 251,144 253,145 256,146 259,147 261,147 264,147 266,148 269,149 272,150 274,151 276,152 278,154 280,156 281,158 281,159 281,161 281,162 280,164 280,166 278,167 277,168 268,171 230,136" fill="#917c68" stroke="none" stroke-width="0" fill-rule="evenodd"/>
      <polygon points="217,114 216,116 230,137 232,135 218,115 217,114 217,114 215,115 216,116" fill="#1f1a17" stroke="none" stroke-width="0" fill-rule="evenodd"/>
      <polygon points="226,111 224,110 216,112 217,115 225,112 226,111 226,111 226,109 224,110" fill="#1f1a17" stroke="none" stroke-width="0" fill-rule="evenodd"/>
      <polygon points="261,147 261,147 259,146 256,146 254,145 251,144 249,142 246,140 243,138 240,136 238,133 235,129 233,126 231,124 229,121 228,118 227,115 226,112 223,113 224,116 225,119 227,122 229,125 231,128 233,132 236,135 238,137 241,140 244,142 247,144 250,145 253,147 255,148 258,149 261,149 261,149" fill="#1f1a17" stroke="none" stroke-width="0" fill-rule="evenodd"/>
      <polygon points="280,156 280,156 278,153 276,151 274,150 271,148 269,147 266,147 263,146 260,146 260,148 263,149 265,149 268,150 270,151 273,152 275,153 276,155 278,157 278,157" fill="#1f1a17" stroke="none" stroke-width="0" fill-rule="evenodd"/>
      <polygon points="277,169 277,169 279,168 280,166 281,164 282,162 282,160 282,159 281,157 281,155 279,156 279,158 279,159 280,160 279,162 279,163 278,165 277,166 276,166 276,166" fill="#1f1a17" stroke="none" stroke-width="0" fill-rule="evenodd"/>
      <polygon points="266,171 267,172 276,169 275,166 267,169 266,171 266,171 267,172 267,172" fill="#1f1a17" stroke="none" stroke-width="0" fill-rule="evenodd"/>
      <polygon points="229,138 229,138 267,173 269,171 231,136 229,138" fill="#1f1a17" stroke="none" stroke-width="0" fill-rule="evenodd"/>
      <polygon points="166,215 169,217 172,218 174,220 175,223 177,226 177,228 178,231 178,234 178,240 177,246 176,252 175,257 178,258 181,258 184,258 187,258 194,256 201,255 209,255 216,254 223,253 230,253 237,252 244,252 245,252 246,252 247,252 247,251 247,249 247,247 247,246 246,244 245,242 244,240 243,239 242,238 240,238 238,237 236,237 235,237 232,238 229,239 224,242 219,245 215,246 211,247 207,248 202,249 198,250 193,250 189,250 185,249 184,249 184,249 183,248 183,247 182,245 182,242 183,239 183,236 184,233 185,231 186,228 188,226 189,219 193,205 197,192 199,186 166,215" fill="#917c68" stroke="none" stroke-width="0" fill-rule="evenodd"/>
      <polygon points="175,256 176,257 177,252 178,246 179,240 179,233 179,229 178,227 177,224 176,222 174,219 172,217 169,215 166,214 165,216 168,217 170,219 172,221 174,223 175,225 176,227 176,230 176,233 176,239 175,245 174,251 173,257 174,258 173,257 173,258 174,258" fill="#1f1a17" stroke="none" stroke-width="0" fill-rule="evenodd"/>
      <polygon points="186,256 186,256 183,257 180,257 177,257 175,256 174,258 177,259 180,259 183,259 186,258 186,258" fill="#1f1a17" stroke="none" stroke-width="0" fill-rule="evenodd"/>
      <polygon points="244,250 244,250 237,250 230,251 222,251 214,252 207,253 200,254 193,254 186,256 186,258 193,257 200,256 208,255 216,254 223,254 230,253 237,253 244,252 244,252" fill="#1f1a17" stroke="none" stroke-width="0" fill-rule="evenodd"/>
      <polygon points="244,250 244,250 244,250 244,250 244,250 243,250 243,253 244,253 245,253 246,252 247,250 247,251" fill="#1f1a17" stroke="none" stroke-width="0" fill-rule="evenodd"/>
      <polygon points="241,239 241,239 242,240 243,241 244,242 245,244 245,246 245,248 245,249 245,250 248,251 248,249 248,247 247,245 247,243 246,241 245,239 244,238 242,237 242,237" fill="#1f1a17" stroke="none" stroke-width="0" fill-rule="evenodd"/>
      <polygon points="218,245 218,245 223,242 229,239 231,238 234,238 235,238 237,238 238,238 240,239 241,237 239,236 237,235 235,235 233,235 230,236 227,237 222,240 217,243 217,243" fill="#1f1a17" stroke="none" stroke-width="0" fill-rule="evenodd"/>
      <polygon points="185,251 185,251 189,251 194,251 198,251 202,250 206,250 210,249 214,247 218,246 217,244 213,245 209,246 206,247 202,248 198,249 194,249 189,249 185,248 185,248" fill="#1f1a17" stroke="none" stroke-width="0" fill-rule="evenodd"/>
      <polygon points="180,247 180,247 181,248 181,249 182,250 184,250 184,247 184,247 183,247 183,246 183,246 183,246" fill="#1f1a17" stroke="none" stroke-width="0" fill-rule="evenodd"/>
      <polygon points="188,226 186,225 184,228 183,230 182,233 181,236 180,239 180,242 180,245 180,248 183,248 183,245 183,242 183,239 183,236 184,234 185,231 186,229 188,226 185,226" fill="#1f1a17" stroke="none" stroke-width="0" fill-rule="evenodd"/>
      <polygon points="199,186 195,192 191,205 187,220 188,226 185,226 189,220 193,207 197,192 197,186" fill="#1f1a17" stroke="none" stroke-width="0" fill-rule="evenodd"/>
      <polygon points="242,82 241,81 239,80 238,80 237,81 236,82 235,83 234,85 233,86 231,94 230,98 229,108 227,120 226,130 223,141 222,146 220,151 218,156 216,161 212,170 208,181 206,183 205,186 202,188 199,191 188,198 177,205 174,207 172,209 170,212 168,214 167,217 165,220 165,223 165,226 164,231 164,236 164,241 163,246 162,248 161,251 160,253 159,255 158,257 156,259 155,260 153,263 148,265 143,267 139,269 133,270 129,272 124,274 122,276 120,277 118,279 116,281 116,282 116,283 116,284 117,284 119,285 122,286 131,287 141,288 145,288 150,290 152,290 154,291 156,292 158,293 156,295 154,296 152,297 150,297 146,297 141,297 132,296 123,295 119,294 115,293 111,293 107,291 104,290 103,289 101,287 100,286 100,284 99,282 99,280 99,278 100,277 100,275 101,273 103,271 104,269 105,268 107,266 109,265 116,259 122,254 125,252 128,249 131,246 135,242 136,240 136,239 136,238 136,236 136,234 135,233 133,232 132,231 130,229 128,226 126,224 124,221 122,218 121,216 120,212 118,209 116,203 114,196 113,188 112,181 112,175 113,168 114,164 114,161 115,158 116,155 117,152 119,149 120,146 122,144 123,141 125,139 128,137 130,135 132,133 137,131 140,129 145,127 154,124 164,120 174,116 183,113 192,110 199,108 201,107 205,106 207,104 209,103 210,101 212,99 212,97 213,94 215,83 216,73 217,68 218,63 219,58 221,53 222,51 224,48 226,45 227,43 228,42 228,42 229,41 229,41 229,40 229,40 228,38 227,36 227,33 227,31 228,28 228,26 229,23 230,21 231,18 232,16 233,14 235,13 236,12 237,11 238,11 240,11 241,13 242,15 243,17 243,20 245,26 246,32 246,33 246,35 247,35 248,36 249,37 249,37 254,38 258,39 262,40 267,41 270,43 275,45 279,48 282,50 286,53 289,55 292,58 296,61 298,64 301,67 304,70 306,74 307,75 308,77 309,78 309,80 309,81 309,83 308,84 308,86 307,87 306,88 305,90 304,91 303,92 301,92 299,93 298,93 296,93 294,94 292,93 289,93 285,92 281,91 279,90 277,89 275,88 273,86 271,85 270,83 269,81 268,80 265,82 262,83 259,85 255,86 254,86 252,86 250,86 249,85 247,85 245,84 244,83 242,82" fill="#c5a284" stroke="none" stroke-width="0" fill-rule="evenodd"/>
      <polygon points="232,99 232,99 233,96 235,88 236,86 237,85 238,84 239,83 239,82 240,82 241,83 242,84 244,82 242,81 241,80 239,80 237,81 236,82 235,83 234,85 233,87 231,95 230,99 230,99" fill="#1f1a17" stroke="none" stroke-width="0" fill-rule="evenodd"/>
      <polygon points="226,142 226,142 228,132 229,121 231,110 232,99 230,99 228,110 227,121 225,131 223,141 223,141" fill="#1f1a17" stroke="none" stroke-width="0" fill-rule="evenodd"/>
      <polygon points="210,182 210,182 213,172 218,162 220,156 222,151 223,146 225,141 222,140 221,145 219,150 217,155 216,160 211,171 207,181 207,181" fill="#1f1a17" stroke="none" stroke-width="0" fill-rule="evenodd"/>
      <polygon points="201,192 201,192 204,190 206,188 207,185 209,182 206,181 205,184 204,186 202,188 200,190 200,190" fill="#1f1a17" stroke="none" stroke-width="0" fill-rule="evenodd"/>
      <polygon points="166,227 166,227 166,224 167,221 168,218 169,216 171,213 173,212 175,209 177,206 190,199 201,192 200,190 188,197 176,205 173,206 171,210 169,212 167,215 166,217 164,220 163,224 163,227 163,227" fill="#1f1a17" stroke="none" stroke-width="0" fill-rule="evenodd"/>
      <polygon points="154,264 154,264 157,262 159,261 160,259 161,257 163,254 164,252 164,250 165,247 166,241 166,236 167,231 167,226 164,226 164,231 164,236 163,241 163,247 162,249 161,251 160,253 160,255 158,257 157,259 155,260 153,262 153,262" fill="#1f1a17" stroke="none" stroke-width="0" fill-rule="evenodd"/>
      <polygon points="119,282 119,282 121,280 122,278 124,277 126,276 131,274 135,272 141,270 146,268 150,267 155,264 154,262 149,264 145,266 140,268 134,269 130,271 125,274 123,275 121,277 119,278 117,280 117,280" fill="#1f1a17" stroke="none" stroke-width="0" fill-rule="evenodd"/>
      <polygon points="123,285 123,285 121,285 119,284 119,284 118,284 118,283 119,283 117,281 116,283 116,284 117,285 118,286 120,287 123,288 123,288" fill="#1f1a17" stroke="none" stroke-width="0" fill-rule="evenodd"/>
      <polygon points="160,295 160,293 158,292 156,290 154,290 151,289 147,288 143,287 132,286 123,285 123,288 132,289 141,290 147,290 151,291 153,292 155,293 157,294 158,295 158,293 160,295 161,294 160,293" fill="#1f1a17" stroke="none" stroke-width="0" fill-rule="evenodd"/>
      <polygon points="142,299 142,299 147,299 151,299 153,299 156,298 158,297 160,295 158,293 156,294 155,295 153,296 151,296 147,297 142,296 142,296" fill="#1f1a17" stroke="none" stroke-width="0" fill-rule="evenodd"/>
      <polygon points="107,292 107,292 111,294 115,295 119,295 124,296 132,297 141,298 141,295 132,294 124,294 120,293 116,292 112,291 108,290 108,290" fill="#1f1a17" stroke="none" stroke-width="0" fill-rule="evenodd"/>
      <polygon points="109,264 109,264 107,265 105,267 104,269 102,270 101,272 100,274 100,276 99,278 99,280 99,282 99,284 100,286 101,288 103,289 105,291 107,292 108,290 106,289 104,288 103,286 102,285 102,284 102,282 101,280 102,279 102,277 102,275 103,273 104,272 106,270 107,269 108,267 110,266 110,266" fill="#1f1a17" stroke="none" stroke-width="0" fill-rule="evenodd"/>
      <polygon points="134,241 134,241 131,245 128,248 125,251 123,253 116,258 109,263 110,265 118,260 124,255 127,253 130,250 133,246 136,242 136,242" fill="#1f1a17" stroke="none" stroke-width="0" fill-rule="evenodd"/>
      <polygon points="134,232 134,232 135,232 135,233 136,235 136,236 137,237 136,239 136,240 136,241 138,242 139,241 139,239 139,237 139,236 138,234 138,232 137,231 136,230 136,230" fill="#1f1a17" stroke="none" stroke-width="0" fill-rule="evenodd"/>
      <polygon points="130,133 130,133 128,135 125,137 123,140 122,142 120,145 118,148 117,151 116,154 115,157 114,160 113,163 113,167 112,174 112,181 113,189 114,196 116,203 118,209 119,212 121,215 122,219 124,221 126,224 128,227 130,229 132,231 134,229 132,227 130,225 128,222 126,220 125,217 123,214 121,211 120,208 118,202 116,195 115,189 115,181 115,174 115,167 116,164 117,161 117,158 118,155 119,152 121,149 122,146 124,144 125,141 127,139 129,137 131,135 131,135" fill="#1f1a17" stroke="none" stroke-width="0" fill-rule="evenodd"/>
      <polygon points="199,108 199,108 193,111 184,113 175,116 164,119 153,123 144,126 140,128 136,130 133,132 130,134 132,136 134,134 137,132 141,131 145,129 154,125 164,122 175,119 185,116 194,113 200,110 200,110" fill="#1f1a17" stroke="none" stroke-width="0" fill-rule="evenodd"/>
      <polygon points="213,93 213,93 212,96 211,98 210,100 209,101 208,103 205,104 203,105 200,107 201,109 204,108 207,106 209,105 211,103 212,101 213,99 214,97 215,93 215,93" fill="#1f1a17" stroke="none" stroke-width="0" fill-rule="evenodd"/>
      <polygon points="221,52 221,52 219,57 218,62 217,67 216,72 214,84 213,94 215,94 217,84 218,74 219,68 220,62 222,58 223,53 223,53" fill="#1f1a17" stroke="none" stroke-width="0" fill-rule="evenodd"/>
      <polygon points="228,43 227,43 225,45 223,48 221,51 220,53 222,54 223,52 225,49 227,47 229,45 229,46" fill="#1f1a17" stroke="none" stroke-width="0" fill-rule="evenodd"/>
      <polygon points="229,41 228,41 228,41 228,42 228,42 228,42 228,42 228,42 229,45 230,44 230,44 231,43 231,42 231,41 231,40 231,40" fill="#1f1a17" stroke="none" stroke-width="0" fill-rule="evenodd"/>
      <polygon points="241,11 241,11 239,10 238,10 236,11 234,12 233,14 232,15 231,18 229,20 229,23 228,26 227,29 227,31 227,34 227,36 228,39 229,41 230,40 230,38 229,36 229,34 229,32 230,29 230,26 231,24 232,21 233,19 234,17 235,15 236,14 237,13 238,12 239,12 239,13 239,13" fill="#1f1a17" stroke="none" stroke-width="0" fill-rule="evenodd"/>
      <polygon points="248,33 248,33 247,26 246,20 245,17 244,15 243,13 242,11 240,13 241,14 242,16 243,18 243,21 244,27 246,33 246,33" fill="#1f1a17" stroke="none" stroke-width="0" fill-rule="evenodd"/>
      <polygon points="251,36 251,36 251,36 249,35 249,35 249,34 248,33 248,32 246,32 246,34 246,35 247,37 248,38 249,38 250,39 250,39" fill="#1f1a17" stroke="none" stroke-width="0" fill-rule="evenodd"/>
      <polygon points="309,74 309,74 306,70 304,67 301,64 298,61 295,58 292,54 288,52 285,49 281,47 277,45 273,43 269,41 264,40 260,39 256,38 251,37 251,40 255,40 260,41 264,42 268,44 271,45 275,47 279,49 283,51 287,53 290,57 293,60 296,62 299,66 302,68 305,72 307,75 307,75" fill="#1f1a17" stroke="none" stroke-width="0" fill-rule="evenodd"/>
      <polygon points="299,95 299,95 300,95 302,94 304,93 305,92 307,91 308,90 309,88 310,87 310,86 311,84 311,82 311,81 311,79 310,77 310,76 308,74 306,75 307,77 308,78 308,79 309,81 309,82 308,83 308,85 307,86 307,87 306,88 305,89 304,90 303,91 301,92 300,92 298,93 298,93" fill="#1f1a17" stroke="none" stroke-width="0" fill-rule="evenodd"/>
      <polygon points="271,82 269,81 270,83 271,85 272,87 274,88 276,90 278,91 280,92 282,93 286,95 290,96 293,96 295,96 297,96 299,95 298,93 297,93 295,93 293,93 291,93 287,92 283,91 281,90 279,89 277,88 276,87 274,85 273,84 272,82 271,80 269,80 271,80 271,79 269,80" fill="#1f1a17" stroke="none" stroke-width="0" fill-rule="evenodd"/>
      <polygon points="243,83 243,83 245,84 246,85 248,86 250,87 252,87 253,87 255,87 257,87 261,86 264,85 267,83 270,81 268,79 266,81 263,82 260,84 257,85 255,85 253,85 252,85 251,84 249,84 248,83 246,82 245,81 245,81" fill="#1f1a17" stroke="none" stroke-width="0" fill-rule="evenodd"/>
      <polygon points="165,203 168,205 170,207 173,209 176,211 178,214 180,216 182,219 183,222 184,225 185,228 185,231 186,233 187,239 187,246 186,252 185,258 183,264 181,269 182,270 183,271 189,271 196,270 202,270 209,270 215,270 222,270 229,271 235,272 242,273 248,276 251,276 254,277 258,277 261,277 262,276 264,275 265,274 265,273 265,273 266,272 267,272 267,271 268,269 268,268 269,266 269,264 268,262 267,260 266,258 264,257 262,255 259,255 256,254 252,254 249,254 246,255 239,256 233,257 226,258 219,259 212,260 205,260 204,260 202,260 201,260 201,259 200,259 200,258 199,252 198,247 198,240 198,234 199,232 200,228 201,225 203,220 208,211 212,202 214,197 216,192 218,187 219,181 219,179 219,177 219,175 218,172 218,170 216,169 215,167 214,165 213,162 211,160 209,158 207,156 205,155 202,153 200,152 197,151 195,151 192,150 189,150 186,150 184,151 181,151 179,153 176,154 174,156 171,160 170,162 169,163 168,165 168,167 165,203" fill="#c5a284" stroke="none" stroke-width="0" fill-rule="evenodd"/>
      <polygon points="184,222 184,222 182,219 181,216 179,213 176,211 174,208 171,206 168,204 165,202 164,204 167,206 169,208 172,210 174,212 177,215 179,218 180,220 182,223 182,223" fill="#1f1a17" stroke="none" stroke-width="0" fill-rule="evenodd"/>
      <polygon points="182,269 182,269 184,263 186,257 187,252 188,246 188,239 187,233 187,230 186,227 185,224 184,221 182,222 183,225 184,227 184,230 185,233 185,239 185,244 185,251 184,257 182,263 180,268 180,268" fill="#1f1a17" stroke="none" stroke-width="0" fill-rule="evenodd"/>
      <polygon points="183,270 183,270 183,269 182,270 180,269 181,271 183,272 183,272" fill="#1f1a17" stroke="none" stroke-width="0" fill-rule="evenodd"/>
      <polygon points="236,271 236,271 229,270 223,269 216,269 210,269 202,269 196,269 189,269 183,270 183,272 189,272 196,271 202,271 210,271 216,271 222,271 229,272 235,273 235,273" fill="#1f1a17" stroke="none" stroke-width="0" fill-rule="evenodd"/>
      <polygon points="262,275 262,275 258,276 255,275 252,275 249,274 242,272 236,270 235,273 242,274 248,276 251,277 255,278 258,278 262,278 262,278" fill="#1f1a17" stroke="none" stroke-width="0" fill-rule="evenodd"/>
      <polygon points="265,272 265,273 264,274 264,275 263,275 262,275 262,278 264,277 265,276 266,275 267,273 266,275 265,272 265,272 265,273" fill="#1f1a17" stroke="none" stroke-width="0" fill-rule="evenodd"/>
      <polygon points="268,267 268,267 267,268 267,270 266,271 266,271 265,271 265,272 266,274 267,273 268,273 268,272 269,271 269,269 270,268 270,268" fill="#1f1a17" stroke="none" stroke-width="0" fill-rule="evenodd"/>
      <polygon points="259,255 259,255 262,255 264,256 265,257 267,259 268,261 268,263 268,264 268,266 270,267 271,265 271,262 270,260 269,258 267,256 265,254 262,253 259,252 259,252" fill="#1f1a17" stroke="none" stroke-width="0" fill-rule="evenodd"/>
      <polygon points="205,261 205,261 212,261 218,260 225,259 233,257 239,256 246,255 249,255 252,255 255,255 259,255 259,252 255,252 252,252 249,252 246,252 239,253 231,255 225,256 218,257 211,258 205,259 205,259" fill="#1f1a17" stroke="none" stroke-width="0" fill-rule="evenodd"/>
      <polygon points="199,257 199,257 200,258 200,259 201,259 202,260 204,260 206,260 206,258 204,258 203,257 202,257 202,257 202,257 201,256 201,256" fill="#1f1a17" stroke="none" stroke-width="0" fill-rule="evenodd"/>
      <polygon points="197,234 197,234 196,240 196,246 197,251 198,257 200,256 199,251 198,246 198,240 199,234 199,234" fill="#1f1a17" stroke="none" stroke-width="0" fill-rule="evenodd"/>
      <polygon points="214,165 214,165 215,167 216,169 217,171 217,173 217,175 218,177 218,179 217,181 217,186 216,190 214,195 212,201 208,211 203,220 202,224 200,227 199,231 198,234 201,234 201,231 202,228 204,225 206,221 210,212 214,202 216,196 218,191 219,186 220,181 220,179 220,177 220,174 220,172 219,170 218,168 217,166 216,164 216,164" fill="#1f1a17" stroke="none" stroke-width="0" fill-rule="evenodd"/>
      <polygon points="176,156 176,156 179,154 181,153 184,152 186,152 189,152 191,152 194,152 198,153 200,154 202,155 205,156 207,158 209,159 211,161 212,164 214,166 216,165 214,162 213,160 211,158 209,156 206,154 204,153 201,151 198,150 196,150 192,149 189,149 186,149 183,150 180,151 178,152 175,153 175,153" fill="#1f1a17" stroke="none" stroke-width="0" fill-rule="evenodd"/>
      <polygon points="169,167 169,165 170,164 171,162 172,161 175,157 177,155 176,153 173,156 170,159 168,161 167,163 167,165 167,167" fill="#1f1a17" stroke="none" stroke-width="0" fill-rule="evenodd"/>
      <polygon points="246,264 249,263 251,263 253,263 255,263 257,264 259,266 262,267 264,270 264,271 265,271 265,272 265,273 246,264" fill="#c5a284" stroke="none" stroke-width="0" fill-rule="evenodd"/>
      <polygon points="265,269 265,269 263,267 260,265 258,263 256,262 253,262 251,262 249,263 246,263 247,266 249,265 251,265 253,265 255,265 257,266 259,267 261,268 263,271 263,271" fill="#1f1a17" stroke="none" stroke-width="0" fill-rule="evenodd"/>
      <polygon points="266,273 266,272 266,271 265,270 264,269 262,270 263,271 263,272 263,272 263,273" fill="#1f1a17" stroke="none" stroke-width="0" fill-rule="evenodd"/>
      <polygon points="212,123 213,126 214,129 215,131 216,134 218,136 220,139 222,140 224,143 229,146 234,150 240,153 246,158 248,160 251,162 253,164 255,166 256,167 257,169 257,170 257,171 256,175 255,178 255,179 255,181 255,182 256,183 257,184 257,185 259,186 260,186 261,187 262,187 263,187 265,187 266,187 268,186 269,185 270,185 272,183 273,181 274,179 275,176 275,174 275,172 274,169 272,167 271,166 270,164 268,163 266,162 263,161 260,159 257,156 254,152 248,147 242,143 239,141 236,139 234,137 231,134 229,131 226,128 225,125 223,122 212,123" fill="#c5a284" stroke="none" stroke-width="0" fill-rule="evenodd"/>
      <polygon points="217,134 217,133 215,132 214,129 214,127 213,124 211,124 211,127 212,130 213,132 215,135 215,135" fill="#1f1a17" stroke="none" stroke-width="0" fill-rule="evenodd"/>
      <polygon points="256,164 256,164 254,162 251,160 249,158 246,156 241,152 236,149 230,145 225,142 223,139 221,137 219,135 217,133 215,134 217,137 219,139 221,141 224,144 229,147 234,151 240,154 245,158 247,160 250,162 252,164 254,166 254,166" fill="#1f1a17" stroke="none" stroke-width="0" fill-rule="evenodd"/>
      <polygon points="256,178 256,178 257,175 257,172 257,170 257,168 256,166 255,165 253,167 254,168 254,169 254,170 254,171 254,174 253,177 253,177" fill="#1f1a17" stroke="none" stroke-width="0" fill-rule="evenodd"/>
      <polygon points="269,183 269,183 268,184 267,185 266,185 265,185 263,185 263,185 261,185 260,185 259,184 258,183 258,183 257,182 257,181 256,180 256,179 257,178 254,177 254,179 254,180 254,182 255,183 256,184 257,185 258,186 259,187 261,188 262,188 263,188 265,188 267,188 268,187 270,186 271,185 271,185" fill="#1f1a17" stroke="none" stroke-width="0" fill-rule="evenodd"/>
      <polygon points="271,168 271,168 273,169 273,172 273,174 273,176 273,178 272,180 271,181 269,183 271,185 273,183 274,181 275,178 276,176 276,173 276,171 275,168 273,166 273,166" fill="#1f1a17" stroke="none" stroke-width="0" fill-rule="evenodd"/>
      <polygon points="258,159 258,159 261,161 265,163 266,164 268,165 269,167 270,168 272,166 271,165 269,163 268,162 266,161 263,159 259,157 259,157" fill="#1f1a17" stroke="none" stroke-width="0" fill-rule="evenodd"/>
      <polygon points="253,153 253,153 256,156 259,159 260,157 258,154 254,151 255,151" fill="#1f1a17" stroke="none" stroke-width="0" fill-rule="evenodd"/>
      <polygon points="230,136 230,136 233,138 235,141 238,143 241,145 247,149 252,153 254,151 248,147 242,143 240,141 237,139 234,136 232,134 232,134" fill="#1f1a17" stroke="none" stroke-width="0" fill-rule="evenodd"/>
      <polygon points="222,122 224,126 226,129 227,132 230,135 232,133 230,130 227,128 226,124 225,121" fill="#1f1a17" stroke="none" stroke-width="0" fill-rule="evenodd"/>
      <polygon points="265,177 265,178 265,180 265,182 264,184 262,185 260,186 265,177" fill="#c5a284" stroke="none" stroke-width="0" fill-rule="evenodd"/>
      <polygon points="261,187 264,186 265,184 266,182 267,180 267,177 267,176 265,177 265,177 265,180 264,181 264,182 262,183 260,185" fill="#1f1a17" stroke="none" stroke-width="0" fill-rule="evenodd"/>
      <polygon points="275,74 275,74 270,78 268,80 270,81 272,80 277,76 277,76" fill="#1f1a17" stroke="none" stroke-width="0" fill-rule="evenodd"/>
      <polygon points="276,69 276,70 276,72 276,73 275,74 277,76 279,74 279,72 279,70 279,68" fill="#1f1a17" stroke="none" stroke-width="0" fill-rule="evenodd"/>
      <polygon points="284,81 284,83 285,85 285,87 286,89 288,91 290,93 294,95 296,96 297,94 295,93 291,91 290,89 288,87 287,86 287,84 286,83 286,81" fill="#1f1a17" stroke="none" stroke-width="0" fill-rule="evenodd"/>
      <polygon points="256,56 254,57 253,57 251,57 250,56 250,55 249,55 249,54 249,53 250,51 250,50 251,49 252,48 253,47 254,46 255,46 256,45 257,45 258,45 259,45 260,46 261,47 261,48 261,49 261,50 260,52 259,54 257,55 256,56" fill="#1f1a17" stroke="none" stroke-width="0" fill-rule="evenodd"/>
      <polygon points="250,58 250,58 252,59 253,59 255,59 257,58 256,56 254,56 253,57 252,57 252,56 252,56" fill="#1f1a17" stroke="none" stroke-width="0" fill-rule="evenodd"/>
      <polygon points="251,47 251,47 250,48 250,50 249,51 249,52 249,54 249,55 250,56 250,57 252,55 251,55 251,54 251,53 251,53 251,52 252,51 252,50 253,49 253,49" fill="#1f1a17" stroke="none" stroke-width="0" fill-rule="evenodd"/>
      <polygon points="261,44 261,44 260,44 258,43 257,43 256,43 255,44 253,45 252,46 251,46 253,48 254,47 255,46 256,46 256,46 257,46 258,46 259,46 259,46 259,46" fill="#1f1a17" stroke="none" stroke-width="0" fill-rule="evenodd"/>
      <polygon points="261,50 263,51 263,49 263,48 263,46 262,45 260,47 261,47 261,48 261,49 260,50 263,51" fill="#1f1a17" stroke="none" stroke-width="0" fill-rule="evenodd"/>
      <polygon points="260,54 258,53 261,52 260,50 262,51 259,51 260,54 258,53" fill="#1f1a17" stroke="none" stroke-width="0" fill-rule="evenodd"/>
      <polygon points="257,57 257,57 259,56 261,54 259,53 258,54 256,55 256,55" fill="#1f1a17" stroke="none" stroke-width="0" fill-rule="evenodd"/>
      <rect x="2" y="239" width="81" height="61" fill="none" stroke="none" stroke-width="0"/>
    </g>
  </g>
</svg>