<svg shape-rendering="geometricPrecision" xmlns="http://www.w3.org/2000/svg" xmlns:mdcr="http://sensory.com/mdcr" viewBox="0 0 400 302" preserveAspectRatio="none">
  <style>polygon,polyline,line,path{stroke-linejoin:round;stroke-linecap:round}</style>
  <metadata>
    <mdcr:info xmlns:mdcr="http://sensory.com/mdcr">
      <mdcr:source format="WMF" generator="wmf2svg.html"/>
      <mdcr:bounds left="0" top="0" right="6000" bottom="4530" inch="1440"/>
      <mdcr:records count="7">
        <mdcr:record tag="MDCR-{"/>
        <mdcr:record tag="MDCR-{"/>
        <mdcr:record tag="MDCR-}"/>
        <mdcr:record tag="MDCR-V" region="0" layer="0" extra="| 0|-" value=" 0| 0|| 0|-"/>
        <mdcr:record tag="MDCR-VF" region="1" layer="0" file="\Resources\Wav\LION1.WAV" value=" 1| 0|\Resources\Wav\LION1.WAV"/>
        <mdcr:record tag="MDCR-S"/>
        <mdcr:record tag="MDCR-}"/>
      </mdcr:records>
    </mdcr:info>
  </metadata>
  <g data-mdcr="group" class="mdcr-region">
    <g data-mdcr="group" class="mdcr-region" data-mdcr-region="1" data-mdcr-layer="0" data-mdcr-extra="| 0|-" data-mdcr-tag="MDCR-VF" data-mdcr-value=" 1| 0|\Resources\Wav\LION1.WAV" data-mdcr-sound="\Resources\Wav\LION1.WAV">
      <polygon points="267,241 270,240 274,239 276,237 280,235 286,229 291,221 296,214 299,204 300,196 300,187 307,188 310,187 311,197 310,207 309,216 306,226 303,234 298,243 296,246 292,250 288,252 285,256 279,259 272,262 268,263 265,264 260,265 255,265 267,241" fill="#fcdb00" stroke="none" stroke-width="0" fill-rule="evenodd"/>
      <polygon points="304,186 299,189 299,196 298,204 294,213 291,220 286,227 280,233 278,235 274,236 272,238 268,238 269,245 273,244 276,242 280,241 284,238 289,231 295,224 300,215 303,206 305,197 305,188 300,190" fill="#1f1a17" stroke="none" stroke-width="0" fill-rule="evenodd"/>
      <polygon points="313,188 313,188 307,185 303,186 299,190 307,192 308,189 308,189" fill="#1f1a17" stroke="none" stroke-width="0" fill-rule="evenodd"/>
      <polygon points="288,259 288,259 291,256 295,253 298,249 302,245 307,237 310,227 314,218 315,208 315,198 315,188 309,189 309,198 309,208 308,216 305,226 302,233 297,241 294,244 291,248 288,250 284,253 284,253" fill="#1f1a17" stroke="none" stroke-width="0" fill-rule="evenodd"/>
      <polygon points="252,265 255,269 260,269 264,269 268,268 273,266 279,264 286,259 282,253 276,257 270,260 267,262 263,262 260,263 255,263 257,267 252,265 250,269 255,269" fill="#1f1a17" stroke="none" stroke-width="0" fill-rule="evenodd"/>
      <polygon points="267,238 266,240 254,263 259,266 271,243 267,238 267,238 267,239 266,240" fill="#1f1a17" stroke="none" stroke-width="0" fill-rule="evenodd"/>
      <polygon points="305,156 314,152 314,161 324,165 320,170 324,180 318,183 320,195 312,190 305,199 303,191 294,194 295,185 285,182 290,177 284,173 290,166 285,158 294,158 299,149 305,156" fill="#ea891c" stroke="none" stroke-width="0" fill-rule="evenodd"/>
      <polygon points="317,153 313,150 304,154 305,160 315,156 317,153 317,153 317,149 313,150" fill="#1f1a17" stroke="none" stroke-width="0" fill-rule="evenodd"/>
      <polygon points="312,165 316,162 316,153 310,153 310,162 312,165 310,162 310,164 312,165" fill="#1f1a17" stroke="none" stroke-width="0" fill-rule="evenodd"/>
      <polygon points="327,167 324,162 314,159 313,165 323,168 327,167 327,167 329,164 324,162" fill="#1f1a17" stroke="none" stroke-width="0" fill-rule="evenodd"/>
      <polygon points="318,172 323,173 327,167 322,164 318,169 318,172 318,169 317,171 318,172" fill="#1f1a17" stroke="none" stroke-width="0" fill-rule="evenodd"/>
      <polygon points="325,183 326,179 322,169 317,172 321,181 325,183 325,183 327,182 326,179" fill="#1f1a17" stroke="none" stroke-width="0" fill-rule="evenodd"/>
      <polygon points="314,183 318,186 324,183 322,177 315,180 314,183 315,180 314,181 314,183" fill="#1f1a17" stroke="none" stroke-width="0" fill-rule="evenodd"/>
      <polygon points="318,197 323,194 320,182 314,183 317,195 318,197 318,197 324,200 323,194" fill="#1f1a17" stroke="none" stroke-width="0" fill-rule="evenodd"/>
      <polygon points="311,189 312,194 320,197 322,191 315,188 311,189 315,188 312,187 311,189" fill="#1f1a17" stroke="none" stroke-width="0" fill-rule="evenodd"/>
      <polygon points="303,200 308,201 315,193 311,189 304,197 303,200 303,200 304,205 308,201" fill="#1f1a17" stroke="none" stroke-width="0" fill-rule="evenodd"/>
      <polygon points="303,188 301,192 303,200 308,198 306,190 303,188 306,190 306,187 303,188" fill="#1f1a17" stroke="none" stroke-width="0" fill-rule="evenodd"/>
      <polygon points="292,193 296,197 304,195 303,188 295,191 292,193 292,193 291,198 296,197" fill="#1f1a17" stroke="none" stroke-width="0" fill-rule="evenodd"/>
      <polygon points="296,183 292,186 291,193 297,194 298,186 296,183 298,186 298,184 296,183" fill="#1f1a17" stroke="none" stroke-width="0" fill-rule="evenodd"/>
      <polygon points="284,180 285,185 295,189 296,183 287,179 284,180 284,180 280,183 285,185" fill="#1f1a17" stroke="none" stroke-width="0" fill-rule="evenodd"/>
      <polygon points="291,176 288,176 284,180 288,185 291,181 291,176 291,181 295,178 291,176" fill="#1f1a17" stroke="none" stroke-width="0" fill-rule="evenodd"/>
      <polygon points="281,171 282,176 288,180 292,175 286,171 281,171 281,171 280,173 282,176" fill="#1f1a17" stroke="none" stroke-width="0" fill-rule="evenodd"/>
      <polygon points="292,165 287,165 281,171 286,175 292,169 292,165 292,169 293,167 292,165" fill="#1f1a17" stroke="none" stroke-width="0" fill-rule="evenodd"/>
      <polygon points="285,155 284,160 287,168 292,165 287,157 285,155 285,155 280,154 284,160" fill="#1f1a17" stroke="none" stroke-width="0" fill-rule="evenodd"/>
      <polygon points="297,161 295,157 286,156 286,162 295,163 297,161 295,163 296,163 297,161" fill="#1f1a17" stroke="none" stroke-width="0" fill-rule="evenodd"/>
      <polygon points="300,147 294,148 290,158 295,161 300,152 300,147 300,147 296,144 294,148" fill="#1f1a17" stroke="none" stroke-width="0" fill-rule="evenodd"/>
      <polygon points="306,160 307,155 301,147 296,151 302,159 306,160 302,159 303,161 306,160" fill="#1f1a17" stroke="none" stroke-width="0" fill-rule="evenodd"/>
      <polygon points="131,177 131,198 128,197 124,197 122,197 118,198 116,199 113,201 112,203 111,206 108,211 107,217 106,223 107,229 108,238 111,248 114,257 120,265 122,269 125,272 129,275 132,276 136,278 141,279 144,278 149,277 231,277 236,278 240,279 244,278 248,276 251,275 255,272 258,269 261,265 266,257 269,248 272,238 274,229 274,223 274,217 273,211 270,206 269,203 267,201 264,199 262,198 260,197 256,197 252,197 249,198 249,177 131,177" fill="#fcdb00" stroke="none" stroke-width="0" fill-rule="evenodd"/>
      <polygon points="131,201 135,198 135,177 129,177 129,198 131,201 131,201 135,202 135,198" fill="#1f1a17" stroke="none" stroke-width="0" fill-rule="evenodd"/>
      <polygon points="109,228 109,228 109,223 109,218 110,213 113,208 114,206 116,204 118,203 119,202 121,201 125,201 127,201 131,202 132,196 128,194 125,194 121,194 118,196 114,197 113,199 110,202 108,204 105,210 104,216 103,223 104,229 104,229" fill="#1f1a17" stroke="none" stroke-width="0" fill-rule="evenodd"/>
      <polygon points="150,273 150,273 145,275 141,275 137,274 133,273 131,272 127,269 124,266 122,263 118,255 114,246 111,237 109,228 104,229 105,238 109,249 112,258 118,266 120,271 124,274 127,277 132,279 135,281 140,281 146,281 151,279 150,280" fill="#1f1a17" stroke="none" stroke-width="0" fill-rule="evenodd"/>
      <polygon points="232,274 231,274 150,274 150,281 231,281 232,274" fill="#1f1a17" stroke="none" stroke-width="0" fill-rule="evenodd"/>
      <polygon points="271,228 271,228 269,237 266,246 263,255 258,263 257,266 253,269 249,272 247,273 243,274 240,275 236,275 231,273 230,279 235,281 240,281 245,281 249,279 253,277 257,274 260,271 263,266 268,258 271,249 275,238 276,229 276,229" fill="#1f1a17" stroke="none" stroke-width="0" fill-rule="evenodd"/>
      <polygon points="247,198 251,202 254,201 257,201 259,201 261,202 264,203 266,204 267,206 268,208 271,213 272,218 272,223 272,228 277,229 278,223 277,216 276,210 273,204 271,202 270,199 266,197 264,196 260,194 257,194 253,194 248,196 253,198 247,198 247,203 251,202" fill="#1f1a17" stroke="none" stroke-width="0" fill-rule="evenodd"/>
      <polygon points="249,175 246,178 246,198 251,198 251,178 249,175 251,178 251,175 249,175" fill="#1f1a17" stroke="none" stroke-width="0" fill-rule="evenodd"/>
      <polygon points="128,177 132,180 248,180 248,174 132,174 128,177 132,174 128,174 128,177" fill="#1f1a17" stroke="none" stroke-width="0" fill-rule="evenodd"/>
      <polygon points="239,35 241,31 243,26 243,20 243,14 232,26 221,35 220,32 220,28 221,26 222,22 223,16 226,10 221,12 216,15 213,20 209,24 205,28 202,31 201,32 199,32 198,31 196,29 192,21 187,10 181,20 178,30 174,23 170,17 166,11 161,5 161,13 160,20 157,27 157,35 149,33 139,33 130,32 121,33 130,39 139,45 134,44 131,44 127,45 122,45 119,47 115,48 112,49 107,48 112,51 116,53 121,57 125,61 121,61 119,63 115,64 112,67 107,73 103,79 109,78 116,75 112,84 106,93 101,100 96,109 100,109 103,107 106,106 109,104 107,112 102,120 101,124 100,128 98,132 98,137 101,134 103,131 106,129 109,127 107,135 104,143 103,147 103,151 106,155 107,160 110,152 114,144 114,155 114,165 115,170 116,175 119,180 121,185 125,176 130,167 131,175 131,183 131,186 133,190 134,193 137,197 140,192 142,187 145,184 149,180 151,193 156,206 157,199 160,194 161,188 163,183 166,191 168,199 170,205 170,209 176,203 185,192 187,204 192,210 202,197 208,205 211,213 213,207 214,201 216,196 219,190 226,199 232,208 232,204 233,200 234,197 235,194 239,188 244,184 247,186 252,190 252,184 253,179 255,173 257,167 257,170 257,172 258,173 259,175 262,179 264,183 265,179 267,174 267,170 267,166 267,158 267,149 267,152 269,154 270,155 273,155 276,156 280,157 277,153 277,149 277,144 277,139 277,135 277,130 275,126 273,122 280,124 287,127 285,119 282,112 277,106 275,99 281,99 287,99 280,88 271,79 277,78 285,75 280,69 273,61 269,58 265,56 262,54 257,53 262,43 267,33 259,33 252,34 245,35 239,35" fill="#ea891c" stroke="none" stroke-width="0" fill-rule="evenodd"/>
      <polygon points="244,17 240,16 239,20 238,25 238,29 235,34 240,37 243,32 244,27 245,21 245,15 240,13" fill="#1f1a17" stroke="none" stroke-width="0" fill-rule="evenodd"/>
      <polygon points="217,36 222,37 232,27 243,16 238,12 229,22 218,32 222,33 217,36 218,40 222,37" fill="#1f1a17" stroke="none" stroke-width="0" fill-rule="evenodd"/>
      <polygon points="223,13 221,10 220,15 216,22 216,25 215,28 215,33 216,37 221,34 221,32 221,29 221,27 222,24 226,17 227,10 223,7 227,10 227,6 223,7" fill="#1f1a17" stroke="none" stroke-width="0" fill-rule="evenodd"/>
      <polygon points="194,31 194,31 195,33 199,34 201,34 204,33 207,31 211,26 214,22 218,17 221,14 225,12 224,6 219,8 214,12 210,17 207,22 204,25 201,28 200,28 199,28 199,28 199,27 199,26" fill="#1f1a17" stroke="none" stroke-width="0" fill-rule="evenodd"/>
      <polygon points="188,13 184,12 190,23 193,31 198,27 195,20 189,8 184,8 189,8 188,5 184,8" fill="#1f1a17" stroke="none" stroke-width="0" fill-rule="evenodd"/>
      <polygon points="174,30 180,31 183,21 188,12 185,7 179,17 175,28 180,28 174,30 176,37 180,31" fill="#1f1a17" stroke="none" stroke-width="0" fill-rule="evenodd"/>
      <polygon points="164,5 158,7 163,13 168,19 171,25 174,31 180,29 176,21 173,14 168,8 163,3 158,5" fill="#1f1a17" stroke="none" stroke-width="0" fill-rule="evenodd"/>
      <polygon points="156,38 158,35 159,28 161,20 162,13 163,5 158,5 157,12 156,19 154,27 153,35 156,32 156,38 158,39 158,35" fill="#1f1a17" stroke="none" stroke-width="0" fill-rule="evenodd"/>
      <polygon points="121,30 121,36 130,35 139,36 147,36 156,38 157,32 147,31 139,29 130,29 120,30 120,36" fill="#1f1a17" stroke="none" stroke-width="0" fill-rule="evenodd"/>
      <polygon points="137,48 139,43 131,36 120,30 119,36 127,42 138,49 139,43" fill="#1f1a17" stroke="none" stroke-width="0" fill-rule="evenodd"/>
      <polygon points="107,45 106,51 110,51 115,51 118,49 123,48 127,47 129,47 134,47 137,48 139,43 134,41 129,40 126,41 121,42 117,43 114,44 110,45 106,45 105,51" fill="#1f1a17" stroke="none" stroke-width="0" fill-rule="evenodd"/>
      <polygon points="124,65 126,59 122,55 117,51 112,49 107,46 105,52 110,55 115,57 118,60 122,63 124,58 124,65 130,65 126,59" fill="#1f1a17" stroke="none" stroke-width="0" fill-rule="evenodd"/>
      <polygon points="101,75 103,80 108,74 112,69 115,66 118,65 120,64 124,64 124,57 119,58 115,59 112,61 108,64 103,70 100,76 101,81 100,76 96,80 101,81" fill="#1f1a17" stroke="none" stroke-width="0" fill-rule="evenodd"/>
      <polygon points="116,77 115,73 108,74 102,75 101,81 108,81 115,79 113,74 116,77 120,72 115,73" fill="#1f1a17" stroke="none" stroke-width="0" fill-rule="evenodd"/>
      <polygon points="95,106 97,111 102,103 108,95 113,86 118,77 113,74 108,83 103,91 97,99 92,108 95,113 92,108 90,112 95,113" fill="#1f1a17" stroke="none" stroke-width="0" fill-rule="evenodd"/>
      <polygon points="111,104 107,101 104,102 100,104 98,105 95,105 94,112 99,112 102,110 106,109 110,107 106,102 111,104 112,98 107,101" fill="#1f1a17" stroke="none" stroke-width="0" fill-rule="evenodd"/>
      <polygon points="96,135 100,136 100,133 101,129 102,125 105,122 108,113 112,105 107,103 104,111 100,118 97,123 96,127 95,132 95,137 100,139 95,137 96,145 100,139" fill="#1f1a17" stroke="none" stroke-width="0" fill-rule="evenodd"/>
      <polygon points="112,128 107,124 103,126 101,129 97,132 95,135 99,139 101,136 105,134 107,131 109,130 106,126 112,128 113,122 107,124" fill="#1f1a17" stroke="none" stroke-width="0" fill-rule="evenodd"/>
      <polygon points="104,157 107,158 106,155 106,151 106,148 106,143 107,136 111,128 106,126 102,134 100,142 100,147 100,152 101,156 104,162 107,162 104,162 106,165 107,162" fill="#1f1a17" stroke="none" stroke-width="0" fill-rule="evenodd"/>
      <polygon points="116,145 111,141 108,150 104,157 109,161 111,153 115,147 110,144 116,145 116,138 111,141" fill="#1f1a17" stroke="none" stroke-width="0" fill-rule="evenodd"/>
      <polygon points="117,184 122,185 121,180 120,175 117,171 117,166 116,155 116,146 110,145 110,156 111,167 112,172 114,177 115,182 117,188 122,189 117,188 120,192 122,189" fill="#1f1a17" stroke="none" stroke-width="0" fill-rule="evenodd"/>
      <polygon points="132,167 127,166 123,175 118,184 123,188 127,178 131,170 126,169 132,167 130,160 127,166" fill="#1f1a17" stroke="none" stroke-width="0" fill-rule="evenodd"/>
      <polygon points="133,195 138,194 135,192 134,189 133,186 133,183 133,176 132,167 126,169 127,176 127,183 128,187 130,192 132,195 134,199 139,198 134,199 138,202 139,198" fill="#1f1a17" stroke="none" stroke-width="0" fill-rule="evenodd"/>
      <polygon points="152,178 147,178 144,181 140,185 137,189 135,194 140,197 142,193 145,189 148,186 151,182 147,181 152,178 150,175 147,178" fill="#1f1a17" stroke="none" stroke-width="0" fill-rule="evenodd"/>
      <polygon points="152,205 157,203 153,192 150,178 145,181 149,194 152,208 157,207 152,208 156,212 157,207" fill="#1f1a17" stroke="none" stroke-width="0" fill-rule="evenodd"/>
      <polygon points="167,182 161,180 159,187 157,193 155,198 153,205 159,207 161,201 162,195 164,190 166,185 161,183 167,182 166,175 161,180" fill="#1f1a17" stroke="none" stroke-width="0" fill-rule="evenodd"/>
      <polygon points="168,206 173,208 172,204 171,198 168,190 166,182 161,183 162,192 165,200 166,207 167,210 172,211 167,210 168,214 172,211" fill="#1f1a17" stroke="none" stroke-width="0" fill-rule="evenodd"/>
      <polygon points="187,192 182,190 174,200 169,206 173,210 179,205 186,194 181,192" fill="#1f1a17" stroke="none" stroke-width="0" fill-rule="evenodd"/>
      <polygon points="188,209 193,209 191,203 187,193 181,193 185,206 188,213 192,214 188,213 191,217 192,214" fill="#1f1a17" stroke="none" stroke-width="0" fill-rule="evenodd"/>
      <polygon points="203,193 199,194 188,209 192,213 204,198 203,193 203,193 200,193 199,194" fill="#1f1a17" stroke="none" stroke-width="0" fill-rule="evenodd"/>
      <polygon points="207,214 209,210 209,204 201,194 200,200 204,208 209,217 213,214 209,217 213,217 213,214" fill="#1f1a17" stroke="none" stroke-width="0" fill-rule="evenodd"/>
      <polygon points="220,189 215,190 213,195 212,201 209,207 208,214 214,214 215,209 216,204 219,198 220,193 215,194 220,189 218,185 215,190" fill="#1f1a17" stroke="none" stroke-width="0" fill-rule="evenodd"/>
      <polygon points="228,208 232,206 226,198 220,188 215,192 222,201 228,211 233,208 228,211 233,216 233,208" fill="#1f1a17" stroke="none" stroke-width="0" fill-rule="evenodd"/>
      <polygon points="242,181 242,181 235,186 232,192 230,196 229,199 228,204 228,208 233,208 234,205 235,201 235,198 237,196 240,191 244,186 244,186" fill="#1f1a17" stroke="none" stroke-width="0" fill-rule="evenodd"/>
      <polygon points="248,190 250,187 247,184 241,181 245,186 245,189 250,193 254,190 250,193 254,193 254,190" fill="#1f1a17" stroke="none" stroke-width="0" fill-rule="evenodd"/>
      <polygon points="259,169 254,166 252,172 249,178 248,184 248,191 254,190 254,185 255,179 255,174 258,169 254,167" fill="#1f1a17" stroke="none" stroke-width="0" fill-rule="evenodd"/>
      <polygon points="260,181 266,182 264,177 260,174 260,172 259,171 259,170 259,169 254,167 253,170 254,174 255,176 257,178 259,181 260,183 265,184" fill="#1f1a17" stroke="none" stroke-width="0" fill-rule="evenodd"/>
      <polygon points="267,149 262,150 262,158 262,166 262,170 262,174 262,178 261,181 266,184 267,180 267,175 268,170 268,166 268,158 268,151 262,152" fill="#1f1a17" stroke="none" stroke-width="0" fill-rule="evenodd"/>
      <polygon points="276,159 280,154 275,153 272,152 270,152 269,152 268,151 267,149 262,152 263,154 266,157 268,158 270,159 274,160 277,160 281,156" fill="#1f1a17" stroke="none" stroke-width="0" fill-rule="evenodd"/>
      <polygon points="273,118 269,124 271,127 273,130 273,134 273,138 273,144 273,148 274,153 276,158 281,155 280,151 279,148 279,144 279,138 280,134 279,129 277,124 273,119 270,124" fill="#1f1a17" stroke="none" stroke-width="0" fill-rule="evenodd"/>
      <polygon points="283,128 286,124 281,121 273,118 271,124 278,127 285,129 289,126 285,129 290,133 289,126" fill="#1f1a17" stroke="none" stroke-width="0" fill-rule="evenodd"/>
      <polygon points="275,96 271,100 275,108 277,115 281,122 283,129 288,127 286,119 283,113 280,106 277,99 275,103 275,96 270,96 271,100" fill="#1f1a17" stroke="none" stroke-width="0" fill-rule="evenodd"/>
      <polygon points="283,101 285,96 279,96 274,96 274,103 279,103 285,103 288,99 285,103 290,103 288,99" fill="#1f1a17" stroke="none" stroke-width="0" fill-rule="evenodd"/>
      <polygon points="271,75 267,80 275,90 282,100 287,97 280,85 272,76 268,81" fill="#1f1a17" stroke="none" stroke-width="0" fill-rule="evenodd"/>
      <polygon points="281,78 283,73 276,75 270,76 269,82 276,81 282,79 285,74 282,79 289,80 285,74" fill="#1f1a17" stroke="none" stroke-width="0" fill-rule="evenodd"/>
      <polygon points="255,51 256,56 261,57 264,57 267,60 270,63 276,69 281,77 286,73 281,65 274,58 270,55 267,52 262,50 256,49 258,54 255,51 251,55 256,56" fill="#1f1a17" stroke="none" stroke-width="0" fill-rule="evenodd"/>
      <polygon points="265,36 263,31 259,42 254,52 259,55 264,45 268,34 265,30 268,34 270,31 265,30" fill="#1f1a17" stroke="none" stroke-width="0" fill-rule="evenodd"/>
      <polygon points="234,34 237,39 244,39 251,37 257,36 263,36 264,30 257,30 250,31 244,33 238,33 239,37 234,34 232,38 237,39" fill="#1f1a17" stroke="none" stroke-width="0" fill-rule="evenodd"/>
      <polygon points="226,216 225,220 225,226 225,230 226,235 228,240 228,245 228,250 226,254 231,255 234,257 239,260 240,264 243,270 244,275 243,277 243,279 242,282 240,284 238,287 234,289 232,290 230,290 227,289 226,288 226,289 226,292 225,293 225,295 221,296 219,298 214,299 209,298 208,297 206,296 204,295 203,292 203,289 203,285 200,288 197,289 194,290 190,290 190,223 226,216" fill="#fcdb00" stroke="none" stroke-width="0" fill-rule="evenodd"/>
      <polygon points="228,251 229,256 232,251 233,245 232,240 232,235 229,230 229,226 229,222 229,218 226,215 223,221 223,226 224,231 226,237 227,241 227,245 227,249 226,253 228,258 226,253 222,258 228,258" fill="#1f1a17" stroke="none" stroke-width="0" fill-rule="evenodd"/>
      <polygon points="242,285 242,285 245,282 245,280 246,276 246,273 245,268 244,262 240,258 237,253 231,251 226,250 226,257 230,258 233,259 237,262 239,265 240,270 241,274 241,276 240,277 239,279 239,282 239,282" fill="#1f1a17" stroke="none" stroke-width="0" fill-rule="evenodd"/>
      <polygon points="230,286 225,289 228,291 230,292 233,293 236,292 240,289 244,285 240,282 238,284 235,286 233,286 232,286 230,286 230,285 224,287" fill="#1f1a17" stroke="none" stroke-width="0" fill-rule="evenodd"/>
      <polygon points="220,300 220,300 224,299 226,297 229,294 229,292 230,289 230,286 224,287 225,289 224,290 224,290 223,291 221,293 219,294 219,294" fill="#1f1a17" stroke="none" stroke-width="0" fill-rule="evenodd"/>
      <polygon points="201,293 201,293 202,296 205,299 206,300 209,301 215,301 220,300 219,294 214,295 211,294 209,294 208,294 207,293 207,291 207,291" fill="#1f1a17" stroke="none" stroke-width="0" fill-rule="evenodd"/>
      <polygon points="206,287 201,285 201,289 201,293 207,291 206,289 206,285 202,282 206,285 206,277 202,282" fill="#1f1a17" stroke="none" stroke-width="0" fill-rule="evenodd"/>
      <polygon points="188,290 190,292 195,293 199,292 202,290 206,286 202,282 199,285 198,285 195,286 192,286 193,290 188,290 188,292 190,292" fill="#1f1a17" stroke="none" stroke-width="0" fill-rule="evenodd"/>
      <polygon points="188,223 188,290 193,290 193,223" fill="#1f1a17" stroke="none" stroke-width="0" fill-rule="evenodd"/>
      <polygon points="193,183 196,178 201,173 212,168 223,165 226,162 232,160 236,156 241,152 244,147 248,141 250,136 254,129 256,123 258,116 259,109 260,102 259,104 256,105 255,106 253,107 249,108 246,110 246,105 244,102 242,98 240,95 234,89 228,84 234,83 240,81 244,78 248,73 249,71 250,68 250,66 249,63 247,58 244,54 243,53 242,51 240,51 238,50 235,51 231,53 224,60 219,66 215,63 213,60 209,58 207,57 199,55 191,54 184,55 177,57 175,58 171,60 169,63 165,66 160,60 153,53 149,51 146,50 144,51 142,51 141,53 140,54 137,58 135,63 134,66 134,68 134,71 136,73 140,78 144,81 150,83 155,84 150,89 144,95 142,98 140,102 138,105 138,110 134,108 130,107 129,106 126,105 125,104 124,102 125,109 126,116 128,123 130,129 132,136 136,141 140,147 143,152 147,156 152,160 156,162 161,165 172,168 183,173 188,178 193,183" fill="#fcdb00" stroke="none" stroke-width="0" fill-rule="evenodd"/>
      <polygon points="200,169 200,169 194,174 191,179 194,185 199,180 201,175 201,175" fill="#1f1a17" stroke="none" stroke-width="0" fill-rule="evenodd"/>
      <polygon points="238,149 238,149 235,152 231,156 226,159 222,160 211,165 200,169 201,175 212,171 223,167 229,165 233,161 238,158 243,153 243,153" fill="#1f1a17" stroke="none" stroke-width="0" fill-rule="evenodd"/>
      <polygon points="262,103 256,102 256,109 255,115 252,122 250,128 248,133 245,139 242,145 238,150 243,154 246,148 250,142 254,136 256,130 258,123 260,116 261,110 262,103 256,101" fill="#1f1a17" stroke="none" stroke-width="0" fill-rule="evenodd"/>
      <polygon points="243,109 248,111 250,109 254,109 256,108 258,108 261,105 262,102 257,100 256,101 255,102 255,103 253,103 248,103 244,107 249,108 243,109 244,116 248,111" fill="#1f1a17" stroke="none" stroke-width="0" fill-rule="evenodd"/>
      <polygon points="228,81 227,86 232,91 238,96 240,100 243,102 243,106 244,110 250,109 249,104 246,100 245,96 243,92 237,86 231,81 228,87" fill="#1f1a17" stroke="none" stroke-width="0" fill-rule="evenodd"/>
      <polygon points="246,71 246,71 242,75 238,78 233,80 227,81 227,87 234,86 239,84 245,80 250,75 250,75" fill="#1f1a17" stroke="none" stroke-width="0" fill-rule="evenodd"/>
      <polygon points="242,55 242,55 244,59 247,63 247,65 247,67 247,69 246,71 249,75 252,72 253,67 253,64 252,61 249,55 247,52 247,52" fill="#1f1a17" stroke="none" stroke-width="0" fill-rule="evenodd"/>
      <polygon points="217,67 221,67 227,61 233,56 236,54 239,53 240,53 240,54 242,55 242,56 247,52 246,50 243,48 241,47 237,47 234,48 230,50 223,56 217,63 222,63 217,67 218,70 221,67" fill="#1f1a17" stroke="none" stroke-width="0" fill-rule="evenodd"/>
      <polygon points="191,58 192,58 198,58 205,60 208,61 211,63 214,65 216,68 221,64 217,60 214,58 211,55 207,54 199,52 191,51 192,51" fill="#1f1a17" stroke="none" stroke-width="0" fill-rule="evenodd"/>
      <polygon points="165,67 169,67 171,65 174,62 176,60 180,59 186,57 192,57 193,50 185,51 177,53 174,54 170,57 168,60 164,63 169,63 165,67 168,70 169,67" fill="#1f1a17" stroke="none" stroke-width="0" fill-rule="evenodd"/>
      <polygon points="142,56 142,56 142,55 143,54 144,53 145,53 148,54 151,56 157,62 163,68 167,64 161,57 154,51 150,48 145,47 143,47 141,48 138,50 137,52 137,52" fill="#1f1a17" stroke="none" stroke-width="0" fill-rule="evenodd"/>
      <polygon points="139,71 139,71 138,69 138,67 138,65 138,63 141,59 143,55 138,52 136,55 133,61 132,64 132,67 133,72 134,75 134,75" fill="#1f1a17" stroke="none" stroke-width="0" fill-rule="evenodd"/>
      <polygon points="158,86 157,81 151,80 146,78 142,75 139,71 134,75 139,80 144,84 150,86 156,87 154,81" fill="#1f1a17" stroke="none" stroke-width="0" fill-rule="evenodd"/>
      <polygon points="136,112 141,109 141,106 142,102 145,100 147,96 152,91 158,86 154,81 148,86 142,92 140,96 139,100 136,104 135,109 140,108 136,112 140,117 141,109" fill="#1f1a17" stroke="none" stroke-width="0" fill-rule="evenodd"/>
      <polygon points="128,101 123,102 124,105 127,108 129,108 132,109 134,109 136,111 141,107 136,103 132,103 130,103 129,102 128,101 128,100 122,102" fill="#1f1a17" stroke="none" stroke-width="0" fill-rule="evenodd"/>
      <polygon points="145,150 145,150 141,144 138,138 135,133 132,127 131,121 129,114 128,108 127,101 121,102 122,109 123,116 126,123 127,130 131,136 133,142 137,148 140,154 140,154" fill="#1f1a17" stroke="none" stroke-width="0" fill-rule="evenodd"/>
      <polygon points="185,169 185,169 174,165 164,160 159,159 154,156 150,152 147,149 142,153 147,158 152,161 156,165 162,167 173,171 184,175 184,175" fill="#1f1a17" stroke="none" stroke-width="0" fill-rule="evenodd"/>
      <polygon points="192,179 194,179 190,174 184,169 183,175 187,180 192,185 194,185" fill="#1f1a17" stroke="none" stroke-width="0" fill-rule="evenodd"/>
      <polygon points="145,59 144,61 143,64 143,66 144,69 146,71 151,73 145,59" fill="#fcdb00" stroke="none" stroke-width="0" fill-rule="evenodd"/>
      <polygon points="152,70 148,67 146,66 145,65 145,65 147,61 147,61 144,56 141,59 140,63 140,67 142,71 146,73 151,76" fill="#1f1a17" stroke="none" stroke-width="0" fill-rule="evenodd"/>
      <polygon points="238,58 239,61 240,66 240,68 239,72 234,74 228,75 238,58" fill="#fcdb00" stroke="none" stroke-width="0" fill-rule="evenodd"/>
      <polygon points="229,78 237,76 240,74 243,70 244,64 243,59 240,56 237,60 237,62 238,66 238,67 237,69 234,70 228,72" fill="#1f1a17" stroke="none" stroke-width="0" fill-rule="evenodd"/>
      <polygon points="154,216 155,220 155,226 154,230 153,235 152,240 152,245 152,250 154,254 149,255 144,257 141,260 138,264 136,270 136,275 136,277 137,279 137,282 140,284 141,287 146,289 148,290 149,290 152,289 154,288 154,289 154,292 154,293 155,295 158,296 161,298 166,299 171,298 172,297 174,296 176,295 177,292 177,289 177,285 179,288 183,289 185,290 190,290 190,223 154,216" fill="#fcdb00" stroke="none" stroke-width="0" fill-rule="evenodd"/>
      <polygon points="154,258 156,253 154,249 154,245 154,241 156,237 156,231 159,226 159,221 156,215 152,218 152,222 152,226 152,230 150,235 149,240 148,245 149,251 152,256 154,251 154,258 160,258 156,253" fill="#1f1a17" stroke="none" stroke-width="0" fill-rule="evenodd"/>
      <polygon points="142,282 142,282 140,279 139,277 139,276 139,274 139,270 140,265 143,262 146,259 150,258 154,257 155,250 149,251 143,253 139,258 137,262 134,268 133,273 133,276 134,280 135,282 137,285 137,285" fill="#1f1a17" stroke="none" stroke-width="0" fill-rule="evenodd"/>
      <polygon points="156,288 151,285 150,286 148,286 148,286 147,286 143,284 141,282 136,285 140,289 144,292 147,293 150,292 152,291 155,289 150,286" fill="#1f1a17" stroke="none" stroke-width="0" fill-rule="evenodd"/>
      <polygon points="162,294 162,294 160,293 157,291 156,290 156,290 156,289 156,288 151,286 150,289 151,292 151,294 154,297 156,299 161,300 160,300" fill="#1f1a17" stroke="none" stroke-width="0" fill-rule="evenodd"/>
      <polygon points="174,292 174,291 173,293 172,294 172,294 170,294 166,295 162,294 160,300 166,301 171,301 174,300 175,299 178,296 179,293 179,293" fill="#1f1a17" stroke="none" stroke-width="0" fill-rule="evenodd"/>
      <polygon points="178,282 173,285 173,289 173,292 178,293 179,289 179,285 174,287 178,282 173,277 173,285" fill="#1f1a17" stroke="none" stroke-width="0" fill-rule="evenodd"/>
      <polygon points="188,290 191,286 187,286 185,285 182,285 180,282 175,286 179,290 182,292 186,293 191,292 193,290 191,292 193,292 193,290" fill="#1f1a17" stroke="none" stroke-width="0" fill-rule="evenodd"/>
      <polygon points="188,223 188,290 193,290 193,223" fill="#1f1a17" stroke="none" stroke-width="0" fill-rule="evenodd"/>
      <polygon points="164,128 165,132 165,134 166,137 168,140 170,141 172,143 175,144 179,144 181,144 183,142 186,141 188,137 189,134 192,131 192,127 193,124 164,128" fill="#fcdb00" stroke="none" stroke-width="0" fill-rule="evenodd"/>
      <polygon points="178,142 178,142 176,141 174,140 172,139 171,138 168,136 168,134 167,132 167,129 161,129 162,132 162,136 165,139 166,142 168,145 172,146 174,148 178,148 178,148" fill="#1f1a17" stroke="none" stroke-width="0" fill-rule="evenodd"/>
      <polygon points="190,125 189,128 189,130 188,134 185,136 184,139 182,140 179,141 178,142 178,148 182,147 185,145 188,143 190,140 193,136 194,133 195,128 195,125" fill="#1f1a17" stroke="none" stroke-width="0" fill-rule="evenodd"/>
      <polygon points="206,112 192,90 192,90 177,112 206,112" fill="#ea891c" stroke="none" stroke-width="0" fill-rule="evenodd"/>
      <polygon points="193,87 191,91 204,114 209,111 194,88 193,87 193,87 187,87 191,91" fill="#1f1a17" stroke="none" stroke-width="0" fill-rule="evenodd"/>
      <polygon points="195,92 193,87 193,87 193,93 193,93 195,92 195,92 199,87 193,87" fill="#1f1a17" stroke="none" stroke-width="0" fill-rule="evenodd"/>
      <polygon points="177,116 179,114 194,92 189,88 175,111 177,116 175,111 171,116 177,116" fill="#1f1a17" stroke="none" stroke-width="0" fill-rule="evenodd"/>
      <polygon points="207,111 206,109 177,109 177,116 206,116 207,111 206,116 211,116 207,111" fill="#1f1a17" stroke="none" stroke-width="0" fill-rule="evenodd"/>
      <polygon points="221,128 220,132 220,134 219,137 216,140 215,141 213,143 210,144 208,144 204,144 202,142 199,141 197,137 196,134 193,131 193,127 192,124 221,128" fill="#fcdb00" stroke="none" stroke-width="0" fill-rule="evenodd"/>
      <polygon points="207,148 207,148 209,148 213,146 216,145 218,142 221,139 222,136 223,132 223,129 218,129 218,132 217,134 216,136 214,138 213,139 211,140 209,141 207,142 207,142" fill="#1f1a17" stroke="none" stroke-width="0" fill-rule="evenodd"/>
      <polygon points="189,125 189,129 190,133 193,137 195,140 197,143 200,145 203,147 207,148 207,142 205,141 203,140 201,139 199,136 197,134 195,130 195,128 195,125" fill="#1f1a17" stroke="none" stroke-width="0" fill-rule="evenodd"/>
      <polygon points="180,214 181,217 184,219 187,221 191,222 196,221 198,219 201,217 202,214 180,214" fill="#fcdb00" stroke="none" stroke-width="0" fill-rule="evenodd"/>
      <polygon points="192,219 192,219 189,219 186,218 184,216 184,215 178,215 179,219 183,223 187,225 192,226 192,226" fill="#1f1a17" stroke="none" stroke-width="0" fill-rule="evenodd"/>
      <polygon points="199,215 199,216 197,218 195,219 191,219 191,226 197,225 200,223 204,219 205,215" fill="#1f1a17" stroke="none" stroke-width="0" fill-rule="evenodd"/>
      <polygon points="177,112 177,115 178,116 179,119 181,121 183,121 185,123 189,123 192,124 194,123 198,123 200,121 202,121 204,119 205,116 206,115 206,112 177,112" fill="#1f1a17" stroke="none" stroke-width="0" fill-rule="evenodd"/>
      <polygon points="182,89 185,88 186,86 187,84 187,81 187,78 186,76 185,74 182,73 181,74 178,76 178,78 177,81 178,84 178,86 181,88 182,89" fill="#1f1a17" stroke="none" stroke-width="0" fill-rule="evenodd"/>
      <polygon points="184,82 184,82 184,84 184,85 183,86 183,86 183,93 187,91 189,89 189,85 190,82 190,82" fill="#1f1a17" stroke="none" stroke-width="0" fill-rule="evenodd"/>
      <polygon points="183,77 183,77 183,77 184,78 184,79 184,82 190,82 189,78 189,74 187,72 183,70 183,70" fill="#1f1a17" stroke="none" stroke-width="0" fill-rule="evenodd"/>
      <polygon points="182,82 182,82 182,79 182,78 183,77 183,77 183,70 181,72 178,74 177,78 176,82 176,82" fill="#1f1a17" stroke="none" stroke-width="0" fill-rule="evenodd"/>
      <polygon points="183,86 183,86 183,86 182,85 182,84 182,82 176,82 177,85 178,89 181,91 183,93 183,93" fill="#1f1a17" stroke="none" stroke-width="0" fill-rule="evenodd"/>
      <polygon points="199,89 202,88 203,86 204,84 204,81 204,78 203,76 202,74 199,73 198,74 195,76 195,78 194,81 195,84 195,86 198,88 199,89" fill="#1f1a17" stroke="none" stroke-width="0" fill-rule="evenodd"/>
      <polygon points="202,82 202,82 201,84 201,85 201,86 200,86 200,93 204,91 206,89 206,85 207,82 207,82" fill="#1f1a17" stroke="none" stroke-width="0" fill-rule="evenodd"/>
      <polygon points="200,77 200,77 201,77 201,78 201,79 202,82 207,82 206,78 206,74 204,72 200,70 200,70" fill="#1f1a17" stroke="none" stroke-width="0" fill-rule="evenodd"/>
      <polygon points="199,82 199,82 199,79 199,78 200,77 200,77 200,70 197,72 194,74 193,78 193,82 193,82" fill="#1f1a17" stroke="none" stroke-width="0" fill-rule="evenodd"/>
      <polygon points="200,86 200,86 200,86 199,85 199,84 199,82 193,82 193,85 194,89 197,91 200,93 200,93" fill="#1f1a17" stroke="none" stroke-width="0" fill-rule="evenodd"/>
    </g>
    <rect x="1" y="241" width="79" height="59" fill="none" stroke="none" stroke-width="0"/>
  </g>
</svg>