<svg shape-rendering="geometricPrecision" xmlns="http://www.w3.org/2000/svg" xmlns:mdcr="http://sensory.com/mdcr" viewBox="0 0 400 302" preserveAspectRatio="none">
  <style>polygon,polyline,line,path{stroke-linejoin:round;stroke-linecap:round}</style>
  <metadata>
    <mdcr:info xmlns:mdcr="http://sensory.com/mdcr">
      <mdcr:source format="WMF" generator="wmf2svg.html"/>
      <mdcr:bounds left="0" top="0" right="6000" bottom="4530" inch="1440"/>
      <mdcr:records count="7">
        <mdcr:record tag="MDCR-{"/>
        <mdcr:record tag="MDCR-{"/>
        <mdcr:record tag="MDCR-}K"/>
        <mdcr:record tag="MDCR-V" region="0" layer="0" extra="| 0|-" value=" 0| 0|| 0|-"/>
        <mdcr:record tag="MDCR-Vh" region="1" layer="0" file="\Resources\Several Pictures\Set 2\pig.wav" value=" 1| 0|\Resources\Several Pictures\Set 2\pig.wav"/>
        <mdcr:record tag="MDCR-S"/>
        <mdcr:record tag="MDCR-}"/>
      </mdcr:records>
    </mdcr:info>
  </metadata>
  <g data-mdcr="group" class="mdcr-region">
    <g data-mdcr="group" class="mdcr-region" data-mdcr-region="1" data-mdcr-layer="0" data-mdcr-extra="| 0|-" data-mdcr-tag="MDCR-Vh" data-mdcr-value=" 1| 0|\Resources\Several Pictures\Set 2\pig.wav" data-mdcr-sound="\Resources\Several Pictures\Set 2\pig.wav">
      <path d="M197,301L187,299L179,298L175,296L171,293L167,290L164,287L159,283L154,280L148,279L143,278L132,278L121,280L114,280L107,280L97,280L89,280L84,279L81,278L77,277L73,274L71,271L68,268L67,264L66,259L68,251L69,244L70,239L69,236L68,232L66,230L57,229L50,226L48,225L47,225L45,223L45,221L44,219L44,216L44,214L45,210L48,204L52,199L57,194L61,190L61,190L61,189L60,188L59,188L58,189L56,189L54,191L51,193L48,196L45,197L44,197L43,197L42,195L41,193L41,186L41,180L42,177L43,174L44,171L47,168L46,161L46,155L47,150L49,145L52,141L55,138L60,135L65,133L69,134L72,134L76,135L79,137L81,139L83,143L83,145L83,147L83,149L82,152L78,156L76,161L79,164L82,168L90,166L99,164L103,162L107,161L110,158L114,155L117,149L119,145L123,143L128,142L132,141L136,139L132,132L128,126L127,126L124,126L117,126L111,124L105,121L99,118L92,119L85,119L81,118L78,116L77,116L76,114L75,113L74,110L71,109L68,106L65,103L63,98L63,94L62,89L62,84L63,79L65,75L66,74L68,73L70,74L73,75L78,77L82,75L84,73L86,71L87,68L88,63L88,55L89,50L91,46L92,42L94,39L97,36L99,33L102,31L105,29L105,28L104,27L103,27L103,26L103,26L103,25L104,24L104,24L102,20L99,14L99,11L99,8L99,6L101,3L104,2L107,3L110,4L113,4L117,7L119,9L122,11L123,14L123,17L123,20L126,21L128,21L130,18L133,15L138,12L142,9L146,7L151,5L155,5L158,6L159,8L161,12L161,16L161,20L161,24L159,28L158,32L156,35L157,35L157,36L159,37L161,38L168,32L176,27L183,23L191,20L204,16L218,14L224,13L231,13L238,13L245,13L255,14L265,17L275,20L285,25L293,31L301,38L305,42L309,46L313,52L316,57L320,64L323,71L326,80L329,88L331,85L334,84L337,83L339,84L342,85L344,87L345,90L346,95L350,96L355,99L357,101L358,103L359,106L359,109L353,111L347,113L344,113L341,113L340,112L339,110L338,108L338,106L334,106L329,105L329,110L327,113L326,117L324,120L321,127L316,133L314,137L314,140L315,142L316,143L319,144L321,145L322,147L322,151L321,157L318,163L315,169L312,175L311,180L310,184L314,186L319,189L319,190L321,190L321,188L321,187L324,188L326,191L329,194L330,195L334,187L337,181L340,177L343,173L344,173L344,173L345,174L345,175L343,180L340,187L338,194L337,200L339,202L342,205L347,203L352,200L353,202L352,203L352,204L351,206L349,208L347,210L348,213L350,216L351,219L352,222L351,225L350,229L347,238L345,244L345,250L344,255L342,258L341,260L340,262L337,264L330,269L322,271L315,274L307,274L291,274L275,274L264,277L253,280L247,282L242,285L237,288L232,292L223,296L215,299L206,300L197,301Z M288,172L288,172L289,171L288,169L286,167L284,166L282,165L282,167L283,169L285,171L288,172Z M67,180L67,180L68,180L70,178L72,176L71,173L69,171L67,175L66,180L66,180L67,180Z" fill="#1f1a17" stroke="none" stroke-width="0" fill-rule="evenodd"/>
      <polygon points="194,297 186,296 179,295 175,293 172,291 169,289 166,285 162,282 158,279 154,277 150,276 141,275 132,275 119,276 99,277 89,276 80,274 76,273 73,271 71,268 69,265 68,260 69,253 70,247 71,241 71,239 71,236 70,234 70,231 68,229 66,228 65,226 62,225 55,224 49,223 47,221 46,219 46,215 47,211 50,205 54,201 58,196 63,192 65,193 65,195 66,199 66,201 68,202 70,201 72,199 73,198 74,195 75,193 75,191 74,189 71,186 70,183 69,182 70,182 70,181 70,180 72,179 73,179 74,183 75,188 78,188 80,187 82,186 84,183 84,181 85,179 84,176 83,173 83,172 83,171 91,169 99,166 104,165 107,163 111,161 114,158 117,152 120,147 124,145 129,144 134,143 138,142 141,147 146,150 150,153 154,156 154,160 153,163 153,167 151,170 148,176 144,182 142,186 141,188 142,189 143,191 147,192 151,193 149,197 148,201 148,202 149,203 151,204 154,205 157,202 160,199 161,204 162,206 164,208 168,208 171,205 174,202 177,195 181,189 187,176 190,166 191,166 192,167 200,169 208,170 216,169 224,169 232,167 239,164 248,161 255,157 257,160 261,163 261,167 261,171 260,174 259,177 257,180 255,183 254,186 253,190 255,192 256,193 257,194 259,193 262,191 264,189 265,191 265,192 266,193 266,193 269,193 271,192 275,188 278,183 280,178 282,173 285,174 288,175 287,179 287,184 285,189 284,192 282,195 280,198 280,199 280,201 280,202 281,203 281,204 281,204 275,205 270,206 267,208 265,208 261,207 258,206 254,206 251,206 248,207 245,208 243,209 240,211 238,213 236,215 234,218 232,221 231,225 230,229 230,234 230,238 230,241 231,245 232,248 233,251 236,253 238,254 241,254 244,253 250,247 256,243 257,246 257,249 258,252 257,256 261,257 264,257 267,257 270,255 270,253 271,250 274,251 276,250 277,250 279,249 279,248 279,246 279,243 278,240 278,237 279,234 285,234 290,233 292,231 294,230 296,228 298,224 297,221 296,218 295,215 292,212 287,208 283,205 287,202 292,200 293,204 295,206 297,207 299,206 301,205 303,202 305,199 306,195 307,191 308,186 311,187 315,189 318,192 320,193 320,202 320,212 315,206 311,199 310,200 310,201 311,208 313,215 313,219 313,222 313,226 311,228 311,229 311,230 313,231 316,231 319,231 326,233 334,233 338,233 339,228 341,223 342,218 345,214 345,214 345,214 347,218 348,221 348,225 347,228 345,235 343,242 342,247 342,252 341,255 339,257 337,260 336,262 332,264 329,266 318,269 308,270 298,271 287,271 277,272 266,273 261,273 256,275 251,276 246,279 241,282 236,285 230,289 225,292 217,295 210,296 202,297 194,297" fill="#d2b45f" stroke="none" stroke-width="0" fill-rule="evenodd"/>
      <polygon points="205,279 199,278 194,277 184,277 181,277 181,274 182,267 181,260 178,253 175,247 172,243 172,242 172,241 173,240 175,241 178,242 179,243 184,247 187,251 188,255 189,256 190,254 190,250 189,246 189,240 188,230 186,224 186,224 187,223 187,223 188,223 189,227 192,233 194,239 196,244 196,249 196,250 197,248 198,244 199,239 199,233 200,221 201,214 201,214 201,213 203,218 204,223 205,229 205,237 204,251 202,262 202,262 202,263 207,258 213,254 215,252 219,252 222,252 225,252 226,253 225,254 225,255 223,256 221,257 219,259 217,261 215,263 212,268 209,272 209,276 208,277 207,278 205,279" fill="#1f1a17" stroke="none" stroke-width="0" fill-rule="evenodd"/>
      <polygon points="204,276 199,275 194,274 189,274 184,274 184,271 184,267 183,262 182,259 180,251 176,245 176,244 176,244 178,246 181,247 183,249 185,252 186,254 187,259 188,260 189,262 190,262 191,262 191,255 191,249 191,242 190,236 190,236 191,236 193,246 195,257 196,258 197,257 198,256 198,253 199,247 200,243 201,234 202,226 203,231 203,239 203,247 202,253 200,262 199,271 200,271 201,271 205,265 209,260 211,258 214,256 217,255 220,255 216,258 212,263 210,265 208,268 207,271 206,274 206,275 206,276 205,276 204,276" fill="#428a7f" stroke="none" stroke-width="0" fill-rule="evenodd"/>
      <polygon points="303,259 302,259 302,259 302,258 303,256 303,256 303,256 303,257 304,259 303,259 303,259" fill="#1f1a17" stroke="none" stroke-width="0" fill-rule="evenodd"/>
      <polygon points="147,257 146,256 145,255 145,254 146,252 140,252 135,252 136,246 137,243 139,240 141,238 143,238 144,238 145,239 146,240 148,243 149,247 151,248 153,249 154,251 155,252 155,254 155,255 154,256 152,256 148,257 147,257" fill="#1f1a17" stroke="none" stroke-width="0" fill-rule="evenodd"/>
      <polygon points="87,255 86,255 86,255 86,254 86,253 87,253 88,254 88,254 87,255 87,255 87,255" fill="#1f1a17" stroke="none" stroke-width="0" fill-rule="evenodd"/>
      <polygon points="264,255 262,255 261,255 261,251 261,248 260,246 259,243 258,240 256,239 254,237 252,236 253,234 253,233 254,232 256,232 258,233 259,234 262,237 265,240 268,244 269,248 269,250 269,252 268,253 268,254 265,255 264,255" fill="#dcd0a4" stroke="none" stroke-width="0" fill-rule="evenodd"/>
      <polygon points="148,254 148,254 147,254 148,252 150,251 151,252 152,253 150,254 148,254" fill="#c3c3c2" stroke="none" stroke-width="0" fill-rule="evenodd"/>
      <polygon points="312,254 311,253 311,253 312,252 312,251 313,252 313,253 312,254 312,254" fill="#1f1a17" stroke="none" stroke-width="0" fill-rule="evenodd"/>
      <polygon points="298,253 297,252 297,251 298,250 298,250 299,251 299,252 299,253 298,253" fill="#1f1a17" stroke="none" stroke-width="0" fill-rule="evenodd"/>
      <polygon points="240,252 238,251 237,251 237,249 236,248 237,244 239,240 242,236 246,232 248,230 250,228 251,230 251,231 249,232 247,232 247,232 247,233 248,233 249,234 249,234 249,234 247,236 245,237 243,239 242,241 246,240 249,239 247,242 246,245 246,245 247,245 249,242 251,240 252,239 252,239 254,239 255,240 252,244 248,248 244,251 240,252" fill="#e6dcba" stroke="none" stroke-width="0" fill-rule="evenodd"/>
      <polygon points="305,252 305,251 306,249 306,249 307,249 307,250 307,251 306,252 305,252" fill="#1f1a17" stroke="none" stroke-width="0" fill-rule="evenodd"/>
      <polygon points="85,251 84,250 85,249 86,248 88,249 87,250 86,251 85,251 85,251" fill="#1f1a17" stroke="none" stroke-width="0" fill-rule="evenodd"/>
      <polygon points="92,250 91,250 91,249 91,248 91,247 91,247 92,247 92,248 93,249 93,249 92,250" fill="#1f1a17" stroke="none" stroke-width="0" fill-rule="evenodd"/>
      <polygon points="141,249 139,248 137,248 138,245 138,242 140,242 141,241 143,241 145,242 146,245 147,248 145,248 141,249" fill="#848282" stroke="none" stroke-width="0" fill-rule="evenodd"/>
      <polygon points="303,248 302,247 302,246 303,246 303,245 303,244 304,245 304,246 304,247 303,247 303,248" fill="#1f1a17" stroke="none" stroke-width="0" fill-rule="evenodd"/>
      <polygon points="273,247 271,246 270,244 269,242 269,240 269,237 270,235 271,234 273,233 275,234 276,234 276,237 276,240 276,243 277,246 275,247 273,247" fill="#dcd0a4" stroke="none" stroke-width="0" fill-rule="evenodd"/>
      <polygon points="87,247 87,246 86,245 87,244 87,245 88,245 88,246 88,246 88,247 87,247 87,247" fill="#1f1a17" stroke="none" stroke-width="0" fill-rule="evenodd"/>
      <polygon points="234,244 233,239 233,234 234,230 235,226 236,226 238,226 239,226 241,225 242,222 241,220 240,219 239,218 239,217 239,217 240,216 241,215 242,217 244,218 247,218 248,218 250,216 252,214 253,212 252,208 256,208 261,209 264,210 268,213 268,213 268,213 263,214 258,216 253,219 249,223 245,227 241,232 238,236 235,242 234,243 234,244" fill="#dcd0a4" stroke="none" stroke-width="0" fill-rule="evenodd"/>
      <polygon points="110,243 108,243 106,243 105,242 104,241 103,236 101,230 100,227 99,225 97,223 96,222 94,225 92,228 90,231 88,232 88,230 88,228 89,225 90,224 90,215 90,209 94,210 96,211 99,212 100,214 104,219 108,225 108,225 108,225 107,216 106,208 103,201 101,193 102,193 104,194 105,196 107,198 112,205 114,208 115,215 117,222 120,218 125,211 128,208 130,207 133,206 136,206 136,207 136,208 131,215 127,223 125,227 124,231 124,235 124,240 122,241 121,242 119,243 117,243 113,243 110,243" fill="#1f1a17" stroke="none" stroke-width="0" fill-rule="evenodd"/>
      <polygon points="114,240 110,240 106,239 105,234 103,228 101,225 100,223 98,221 96,219 94,222 92,225 92,219 93,212 95,212 97,214 100,216 101,218 105,224 108,232 110,232 110,232 110,225 110,219 110,214 108,208 107,204 106,201 109,204 111,206 112,210 113,213 115,221 116,229 117,229 118,229 119,225 120,222 121,220 123,217 125,215 128,212 130,211 132,210 132,210 132,211 128,217 125,224 123,227 122,231 121,235 121,238 121,239 121,239 118,240 114,240" fill="#428a7f" stroke="none" stroke-width="0" fill-rule="evenodd"/>
      <polygon points="267,237 265,235 265,234 266,233 268,231 268,231 269,232 268,235 267,237 267,237 267,237" fill="#d2b45f" stroke="none" stroke-width="0" fill-rule="evenodd"/>
      <polygon points="261,232 260,231 259,231 260,228 262,225 262,225 262,225 259,226 257,229 255,227 255,225 255,225 254,225 254,227 254,229 252,229 251,229 251,228 250,227 254,223 260,219 263,217 266,217 267,217 268,217 269,218 270,219 270,221 269,223 268,225 266,228 265,229 263,231 262,231 261,232" fill="#e6dcba" stroke="none" stroke-width="0" fill-rule="evenodd"/>
      <polygon points="282,232 276,230 270,229 270,228 270,228 271,226 273,224 273,221 273,219 273,217 271,215 270,213 269,211 269,211 269,211 271,210 273,209 273,212 275,214 276,217 278,217 281,217 283,217 284,215 284,214 285,212 285,210 288,211 291,214 293,217 295,221 295,224 294,227 293,228 291,230 286,231 282,232" fill="#dcd0a4" stroke="none" stroke-width="0" fill-rule="evenodd"/>
      <polygon points="334,230 325,229 320,228 318,228 315,228 315,225 316,223 315,215 313,206 315,209 318,215 319,216 320,217 321,216 322,212 322,206 323,202 323,202 323,202 324,209 325,217 326,217 327,218 329,209 331,203 333,195 336,187 337,184 339,182 339,182 339,182 336,191 334,201 331,211 330,221 330,222 330,223 330,223 331,223 332,223 332,220 335,216 339,211 341,208 344,206 346,205 348,205 344,210 342,216 339,221 337,227 337,228 336,230 335,230 334,230" fill="#428a7f" stroke="none" stroke-width="0" fill-rule="evenodd"/>
      <polygon points="277,226 275,225 275,224 275,222 275,221 276,220 278,219 279,220 281,221 281,224 280,225 278,226 277,226" fill="#1f1a17" stroke="none" stroke-width="0" fill-rule="evenodd"/>
      <polygon points="287,224 285,223 284,222 283,220 283,219 284,217 284,216 286,215 288,214 289,216 289,217 290,219 290,220 290,222 289,223 288,224 287,224" fill="#1f1a17" stroke="none" stroke-width="0" fill-rule="evenodd"/>
      <polygon points="236,224 236,224 235,224 236,223 236,221 238,221 239,222 239,223 238,224 238,224 236,224" fill="#a5903c" stroke="none" stroke-width="0" fill-rule="evenodd"/>
      <polygon points="277,223 278,222 278,222 279,222 279,222 278,223 277,223" fill="#a5903c" stroke="none" stroke-width="0" fill-rule="evenodd"/>
      <polygon points="286,222 286,221 285,221 285,220 286,219 286,219 287,219 288,220 288,222 287,222 286,222" fill="#a5903c" stroke="none" stroke-width="0" fill-rule="evenodd"/>
      <polygon points="244,217 243,216 243,216 242,215 242,214 243,212 245,212 247,211 249,210 250,212 250,213 249,214 249,215 246,216 244,217" fill="#a5903c" stroke="none" stroke-width="0" fill-rule="evenodd"/>
      <polygon points="333,215 334,209 335,204 335,204 336,204 338,205 339,208 336,211 333,215" fill="#d2b45f" stroke="none" stroke-width="0" fill-rule="evenodd"/>
      <polygon points="279,215 277,213 276,212 276,210 277,209 277,208 279,207 280,207 282,208 282,209 283,209 283,212 282,213 281,214 279,215" fill="#a5903c" stroke="none" stroke-width="0" fill-rule="evenodd"/>
      <polygon points="326,209 326,202 325,195 327,196 329,198 328,204 326,209" fill="#d2b45f" stroke="none" stroke-width="0" fill-rule="evenodd"/>
      <polygon points="165,205 164,204 164,202 165,202 165,202 165,204 165,205 165,205 165,205" fill="#fef9ea" stroke="none" stroke-width="0" fill-rule="evenodd"/>
      <polygon points="298,202 299,201 299,200 299,201 298,202" fill="#fef9ea" stroke="none" stroke-width="0" fill-rule="evenodd"/>
      <polygon points="283,202 284,201 284,199 285,199 285,199 285,200 285,200 285,201 284,202 284,202 283,202" fill="#fef9ea" stroke="none" stroke-width="0" fill-rule="evenodd"/>
      <polygon points="151,202 151,200 152,199 153,197 154,197 153,199 152,202 152,202 151,202" fill="#fef9ea" stroke="none" stroke-width="0" fill-rule="evenodd"/>
      <polygon points="169,199 166,199 164,198 162,197 161,196 158,195 154,194 154,193 154,193 156,191 158,188 158,188 158,188 159,182 161,178 161,173 162,169 162,159 162,149 161,149 161,149 160,152 160,155 155,153 151,150 146,147 143,143 136,134 130,125 130,124 130,124 132,124 133,124 133,123 134,121 135,121 136,119 138,118 138,117 137,116 135,117 133,119 133,121 127,122 123,123 119,123 115,122 108,119 99,115 93,115 86,116 83,115 80,114 78,113 76,111 83,111 88,111 91,110 93,108 96,107 97,104 98,104 98,104 101,108 105,111 107,112 109,113 112,113 114,113 114,113 114,112 110,110 107,109 104,107 101,105 100,101 99,98 98,94 98,89 99,86 100,82 99,81 98,81 96,85 96,90 96,95 96,100 96,102 94,104 93,105 91,107 88,108 83,109 79,108 75,108 71,106 68,104 66,97 64,86 64,82 65,77 65,76 66,76 68,75 70,76 73,78 77,79 80,78 84,76 86,73 88,71 89,69 89,66 90,61 90,54 91,50 92,47 96,41 99,36 102,33 108,30 108,30 108,29 107,28 106,26 109,26 113,27 113,26 113,25 113,24 113,23 114,23 115,23 117,24 118,25 120,24 120,22 123,23 127,23 128,27 129,31 130,31 130,29 130,26 130,22 131,19 133,17 137,14 141,12 146,9 150,8 154,7 156,8 158,11 158,15 158,18 158,22 157,27 156,30 154,33 151,35 148,37 145,38 142,38 139,38 138,40 138,41 140,41 142,42 144,41 146,41 150,39 154,37 157,38 159,41 161,42 162,44 163,46 163,47 163,47 162,48 164,53 165,58 165,58 165,58 164,57 163,57 163,61 164,66 164,66 165,66 166,62 167,59 167,55 166,51 166,47 165,45 164,43 162,40 163,38 166,36 169,34 172,31 180,27 184,24 197,20 209,18 222,15 235,15 242,15 249,15 256,17 263,18 270,21 276,24 283,27 289,31 296,36 302,42 307,49 312,57 317,64 321,73 324,82 325,91 326,95 326,100 325,105 325,110 324,114 322,117 317,125 312,133 311,136 311,138 311,140 311,142 312,143 313,145 315,146 319,147 319,149 319,153 317,157 315,161 312,169 309,175 306,184 302,193 302,194 302,196 298,196 294,196 289,196 286,195 288,188 289,181 290,177 291,173 290,170 289,168 288,165 286,164 283,162 280,161 272,159 267,156 264,155 262,152 259,149 257,146 255,137 254,126 254,121 254,115 254,111 256,108 257,105 258,104 257,103 256,103 254,108 252,113 251,118 251,124 252,136 255,147 257,151 257,152 251,156 243,160 234,163 225,165 215,167 206,167 202,167 198,166 194,165 191,163 192,160 192,155 192,153 192,150 191,149 190,149 189,149 189,151 190,153 190,155 190,158 189,161 187,168 184,175 177,190 172,199 171,199 169,199" fill="#f6c6b5" stroke="none" stroke-width="0" fill-rule="evenodd"/>
      <polygon points="69,198 69,195 68,193 67,191 66,189 62,186 58,185 59,183 59,182 60,181 62,180 65,182 69,185 71,188 73,192 73,194 72,195 71,197 69,198" fill="#dcd0a4" stroke="none" stroke-width="0" fill-rule="evenodd"/>
      <polygon points="44,193 43,192 43,185 44,185 45,184 46,183 47,182 47,180 47,179 45,177 44,177 45,175 45,174 46,173 47,172 49,175 50,177 51,178 51,179 50,180 49,183 44,192 44,193" fill="#dcd0a4" stroke="none" stroke-width="0" fill-rule="evenodd"/>
      <polygon points="237,192 237,192 236,192 236,189 237,187 232,187 229,185 228,184 228,183 229,180 229,176 231,175 233,174 235,174 236,175 237,176 239,177 239,179 241,183 242,184 243,186 244,187 245,190 243,192 241,192 239,192 237,192" fill="#1f1a17" stroke="none" stroke-width="0" fill-rule="evenodd"/>
      <polygon points="48,193 50,188 53,182 54,182 55,183 55,184 55,184 54,184 53,185 52,186 52,188 53,188 55,188 52,191 48,193" fill="#e6dcba" stroke="none" stroke-width="0" fill-rule="evenodd"/>
      <polygon points="268,190 268,190 268,189 269,189 269,189 269,190 269,191 269,191 268,190" fill="#fef9ea" stroke="none" stroke-width="0" fill-rule="evenodd"/>
      <polygon points="257,191 256,189 257,186 257,187 258,187 257,189 257,191 257,191 257,191" fill="#fef9ea" stroke="none" stroke-width="0" fill-rule="evenodd"/>
      <polygon points="146,190 145,188 146,188 146,186 147,185 147,185 147,185 147,188 146,190 146,190 146,190" fill="#fef9ea" stroke="none" stroke-width="0" fill-rule="evenodd"/>
      <polygon points="239,188 239,187 240,186 240,186 241,186 242,187 242,187 241,188 239,188" fill="#848282" stroke="none" stroke-width="0" fill-rule="evenodd"/>
      <polygon points="111,188 110,188 110,187 110,186 111,185 111,185 112,185 112,186 112,187 111,188 111,188" fill="#1f1a17" stroke="none" stroke-width="0" fill-rule="evenodd"/>
      <polygon points="155,187 153,186 151,185 149,183 148,182 152,175 154,170 156,164 157,157 159,157 161,158 160,164 160,169 159,175 157,181 155,186 155,187" fill="#dab4a6" stroke="none" stroke-width="0" fill-rule="evenodd"/>
      <polygon points="264,186 262,186 259,185 260,181 263,177 264,174 265,171 265,167 264,166 262,162 258,157 259,156 260,155 264,159 269,161 274,163 279,165 279,166 279,167 279,168 280,171 279,174 279,176 276,181 275,186 269,186 264,186" fill="#dab4a6" stroke="none" stroke-width="0" fill-rule="evenodd"/>
      <polygon points="78,185 76,179 75,174 72,171 69,166 67,165 66,164 65,162 65,162 66,161 67,160 68,160 70,160 73,162 75,164 78,166 81,169 83,173 84,177 84,178 83,180 83,182 81,183 79,185 78,185" fill="#dcd0a4" stroke="none" stroke-width="0" fill-rule="evenodd"/>
      <polygon points="238,184 235,182 230,182 231,179 232,178 233,177 235,177 236,178 238,179 238,182 239,184 238,184 238,184" fill="#c3c3c2" stroke="none" stroke-width="0" fill-rule="evenodd"/>
      <polygon points="43,181 43,180 43,179 44,179 44,179 44,179 45,179 44,180 43,181" fill="#a29252" stroke="none" stroke-width="0" fill-rule="evenodd"/>
      <polygon points="55,180 55,179 54,179 55,179 55,178 56,178 57,178 56,179 56,180 55,180 55,180" fill="#e6dcba" stroke="none" stroke-width="0" fill-rule="evenodd"/>
      <polygon points="104,178 103,177 104,176 104,176 105,177 104,177 104,178" fill="#1f1a17" stroke="none" stroke-width="0" fill-rule="evenodd"/>
      <polygon points="64,177 62,176 61,176 61,176 61,176 64,173 66,171 66,173 65,174 64,176 64,177" fill="#e6dcba" stroke="none" stroke-width="0" fill-rule="evenodd"/>
      <polygon points="110,177 110,176 109,176 109,175 110,175 110,175 111,176 111,176 111,177 111,177 110,177" fill="#1f1a17" stroke="none" stroke-width="0" fill-rule="evenodd"/>
      <polygon points="53,176 52,174 52,171 53,169 53,167 56,163 58,159 59,160 59,161 60,161 62,161 62,163 62,164 58,166 56,170 58,168 60,168 60,169 60,170 61,170 62,170 62,168 63,168 63,168 64,168 64,168 64,168 61,171 59,174 56,175 53,176" fill="#e6dcba" stroke="none" stroke-width="0" fill-rule="evenodd"/>
      <polygon points="107,173 107,172 106,172 107,171 107,170 107,171 108,171 108,172 108,173 108,173 107,173" fill="#1f1a17" stroke="none" stroke-width="0" fill-rule="evenodd"/>
      <polygon points="119,173 119,172 118,172 118,172 119,171 119,170 119,170 120,171 120,172 119,173 119,173" fill="#1f1a17" stroke="none" stroke-width="0" fill-rule="evenodd"/>
      <polygon points="49,169 48,164 48,158 49,153 50,148 52,148 54,149 55,148 58,147 59,144 60,142 59,140 59,138 59,138 60,138 61,139 62,140 64,141 65,141 66,140 67,139 68,138 68,136 71,136 73,137 76,138 78,140 77,141 76,141 71,143 67,146 64,148 60,152 57,156 54,160 51,164 49,169 49,169 49,169" fill="#dcd0a4" stroke="none" stroke-width="0" fill-rule="evenodd"/>
      <polygon points="62,159 60,158 59,158 63,153 69,148 72,146 76,144 77,144 78,144 80,144 81,145 80,149 79,152 77,155 74,158 73,158 72,158 75,153 77,149 75,150 73,152 72,154 70,156 70,156 69,156 70,154 69,152 69,152 68,152 68,154 67,156 67,156 66,156 65,155 64,155 64,157 64,158 63,158 62,159" fill="#e6dcba" stroke="none" stroke-width="0" fill-rule="evenodd"/>
      <polygon points="53,147 52,147 52,146 52,145 52,145 54,142 57,140 58,142 58,143 58,144 57,145 55,146 53,147" fill="#a29252" stroke="none" stroke-width="0" fill-rule="evenodd"/>
      <polygon points="64,138 64,137 63,137 64,136 65,136 65,137 65,137 65,137 65,138 65,138 64,138" fill="#a29252" stroke="none" stroke-width="0" fill-rule="evenodd"/>
      <polygon points="342,111 341,109 340,108 340,106 341,104 343,101 345,98 348,99 352,100 354,102 355,103 356,105 356,106 351,109 346,110 345,109 344,109 343,109 343,111 342,111 342,111" fill="#f6c6b5" stroke="none" stroke-width="0" fill-rule="evenodd"/>
      <polygon points="336,103 333,102 330,101 330,99 330,97 333,98 336,97 336,97 337,95 338,94 338,92 336,90 336,90 335,91 335,93 334,94 333,94 331,94 331,94 331,90 333,88 334,86 337,85 341,86 343,87 344,90 345,94 344,97 343,99 340,101 336,103" fill="#f6c6b5" stroke="none" stroke-width="0" fill-rule="evenodd"/>
      <polygon points="81,101 80,96 80,92 80,89 79,87 78,85 76,83 76,83 76,82 76,82 77,81 78,83 80,84 81,87 82,91 83,94 83,97 82,100 81,101" fill="#1f1a17" stroke="none" stroke-width="0" fill-rule="evenodd"/>
      <polygon points="73,101 71,99 71,97 71,95 71,93 70,91 69,88 71,89 72,90 74,92 74,94 75,96 75,99 74,100 73,101" fill="#1f1a17" stroke="none" stroke-width="0" fill-rule="evenodd"/>
      <polygon points="111,72 104,71 98,71 98,66 99,62 100,58 102,55 104,53 106,51 108,51 109,51 111,52 113,53 115,55 116,56 116,55 118,55 118,56 118,56 117,57 117,59 118,58 119,59 119,59 119,61 119,62 119,62 120,62 120,63 119,64 118,65 117,68 116,71 114,72 111,72" fill="#1f1a17" stroke="none" stroke-width="0" fill-rule="evenodd"/>
      <polygon points="101,68 100,66 101,63 101,60 103,57 105,55 106,53 108,53 110,54 109,55 109,55 106,58 105,61 104,64 104,68 103,68 101,68" fill="#ffffff" stroke="none" stroke-width="0" fill-rule="evenodd"/>
      <polygon points="108,60 108,59 109,58 109,57 110,58 110,59 110,59 109,60 108,60" fill="#ffffff" stroke="none" stroke-width="0" fill-rule="evenodd"/>
      <polygon points="111,45 108,44 106,44 105,43 105,43 105,43 106,41 109,42 112,43 112,44 112,44 111,45 111,45" fill="#1f1a17" stroke="none" stroke-width="0" fill-rule="evenodd"/>
      <polygon points="135,35 134,34 134,33 134,32 135,30 136,26 140,21 143,17 146,15 148,14 150,15 151,15 152,16 149,18 145,19 147,21 149,24 146,24 145,23 142,22 140,23 140,26 138,28 138,30 137,33 136,35 135,35" fill="#1f1a17" stroke="none" stroke-width="0" fill-rule="evenodd"/>
      <polygon points="111,24 109,20 108,17 106,16 103,14 105,18 108,23 108,23 107,24 105,19 102,15 102,13 101,10 101,7 102,5 104,5 107,5 111,7 114,8 117,10 120,13 120,14 120,16 121,18 120,20 119,21 118,22 116,20 114,20 112,22 111,24 111,24 111,24" fill="#f6c6b5" stroke="none" stroke-width="0" fill-rule="evenodd"/>
      <rect x="1" y="250" width="67" height="50" fill="none" stroke="none" stroke-width="0"/>
    </g>
  </g>
</svg>