<svg shape-rendering="geometricPrecision" xmlns="http://www.w3.org/2000/svg" xmlns:mdcr="http://sensory.com/mdcr" viewBox="0 0 2141 1495" preserveAspectRatio="none">
  <style>polygon,polyline,line,path{stroke-linejoin:round;stroke-linecap:round}</style>
  <metadata>
    <mdcr:info xmlns:mdcr="http://sensory.com/mdcr">
      <mdcr:source format="WMF" generator="wmf2svg.html"/>
      <mdcr:bounds left="0" top="0" right="3091" bottom="2161" inch="1440"/>
      <mdcr:records count="25">
        <mdcr:record tag="MDCR-{"/>
        <mdcr:record tag="MDCR-{"/>
        <mdcr:record tag="MDCR-{"/>
        <mdcr:record tag="MDCR-}"/>
        <mdcr:record tag="MDCR-{"/>
        <mdcr:record tag="MDCR-{"/>
        <mdcr:record tag="MDCR-}"/>
        <mdcr:record tag="MDCR-{"/>
        <mdcr:record tag="MDCR-}"/>
        <mdcr:record tag="MDCR-}"/>
        <mdcr:record tag="MDCR-{"/>
        <mdcr:record tag="MDCR-{"/>
        <mdcr:record tag="MDCR-}"/>
        <mdcr:record tag="MDCR-}"/>
        <mdcr:record tag="MDCR-{"/>
        <mdcr:record tag="MDCR-}"/>
        <mdcr:record tag="MDCR-{"/>
        <mdcr:record tag="MDCR-}"/>
        <mdcr:record tag="MDCR-}"/>
        <mdcr:record tag="MDCR-V(0x84)" region="1" layer="1" file="C:\Sensory\Build Some More\Resources\Midi\carib.mid| 2|" value=" 1| 1|C:\Sensory\Build Some More\Resources\Midi\carib.mid| 2|"/>
        <mdcr:record tag="MDCR-S"/>
        <mdcr:record tag="MDCR-{"/>
        <mdcr:record tag="MDCR-}"/>
        <mdcr:record tag="MDCR-V(0x16)" region="0" layer="0" value=" 0| 0|"/>
        <mdcr:record tag="MDCR-}"/>
      </mdcr:records>
    </mdcr:info>
  </metadata>
  <g data-mdcr="group" class="mdcr-region">
    <g data-mdcr="group" class="mdcr-region" data-mdcr-region="1" data-mdcr-layer="1" data-mdcr-sound="C:\Sensory\Build Some More\Resources\Midi\carib.mid| 2|" data-mdcr-tag="MDCR-V(0x84)" data-mdcr-value=" 1| 1|C:\Sensory\Build Some More\Resources\Midi\carib.mid| 2|">
      <polygon points="1167,277 1168,277 1169,278 1171,278 1172,279 1172,280 1173,281 1174,282 1175,283 1175,285 1175,287 1176,289 1176,290 1176,292 1176,294 1176,295 1176,297 1178,298 1179,299 1180,300 1181,301 1182,303 1183,304 1184,306 1184,308 1184,310 1184,311 1184,313 1183,314 1183,315 1182,316 1181,317 1180,318 1179,319 1178,319 1177,320 1176,321 1176,323 1176,325 1177,327 1177,330 1176,332 1176,334 1175,336 1173,338 1172,339 1170,339 1168,340 1167,340 1165,340 1164,339 1162,338 1161,338 1160,337 1160,336 1159,336 1158,336 1157,337 1155,338 1153,338 1151,339 1149,340 1146,340 1144,340 1142,339 1141,338 1140,338 1140,337 1139,336 1138,336 1138,335 1137,334 1137,333 1137,332 1137,330 1137,329 1137,328 1137,326 1138,325 1138,323 1138,322 1137,321 1136,320 1134,320 1133,319 1131,318 1130,318 1129,318 1127,318 1125,320 1122,322 1120,324 1117,326 1115,329 1113,331 1111,333 1108,336 1106,338 1105,341 1103,344 1101,347 1100,350 1098,353 1097,357 1097,360 1097,360 1097,361 1097,361 1097,361 1100,362 1103,364 1106,365 1109,367 1111,368 1114,370 1116,372 1118,374 1121,377 1123,379 1125,382 1126,385 1128,388 1129,391 1130,394 1131,398 1132,400 1132,401 1132,403 1132,405 1133,407 1133,409 1133,411 1133,412 1133,414 1133,416 1134,418 1134,419 1134,421 1135,423 1135,424 1136,426 1138,423 1140,421 1142,417 1144,414 1145,411 1148,408 1150,406 1153,404 1155,404 1156,404 1158,405 1159,405 1161,405 1162,406 1163,407 1164,408 1165,410 1166,413 1166,415 1167,417 1167,420 1167,422 1166,424 1166,427 1165,429 1164,432 1163,434 1162,436 1161,439 1160,441 1159,443 1158,445 1158,446 1158,446 1158,446 1158,446 1160,447 1163,446 1165,446 1168,446 1170,446 1173,446 1176,445 1178,445 1181,445 1183,446 1186,446 1188,446 1191,448 1193,449 1195,450 1197,452 1198,453 1199,454 1200,455 1201,456 1202,457 1202,458 1203,460 1202,461 1202,463 1202,465 1201,466 1200,467 1199,469 1198,470 1198,471 1198,473 1199,474 1200,474 1202,475 1203,475 1204,476 1206,477 1207,477 1208,478 1211,481 1215,483 1218,486 1221,489 1224,492 1226,496 1228,500 1229,505 1230,507 1230,510 1230,512 1230,515 1229,517 1228,520 1227,522 1226,524 1224,525 1223,526 1222,527 1220,528 1219,529 1217,530 1216,532 1215,533 1215,535 1216,538 1217,541 1217,543 1217,546 1217,549 1216,551 1215,553 1214,555 1213,556 1212,557 1212,558 1211,559 1210,560 1209,561 1209,562 1211,562 1214,561 1216,560 1219,559 1221,558 1223,557 1226,556 1228,554 1231,553 1233,552 1236,551 1238,551 1241,550 1243,550 1246,550 1249,550 1251,549 1252,548 1254,546 1256,545 1258,544 1260,542 1262,541 1263,540 1265,538 1267,537 1269,536 1271,536 1273,535 1275,535 1277,535 1279,535 1281,536 1282,537 1283,537 1284,538 1324,515 1324,513 1324,511 1323,508 1323,506 1322,504 1322,502 1322,499 1323,497 1324,495 1325,494 1326,493 1327,492 1328,491 1330,490 1331,489 1333,489 1334,489 1335,489 1335,489 1336,488 1335,486 1335,484 1335,481 1335,479 1335,477 1335,475 1335,473 1335,470 1334,468 1334,466 1334,463 1334,461 1334,459 1335,457 1335,455 1335,452 1335,448 1336,444 1336,439 1337,435 1338,431 1339,427 1340,423 1341,419 1342,416 1344,412 1346,409 1348,406 1350,402 1352,399 1355,397 1357,394 1359,393 1361,393 1363,392 1364,392 1366,392 1368,392 1370,392 1371,393 1374,396 1376,398 1378,401 1379,405 1380,408 1381,412 1382,415 1383,419 1387,416 1391,413 1395,411 1399,407 1403,404 1407,401 1411,397 1415,394 1420,391 1424,389 1429,386 1434,385 1439,384 1444,383 1449,384 1455,385 1456,387 1457,388 1458,390 1459,391 1460,393 1460,395 1461,397 1461,399 1461,400 1461,401 1460,402 1460,403 1460,404 1460,405 1460,406 1460,407 1462,408 1465,408 1467,408 1470,409 1473,410 1475,412 1477,414 1479,416 1479,418 1480,420 1481,422 1481,423 1481,425 1481,427 1480,429 1480,431 1478,433 1477,435 1475,437 1474,438 1472,440 1470,442 1469,443 1467,445 1465,446 1464,447 1462,449 1460,450 1459,452 1457,453 1455,455 1454,456 1454,457 1454,457 1454,457 1455,457 1457,457 1458,457 1460,457 1462,457 1465,457 1467,457 1469,457 1471,457 1473,458 1475,458 1477,458 1479,459 1481,460 1482,461 1484,462 1486,463 1487,465 1488,467 1488,469 1489,471 1489,473 1489,475 1489,478 1489,480 1487,483 1485,485 1484,487 1481,489 1479,490 1477,492 1474,493 1472,494 1469,495 1466,496 1464,497 1461,498 1458,499 1456,500 1453,501 1451,502 1446,504 1441,506 1437,508 1434,512 1430,515 1427,519 1424,523 1420,526 1417,530 1414,534 1410,537 1407,540 1402,543 1398,545 1393,546 1387,547 1385,547 1383,547 1381,547 1379,547 1376,547 1375,548 1372,548 1371,548 1369,551 1368,554 1368,556 1366,559 1365,561 1363,563 1361,565 1359,565 1357,565 1356,565 1354,565 1353,564 1351,563 1350,562 1349,561 1348,559 1347,558 1347,557 1346,556 1345,554 1345,553 1344,552 1344,551 1343,550 1341,549 1340,550 1338,551 1337,552 1335,553 1334,554 1332,555 1331,556 1329,558 1327,559 1325,561 1323,563 1321,564 1319,566 1317,567 1315,569 1313,571 1312,572 1310,574 1308,575 1306,577 1304,579 1303,581 1301,583 1302,601 1301,603 1299,604 1297,606 1296,607 1294,608 1292,609 1290,611 1288,612 1286,613 1283,614 1281,615 1279,616 1277,617 1275,618 1273,620 1272,621 1269,625 1266,629 1263,632 1259,636 1256,639 1252,642 1248,645 1245,648 1241,651 1237,654 1233,657 1229,660 1225,664 1222,667 1218,671 1215,676 1213,677 1211,679 1210,681 1208,683 1207,685 1205,687 1203,689 1202,691 1196,699 1205,720 1208,721 1211,721 1214,722 1217,722 1220,723 1223,723 1226,724 1229,725 1232,726 1235,727 1238,728 1241,729 1243,731 1246,732 1248,734 1250,737 1251,739 1252,742 1252,745 1252,748 1251,751 1251,754 1250,756 1249,759 1249,760 1248,761 1248,762 1247,762 1247,763 1246,764 1246,765 1245,766 1245,771 1245,775 1245,780 1244,785 1243,790 1242,795 1241,800 1240,804 1239,809 1238,814 1236,819 1234,823 1233,828 1231,832 1229,837 1227,841 1225,845 1223,849 1221,853 1218,857 1216,860 1214,864 1212,867 1209,870 1207,873 1205,875 1202,878 1200,880 1198,882 1195,883 1193,884 1191,885 1190,891 1189,897 1188,902 1186,907 1184,913 1183,918 1181,923 1179,928 1178,933 1176,938 1174,943 1173,948 1172,954 1170,960 1169,966 1169,972 1167,973 1165,974 1164,975 1162,975 1160,976 1158,976 1156,977 1154,977 1152,977 1150,977 1148,978 1146,978 1144,978 1142,978 1140,978 1138,978 1137,979 1136,979 1136,980 1136,981 1135,984 1135,986 1135,989 1135,992 1135,995 1134,997 1134,1000 1134,1003 1134,1005 1134,1008 1134,1011 1134,1014 1134,1016 1134,1019 1134,1022 1134,1025 1134,1028 1134,1031 1135,1034 1135,1038 1135,1041 1136,1043 1137,1046 1139,1048 1143,1050 1147,1053 1152,1056 1156,1059 1160,1062 1164,1065 1168,1069 1172,1072 1176,1076 1180,1080 1183,1084 1187,1088 1191,1091 1195,1096 1199,1100 1202,1104 1206,1105 1210,1106 1213,1107 1217,1107 1221,1108 1225,1109 1228,1110 1232,1111 1236,1112 1240,1113 1243,1115 1247,1116 1251,1118 1254,1120 1257,1122 1261,1124 1265,1126 1268,1128 1272,1131 1275,1134 1278,1137 1280,1141 1282,1145 1283,1150 1283,1152 1283,1153 1283,1155 1283,1156 1282,1157 1282,1158 1281,1159 1280,1160 1275,1162 1270,1164 1265,1166 1259,1167 1254,1168 1249,1169 1243,1169 1238,1169 1232,1169 1227,1168 1221,1168 1216,1167 1210,1166 1205,1165 1199,1163 1194,1162 1191,1160 1187,1159 1184,1158 1181,1156 1178,1154 1175,1153 1172,1151 1169,1149 1166,1147 1163,1145 1160,1143 1157,1140 1154,1138 1152,1136 1149,1134 1146,1132 1143,1130 1141,1128 1138,1125 1135,1123 1132,1121 1129,1119 1126,1117 1123,1116 1120,1114 1117,1112 1114,1111 1111,1109 1107,1108 1104,1107 1100,1106 1097,1105 1094,1103 1091,1102 1088,1101 1086,1099 1083,1098 1081,1096 1079,1094 1077,1091 1077,1088 1076,1085 1076,1082 1076,1079 1076,1076 1076,1073 1077,1070 1078,1066 1078,1063 1079,1060 1080,1058 1082,1055 1083,1052 1084,1049 1085,1047 1087,1044 1088,1043 1089,1041 1090,1040 1091,1039 1093,1038 1094,1037 1095,1036 1095,1035 1095,1034 1095,1034 1094,1033 1093,1033 1093,1032 1092,1031 1092,1031 1091,1030 1091,1028 1091,1026 1092,1024 1092,1022 1093,1021 1094,1019 1095,1018 1096,1016 1097,1016 1098,1015 1099,1014 1099,1013 1099,976 1097,975 1094,973 1092,972 1089,971 1086,970 1083,969 1080,968 1077,967 1074,969 1072,970 1069,972 1066,973 1063,974 1060,975 1057,976 1054,978 1054,980 1054,982 1054,984 1053,986 1053,988 1053,990 1053,992 1053,994 1053,996 1053,998 1053,1000 1053,1002 1053,1004 1054,1006 1054,1008 1054,1010 1055,1012 1056,1013 1058,1015 1059,1016 1060,1017 1061,1019 1062,1021 1062,1024 1061,1025 1061,1026 1060,1027 1060,1028 1059,1029 1059,1030 1059,1030 1059,1032 1061,1034 1063,1037 1065,1039 1066,1042 1068,1045 1069,1048 1070,1052 1071,1055 1072,1058 1073,1062 1074,1065 1074,1069 1074,1072 1074,1076 1073,1079 1073,1083 1072,1085 1071,1088 1070,1089 1069,1091 1068,1093 1067,1095 1067,1097 1066,1100 1060,1101 1054,1103 1049,1104 1043,1106 1038,1108 1032,1110 1027,1112 1021,1115 1016,1117 1011,1120 1006,1123 1001,1126 996,1130 992,1134 988,1138 983,1142 980,1144 977,1146 974,1148 971,1149 967,1151 964,1152 960,1154 957,1155 953,1156 950,1157 946,1158 943,1158 939,1159 936,1160 932,1160 928,1160 925,1161 921,1161 918,1161 914,1161 910,1160 907,1160 903,1160 899,1159 896,1159 892,1158 889,1157 885,1156 882,1155 878,1154 875,1153 872,1151 871,1150 870,1149 870,1149 869,1148 868,1147 868,1146 867,1145 867,1145 868,1141 870,1137 872,1134 874,1131 877,1128 879,1126 882,1123 885,1121 887,1120 890,1119 892,1117 894,1116 897,1115 899,1114 901,1113 904,1112 937,1104 939,1102 941,1099 943,1097 944,1094 946,1092 948,1089 950,1087 953,1085 956,1081 960,1077 963,1074 967,1071 971,1068 975,1065 979,1063 983,1060 987,1058 991,1055 995,1053 999,1051 1004,1048 1008,1046 1012,1044 1017,1041 1017,1040 1018,1038 1018,1037 1018,1035 1018,1033 1019,1032 1019,1030 1019,1028 1019,1025 1020,1022 1020,1019 1020,1016 1020,1013 1020,1010 1020,1007 1020,1004 1019,1001 1019,998 1019,995 1019,992 1019,989 1018,986 1018,983 1018,979 1016,979 1013,978 1011,978 1008,977 1006,977 1003,976 1001,976 998,975 995,975 993,974 990,973 988,973 985,972 983,971 980,970 978,968 967,897 962,895 957,892 953,888 948,885 945,880 941,876 938,871 935,866 932,861 929,855 927,849 925,843 923,837 922,830 920,823 919,816 919,812 918,807 918,803 918,799 917,794 917,790 916,786 916,781 915,777 914,773 914,769 913,765 912,761 911,758 910,754 909,750 911,747 913,744 916,741 919,739 922,737 925,735 928,733 931,732 935,730 938,729 942,728 945,726 949,725 952,724 956,722 959,721 961,721 962,721 963,720 964,720 966,720 967,720 968,719 969,719 969,717 968,716 967,715 966,713 965,712 964,711 962,709 961,708 958,705 956,702 953,699 950,697 947,694 944,691 941,689 938,687 935,684 932,682 929,680 926,678 922,676 919,674 916,672 913,670 909,668 906,666 903,664 899,663 896,661 893,659 889,657 886,655 882,653 879,652 876,650 872,648 869,646 866,644 862,642 859,640 861,615 847,606 810,587 809,589 809,591 809,593 808,595 808,597 808,600 807,602 807,604 806,606 806,608 805,610 805,612 804,613 803,615 802,617 800,618 799,619 798,619 797,619 796,619 795,619 793,619 792,619 791,619 790,618 789,617 788,615 786,614 785,613 785,611 784,610 783,608 781,609 779,611 776,612 774,613 771,614 768,614 766,615 763,615 760,615 757,615 754,615 751,615 748,614 746,614 743,613 740,611 737,610 735,609 733,608 730,607 728,606 725,605 723,604 721,603 719,602 717,601 714,599 713,598 711,596 709,594 708,592 706,589 705,586 704,583 703,580 703,576 702,573 702,570 702,567 703,563 703,561 704,559 704,557 705,555 706,554 707,552 708,551 709,550 708,548 707,546 707,544 706,542 706,540 705,538 705,535 705,533 706,531 706,528 706,526 707,524 707,522 708,520 709,518 710,516 711,514 711,514 712,513 712,512 710,509 707,506 704,503 701,500 698,498 694,495 691,492 688,490 685,487 682,484 680,480 678,477 676,473 675,468 675,463 675,458 676,455 677,452 678,449 679,446 680,444 682,442 684,440 686,439 691,439 696,439 701,440 705,441 709,443 713,445 717,447 721,450 725,452 728,455 732,458 735,461 739,464 742,467 745,470 749,473 752,476 755,479 758,482 761,486 764,489 767,493 769,496 772,499 773,495 774,491 774,487 775,482 776,478 777,474 778,470 779,465 780,461 781,457 783,453 785,449 786,446 788,443 791,439 793,437 795,435 797,434 799,433 801,432 803,431 805,431 807,431 809,432 811,433 813,435 814,436 816,438 817,440 818,442 819,445 819,447 819,452 819,457 819,462 818,466 817,471 816,476 815,480 814,485 812,490 811,494 810,499 809,504 809,508 808,513 808,518 809,522 810,525 812,527 815,528 818,529 821,530 823,531 825,533 827,535 828,537 828,539 828,541 828,543 828,545 828,547 828,549 828,550 830,552 832,553 835,555 837,556 839,557 842,558 845,560 847,561 850,562 853,563 855,564 858,565 861,566 864,568 866,569 869,570 870,570 871,570 872,570 872,570 873,569 873,568 873,568 874,567 874,566 875,565 875,564 876,564 878,565 880,565 882,566 883,567 885,567 887,568 889,569 891,569 893,570 895,571 896,572 898,573 900,574 902,575 903,576 905,577 909,577 914,577 918,577 923,578 927,579 932,580 936,581 941,583 945,584 950,586 954,587 959,589 964,590 968,591 973,592 977,593 979,591 981,589 983,587 985,585 987,583 989,581 992,580 994,579 994,579 994,578 994,578 994,578 992,577 990,577 988,576 987,576 985,575 983,574 981,574 980,573 978,572 976,571 975,570 973,569 972,568 970,566 969,565 968,563 967,562 967,560 967,559 966,559 964,559 962,559 960,559 957,559 955,559 953,559 951,559 949,558 946,558 944,557 942,556 940,555 939,554 937,552 935,551 934,549 933,547 932,544 931,542 931,539 931,537 931,534 931,531 931,529 932,526 932,523 933,521 933,518 934,516 935,513 936,511 937,509 938,507 939,505 940,503 942,501 943,499 944,498 945,496 947,494 948,493 949,492 950,491 952,490 953,489 954,488 955,487 956,485 955,482 954,479 955,476 956,473 957,470 958,468 960,466 962,463 964,461 965,459 968,457 970,456 972,454 974,453 977,452 979,450 981,449 984,449 987,448 989,447 992,447 995,447 997,447 1000,447 1002,447 1004,448 1005,448 1007,448 1009,448 1011,448 1012,449 1014,450 1014,450 1015,450 1015,449 1015,449 1014,447 1014,445 1013,443 1012,441 1012,439 1011,437 1011,435 1010,433 1010,431 1010,429 1009,427 1009,425 1009,423 1009,420 1010,418 1010,416 1011,414 1011,413 1012,411 1013,409 1013,408 1014,407 1016,405 1017,405 1018,405 1020,405 1021,405 1022,406 1023,406 1024,407 1026,408 1026,408 1034,427 1035,427 1036,427 1036,426 1036,425 1036,421 1037,417 1038,413 1039,409 1040,405 1041,401 1043,398 1044,394 1046,391 1047,387 1050,384 1051,381 1054,378 1056,375 1059,373 1061,370 1063,369 1064,368 1066,368 1068,367 1069,366 1071,365 1073,365 1075,364 1077,364 1078,363 1080,363 1082,363 1084,362 1086,362 1088,362 1089,361 1091,359 1093,356 1094,353 1095,349 1096,346 1098,343 1099,340 1101,337 1101,337 1101,337 1101,336 1100,336 1098,336 1096,336 1094,336 1093,335 1091,335 1089,335 1087,334 1085,333 1083,332 1082,331 1080,330 1079,329 1077,328 1076,326 1075,325 1074,323 1073,320 1072,316 1071,313 1070,310 1070,306 1070,303 1070,300 1071,297 1073,297 1074,298 1076,298 1078,299 1080,299 1082,300 1083,300 1085,301 1087,301 1089,302 1091,303 1093,304 1095,304 1097,305 1098,306 1100,306 1102,308 1103,310 1105,312 1106,314 1107,317 1107,319 1108,322 1109,325 1109,325 1109,325 1109,325 1110,325 1128,311 1134,301 1138,298 1138,297 1138,296 1138,295 1138,294 1137,294 1137,293 1136,292 1136,292 1136,290 1137,288 1137,287 1137,285 1138,284 1138,283 1139,281 1140,281 1142,280 1144,279 1145,278 1147,278 1149,278 1151,278 1152,278 1154,279 1155,280 1156,281 1157,282 1158,283 1167,277 1167,277 1167,277 1167,277 1167,277" fill="#000000" stroke="none" stroke-width="0" fill-rule="evenodd"/>
      <g data-mdcr="group" class="mdcr-region">
        <polygon points="1147,284 1150,284 1152,285 1152,286 1153,287 1153,289 1154,291 1154,292 1154,294 1154,296 1154,296 1154,297 1154,298 1153,298 1152,299 1151,299 1150,299 1149,298 1148,298 1147,297 1146,296 1145,295 1144,295 1144,295 1143,294 1143,294 1143,293 1142,293 1142,292 1142,291 1142,290 1142,289 1142,288 1143,287 1143,287 1144,286 1144,286 1145,285 1145,285 1146,285 1146,284 1147,284" fill="#ff00ff" stroke="none" stroke-width="0" fill-rule="evenodd"/>
        <polygon points="1166,284 1168,285 1169,286 1169,287 1170,288 1170,289 1170,290 1170,291 1170,293 1170,294 1169,294 1168,295 1168,296 1167,296 1167,297 1166,297 1166,298 1165,298 1161,297 1160,296 1160,295 1160,294 1160,293 1160,292 1160,291 1161,290 1161,289 1162,288 1162,287 1163,286 1164,286 1164,285 1165,285 1166,284 1166,284" fill="#ff00ff" stroke="none" stroke-width="0" fill-rule="evenodd"/>
        <polygon points="1159,303 1162,304 1163,304 1164,305 1165,306 1165,307 1165,308 1164,309 1164,310 1163,311 1156,312 1155,311 1154,310 1154,309 1154,307 1154,307 1155,306 1155,305 1156,305 1156,304 1157,304 1158,303 1159,303" fill="#ff00ff" stroke="none" stroke-width="0" fill-rule="evenodd"/>
        <polygon points="1140,303 1141,303 1142,303 1143,303 1144,303 1144,303 1145,303 1146,304 1147,304 1148,313 1147,314 1146,314 1144,315 1143,315 1142,315 1140,315 1139,314 1138,314 1137,314 1136,313 1135,312 1135,311 1135,308 1136,307 1136,306 1137,306 1137,305 1138,304 1139,304 1139,303 1140,303" fill="#ff00ff" stroke="none" stroke-width="0" fill-rule="evenodd"/>
        <polygon points="1172,303 1175,303 1176,304 1177,305 1178,306 1179,308 1178,311 1178,312 1177,312 1176,313 1175,313 1173,313 1172,313 1171,313 1170,312 1172,303 1172,303 1172,303 1172,303 1172,303" fill="#ff00ff" stroke="none" stroke-width="0" fill-rule="evenodd"/>
        <polygon points="1087,308 1089,308 1090,308 1092,309 1094,309 1096,310 1097,311 1098,312 1099,314 1100,314 1100,315 1100,316 1101,316 1101,317 1101,318 1101,318 1101,319 1087,308 1087,308 1087,308 1087,308 1087,308" fill="#ff00ff" stroke="none" stroke-width="0" fill-rule="evenodd"/>
        <polygon points="1077,310 1099,328 1099,328 1099,328 1099,329 1099,329 1096,329 1094,329 1091,329 1089,328 1087,327 1085,325 1083,324 1081,322 1080,320 1079,319 1079,317 1078,316 1078,314 1077,313 1077,312 1077,310 1077,310 1077,310 1077,310 1077,310" fill="#ff00ff" stroke="none" stroke-width="0" fill-rule="evenodd"/>
        <polygon points="1154,319 1154,319 1155,319 1155,319 1155,319 1155,329 1154,330 1154,331 1153,332 1151,333 1150,333 1149,334 1147,334 1146,334 1145,333 1144,333 1143,333 1143,332 1142,332 1142,331 1142,330 1142,329 1142,328 1142,327 1143,326 1143,325 1144,324 1146,323 1147,323 1148,322 1150,321 1151,321 1153,320 1154,319 1154,319 1154,319 1154,319 1154,319" fill="#ff00ff" stroke="none" stroke-width="0" fill-rule="evenodd"/>
        <polygon points="1164,319 1165,319 1166,320 1166,320 1167,321 1168,321 1168,322 1169,323 1170,324 1170,325 1171,326 1171,327 1171,328 1171,329 1171,330 1171,331 1171,332 1170,333 1170,333 1169,334 1168,334 1167,334 1166,334 1165,333 1164,333 1163,332 1162,330 1162,329 1162,327 1162,325 1162,323 1163,321 1163,319 1163,319 1163,319 1163,319 1164,319" fill="#ff00ff" stroke="none" stroke-width="0" fill-rule="evenodd"/>
        <polygon points="1092,369 1095,370 1097,370 1099,371 1102,372 1104,373 1106,374 1108,375 1110,377 1112,378 1114,380 1116,382 1117,384 1119,386 1120,388 1122,390 1123,393 1124,396 1125,399 1126,403 1126,406 1127,410 1127,413 1128,417 1128,420 1123,419 1118,418 1112,417 1107,416 1102,415 1097,415 1091,414 1086,414 1081,414 1076,414 1070,414 1065,415 1060,415 1055,416 1049,417 1044,418 1044,416 1045,413 1045,410 1046,408 1047,405 1048,403 1049,400 1050,398 1051,396 1052,393 1053,391 1055,389 1056,387 1058,385 1059,383 1061,381 1062,379 1064,378 1066,377 1068,376 1070,375 1071,374 1074,373 1076,372 1078,372 1080,371 1082,371 1084,370 1086,370 1088,370 1090,369 1092,369" fill="#ff00ff" stroke="none" stroke-width="0" fill-rule="evenodd"/>
        <polygon points="1154,412 1155,412 1155,412 1156,412 1157,413 1157,413 1158,413 1158,414 1159,415 1160,417 1160,420 1160,422 1160,424 1159,427 1158,429 1157,431 1157,433 1154,437 1152,441 1150,445 1147,448 1144,451 1140,454 1137,457 1134,459 1130,462 1126,464 1122,465 1118,467 1114,469 1110,470 1105,471 1101,472 1096,472 1091,473 1087,473 1082,473 1077,474 1072,474 1067,474 1062,474 1057,473 1053,473 1048,471 1044,470 1039,468 1035,465 1032,462 1028,458 1027,456 1025,454 1024,452 1023,449 1022,447 1021,445 1019,442 1018,440 1018,437 1017,435 1016,432 1015,429 1015,427 1015,424 1015,421 1015,418 1016,417 1016,416 1016,415 1017,415 1017,414 1018,413 1018,413 1019,412 1020,413 1021,414 1023,415 1023,416 1024,419 1025,422 1026,424 1027,427 1028,430 1029,433 1030,436 1031,439 1032,441 1034,444 1035,446 1036,448 1038,450 1040,452 1042,453 1045,455 1050,456 1055,457 1060,458 1065,459 1070,460 1075,460 1080,460 1085,460 1090,460 1095,460 1100,459 1105,458 1110,457 1114,455 1119,453 1124,451 1126,449 1129,447 1131,445 1133,443 1135,440 1137,437 1138,435 1140,432 1141,429 1143,426 1145,423 1146,421 1148,418 1150,416 1152,414 1154,412" fill="#ff00ff" stroke="none" stroke-width="0" fill-rule="evenodd"/>
        <polygon points="1070,421 1073,421 1076,421 1079,421 1082,421 1085,421 1088,421 1091,421 1094,422 1097,422 1100,422 1103,422 1106,423 1109,423 1112,424 1115,425 1117,425 1119,426 1120,426 1122,426 1123,427 1124,428 1126,428 1127,429 1128,430 1128,431 1128,432 1128,433 1128,434 1128,435 1128,436 1127,437 1127,437 1123,440 1118,443 1114,445 1109,447 1104,449 1099,450 1094,450 1089,451 1083,451 1078,451 1073,450 1068,450 1063,449 1057,448 1052,447 1048,445 1047,445 1046,444 1045,444 1044,443 1043,442 1042,441 1041,440 1041,439 1042,428 1043,427 1045,426 1046,425 1047,425 1049,425 1050,424 1052,424 1053,424 1055,424 1056,423 1058,423 1060,423 1061,423 1063,422 1064,422 1066,422 1067,422 1068,422 1069,421 1070,421" fill="#00ff00" stroke="none" stroke-width="0" fill-rule="evenodd"/>
      </g>
      <polygon points="1214,747 1214,745 1213,742 1212,740 1211,737 1210,734 1209,731 1209,729 1208,727 1210,727 1213,727 1215,727 1217,727 1220,728 1222,728 1225,729 1227,730 1229,731 1231,731 1234,732 1236,733 1238,734 1240,735 1242,737 1244,738 1245,740 1246,742 1246,745 1246,747 1246,750 1245,752 1244,754 1243,757 1242,759 1241,761 1240,763 1239,766 1239,768 1238,771 1238,774 1238,777 1238,779 1238,782 1238,785 1238,788 1238,791 1237,793 1237,796 1236,799 1235,804 1234,809 1233,814 1231,819 1230,823 1229,828 1227,832 1225,837 1223,841 1221,845 1219,848 1216,852 1214,856 1211,859 1208,863 1205,866 1203,868 1200,870 1198,872 1195,874 1193,876 1190,878 1188,881 1186,883 1186,889 1185,894 1184,899 1183,905 1181,910 1180,915 1179,921 1177,926 1176,931 1174,936 1172,941 1171,946 1169,951 1167,957 1166,962 1165,967 1162,968 1159,969 1156,970 1153,971 1149,971 1146,971 1143,972 1140,972 1137,972 1134,972 1131,972 1127,971 1124,971 1121,971 1118,970 1115,970 1113,970 1111,969 1109,969 1107,969 1105,968 1103,968 1101,967 1099,967 1097,966 1095,966 1093,965 1091,964 1090,963 1088,962 1086,961 1085,959 1084,922 1087,921 1091,921 1094,920 1097,920 1101,919 1104,918 1107,917 1111,916 1114,915 1117,913 1120,912 1123,911 1126,909 1129,907 1132,906 1135,904 1135,903 1135,903 1135,902 1135,902 1135,901 1135,900 1134,900 1133,899 1130,901 1127,903 1124,904 1120,905 1117,907 1114,908 1111,909 1107,910 1104,911 1101,911 1098,912 1094,913 1091,913 1088,913 1085,913 1081,914 1078,914 1074,914 1071,913 1068,913 1064,913 1061,912 1058,912 1054,911 1051,910 1047,910 1044,909 1041,908 1037,907 1034,906 1031,904 1027,903 1027,903 1026,904 1026,904 1025,905 1025,905 1024,907 1025,908 1025,909 1028,910 1031,912 1035,913 1038,914 1041,915 1044,916 1048,917 1051,917 1054,918 1058,918 1061,919 1064,919 1068,920 1071,921 1074,921 1077,922 1078,924 1078,926 1078,928 1078,930 1078,932 1078,935 1079,937 1079,939 1079,942 1079,944 1079,946 1079,948 1079,950 1079,953 1079,955 1078,957 1077,958 1076,960 1074,961 1073,962 1071,963 1070,964 1068,965 1067,965 1065,966 1063,967 1062,968 1060,968 1058,969 1056,969 1055,970 1053,970 1048,971 1044,971 1040,971 1035,971 1031,971 1027,971 1022,971 1018,971 1014,971 1009,970 1005,970 1001,969 997,968 992,967 988,965 984,963 984,962 984,961 983,959 983,957 983,956 982,954 982,953 982,951 981,947 980,943 980,940 979,936 979,932 978,928 978,924 977,921 976,917 976,913 975,909 975,906 974,902 974,898 973,894 972,891 970,889 967,887 965,886 962,884 959,882 957,881 954,879 952,877 949,874 947,872 945,870 943,867 941,865 939,862 937,859 936,856 935,853 934,850 933,847 932,845 931,842 930,839 930,836 929,833 928,831 928,828 927,825 927,822 926,819 926,816 925,813 924,811 924,807 923,803 923,799 923,795 922,791 922,787 922,783 922,779 921,776 921,772 920,768 920,765 919,761 918,758 916,754 915,751 917,748 919,746 922,744 925,742 927,740 930,739 934,737 937,736 940,735 943,734 946,732 950,731 953,730 956,729 959,727 962,726 963,726 963,726 964,726 964,726 954,754 935,750 946,744 947,743 947,743 948,742 948,741 947,739 945,739 942,739 940,740 937,741 935,743 933,744 930,746 928,747 928,748 928,749 928,750 928,751 928,752 928,754 929,755 930,755 931,756 931,757 932,757 934,758 937,759 940,759 944,760 947,760 951,761 954,761 957,762 961,762 964,762 967,763 971,763 974,763 978,764 981,764 984,764 988,765 988,765 989,765 989,765 989,766 989,768 989,770 988,772 987,775 987,777 986,780 985,782 985,785 984,787 983,789 983,792 983,794 983,797 983,799 983,801 984,804 986,805 988,806 990,807 993,808 995,809 998,809 1000,810 1003,811 1005,811 1008,811 1011,811 1013,811 1016,811 1018,811 1021,811 1023,810 1025,808 1027,806 1028,804 1030,801 1031,799 1032,796 1033,793 1034,790 1034,787 1035,785 1036,782 1036,779 1037,776 1038,773 1039,770 1040,768 1127,768 1128,771 1129,773 1129,776 1130,778 1130,781 1131,784 1131,786 1132,789 1133,791 1133,794 1134,796 1135,798 1137,800 1138,801 1140,803 1143,804 1145,804 1147,804 1150,805 1152,805 1155,805 1157,805 1160,804 1162,804 1165,803 1167,803 1170,802 1172,801 1174,800 1176,799 1178,797 1180,796 1181,794 1181,792 1182,789 1182,787 1182,785 1182,783 1182,781 1182,778 1181,776 1181,774 1180,772 1180,769 1179,767 1179,765 1179,763 1178,761 1182,760 1185,759 1189,759 1192,758 1195,758 1199,757 1203,757 1206,756 1210,756 1213,755 1217,754 1220,754 1223,753 1227,751 1230,750 1233,748 1234,747 1234,745 1234,743 1233,741 1233,739 1232,737 1230,736 1229,735 1226,736 1225,737 1225,738 1225,739 1225,740 1226,741 1226,742 1227,743 1227,743 1227,744 1227,744 1227,744 1226,744 1224,745 1223,746 1221,746 1220,746 1219,746 1218,747 1217,747 1214,747" fill="#ffff00" stroke="none" stroke-width="0" fill-rule="evenodd"/>
      <g data-mdcr="group" class="mdcr-region">
        <g data-mdcr="group" class="mdcr-region">
          <polygon points="806,437 807,437 808,438 809,438 810,439 811,440 812,441 812,443 813,444 813,445 813,446 813,448 813,449 813,450 814,452 814,453 814,454 814,457 813,460 813,464 812,467 812,470 811,473 810,476 810,479 809,482 808,485 807,488 807,491 806,494 805,497 805,500 805,503 804,506 804,510 804,513 804,516 804,519 804,522 805,525 806,528 807,529 807,530 808,530 809,531 811,532 812,533 813,533 814,534 815,534 816,534 817,534 818,534 818,535 819,535 820,535 821,536 821,536 822,537 822,538 823,539 823,540 823,541 823,542 823,543 822,544 822,545 822,546 821,547 820,548 818,550 815,553 812,557 809,560 807,564 805,566 804,567 804,570 804,573 804,576 804,579 804,582 804,585 803,588 803,591 803,594 802,597 802,599 801,602 800,605 799,608 798,610 797,612 796,613 795,613 794,613 793,613 793,613 792,612 791,612 791,611 790,610 789,608 788,606 787,604 786,602 785,601 784,600 782,599 781,600 779,602 777,603 775,604 773,606 771,607 769,608 766,608 764,609 762,609 760,610 757,610 755,610 753,609 751,609 748,608 747,608 747,607 746,607 746,607 748,604 751,602 753,599 754,596 756,593 757,590 758,586 758,583 757,580 757,579 757,577 756,575 755,573 755,571 754,570 753,568 755,568 757,566 759,565 761,564 763,562 764,560 766,558 766,556 767,553 767,550 767,547 766,544 765,541 764,539 762,536 761,534 756,530 752,526 747,522 741,519 736,515 730,513 724,510 718,507 712,503 707,500 702,496 697,492 692,487 688,482 685,476 682,469 681,466 681,462 681,459 682,456 682,453 684,451 685,449 687,447 689,446 691,445 693,445 695,445 698,445 700,445 702,446 704,447 707,448 709,449 712,450 714,452 716,453 718,454 720,456 722,457 726,460 729,464 733,467 737,470 741,473 745,477 749,480 753,484 757,488 760,492 764,496 767,501 769,506 771,511 773,516 774,522 775,523 775,523 776,524 777,524 778,524 779,524 780,524 781,523 780,519 780,515 779,510 779,506 779,501 780,496 780,492 781,487 781,483 782,478 783,474 784,469 786,465 787,460 789,456 790,452 792,450 793,447 795,445 797,443 799,441 801,439 803,438 806,437" fill="#0000ff" stroke="none" stroke-width="0" fill-rule="evenodd"/>
          <polygon points="719,516 722,518 725,519 728,520 730,521 733,522 736,523 738,525 741,526 743,528 746,529 748,531 750,533 753,535 755,537 757,540 759,542 760,544 760,545 761,547 761,548 761,550 761,551 761,553 761,554 759,557 756,559 753,560 750,561 747,562 744,562 740,562 737,562 735,561 733,561 731,560 729,560 727,559 725,558 723,556 722,555 720,554 719,553 717,551 716,550 715,548 714,546 713,544 712,542 711,539 711,536 711,533 711,530 712,527 713,524 714,521 715,519 716,518 717,517 718,517 719,516 719,516 719,516 719,516 719,516" fill="#0000ff" stroke="none" stroke-width="0" fill-rule="evenodd"/>
          <polygon points="713,556 715,558 716,559 718,560 720,561 721,563 723,564 725,565 727,566 729,566 731,567 733,568 736,568 738,569 740,569 742,569 744,569 749,574 750,576 751,578 751,580 752,582 752,584 752,586 752,588 751,590 749,592 748,594 746,596 744,598 743,599 741,600 739,601 736,602 733,601 730,601 727,600 724,598 721,597 718,595 715,593 713,590 712,589 711,587 711,585 710,584 709,582 709,580 708,578 708,576 708,574 708,572 708,570 708,568 708,566 709,564 709,562 709,560 710,559 711,558 712,557 713,556 713,556 713,556 713,556 713,556" fill="#0000ff" stroke="none" stroke-width="0" fill-rule="evenodd"/>
          <polygon points="826,557 869,576 863,607 860,606 857,605 853,603 850,602 847,600 844,599 841,597 838,595 834,593 831,591 828,589 825,588 822,586 819,584 816,583 812,581 812,571 826,557 826,557 826,557 826,557 826,557" fill="#ff00ff" stroke="none" stroke-width="0" fill-rule="evenodd"/>
        </g>
        <g data-mdcr="group" class="mdcr-region">
          <polygon points="1444,389 1450,390 1451,391 1452,392 1453,393 1453,394 1454,395 1455,397 1455,398 1455,400 1453,404 1451,407 1449,410 1447,413 1444,416 1442,418 1439,420 1436,422 1433,424 1430,426 1427,429 1424,431 1421,433 1419,436 1416,438 1414,441 1414,442 1414,442 1414,443 1414,443 1414,444 1415,445 1416,445 1418,445 1420,444 1421,443 1423,441 1425,440 1426,438 1428,437 1430,436 1431,434 1433,433 1434,431 1436,430 1438,429 1439,428 1441,426 1442,425 1444,424 1445,423 1446,421 1448,420 1449,419 1450,418 1452,418 1453,417 1455,416 1456,416 1458,415 1460,415 1461,415 1463,415 1465,415 1466,415 1468,416 1469,416 1471,417 1472,418 1473,419 1474,420 1475,422 1475,423 1476,425 1476,426 1476,427 1476,428 1476,429 1473,432 1470,436 1467,438 1464,441 1461,444 1457,446 1454,448 1451,451 1448,453 1445,455 1441,458 1438,460 1435,463 1432,466 1430,469 1427,472 1427,472 1427,473 1427,473 1427,473 1428,474 1429,474 1430,474 1430,474 1444,466 1446,466 1448,466 1451,466 1453,466 1456,465 1458,465 1461,465 1463,464 1466,464 1469,464 1471,464 1473,465 1476,465 1478,466 1480,467 1482,469 1483,470 1484,472 1484,473 1484,475 1484,476 1484,478 1483,479 1483,480 1480,482 1477,484 1474,486 1471,488 1468,489 1465,491 1461,492 1458,493 1454,494 1451,495 1447,496 1444,497 1441,498 1437,499 1434,500 1431,502 1429,505 1427,509 1426,512 1423,515 1421,518 1419,521 1416,524 1413,527 1410,529 1407,532 1404,534 1401,535 1397,537 1394,538 1390,539 1386,540 1384,540 1381,541 1379,541 1377,541 1375,541 1373,541 1371,540 1369,539 1366,540 1365,542 1365,545 1364,548 1364,550 1363,553 1362,555 1361,557 1359,558 1359,559 1358,559 1358,559 1358,559 1355,556 1353,553 1351,550 1349,547 1348,543 1346,539 1345,536 1343,532 1342,528 1340,524 1339,521 1337,517 1335,513 1333,510 1331,507 1328,504 1328,503 1328,502 1328,501 1328,500 1329,499 1329,498 1329,498 1330,497 1341,493 1341,490 1341,487 1341,484 1341,481 1341,478 1340,475 1340,471 1340,468 1339,465 1339,462 1339,459 1339,455 1339,452 1340,449 1340,446 1341,443 1342,439 1342,436 1343,433 1344,430 1344,426 1345,423 1346,420 1348,417 1349,415 1350,412 1352,410 1354,407 1356,405 1357,403 1360,401 1362,399 1364,399 1365,399 1366,399 1367,400 1368,400 1369,401 1370,402 1371,403 1372,405 1373,407 1374,409 1375,411 1375,413 1375,415 1376,417 1376,419 1376,421 1376,424 1376,426 1375,428 1375,430 1375,432 1374,434 1374,436 1374,439 1373,441 1372,443 1372,445 1371,447 1371,449 1370,451 1371,453 1371,453 1372,453 1373,453 1373,453 1374,453 1374,453 1375,452 1375,452 1377,449 1378,446 1378,443 1379,440 1380,437 1381,434 1382,431 1383,428 1387,425 1390,422 1394,419 1397,416 1401,413 1404,410 1408,407 1411,405 1415,402 1419,400 1422,398 1426,396 1430,393 1435,392 1439,390 1444,389" fill="#0000ff" stroke="none" stroke-width="0" fill-rule="evenodd"/>
          <polygon points="1328,520 1329,520 1329,520 1329,520 1330,520 1338,541 1336,543 1334,545 1332,547 1329,549 1327,551 1325,553 1322,555 1320,557 1318,559 1315,561 1313,563 1311,565 1308,567 1306,569 1304,571 1301,573 1301,573 1300,574 1300,574 1300,574 1288,545 1290,543 1292,541 1294,540 1296,539 1298,537 1300,536 1303,534 1305,533 1307,532 1309,530 1312,529 1314,528 1316,527 1318,525 1320,524 1323,522 1323,522 1324,522 1325,521 1326,521 1326,521 1327,520 1327,520 1328,520" fill="#ff00ff" stroke="none" stroke-width="0" fill-rule="evenodd"/>
          <polygon points="1286,591 1287,591 1288,592 1289,593 1290,594 1290,595 1290,596 1290,597 1290,598 1289,599 1289,600 1288,601 1288,602 1287,603 1286,603 1284,604 1283,604 1281,604 1280,603 1279,603 1278,602 1278,602 1277,601 1277,600 1277,599 1277,598 1277,597 1277,596 1278,595 1278,594 1278,594 1279,593 1279,593 1286,591" fill="#000000" stroke="none" stroke-width="0" fill-rule="evenodd"/>
        </g>
      </g>
      <g data-mdcr="group" class="mdcr-region">
        <g data-mdcr="group" class="mdcr-region">
          <polygon points="1176,451 1178,451 1181,451 1184,452 1186,452 1189,453 1191,455 1193,457 1195,459 1196,459 1196,460 1196,460 1196,461 1193,468 1184,475 1184,476 1184,476 1184,476 1184,477 1184,478 1185,478 1185,479 1186,480 1189,479 1192,480 1194,480 1196,480 1199,481 1201,482 1203,483 1205,484 1207,486 1210,487 1212,489 1214,490 1215,492 1217,494 1219,496 1221,498 1222,500 1223,503 1224,506 1224,508 1224,511 1224,513 1223,516 1223,518 1221,520 1219,522 1217,523 1215,524 1213,526 1211,527 1208,528 1207,529 1206,532 1207,534 1208,536 1209,538 1210,540 1211,542 1212,545 1212,547 1211,550 1210,551 1208,553 1207,555 1206,556 1204,558 1202,559 1201,560 1199,560 1196,561 1193,561 1190,560 1187,559 1185,558 1182,557 1180,556 1177,555 1176,556 1176,557 1175,559 1175,561 1174,562 1173,564 1172,565 1170,565 1169,566 1168,566 1167,567 1165,567 1164,567 1163,567 1162,567 1160,567 1161,564 1161,561 1162,559 1162,556 1162,553 1162,550 1162,547 1162,544 1162,542 1162,539 1161,536 1160,534 1159,531 1158,529 1157,526 1156,524 1154,523 1153,521 1152,520 1151,519 1150,518 1148,517 1147,516 1146,516 1146,513 1146,510 1146,507 1147,504 1147,501 1147,499 1146,496 1146,493 1146,490 1146,487 1145,484 1145,481 1144,478 1143,476 1142,473 1140,470 1140,469 1140,469 1140,468 1140,467 1141,465 1143,464 1144,462 1146,461 1148,460 1150,459 1152,458 1154,457 1156,456 1158,455 1161,455 1163,454 1165,453 1167,453 1170,452 1172,452 1173,452 1174,452 1175,451 1176,451" fill="#800080" stroke="none" stroke-width="0" fill-rule="evenodd"/>
          <polygon points="994,453 996,453 998,453 1000,453 1002,454 1004,454 1006,454 1008,454 1009,455 1011,455 1013,456 1015,457 1017,457 1018,458 1020,460 1022,461 1023,462 1024,463 1025,465 1026,466 1027,467 1028,467 1028,468 1029,469 1030,470 1029,472 1029,473 1028,475 1027,477 1026,479 1026,481 1025,483 1025,485 1024,487 1023,489 1023,491 1022,493 1022,495 1022,497 1022,499 1022,501 1022,503 1022,505 1022,506 1022,508 1022,510 1022,511 1022,513 1021,514 1019,516 1017,518 1015,521 1013,523 1012,527 1011,530 1009,533 1008,537 1008,540 1008,544 1009,547 1009,551 1010,554 1010,557 1011,561 1011,564 1009,566 1006,567 1003,569 1000,569 997,570 994,570 991,570 988,569 986,568 984,567 982,566 980,565 978,563 977,562 975,560 974,558 974,557 973,556 973,555 973,554 973,553 972,552 972,551 971,550 969,550 967,551 966,552 964,552 963,553 961,553 959,553 957,553 956,553 954,553 952,553 951,552 949,552 947,551 946,550 944,549 943,548 942,547 940,546 940,545 939,543 938,542 938,540 937,538 937,536 937,533 937,530 938,527 938,524 939,521 940,519 941,516 942,513 943,511 944,508 946,506 947,504 949,502 951,500 952,498 954,496 955,495 956,495 957,494 958,493 959,492 960,492 961,491 962,490 965,486 964,485 963,484 963,482 962,481 962,479 962,478 962,476 962,474 963,472 965,470 966,468 968,466 970,464 971,463 973,461 975,460 977,458 979,457 982,456 984,455 987,455 989,454 992,453 994,453" fill="#800080" stroke="none" stroke-width="0" fill-rule="evenodd"/>
        </g>
        <polygon points="1131,470 1133,472 1134,475 1136,478 1137,481 1138,484 1139,488 1139,492 1140,495 1140,498 1140,500 1140,503 1140,505 1140,507 1139,510 1139,512 1137,514 1122,516 1120,513 1118,511 1117,508 1115,506 1112,504 1110,502 1108,500 1106,499 1103,497 1101,496 1098,495 1095,494 1092,493 1090,493 1087,493 1084,493 1081,494 1078,494 1076,495 1073,496 1071,497 1068,498 1066,498 1063,500 1061,501 1059,502 1057,504 1055,505 1053,507 1051,509 1049,511 1047,513 1029,508 1028,507 1027,505 1027,503 1027,501 1027,499 1027,496 1028,494 1028,492 1028,490 1029,487 1030,485 1030,482 1031,480 1032,478 1033,476 1035,474 1053,481 1052,481 1052,482 1051,482 1050,482 1049,483 1049,484 1048,486 1047,487 1047,489 1047,490 1047,492 1047,494 1048,495 1049,496 1051,496 1052,497 1054,497 1055,496 1057,496 1059,496 1059,496 1060,496 1060,495 1061,495 1062,494 1062,494 1063,493 1063,492 1063,491 1063,490 1063,489 1063,487 1062,487 1062,486 1061,485 1060,484 1060,483 1059,483 1058,482 1057,482 1062,481 1066,481 1071,481 1076,481 1080,481 1085,480 1089,480 1094,480 1099,479 1103,479 1108,478 1112,477 1117,476 1122,474 1126,472 1131,470" fill="#ffffff" stroke="none" stroke-width="0" fill-rule="evenodd"/>
        <polygon points="1116,479 1117,479 1119,479 1120,480 1121,480 1122,481 1124,481 1125,483 1125,484 1126,484 1126,485 1126,485 1126,485 1126,486 1126,487 1126,488 1126,488 1125,489 1125,490 1125,490 1125,491 1123,492 1122,492 1121,493 1119,493 1118,493 1117,493 1115,492 1114,492 1113,491 1113,490 1112,489 1112,487 1112,486 1112,485 1112,484 1112,483 1113,482 1114,480 1115,480 1116,479" fill="#000000" stroke="none" stroke-width="0" fill-rule="evenodd"/>
        <polygon points="1085,501 1087,501 1089,501 1091,502 1093,502 1095,502 1096,503 1098,503 1100,504 1102,505 1104,506 1105,507 1107,508 1108,509 1110,511 1111,512 1112,513 1114,515 1115,517 1116,519 1117,522 1118,524 1118,526 1118,529 1118,532 1116,535 1114,538 1112,540 1109,542 1106,543 1103,545 1100,546 1097,547 1094,547 1091,547 1088,548 1085,548 1082,548 1079,548 1076,548 1073,547 1070,547 1067,546 1064,545 1061,544 1059,543 1056,541 1054,539 1052,536 1051,534 1050,532 1050,530 1050,527 1051,525 1051,522 1052,520 1053,518 1054,516 1055,515 1057,513 1058,512 1060,511 1062,509 1063,508 1065,507 1067,506 1069,505 1071,505 1073,504 1075,503 1077,503 1079,502 1081,501 1081,502 1082,502 1083,502 1083,502 1084,501 1084,501 1085,501 1085,501" fill="#ff0000" stroke="none" stroke-width="0" fill-rule="evenodd"/>
        <polygon points="1092,505 1093,505 1094,506 1095,506 1096,507 1097,508 1098,508 1099,510 1100,511 1101,512 1102,514 1102,516 1102,518 1102,520 1101,521 1101,523 1100,524 1098,525 1097,525 1095,526 1093,526 1091,526 1089,525 1088,525 1086,524 1085,523 1085,522 1084,522 1084,521 1084,519 1084,517 1084,515 1085,513 1086,511 1087,510 1088,508 1089,507 1090,506 1091,506 1091,505 1092,505" fill="#000000" stroke="none" stroke-width="0" fill-rule="evenodd"/>
        <polygon points="1092,514 1092,514 1092,514 1093,514 1093,514 1094,514 1095,515 1095,516 1096,517 1096,517 1096,517 1096,518 1095,518 1091,518 1091,517 1090,517 1090,517 1090,516 1091,514 1091,514 1091,514 1092,514 1092,514" fill="#ffffff" stroke="none" stroke-width="0" fill-rule="evenodd"/>
        <polygon points="1029,518 1031,518 1032,518 1034,518 1036,518 1038,519 1040,519 1041,520 1043,521 1043,522 1043,522 1044,522 1044,523 1043,525 1043,528 1043,531 1043,533 1043,536 1044,538 1045,541 1046,543 1049,545 1052,548 1055,550 1058,551 1061,553 1065,554 1068,555 1072,555 1075,556 1079,556 1083,556 1087,556 1090,555 1094,555 1097,554 1101,553 1104,552 1107,551 1110,550 1112,549 1115,547 1117,545 1119,542 1121,540 1121,538 1122,536 1122,534 1122,532 1122,531 1123,529 1123,527 1124,526 1126,524 1128,524 1131,523 1134,523 1136,523 1139,523 1142,523 1144,524 1146,526 1148,528 1150,530 1151,532 1153,534 1154,537 1154,540 1155,543 1155,546 1155,550 1155,553 1155,557 1154,560 1154,563 1153,566 1152,570 1151,573 1149,576 1148,578 1146,581 1145,584 1143,586 1141,589 1139,591 1134,594 1130,597 1125,600 1120,603 1115,605 1110,607 1105,608 1099,609 1094,610 1088,611 1083,611 1077,611 1071,610 1066,609 1060,608 1055,606 1052,604 1048,602 1045,600 1043,598 1040,595 1037,592 1034,590 1032,587 1030,585 1029,582 1027,580 1026,578 1024,575 1023,572 1022,570 1020,567 1019,565 1018,562 1017,559 1016,556 1016,553 1015,550 1014,547 1014,543 1014,540 1015,537 1015,534 1016,531 1018,529 1019,526 1021,524 1023,522 1024,522 1025,521 1025,520 1026,520 1027,519 1027,519 1028,518 1029,518" fill="#00ffff" stroke="none" stroke-width="0" fill-rule="evenodd"/>
        <polygon points="1134,554 1134,554 1134,554 1135,554 1135,554 1136,557 1135,559 1134,562 1133,564 1131,566 1129,568 1127,570 1126,572 1124,574 1121,576 1118,579 1115,581 1112,583 1108,585 1105,586 1101,587 1098,588 1094,588 1090,589 1086,589 1083,589 1079,589 1075,588 1071,588 1068,587 1065,586 1062,585 1059,584 1057,583 1054,581 1052,580 1050,578 1048,577 1045,575 1044,573 1042,571 1040,569 1038,567 1036,564 1035,562 1033,559 1034,556 1034,556 1034,556 1034,555 1035,555 1037,558 1039,560 1042,562 1044,564 1046,567 1048,569 1051,571 1053,573 1055,574 1058,576 1061,577 1063,579 1066,580 1069,581 1072,581 1075,582 1079,582 1082,583 1085,583 1088,583 1092,583 1095,582 1098,582 1101,581 1104,580 1107,579 1110,577 1113,575 1116,574 1118,571 1121,569 1123,567 1124,565 1126,564 1127,562 1128,560 1130,559 1131,557 1132,556 1134,554 1134,554 1134,554 1134,554 1134,554" fill="#000000" stroke="none" stroke-width="0" fill-rule="evenodd"/>
        <polygon points="1181,565 1183,566 1185,567 1187,568 1189,568 1192,568 1194,568 1197,568 1199,568 1180,583 1178,583 1177,583 1175,583 1173,582 1172,582 1170,582 1169,582 1167,582 1165,582 1164,583 1162,583 1161,583 1159,583 1157,583 1156,584 1154,584 1157,576 1160,576 1164,575 1167,575 1170,574 1173,572 1176,571 1178,568 1180,565 1180,565 1180,565 1181,565 1181,565" fill="#ffffff" stroke="none" stroke-width="0" fill-rule="evenodd"/>
        <polygon points="1014,572 1014,572 1015,572 1015,573 1015,573 1019,581 1003,578 1014,572 1014,572 1014,572 1014,572 1014,572" fill="#ffffff" stroke="none" stroke-width="0" fill-rule="evenodd"/>
        <polygon points="999,586 1002,586 1005,586 1008,586 1011,587 1014,588 1017,589 1019,590 1022,592 1024,593 1027,595 1029,597 1032,600 1034,602 1036,605 1038,607 1040,610 1043,613 1045,617 1047,619 1050,623 1052,625 1054,629 1056,632 1058,635 1057,637 1057,640 1056,642 1055,645 1055,647 1054,650 1054,652 1054,655 1053,657 1053,660 1053,662 1052,665 1052,668 1052,670 1052,673 1051,675 1048,676 1046,677 1042,677 1039,677 1036,678 1033,678 1030,679 1027,679 1023,680 1020,681 1018,682 1015,683 1012,685 1010,687 1008,689 1006,692 1005,694 1005,696 1005,697 1005,699 1005,701 1005,702 1005,704 1006,705 1007,706 1007,706 1008,707 1008,707 1012,707 1012,707 1013,706 1014,705 1014,704 1014,703 1014,703 1014,703 1014,702 1012,699 1012,698 1012,696 1012,695 1013,694 1015,693 1017,691 1019,690 1021,689 1024,689 1026,688 1029,687 1031,686 1034,686 1036,686 1039,685 1041,685 1044,685 1046,684 1049,684 1051,684 1052,685 1051,686 1050,686 1049,687 1047,688 1044,690 1042,691 1039,693 1037,695 1035,697 1032,699 1030,701 1028,703 1025,705 1023,707 1021,708 1018,709 1015,711 1012,711 1009,712 1006,711 1003,710 1001,709 998,707 996,705 994,703 992,700 990,698 989,696 989,694 988,692 987,690 987,688 987,686 987,684 987,682 987,680 987,678 988,675 989,674 989,672 990,670 991,668 991,666 993,664 994,662 994,660 994,657 994,654 993,652 993,650 992,648 990,646 989,644 987,642 986,640 984,638 983,636 981,635 980,633 979,631 978,629 977,627 976,625 975,623 975,620 975,618 975,615 976,613 977,611 978,609 979,607 980,605 980,603 982,601 983,599 984,597 985,596 986,594 988,593 989,591 991,590 993,589 994,587 995,587 996,587 996,587 997,587 997,587 998,587 998,586 999,586" fill="#00ff00" stroke="none" stroke-width="0" fill-rule="evenodd"/>
        <polygon points="1167,590 1170,590 1172,590 1175,591 1178,591 1180,592 1183,593 1185,595 1187,597 1188,599 1189,601 1189,602 1190,605 1190,607 1190,609 1190,611 1190,613 1190,615 1189,617 1189,619 1188,621 1188,623 1187,625 1186,627 1186,629 1185,631 1183,633 1182,635 1181,637 1179,639 1177,642 1176,644 1175,646 1173,648 1172,650 1172,652 1171,655 1171,658 1171,660 1171,663 1172,666 1173,668 1174,670 1174,672 1175,674 1175,676 1176,678 1176,680 1176,682 1176,684 1176,686 1176,688 1176,690 1175,692 1175,694 1174,695 1173,697 1172,699 1171,700 1170,701 1169,702 1167,703 1166,704 1164,704 1163,705 1159,705 1156,704 1153,704 1150,703 1147,701 1145,700 1142,698 1139,696 1137,694 1134,692 1132,690 1129,689 1126,687 1123,685 1120,684 1116,683 1116,683 1116,683 1117,682 1117,682 1119,682 1121,681 1124,681 1126,681 1128,681 1131,681 1133,681 1136,681 1138,682 1140,682 1143,683 1145,684 1147,685 1149,686 1151,687 1153,689 1154,690 1155,691 1156,691 1157,693 1156,693 1156,694 1156,695 1155,695 1154,696 1154,697 1153,698 1153,698 1153,702 1156,704 1164,696 1164,694 1164,692 1163,690 1163,688 1162,687 1161,685 1160,684 1158,682 1156,681 1154,680 1152,678 1149,677 1147,676 1144,676 1142,675 1140,674 1137,674 1135,673 1132,673 1130,672 1127,672 1125,672 1122,672 1120,672 1119,670 1119,668 1119,665 1119,663 1119,660 1118,658 1118,655 1118,653 1118,650 1118,648 1117,645 1117,643 1116,640 1115,638 1114,636 1113,634 1114,631 1114,629 1115,627 1117,625 1118,623 1119,621 1121,619 1122,617 1124,615 1126,613 1127,612 1129,610 1131,608 1132,607 1134,605 1136,604 1137,603 1139,602 1141,600 1143,599 1145,598 1146,597 1148,596 1150,595 1152,594 1154,593 1156,593 1158,592 1161,591 1163,591 1165,590 1167,590" fill="#00ff00" stroke="none" stroke-width="0" fill-rule="evenodd"/>
        <polygon points="1051,613 1065,618 1063,626 1062,626 1062,627 1062,627 1061,627 1051,613 1051,613 1051,613 1051,613 1051,613" fill="#ffffff" stroke="none" stroke-width="0" fill-rule="evenodd"/>
        <polygon points="1111,616 1112,616 1112,616 1113,616 1113,616 1113,617 1112,618 1112,620 1111,621 1110,622 1109,623 1108,624 1107,625 1103,619 1103,619 1103,618 1103,618 1104,618 1111,616" fill="#ffffff" stroke="none" stroke-width="0" fill-rule="evenodd"/>
        <polygon points="1072,618 1095,619 1095,619 1096,620 1096,621 1096,622 1071,623 1070,622 1070,622 1070,621 1070,620 1071,618 1071,618 1072,618 1072,618 1072,618" fill="#ffffff" stroke="none" stroke-width="0" fill-rule="evenodd"/>
        <polygon points="1081,630 1083,630 1085,630 1087,630 1088,630 1090,630 1092,631 1094,631 1096,631 1097,632 1099,632 1101,633 1102,634 1104,635 1105,636 1107,638 1108,639 1109,642 1110,644 1110,647 1111,649 1111,652 1112,654 1112,657 1112,660 1112,663 1112,665 1112,668 1111,670 1111,673 1110,676 1110,678 1109,681 1107,683 1106,684 1104,686 1102,687 1100,688 1098,688 1095,689 1093,689 1091,689 1088,689 1086,689 1084,689 1081,689 1079,689 1077,689 1075,689 1073,688 1070,688 1068,687 1066,687 1063,686 1062,685 1060,683 1059,682 1058,679 1058,676 1058,673 1058,669 1058,666 1058,663 1058,660 1059,657 1059,654 1059,651 1060,648 1061,645 1062,642 1063,640 1064,637 1065,635 1067,634 1069,633 1071,632 1073,631 1075,631 1077,631 1079,631 1081,630" fill="#ffff00" stroke="none" stroke-width="0" fill-rule="evenodd"/>
      </g>
      <g data-mdcr="group" class="mdcr-region">
        <polygon points="1275,542 1276,542 1278,543 1279,544 1279,545 1280,546 1281,547 1282,548 1282,550 1284,552 1285,555 1286,558 1287,560 1288,563 1289,566 1290,569 1291,572 1292,575 1293,578 1294,581 1294,584 1295,587 1296,590 1296,593 1297,596 1296,599 1272,613 1271,609 1270,605 1269,602 1268,598 1267,594 1266,590 1265,586 1265,582 1264,579 1262,575 1261,571 1260,568 1259,564 1257,561 1256,558 1254,555 1256,553 1258,551 1261,549 1263,548 1266,546 1269,545 1272,543 1275,542" fill="#ff0000" stroke="none" stroke-width="0" fill-rule="evenodd"/>
        <polygon points="1207,749 1205,750 1203,750 1201,750 1199,751 1197,751 1195,751 1193,752 1192,752 1190,752 1188,752 1186,753 1184,753 1182,753 1180,753 1179,753 1177,753 1166,713 1166,712 1166,712 1166,712 1167,712 1169,710 1172,708 1175,706 1177,704 1179,701 1181,698 1182,694 1183,690 1183,687 1183,684 1183,681 1183,678 1182,675 1181,672 1181,669 1180,667 1179,664 1179,661 1178,658 1178,656 1179,653 1179,650 1180,648 1182,646 1184,644 1185,642 1187,640 1188,637 1190,635 1191,632 1192,630 1193,627 1194,625 1195,622 1196,619 1196,616 1197,613 1197,611 1197,608 1197,605 1197,602 1196,599 1195,597 1194,594 1193,592 1192,590 1191,588 1189,586 1192,584 1195,581 1197,579 1200,577 1204,575 1207,573 1210,571 1213,569 1217,567 1220,566 1224,564 1227,562 1231,561 1235,560 1239,558 1242,557 1243,557 1244,557 1245,558 1246,558 1247,559 1247,559 1248,560 1249,561 1251,564 1252,568 1254,571 1255,575 1256,579 1258,583 1259,587 1260,591 1261,595 1262,599 1263,603 1264,607 1264,611 1265,615 1265,619 1265,623 1265,624 1265,624 1265,624 1264,625 1260,628 1255,631 1250,635 1245,639 1240,643 1235,647 1230,652 1226,656 1221,661 1216,666 1212,671 1207,676 1203,681 1198,686 1194,692 1189,697 1190,700 1191,703 1192,706 1193,709 1195,712 1196,715 1197,718 1199,722 1200,725 1201,728 1202,732 1203,735 1204,739 1205,742 1206,745 1207,749" fill="#ff0000" stroke="none" stroke-width="0" fill-rule="evenodd"/>
        <polygon points="880,572 882,572 884,573 885,573 887,574 889,574 890,575 892,576 893,576 895,577 897,578 898,579 900,580 901,581 902,582 904,583 905,584 905,588 904,592 904,596 903,600 903,604 902,608 901,613 901,617 900,621 899,625 898,629 897,633 896,638 896,642 895,646 894,650 892,650 890,649 889,648 887,648 885,647 883,646 881,645 880,644 878,643 876,641 874,640 873,639 871,638 869,637 868,636 866,635 866,631 867,627 867,623 868,619 869,615 869,611 870,607 870,602 871,599 872,594 873,590 874,587 875,583 877,579 878,575 880,572 880,572 880,572 880,572 880,572" fill="#ff0000" stroke="none" stroke-width="0" fill-rule="evenodd"/>
        <polygon points="912,584 914,584 916,585 917,585 919,585 921,586 923,586 925,587 927,587 930,588 933,589 936,590 938,591 941,591 944,592 947,593 950,594 952,595 955,596 958,596 961,597 964,598 966,599 969,600 972,601 972,602 973,602 973,602 973,603 972,604 971,606 970,608 970,610 969,612 969,614 968,616 968,618 968,620 968,622 968,624 968,626 969,628 969,630 970,632 971,634 972,635 973,637 974,639 975,640 977,642 978,644 980,645 981,647 983,649 984,650 985,652 986,654 987,656 987,658 987,660 986,663 985,665 984,667 983,669 982,671 982,674 981,676 980,679 980,681 980,684 980,686 980,689 980,691 980,694 981,696 982,698 983,700 985,704 987,707 989,709 992,712 995,714 997,716 1000,718 1003,720 993,756 992,757 990,757 988,758 987,758 985,758 983,758 981,758 979,758 977,757 975,757 973,757 971,757 969,756 967,756 965,756 963,756 963,756 962,756 962,755 962,755 962,753 963,750 963,747 964,745 965,742 967,740 968,738 969,735 970,733 972,730 973,728 974,725 975,723 976,720 976,717 977,714 972,709 968,704 964,700 959,696 955,692 950,687 946,684 941,680 936,677 932,673 927,670 922,667 917,664 912,661 906,658 901,655 901,651 901,647 902,642 902,638 903,634 903,629 904,625 905,620 906,616 907,611 908,606 909,602 910,597 910,593 911,589 911,584 911,584 912,584 912,584 912,584" fill="#ff0000" stroke="none" stroke-width="0" fill-rule="evenodd"/>
        <polygon points="879,628 880,628 881,628 883,629 884,629 885,629 886,630 887,631 887,632 888,633 888,634 888,636 888,637 888,638 887,639 887,640 886,640 878,641 877,640 877,640 876,639 876,637 876,637 875,637 875,636 875,636 879,628 879,628 879,628 879,628 879,628" fill="#000000" stroke="none" stroke-width="0" fill-rule="evenodd"/>
        <polygon points="1058,693 1060,694 1062,694 1063,695 1065,695 1066,695 1068,696 1070,696 1071,696 1073,696 1075,697 1076,697 1078,697 1080,697 1081,697 1083,697 1085,697 1088,697 1091,697 1094,697 1096,696 1099,696 1102,696 1105,695 1108,694 1109,698 1111,702 1112,706 1113,710 1114,714 1115,718 1116,723 1117,727 1118,731 1119,736 1120,740 1121,744 1122,748 1123,752 1124,757 1125,761 1123,761 1121,761 1119,762 1117,762 1115,762 1113,762 1111,762 1109,762 1105,762 1102,762 1099,761 1096,761 1093,761 1090,761 1087,761 1084,761 1081,761 1078,762 1075,762 1072,762 1069,762 1066,762 1063,762 1060,761 1058,762 1056,762 1053,762 1051,762 1049,761 1047,761 1045,761 1043,761 1043,757 1043,753 1044,749 1044,745 1045,741 1046,737 1047,733 1048,729 1049,725 1050,721 1051,716 1052,712 1053,708 1054,704 1055,700 1056,696 1056,695 1056,695 1056,694 1056,694 1057,694 1057,694 1057,693 1058,693 1058,693 1058,693 1058,693 1058,693" fill="#ff0000" stroke="none" stroke-width="0" fill-rule="evenodd"/>
        <polygon points="1117,693 1120,693 1123,694 1125,695 1128,697 1130,698 1133,700 1135,701 1137,703 1140,705 1142,707 1144,708 1147,710 1150,711 1152,712 1155,713 1158,714 1160,717 1161,720 1162,724 1163,727 1164,731 1165,734 1166,738 1167,742 1168,745 1169,749 1169,753 1170,756 1171,760 1172,764 1173,767 1174,771 1172,769 1170,767 1168,766 1165,765 1163,764 1160,763 1157,764 1155,764 1152,765 1150,767 1148,768 1146,770 1145,772 1143,775 1142,778 1141,780 1141,781 1141,782 1142,783 1142,784 1143,786 1145,787 1146,789 1148,790 1150,790 1153,791 1155,791 1157,791 1159,791 1161,790 1163,789 1165,789 1167,788 1168,786 1170,785 1171,784 1174,776 1175,777 1175,779 1176,781 1176,783 1176,785 1176,787 1176,789 1175,791 1173,792 1171,793 1170,794 1168,794 1166,795 1164,796 1162,796 1160,796 1157,797 1155,797 1153,797 1151,797 1149,797 1147,796 1145,796 1143,796 1141,790 1139,784 1137,778 1135,772 1133,766 1132,759 1130,753 1129,746 1127,740 1126,733 1125,726 1123,720 1122,713 1120,707 1118,700 1116,694 1116,694 1116,693 1116,693 1116,693 1116,693 1117,693 1117,693 1117,693" fill="#ffff00" stroke="none" stroke-width="0" fill-rule="evenodd"/>
        <polygon points="1049,698 1049,698 1049,698 1049,698 1049,698 1048,705 1046,711 1045,718 1044,725 1042,731 1041,738 1040,745 1038,752 1036,759 1035,766 1033,772 1031,779 1029,785 1027,791 1024,798 1021,804 1019,804 1017,804 1015,804 1013,804 1011,804 1009,804 1007,804 1005,803 1003,803 1001,803 999,802 997,802 996,801 994,801 992,800 990,800 990,800 989,799 989,799 989,799 990,794 990,789 992,784 993,779 994,774 995,769 996,764 998,760 999,755 1001,750 1002,745 1003,740 1005,736 1006,731 1008,726 1009,721 1012,721 1015,720 1018,719 1021,718 1023,716 1025,715 1028,713 1030,711 1032,709 1034,707 1036,705 1039,704 1041,702 1044,701 1046,699 1049,698" fill="#ffff00" stroke="none" stroke-width="0" fill-rule="evenodd"/>
        <polygon points="1155,770 1157,770 1158,770 1159,771 1161,771 1162,771 1163,772 1164,773 1165,774 1165,775 1166,775 1166,775 1166,775 1165,779 1164,780 1162,781 1160,782 1158,783 1156,783 1154,783 1152,783 1149,782 1149,781 1149,781 1148,781 1148,781 1148,777 1149,776 1149,775 1150,774 1151,773 1152,772 1153,771 1154,770 1155,770" fill="#ffffff" stroke="none" stroke-width="0" fill-rule="evenodd"/>
        <polygon points="1013,771 1022,774 1023,775 1024,776 1024,778 1025,780 1025,782 1025,784 1025,786 1024,787 1023,789 1022,791 1020,793 1018,794 1016,794 1014,795 1012,795 1010,795 1008,794 1006,794 1004,793 1002,792 1001,791 1000,789 999,788 998,786 998,784 998,783 999,781 999,780 1000,779 1001,777 1002,776 1003,775 1004,774 1006,774 1007,773 1008,773 1009,772 1011,772 1012,772 1013,771" fill="#000000" stroke="none" stroke-width="0" fill-rule="evenodd"/>
        <polygon points="1013,776 1017,778 1018,778 1018,779 1018,780 1019,781 1019,782 1019,783 1019,784 1019,785 1018,786 1017,787 1016,787 1014,788 1013,788 1011,788 1010,788 1009,787 1008,787 1007,787 1007,786 1006,786 1005,785 1005,785 1004,784 1004,783 1004,782 1005,781 1005,780 1006,779 1007,778 1008,778 1009,777 1010,777 1011,777 1012,777 1012,776 1013,776 1013,776 1013,776 1013,776 1013,776" fill="#ffffff" stroke="none" stroke-width="0" fill-rule="evenodd"/>
        <polygon points="1109,783 1110,783 1111,783 1113,783 1113,784 1114,785 1114,786 1114,787 1113,788 1109,789 1105,789 1101,789 1097,790 1093,790 1089,790 1085,791 1080,791 1076,791 1072,791 1068,791 1063,791 1059,791 1055,790 1051,790 1046,790 1046,789 1046,789 1046,788 1046,787 1109,783" fill="#000000" stroke="none" stroke-width="0" fill-rule="evenodd"/>
      </g>
      <g data-mdcr="group" class="mdcr-region">
        <polygon points="1106,976 1129,980 1129,1043 1127,1044 1126,1045 1125,1045 1123,1046 1122,1046 1120,1046 1119,1046 1117,1046 1116,1045 1114,1045 1112,1045 1111,1044 1110,1044 1108,1043 1107,1043 1105,1042 1104,1041 1104,1039 1104,1038 1104,1036 1104,1034 1104,1032 1104,1030 1103,1029 1099,1026 1099,1025 1099,1024 1100,1023 1100,1022 1101,1022 1102,1021 1103,1021 1104,1021 1105,1019 1105,1016 1106,1014 1106,1012 1106,1009 1106,1007 1106,1004 1106,1002 1106,999 1106,997 1106,994 1106,991 1105,989 1105,986 1106,984 1106,981 1106,980 1106,980 1106,979 1105,978 1106,978 1106,977 1106,977 1106,976 1106,976 1106,976 1106,976 1106,976" fill="#ff00ff" stroke="none" stroke-width="0" fill-rule="evenodd"/>
        <polygon points="1044,978 1047,978 1048,980 1049,982 1049,985 1049,987 1049,989 1049,992 1049,994 1049,997 1049,999 1048,1002 1048,1005 1049,1007 1049,1010 1049,1012 1050,1015 1051,1017 1055,1020 1056,1022 1055,1024 1055,1025 1054,1027 1053,1029 1053,1031 1052,1033 1052,1035 1052,1037 1051,1038 1051,1039 1050,1040 1049,1040 1048,1041 1047,1041 1046,1041 1045,1042 1043,1042 1040,1042 1037,1042 1035,1042 1032,1042 1030,1042 1028,1041 1026,1040 1026,1036 1026,1033 1026,1029 1026,1025 1026,1022 1027,1018 1027,1014 1027,1010 1027,1007 1027,1003 1026,999 1026,995 1026,992 1026,988 1025,984 1025,981 1025,980 1025,980 1026,979 1026,979 1044,978" fill="#ff00ff" stroke="none" stroke-width="0" fill-rule="evenodd"/>
        <polygon points="1057,1043 1057,1043 1058,1043 1058,1043 1058,1043 1060,1045 1062,1047 1063,1050 1064,1053 1065,1056 1066,1059 1067,1063 1068,1066 1068,1068 1068,1070 1068,1073 1068,1074 1068,1076 1068,1078 1067,1080 1067,1082 1066,1084 1066,1085 1065,1087 1065,1089 1064,1090 1063,1092 1062,1093 1061,1095 1056,1096 1051,1097 1045,1099 1040,1100 1035,1102 1030,1104 1025,1105 1020,1108 1015,1110 1011,1112 1006,1115 1002,1118 997,1122 993,1125 989,1129 986,1133 982,1136 978,1139 974,1141 970,1143 966,1145 962,1146 957,1148 953,1149 948,1150 944,1151 939,1152 934,1153 930,1153 925,1154 921,1154 916,1154 914,1154 911,1153 908,1153 905,1153 903,1153 900,1152 897,1152 895,1152 892,1151 889,1150 887,1150 884,1149 882,1148 879,1147 877,1146 875,1144 875,1142 876,1140 876,1139 878,1137 879,1136 880,1134 881,1133 883,1131 886,1129 889,1127 892,1125 896,1123 899,1121 903,1120 907,1118 911,1117 915,1115 919,1114 923,1113 927,1112 930,1112 934,1111 938,1111 942,1111 945,1112 947,1114 949,1117 951,1119 954,1121 956,1124 958,1125 961,1127 966,1123 971,1120 976,1117 981,1114 986,1111 991,1108 996,1105 1001,1102 1006,1099 1011,1095 1015,1092 1020,1088 1024,1084 1028,1080 1032,1075 1035,1070 1036,1067 1036,1064 1035,1062 1034,1059 1034,1057 1033,1055 1032,1052 1032,1050 1033,1050 1035,1050 1037,1050 1038,1050 1040,1050 1042,1050 1043,1050 1045,1049 1047,1049 1048,1048 1050,1048 1051,1047 1053,1046 1054,1046 1056,1044 1057,1043 1057,1043 1057,1043 1057,1043 1057,1043" fill="#ff0000" stroke="none" stroke-width="0" fill-rule="evenodd"/>
        <polygon points="1096,1044 1098,1046 1100,1048 1103,1050 1106,1051 1109,1052 1112,1053 1115,1054 1119,1055 1120,1055 1121,1055 1121,1055 1122,1055 1121,1057 1120,1059 1120,1062 1119,1064 1118,1067 1118,1069 1118,1072 1119,1075 1122,1080 1126,1085 1130,1089 1134,1093 1138,1097 1143,1100 1147,1104 1152,1107 1156,1109 1161,1112 1166,1115 1171,1117 1175,1120 1180,1123 1185,1125 1190,1128 1192,1127 1194,1126 1196,1124 1197,1122 1199,1120 1200,1118 1201,1116 1203,1114 1206,1113 1210,1113 1214,1113 1218,1113 1222,1114 1226,1115 1230,1116 1233,1118 1237,1119 1241,1121 1245,1123 1248,1125 1252,1127 1255,1129 1258,1131 1262,1133 1264,1134 1266,1136 1268,1138 1270,1139 1272,1142 1274,1144 1275,1147 1276,1150 1276,1151 1276,1152 1276,1153 1276,1154 1273,1156 1270,1157 1267,1159 1264,1160 1261,1161 1258,1161 1255,1162 1252,1162 1249,1162 1245,1162 1242,1162 1239,1162 1235,1162 1232,1162 1229,1162 1226,1162 1221,1161 1216,1161 1211,1160 1206,1159 1202,1157 1197,1156 1193,1154 1189,1152 1185,1150 1181,1147 1177,1145 1173,1142 1169,1140 1166,1137 1162,1134 1158,1132 1155,1129 1151,1126 1147,1123 1144,1121 1140,1118 1136,1115 1132,1113 1129,1110 1125,1108 1121,1106 1117,1104 1112,1102 1108,1100 1104,1099 1099,1097 1094,1096 1094,1095 1093,1095 1092,1095 1092,1094 1091,1094 1091,1094 1090,1094 1089,1094 1088,1093 1087,1091 1086,1090 1086,1088 1085,1087 1084,1085 1084,1083 1084,1081 1083,1079 1083,1078 1083,1075 1083,1074 1083,1072 1084,1070 1084,1068 1084,1066 1086,1062 1087,1059 1088,1056 1089,1053 1090,1050 1092,1048 1094,1046 1096,1044" fill="#ff0000" stroke="none" stroke-width="0" fill-rule="evenodd"/>
        <polygon points="1019,1049 1019,1049 1020,1049 1020,1049 1020,1049 1022,1051 1023,1052 1024,1054 1026,1056 1027,1058 1028,1060 1028,1063 1029,1066 1029,1067 1029,1068 1029,1069 1029,1070 1021,1077 1020,1077 1020,1076 1019,1075 1018,1074 1015,1076 1015,1076 1015,1076 1015,1077 1015,1077 1015,1077 1015,1078 1015,1078 1015,1078 1016,1081 1015,1083 1014,1084 1013,1085 1012,1086 1010,1087 1009,1088 1007,1089 1006,1090 1005,1089 1004,1088 1003,1087 1002,1086 1001,1086 1000,1087 1000,1088 999,1090 999,1091 1000,1091 1000,1092 1001,1093 982,1106 981,1101 979,1099 978,1100 977,1100 976,1101 975,1102 976,1104 976,1105 977,1106 979,1107 969,1113 969,1113 969,1112 969,1111 969,1110 969,1109 968,1109 967,1108 966,1107 964,1108 963,1111 963,1112 963,1113 964,1114 965,1115 965,1116 965,1116 964,1117 963,1117 963,1117 962,1118 961,1118 960,1118 946,1104 952,1096 952,1096 953,1096 953,1096 953,1096 963,1107 963,1107 963,1107 964,1107 964,1107 965,1106 965,1106 966,1105 966,1104 966,1102 966,1100 965,1099 964,1097 963,1096 962,1095 961,1093 960,1092 959,1091 959,1091 958,1090 958,1090 958,1089 958,1089 958,1088 958,1088 963,1084 965,1085 967,1085 968,1086 970,1088 971,1089 972,1090 973,1092 974,1094 974,1096 975,1096 975,1097 975,1098 978,1099 978,1099 979,1099 980,1098 980,1097 981,1097 981,1096 981,1095 982,1094 981,1092 980,1089 979,1087 977,1085 976,1083 974,1081 972,1080 970,1078 970,1077 971,1077 972,1076 972,1075 973,1075 974,1074 975,1074 975,1074 976,1074 977,1074 977,1074 977,1074 979,1076 980,1077 981,1079 982,1081 983,1083 984,1086 985,1088 986,1090 987,1091 987,1092 988,1092 989,1093 988,1096 989,1096 990,1097 990,1098 991,1099 994,1098 995,1095 992,1092 992,1088 992,1085 991,1082 990,1079 988,1077 986,1074 985,1072 983,1070 983,1069 983,1068 984,1067 985,1067 985,1066 986,1066 987,1066 988,1066 990,1066 992,1067 994,1068 995,1070 996,1072 997,1074 998,1076 999,1078 999,1079 999,1080 999,1081 999,1081 1000,1082 1001,1083 1002,1083 1003,1083 1004,1083 1005,1082 1006,1081 1006,1079 1005,1076 1005,1074 1004,1071 1003,1069 1001,1067 1000,1065 999,1063 997,1061 997,1060 998,1059 999,1059 999,1058 1000,1058 1001,1058 1002,1057 1003,1057 1004,1058 1006,1059 1007,1059 1009,1060 1010,1061 1011,1062 1012,1064 1012,1066 1012,1067 1012,1068 1013,1068 1013,1069 1014,1070 1014,1070 1015,1071 1016,1071 1016,1071 1016,1071 1017,1071 1017,1071 1018,1071 1018,1070 1019,1069 1019,1069 1019,1068 1019,1067 1019,1066 1019,1066 1019,1063 1018,1062 1017,1060 1017,1059 1016,1057 1015,1056 1014,1054 1013,1053 1019,1049" fill="#ffffff" stroke="none" stroke-width="0" fill-rule="evenodd"/>
        <polygon points="1137,1052 1140,1054 1140,1055 1140,1055 1140,1055 1140,1055 1133,1067 1134,1070 1134,1070 1135,1071 1135,1071 1136,1071 1138,1070 1139,1069 1140,1067 1141,1065 1142,1064 1144,1062 1145,1061 1147,1060 1154,1066 1147,1076 1147,1077 1147,1078 1147,1079 1147,1080 1148,1081 1148,1081 1149,1081 1149,1082 1152,1080 1153,1079 1154,1078 1155,1076 1156,1075 1157,1073 1158,1072 1159,1071 1161,1071 1163,1073 1163,1073 1163,1073 1164,1074 1164,1074 1155,1087 1156,1091 1157,1091 1158,1091 1158,1091 1159,1091 1160,1091 1160,1091 1161,1090 1161,1090 1162,1089 1163,1087 1164,1086 1165,1084 1166,1083 1167,1082 1168,1081 1170,1079 1170,1079 1171,1080 1171,1080 1172,1080 1172,1081 1172,1081 1172,1081 1172,1082 1165,1094 1166,1097 1169,1098 1171,1097 1175,1089 1178,1088 1179,1089 1180,1089 1181,1090 1181,1091 1180,1093 1179,1095 1178,1096 1177,1097 1176,1099 1175,1101 1175,1103 1175,1105 1175,1105 1175,1105 1174,1105 1174,1105 1170,1108 1169,1108 1168,1108 1168,1107 1167,1106 1166,1106 1166,1105 1166,1105 1166,1104 1167,1103 1167,1102 1167,1102 1167,1101 1167,1100 1166,1099 1165,1099 1164,1098 1163,1099 1162,1100 1161,1101 1160,1102 1159,1102 1159,1102 1158,1102 1157,1102 1157,1101 1156,1101 1156,1100 1155,1100 1156,1095 1156,1094 1156,1093 1155,1092 1154,1092 1154,1092 1153,1092 1153,1092 1153,1092 1149,1095 1133,1082 1133,1081 1133,1081 1133,1081 1133,1080 1134,1075 1133,1073 1133,1073 1133,1072 1132,1072 1132,1072 1131,1072 1131,1072 1130,1072 1129,1073 1129,1073 1128,1074 1128,1074 1127,1075 1127,1075 1126,1075 1126,1074 1126,1074 1125,1073 1125,1072 1125,1071 1125,1070 1125,1069 1125,1068 1125,1067 1125,1066 1126,1064 1128,1062 1129,1060 1130,1058 1132,1056 1133,1055 1135,1053 1137,1052" fill="#ffffff" stroke="none" stroke-width="0" fill-rule="evenodd"/>
        <polygon points="1146,1084 1146,1084 1146,1084 1147,1084 1147,1084 1148,1085 1148,1086 1148,1086 1148,1087 1148,1088 1148,1089 1148,1089 1147,1090 1147,1090 1146,1090 1146,1091 1146,1091 1146,1091 1145,1091 1145,1091 1145,1091 1144,1090 1144,1089 1143,1089 1143,1087 1143,1087 1143,1087 1143,1086 1143,1086 1144,1085 1144,1085 1145,1084 1146,1084" fill="#000000" stroke="none" stroke-width="0" fill-rule="evenodd"/>
        <polygon points="1187,1097 1187,1097 1187,1097 1187,1097 1187,1097 1188,1098 1189,1098 1189,1099 1190,1100 1190,1102 1189,1103 1188,1104 1187,1105 1187,1107 1186,1108 1186,1109 1186,1111 1187,1112 1188,1113 1189,1113 1190,1113 1191,1113 1191,1112 1192,1112 1192,1112 1194,1109 1194,1108 1194,1108 1195,1108 1195,1108 1195,1108 1196,1108 1196,1108 1196,1109 1196,1110 1196,1111 1195,1113 1194,1114 1193,1115 1193,1116 1192,1117 1191,1118 1190,1118 1190,1119 1190,1119 1189,1119 1187,1118 1186,1117 1186,1116 1186,1116 1187,1115 1186,1112 1185,1111 1184,1111 1184,1111 1183,1111 1180,1113 1177,1112 1177,1106 1178,1106 1179,1106 1180,1106 1181,1105 1186,1097 1186,1097 1186,1097 1187,1097 1187,1097" fill="#ffffff" stroke="none" stroke-width="0" fill-rule="evenodd"/>
      </g>
    </g>
    <g data-mdcr="group" class="mdcr-region" data-mdcr-region="0" data-mdcr-layer="0" data-mdcr-tag="MDCR-V(0x16)" data-mdcr-value=" 0| 0|">
      <path d="M0,1493L0,0L2139,0L2139,1493L0,1493Z M1837,1330L1824,1304L1813,1278L1802,1252L1791,1225L1782,1199L1773,1171L1765,1144L1757,1116L1751,1089L1745,1061L1740,1032L1736,1004L1732,976L1729,947L1727,918L1726,890L1725,861L1725,832L1726,804L1728,775L1731,747L1734,721L1738,692L1743,664L1748,636L1754,608L1762,580L1769,553L1778,525L1787,499L1797,472L1808,445L1819,419L1831,394L1844,368L1860,363L1844,360L1851,353L1858,346L1866,338L1874,331L1883,324L1892,318L1901,310L1910,304L1920,298L1931,292L1941,286L1952,280L1963,274L1975,268L1986,263L1998,258L2010,252L2023,248L2036,243L2050,238L2050,237L2034,241L2018,245L2003,250L1987,255L1972,259L1957,264L1943,269L1929,275L1915,281L1902,286L1889,292L1877,298L1864,304L1851,310L1840,317L1828,324L1824,327L1821,327L1812,328L1802,329L1792,330L1781,331L1771,331L1761,332L1750,331L1739,331L1728,331L1717,331L1706,330L1695,329L1683,328L1672,327L1660,325L1649,324L1637,322L1626,320L1614,318L1603,315L1591,313L1590,313L1590,310L1583,303L1577,308L1582,309L1556,312L1522,316L1488,319L1453,320L1419,322L1384,322L1350,322L1315,320L1281,318L1247,315L1212,312L1178,307L1144,302L1110,296L1076,289L1043,281L1010,273L976,264L943,254L910,243L877,231L845,219L812,206L780,192L749,178L746,175L746,178L744,179L735,186L725,194L715,200L705,207L695,214L684,220L674,226L663,232L653,238L642,243L631,248L620,253L609,258L598,263L587,267L575,271L564,275L553,279L541,282L530,285L518,289L506,291L495,294L483,297L471,298L459,301L448,302L436,303L424,305L412,306L400,306L388,307L376,307L362,308L366,306L353,306L338,302L327,305L308,305L285,300L249,300L207,263L199,258L191,247L183,242L171,231L160,226L156,218L142,210L130,201L117,192L104,183L97,200L101,202L116,214L131,226L146,240L160,253L173,268L187,282L199,298L211,314L222,330L232,347L242,364L251,382L260,400L268,418L275,437L282,456L288,475L292,494L287,490L301,508L308,515L310,519L315,534L320,550L325,566L330,584L334,600L338,618L342,636L346,654L350,672L353,691L356,710L358,728L361,747L363,763L364,783L366,803L368,823L368,842L369,862L369,882L370,902L370,904L366,906L346,918L371,917L403,916L436,917L469,919L501,921L534,925L565,930L596,937L627,945L657,953L688,963L717,975L747,987L776,1001L804,1015L832,1031L860,1047L887,1066L913,1085L940,1105L965,1126L990,1148L1014,1172L1033,1190L1028,1190L1030,1199L1035,1191L1036,1186L1037,1184L1052,1176L1066,1168L1080,1161L1095,1153L1110,1147L1124,1140L1139,1134L1154,1128L1169,1123L1185,1118L1200,1113L1215,1109L1231,1105L1247,1101L1262,1098L1278,1095L1293,1093L1309,1090L1325,1089L1340,1087L1356,1086L1372,1085L1388,1085L1403,1085L1419,1085L1435,1086L1451,1088L1466,1089L1482,1091L1498,1093L1513,1096L1529,1099L1545,1102L1564,1107L1558,1107L1574,1111L1592,1123L1610,1135L1628,1147L1645,1160L1662,1173L1679,1187L1697,1201L1713,1215L1729,1230L1746,1246L1762,1261L1778,1277L1793,1293L1808,1310L1824,1327L1837,1330Z M340,921L346,918L337,918L338,919L340,921Z" fill="#0096e0" stroke="none" stroke-width="0" fill-rule="evenodd"/>
      <polygon points="346,306 345,306 344,307 339,304 328,289 316,260 310,227 324,234 350,264 418,237 434,187 437,169 466,192 508,248 479,142 480,116 493,124 514,150 543,164 570,169 642,153 650,153 640,118 633,95 637,102 647,118 658,133 670,145 683,156 698,165 719,175 719,179 718,179 708,187 698,194 688,201 678,208 668,214 658,220 647,227 637,233 626,238 615,243 604,249 593,254 583,259 571,263 560,267 549,272 537,276 526,280 514,283 503,286 491,289 480,292 468,295 456,297 445,299 433,301 421,303 409,304 397,305 385,306 373,307 361,308 349,308 346,306" fill="#0054ff" stroke="none" stroke-width="0" fill-rule="evenodd"/>
      <polygon points="2063,229 1996,241 1972,248 1942,254 1863,283 1859,285 1857,289 1848,293 1830,277 1829,260 1837,247 1823,250 1801,265 1790,281 1744,198 1735,200 1716,201 1698,208 1689,199 1678,202 1662,193 1651,190 1635,194 1633,213 1628,228 1626,244 1619,271 1617,279 1615,286 1606,303 1607,305 1608,305 1620,308 1631,310 1643,312 1654,314 1666,316 1677,317 1689,319 1701,320 1712,321 1723,322 1734,323 1745,323 1756,323 1767,323 1777,324 1788,323 1798,323 1809,322 1819,321 1828,320 1838,319 1841,319 1841,319 1845,316 1857,309 1868,303 1881,296 1893,290 1906,284 1919,278 1932,273 1947,267 1960,262 1975,257 1989,251 2004,247 2020,242 2035,237 2051,233 2066,229 2063,229" fill="#0054ff" stroke="none" stroke-width="0" fill-rule="evenodd"/>
      <polygon points="796,187 812,179 828,172 849,162 862,148 878,131 913,88 913,105 910,134 913,148 950,114 998,88 1064,48 1059,81 1060,138 1076,174 1103,185 1149,170 1215,117 1253,76 1266,158 1300,233 1404,271 1444,274 1465,268 1489,257 1519,238 1554,206 1538,243 1534,264 1534,280 1534,290 1542,290 1606,245 1612,280 1638,268 1661,259 1656,278 1646,290 1640,300 1635,305 1630,307 1624,309 1619,314 1623,316 1598,319 1563,322 1529,325 1495,327 1460,328 1426,328 1391,328 1357,326 1322,325 1288,321 1254,318 1221,314 1187,308 1153,302 1120,295 1086,288 1052,279 1019,270 985,260 953,249 920,237 887,225 855,212 823,199 791,184 796,187" fill="#0054ff" stroke="none" stroke-width="0" fill-rule="evenodd"/>
      <polygon points="158,258 161,261 170,283 184,298 201,327 205,312 212,338 222,345 233,360 243,374 243,393 243,414 253,429 253,436 260,447 281,484 281,506 285,524 288,535 292,582 312,564 319,568 312,586 330,593 319,608 316,600 312,615 305,636 323,647 333,677 340,677 337,673 326,709 340,717 312,709 288,746 340,786 333,804 326,819 319,830 319,859 326,837 323,873 302,866 323,902 316,921 430,962 426,964 400,979 392,987 381,997 337,1011 311,1023 282,996 255,978 226,977 237,946 226,921 227,902 235,873 226,855 237,838 220,810 211,779 205,764 324,664 294,651 262,621 255,644 235,625 189,574 324,567 314,554 307,553 301,547 193,469 134,374 122,338 87,227 158,258" fill="#0054ff" stroke="none" stroke-width="0" fill-rule="evenodd"/>
      <polygon points="1894,1399 1877,1389 1853,1377 1677,1223 1663,1242 1651,1264 1651,1245 1650,1214 1638,1189 1623,1164 1617,1164 1633,1169 1651,1180 1669,1192 1687,1205 1704,1218 1721,1231 1738,1245 1755,1259 1772,1273 1789,1288 1805,1303 1821,1318 1837,1335 1852,1351 1867,1368 1883,1385 1897,1402 1912,1420 1927,1407 1915,1412 1907,1402 1894,1399" fill="#0054ff" stroke="none" stroke-width="0" fill-rule="evenodd"/>
      <polygon points="499,939 573,945 569,1002 515,1024 499,939" fill="#0054ff" stroke="none" stroke-width="0" fill-rule="evenodd"/>
      <polygon points="1538,1113 1604,1145 1597,1176 1546,1160 1538,1113" fill="#0054ff" stroke="none" stroke-width="0" fill-rule="evenodd"/>
      <polygon points="370,977 377,996 380,1017 384,1038 384,1065 388,1096 388,1175 407,1122 427,1101 489,1101 532,1202 606,996 626,1191 645,1301 658,1378 660,1423 677,1373 719,1272 747,1215 826,1191 905,1196 943,1228 950,1256 965,1301 981,1364 986,1303 990,1271 992,1247 996,1227 1012,1238 1034,1336 1060,1286 1088,1257 1086,1247 1091,1248 1073,1230 1048,1206 1023,1184 998,1163 971,1142 945,1123 918,1105 890,1089 862,1073 834,1058 805,1045 775,1032 746,1021 717,1011 687,1002 656,995 625,988 593,983 561,979 529,976 496,974 464,974 431,974 397,976 364,978 370,977" fill="#0054ff" stroke="none" stroke-width="0" fill-rule="evenodd"/>
      <polygon points="1608,1163 1609,1163 1610,1163 1616,1168 1627,1195 1636,1244 1636,1297 1619,1283 1592,1227 1583,1261 1571,1356 1557,1441 1541,1375 1512,1278 1485,1239 1465,1319 1455,1373 1425,1302 1408,1295 1396,1375 1385,1438 1373,1399 1352,1353 1319,1307 1289,1268 1277,1334 1275,1375 1259,1360 1224,1336 1188,1307 1177,1305 1182,1363 1185,1399 1182,1387 1173,1360 1162,1334 1149,1310 1135,1290 1117,1270 1093,1248 1094,1243 1096,1242 1110,1234 1124,1226 1139,1218 1153,1211 1169,1204 1183,1198 1198,1192 1213,1185 1229,1180 1244,1175 1259,1170 1274,1166 1290,1162 1305,1158 1321,1155 1337,1153 1352,1150 1368,1148 1384,1146 1399,1145 1415,1144 1431,1143 1447,1142 1463,1142 1478,1143 1494,1144 1510,1145 1525,1147 1541,1148 1557,1151 1572,1154 1588,1156 1604,1160 1608,1163" fill="#0054ff" stroke="none" stroke-width="0" fill-rule="evenodd"/>
      <polygon points="736,182 752,174 768,166 790,155 803,140 820,121 855,74 855,92 852,124 855,140 893,103 942,74 1010,30 1004,66 1006,128 1022,169 1050,180 1097,163 1165,105 1204,60 1217,150 1252,232 1358,274 1399,277 1421,271 1445,258 1476,237 1511,203 1495,243 1491,266 1492,283 1492,295 1499,295 1565,245 1571,283 1597,271 1622,261 1617,282 1605,295 1600,305 1595,311 1589,313 1584,316 1578,321 1583,322 1556,326 1521,329 1486,332 1451,334 1416,336 1380,336 1345,336 1310,334 1274,332 1239,329 1204,325 1171,320 1136,314 1101,308 1067,300 1032,292 998,283 963,272 929,262 896,250 862,237 829,224 796,209 763,195 731,179 736,182" fill="#9ee0ff" stroke="none" stroke-width="0" fill-rule="evenodd"/>
      <polygon points="1545,1106 1546,1106 1548,1106 1554,1111 1564,1137 1573,1186 1573,1240 1557,1225 1530,1169 1521,1203 1509,1298 1495,1383 1479,1317 1450,1220 1423,1181 1403,1262 1392,1315 1362,1244 1346,1237 1334,1317 1323,1381 1311,1342 1292,1295 1259,1249 1228,1211 1217,1276 1215,1317 1199,1303 1164,1279 1127,1249 1117,1247 1122,1305 1125,1342 1122,1329 1113,1303 1102,1276 1088,1252 1075,1232 1056,1213 1032,1191 1033,1185 1035,1184 1049,1176 1064,1168 1079,1161 1093,1153 1108,1146 1123,1140 1138,1134 1153,1128 1168,1122 1183,1117 1199,1113 1214,1108 1229,1105 1245,1101 1261,1098 1276,1095 1292,1092 1305,1090 1321,1088 1337,1087 1353,1086 1369,1085 1385,1085 1400,1085 1416,1086 1431,1086 1447,1087 1463,1089 1479,1091 1495,1093 1510,1096 1526,1099 1541,1102 1545,1106" fill="#9ee0ff" stroke="none" stroke-width="0" fill-rule="evenodd"/>
      <polygon points="1832,1341 1814,1331 1791,1319 1614,1166 1601,1184 1589,1206 1589,1188 1587,1156 1576,1131 1560,1106 1554,1106 1571,1111 1588,1122 1607,1134 1624,1147 1642,1160 1659,1173 1676,1187 1693,1201 1710,1215 1726,1230 1742,1245 1759,1261 1774,1277 1790,1293 1805,1310 1820,1327 1835,1344 1850,1362 1863,1381 1878,1399 1891,1418 1832,1341" fill="#9ee0ff" stroke="none" stroke-width="0" fill-rule="evenodd"/>
      <polygon points="371,306 370,307 368,307 363,305 352,289 340,261 334,227 348,234 375,265 442,237 458,188 462,169 490,192 532,248 503,143 505,116 517,124 538,150 567,164 594,169 666,153 674,153 664,118 658,95 661,103 671,118 682,133 695,146 707,156 723,165 743,175 743,179 742,180 733,187 723,194 712,201 702,208 692,214 682,221 671,227 661,233 650,238 640,244 629,249 618,254 607,259 596,263 584,268 573,272 561,276 550,280 539,283 527,286 516,290 504,292 492,295 481,297 469,300 457,301 445,303 434,304 422,305 410,307 398,307 386,308 374,308 371,306" fill="#9ee0ff" stroke="none" stroke-width="0" fill-rule="evenodd"/>
      <polygon points="130,203 144,207 163,211 312,280 320,266 326,251 328,262 333,281 345,295 359,308 363,307 351,307 336,303 325,306 306,306 282,301 278,301 263,301 247,301 204,263 197,259 189,248 181,243 169,232 158,227 154,218 140,210 127,202 115,193 102,184 89,174 77,165 130,203" fill="#9ee0ff" stroke="none" stroke-width="0" fill-rule="evenodd"/>
      <polygon points="2001,260 1987,266 1980,275 1879,344 1895,353 1914,360 1899,358 1875,356 1855,359 1838,364 1839,367 1841,360 1848,352 1855,345 1863,337 1871,330 1880,323 1888,317 1898,310 1907,303 1917,297 1927,291 1938,285 1949,279 1960,273 1971,267 1983,262 1995,257 2007,252 2020,247 2033,242 2046,237 2001,260" fill="#9ee0ff" stroke="none" stroke-width="0" fill-rule="evenodd"/>
      <polygon points="1919,1417 1907,1385 1895,1317 1891,1249 1887,1175 1891,1107 1915,1044 1934,1011 1899,1000 1903,963 1938,927 1977,927 1946,874 1907,806 1819,639 1821,666 1826,693 1837,724 1844,751 1862,778 1911,869 1879,869 1874,872 1839,906 1839,943 1872,953 1856,980 1846,1007 1834,1034 1826,1061 1824,1091 1824,1118 1826,1145 1829,1172 1831,1203 1834,1226 1834,1253 1837,1280 1842,1308 1849,1338 1852,1360 1891,1386 1903,1401 1919,1417" fill="#0054ff" stroke="none" stroke-width="0" fill-rule="evenodd"/>
      <polyline points="1998,252 1767,351" fill="none" stroke="none" stroke-width="0"/>
      <polygon points="371,306 370,307 368,307 363,305 352,289 340,261 334,227 348,234 375,265 442,237 458,188 462,169 490,192 532,248 503,143 505,116 517,124 538,150 567,164 594,169 666,153 674,153 664,118 658,95 661,103 671,118 682,133 695,146 707,156 723,165 743,175 743,179 742,180 733,187 723,194 712,201 702,208 692,214 682,221 671,227 661,233 650,238 640,244 629,249 618,254 607,259 596,263 584,268 573,272 561,276 550,280 539,283 527,286 516,290 504,292 492,295 481,297 469,300 457,301 445,303 434,304 422,305 410,307 398,307 386,308 374,308 371,306" fill="none" stroke="none" stroke-width="0" fill-rule="evenodd"/>
      <polygon points="749,187 765,180 781,173 802,163 815,149 832,132 866,88 866,105 863,134 866,149 903,115 951,88 1018,49 1012,81 1014,138 1029,175 1057,185 1102,170 1169,117 1207,76 1220,158 1254,233 1358,272 1397,274 1418,269 1442,257 1472,238 1507,207 1491,243 1487,264 1488,280 1488,291 1495,291 1559,245 1566,280 1591,269 1615,260 1610,279 1599,291 1594,300 1588,305 1583,308 1578,310 1572,315 1577,316 1551,319 1517,323 1482,325 1448,327 1413,328 1379,329 1344,328 1310,327 1275,325 1241,322 1207,319 1175,314 1140,309 1107,303 1073,296 1039,288 1005,280 972,270 939,261 906,250 873,238 840,226 808,213 776,199 745,185 749,187" fill="none" stroke="none" stroke-width="0" fill-rule="evenodd"/>
      <polygon points="2043,237 1976,249 1952,257 1922,263 1842,291 1838,294 1837,298 1828,302 1810,286 1809,269 1817,256 1803,259 1780,274 1770,289 1724,207 1715,208 1696,209 1678,216 1669,208 1658,210 1641,202 1631,199 1615,202 1613,222 1608,237 1605,253 1599,280 1597,288 1595,295 1586,311 1587,314 1588,314 1600,316 1611,319 1623,321 1634,323 1646,324 1657,326 1669,328 1680,328 1691,330 1703,331 1714,331 1725,331 1736,332 1747,332 1757,332 1768,332 1778,331 1788,331 1798,330 1808,328 1818,328 1820,327 1820,327 1825,324 1837,318 1848,312 1860,305 1873,299 1886,293 1899,287 1912,282 1926,275 1940,270 1954,265 1969,260 1984,255 2000,251 2015,246 2030,242 2046,237 2043,237" fill="#9ee0ff" stroke="none" stroke-width="0" fill-rule="evenodd"/>
      <polygon points="2043,237 1976,249 1952,257 1922,263 1843,291 1839,294 1837,298 1828,302 1810,286 1809,269 1817,256 1803,259 1781,274 1770,289 1724,207 1715,208 1696,209 1678,216 1669,208 1658,210 1642,202 1631,199 1615,202 1613,222 1608,237 1605,253 1600,280 1597,288 1596,295 1587,311 1587,314 1588,314 1600,316 1611,319 1623,321 1634,323 1646,324 1657,326 1669,328 1681,328 1692,330 1703,331 1714,331 1725,331 1736,332 1747,332 1758,332 1768,332 1778,331 1789,331 1799,330 1808,328 1818,328 1821,327 1821,327 1826,324 1837,318 1848,312 1861,305 1874,299 1886,293 1899,287 1912,282 1927,275 1940,270 1954,265 1969,260 1984,255 2000,251 2015,246 2031,242 2046,237 2043,237" fill="none" stroke="none" stroke-width="0" fill-rule="evenodd"/>
      <polygon points="2001,260 1987,265 1980,275 1879,343 1895,353 1914,360 1899,358 1875,356 1855,359 1838,364 1839,367 1841,359 1848,352 1855,345 1863,337 1871,330 1880,323 1888,317 1898,309 1907,303 1917,297 1927,291 1938,285 1949,279 1960,273 1971,267 1983,262 1995,257 2007,251 2020,247 2033,242 2046,237 2001,260" fill="none" stroke="none" stroke-width="0" fill-rule="evenodd"/>
      <polygon points="1856,1360 1845,1328 1833,1259 1829,1191 1825,1117 1829,1049 1852,986 1872,949 1837,939 1841,902 1876,865 1915,865 1883,816 1845,748 1821,669 1817,600 1837,585 1833,564 1821,516 1817,469 1821,443 1829,416 1841,385 1856,364 1841,369 1828,394 1816,420 1804,446 1794,473 1784,500 1775,526 1766,554 1758,581 1751,609 1745,637 1739,665 1735,693 1730,721 1727,750 1725,779 1723,807 1722,836 1722,862 1722,890 1724,918 1726,947 1729,975 1732,1004 1737,1032 1742,1060 1748,1088 1754,1116 1762,1144 1770,1171 1778,1199 1788,1226 1798,1252 1810,1278 1821,1304 1834,1330 1841,1344 1856,1360" fill="#9ee0ff" stroke="none" stroke-width="0" fill-rule="evenodd"/>
      <polygon points="1856,1360 1845,1328 1833,1259 1829,1191 1825,1117 1829,1049 1852,986 1872,949 1837,939 1841,902 1876,865 1915,865 1883,816 1845,748 1821,669 1817,600 1837,585 1833,564 1821,516 1817,469 1821,443 1829,416 1841,385 1856,364 1841,369 1828,394 1816,420 1804,446 1794,473 1784,500 1775,526 1766,554 1758,581 1751,609 1745,637 1739,665 1735,693 1730,721 1727,750 1725,779 1723,807 1722,836 1722,862 1722,890 1724,918 1726,947 1729,975 1732,1004 1737,1032 1742,1060 1748,1088 1754,1116 1762,1144 1770,1171 1778,1199 1788,1226 1798,1252 1810,1278 1821,1304 1834,1330 1841,1344 1856,1360" fill="none" stroke="none" stroke-width="0" fill-rule="evenodd"/>
      <polygon points="1832,1341 1814,1331 1791,1319 1614,1166 1601,1184 1589,1206 1589,1188 1587,1156 1576,1131 1560,1106 1554,1106 1571,1111 1588,1122 1607,1134 1624,1147 1642,1160 1659,1173 1676,1187 1693,1201 1710,1215 1726,1230 1742,1245 1759,1261 1774,1277 1790,1293 1805,1310 1820,1327 1835,1344 1850,1362 1863,1381 1878,1399 1891,1418 1832,1341" fill="none" stroke="none" stroke-width="0" fill-rule="evenodd"/>
      <polygon points="1545,1106 1546,1106 1548,1106 1554,1111 1564,1137 1573,1186 1573,1240 1557,1225 1530,1169 1521,1203 1509,1298 1495,1383 1479,1317 1450,1220 1423,1181 1403,1262 1392,1315 1362,1244 1346,1237 1334,1317 1323,1381 1311,1342 1292,1295 1259,1249 1228,1211 1217,1276 1215,1317 1199,1303 1164,1279 1127,1249 1117,1247 1122,1305 1125,1342 1122,1329 1113,1303 1102,1276 1088,1252 1075,1232 1056,1213 1032,1191 1033,1185 1035,1184 1049,1176 1064,1168 1079,1161 1093,1153 1108,1146 1123,1140 1138,1134 1153,1128 1168,1122 1183,1117 1199,1113 1214,1108 1229,1105 1245,1101 1261,1098 1276,1095 1292,1092 1305,1090 1321,1088 1337,1087 1353,1086 1369,1085 1385,1085 1400,1085 1416,1086 1431,1086 1447,1087 1463,1089 1479,1091 1495,1093 1510,1096 1526,1099 1541,1102 1545,1106" fill="none" stroke="none" stroke-width="0" fill-rule="evenodd"/>
      <polygon points="307,920 315,938 317,960 321,981 321,1007 325,1038 325,1117 345,1065 364,1044 427,1044 470,1144 544,939 563,1134 583,1244 596,1321 598,1365 614,1316 657,1214 687,1158 766,1134 844,1139 883,1170 890,1199 905,1244 920,1306 926,1245 929,1213 932,1189 935,1169 952,1181 973,1279 1000,1228 1027,1199 1026,1189 1030,1190 1012,1172 987,1148 962,1126 937,1105 911,1085 884,1065 857,1047 830,1031 802,1015 773,1001 744,987 715,974 685,963 655,953 625,945 594,937 563,930 531,925 499,921 467,919 434,916 401,916 368,916 335,918 302,921 307,920" fill="#9ee0ff" stroke="none" stroke-width="0" fill-rule="evenodd"/>
      <polygon points="307,920 315,938 317,960 321,981 321,1007 325,1038 325,1117 345,1065 364,1044 427,1044 470,1144 544,939 563,1134 583,1244 596,1321 598,1365 614,1316 657,1214 687,1158 766,1134 844,1139 883,1170 890,1199 905,1244 920,1306 926,1245 929,1213 932,1189 935,1169 952,1181 973,1279 1000,1228 1027,1199 1026,1189 1030,1190 1012,1172 987,1148 962,1126 937,1105 911,1085 884,1065 857,1047 830,1031 802,1015 773,1001 744,987 715,974 685,963 655,953 625,945 594,937 563,930 531,925 499,921 467,919 434,916 401,916 368,916 335,918 302,921 307,920" fill="none" stroke="none" stroke-width="0" fill-rule="evenodd"/>
      <polygon points="105,193 108,196 123,207 138,220 152,233 165,247 178,262 191,277 203,292 214,308 225,325 235,342 245,359 254,377 262,395 269,413 277,432 282,452 288,471 293,490 287,486 301,504 308,511 308,511 309,515 314,531 320,547 325,563 329,577 333,593 337,611 341,630 344,647 348,666 351,685 354,704 356,723 359,742 361,761 363,782 364,801 365,822 366,841 367,861 367,881 367,902 368,904 364,905 339,921 331,929 321,939 278,953 253,965 225,938 199,920 171,919 182,888 171,862 172,844 180,814 172,795 181,778 165,750 157,719 151,704 265,603 237,589 205,560 196,537 220,548 246,541 266,505 256,492 249,491 244,484 170,360 151,311 131,272 89,163 105,193" fill="#9ee0ff" stroke="none" stroke-width="0" fill-rule="evenodd"/>
      <polygon points="95,201 98,203 114,215 129,227 144,240 158,254 171,268 184,283 197,299 208,314 220,331 230,348 240,365 249,383 258,401 266,419 273,437 279,456 285,476 290,495 284,491 299,508 306,515 306,515 307,519 312,535 318,551 323,567 327,580 332,597 336,615 340,633 344,650 347,669 351,687 354,707 356,725 358,745 361,763 362,783 364,802 365,823 366,842 367,862 367,882 367,902 368,904 363,906 338,921 330,930 319,939 275,954 249,965 220,939 193,920 164,920 175,889 163,863 165,845 173,815 164,797 174,780 157,752 149,722 143,707 261,606 232,593 199,564 190,541 214,552 241,545 262,510 251,496 244,495 239,489 163,365 143,317 122,279 78,171 95,201" fill="none" stroke="none" stroke-width="0" fill-rule="evenodd"/>
    </g>
  </g>
</svg>