<svg shape-rendering="geometricPrecision" xmlns="http://www.w3.org/2000/svg" xmlns:mdcr="http://sensory.com/mdcr" viewBox="0 0 401 301" preserveAspectRatio="none">
  <style>polygon,polyline,line,path{stroke-linejoin:round;stroke-linecap:round}</style>
  <metadata>
    <mdcr:info xmlns:mdcr="http://sensory.com/mdcr">
      <mdcr:source format="WMF" generator="wmf2svg.html"/>
      <mdcr:bounds left="0" top="0" right="6015" bottom="4515" inch="1440"/>
      <mdcr:records count="40">
        <mdcr:record tag="MDCR-{"/>
        <mdcr:record tag="MDCR-V&quot;" region="0" layer="0" extra="| 15|-" value=" 0| 0|| 15|-"/>
        <mdcr:record tag="MDCR-V(0x16)" region="0" layer="0" value=" 0| 0|"/>
        <mdcr:record tag="MDCR-V(0x16)" region="0" layer="0" value=" 0| 0|"/>
        <mdcr:record tag="MDCR-V(0x16)" region="0" layer="0" value=" 0| 0|"/>
        <mdcr:record tag="MDCR-V(0x16)" region="0" layer="0" value=" 0| 0|"/>
        <mdcr:record tag="MDCR-V(0x16)" region="0" layer="0" value=" 0| 0|"/>
        <mdcr:record tag="MDCR-VF" region="3" layer="1" file="\Resources\Wav\rifle.wav" value=" 3| 1|\Resources\Wav\rifle.wav"/>
        <mdcr:record tag="MDCR-S"/>
        <mdcr:record tag="MDCR-V(0x16)" region="0" layer="0" value=" 0| 0|"/>
        <mdcr:record tag="MDCR-V(0x16)" region="0" layer="0" value=" 0| 0|"/>
        <mdcr:record tag="MDCR-V(0x16)" region="0" layer="0" value=" 0| 0|"/>
        <mdcr:record tag="MDCR-{"/>
        <mdcr:record tag="MDCR-}"/>
        <mdcr:record tag="MDCR-VB" region="4" layer="1" file="\Resources\Wav\run.wav" value=" 4| 1|\Resources\Wav\run.wav"/>
        <mdcr:record tag="MDCR-S"/>
        <mdcr:record tag="MDCR-V(0x16)" region="0" layer="0" value=" 0| 0|"/>
        <mdcr:record tag="MDCR-V(0x16)" region="4" layer="1" value=" 4| 1|"/>
        <mdcr:record tag="MDCR-S"/>
        <mdcr:record tag="MDCR-V(0x16)" region="0" layer="0" value=" 0| 0|"/>
        <mdcr:record tag="MDCR-V(0x16)" region="3" layer="1" value=" 3| 1|"/>
        <mdcr:record tag="MDCR-S"/>
        <mdcr:record tag="MDCR-V(0x16)" region="0" layer="0" value=" 0| 0|"/>
        <mdcr:record tag="MDCR-{"/>
        <mdcr:record tag="MDCR-}"/>
        <mdcr:record tag="MDCR-VF" region="2" layer="1" file="\Resources\Wav\rifle.wav" value=" 2| 1|\Resources\Wav\rifle.wav"/>
        <mdcr:record tag="MDCR-S"/>
        <mdcr:record tag="MDCR-V(0x16)" region="0" layer="0" value=" 0| 0|"/>
        <mdcr:record tag="MDCR-V(0x16)" region="0" layer="0" value=" 0| 0|"/>
        <mdcr:record tag="MDCR-V(0x16)" region="0" layer="0" value=" 0| 0|"/>
        <mdcr:record tag="MDCR-{"/>
        <mdcr:record tag="MDCR-}"/>
        <mdcr:record tag="MDCR-V(0x16)" region="0" layer="0" value=" 0| 0|"/>
        <mdcr:record tag="MDCR-V(0x16)" region="0" layer="0" value=" 0| 0|"/>
        <mdcr:record tag="MDCR-{"/>
        <mdcr:record tag="MDCR-}"/>
        <mdcr:record tag="MDCR-VF" region="1" layer="0" file="\Resources\Wav\rifle.wav" value=" 1| 0|\Resources\Wav\rifle.wav"/>
        <mdcr:record tag="MDCR-S"/>
        <mdcr:record tag="MDCR-V(0x16)" region="0" layer="0" value=" 0| 0|"/>
        <mdcr:record tag="MDCR-}"/>
      </mdcr:records>
    </mdcr:info>
  </metadata>
  <g data-mdcr="group" class="mdcr-region" data-mdcr-region="0" data-mdcr-layer="0" data-mdcr-extra="| 15|-" data-mdcr-tag="MDCR-V(0x16)" data-mdcr-value=" 0| 0|" data-mdcr-sound="\Resources\Wav\rifle.wav">
    <polygon points="131,298 124,297 118,296 110,295 104,295 89,295 75,295 68,295 61,294 53,293 47,291 40,289 34,285 27,281 21,276 16,263 14,250 13,238 14,225 14,213 15,201 15,188 14,176 4,167 2,158 6,129 14,119 9,98 14,70 12,49 23,18 33,15 44,11 133,2 150,4 162,7 174,9 186,10 198,9 221,8 244,7 253,4 259,3 264,2 270,2 275,2 286,4 297,7 361,13 385,28 385,30 385,30 389,42 391,54 392,66 392,78 391,89 390,101 390,112 391,124 397,131 393,173 397,191 399,209 400,217 400,227 400,235 398,245 397,269 391,274 386,280 380,284 375,289 368,292 362,295 355,296 349,297 311,298 180,295 175,297 169,298 165,299 159,299 149,299 139,300 131,298" fill="#4e495d" stroke="none" stroke-width="0" fill-rule="evenodd"/>
    <polyline points="131,298 124,297 118,296 110,295 104,295 89,295 75,295 68,295 61,294 53,293 47,291 40,289 34,285 27,281 21,276 16,263 14,250 13,238 14,225 14,213 15,201 15,188 14,176 4,167 2,158 6,129 14,119 9,98 14,70 12,49 23,18 33,15 44,11 133,2 150,4 162,7 174,9 186,10 198,9 221,8 244,7 253,4 259,3 264,2 270,2 275,2 286,4 297,7 361,13 385,28 385,30 385,30 389,42 391,54 392,66 392,78 391,89 390,101 390,112 391,124 397,131 393,173 397,191 399,209 400,217 400,227 400,235 398,245 397,269 391,274 386,280 380,284 375,289 368,292 362,295 355,296 349,297 311,298 180,295 175,297 169,298 165,299 159,299 149,299 139,300 131,298" fill="none" stroke="none" stroke-width="0"/>
    <polyline points="300,287 293,284 336,263 336,212 359,208 361,206 361,206 365,204 366,204 383,191 383,215 385,233 385,247 375,278 357,286 344,287 331,288 319,288 307,289 300,287" fill="none" stroke="none" stroke-width="0"/>
    <polyline points="63,283 37,280 37,276 37,276 33,263 30,252 28,247 28,242 28,237 31,231 23,207 27,194 31,185 37,190 40,194 45,196 49,198 52,200 61,201 70,203 82,201 68,216 74,250 94,269 94,269 94,269 96,281 68,285 63,283" fill="none" stroke="none" stroke-width="0"/>
    <polygon points="189,284 200,247 200,256 233,281 245,286 193,286 189,284" fill="none" stroke="none" stroke-width="0" fill-rule="evenodd"/>
    <polygon points="258,276 218,256 211,236 211,226 211,175 230,167 232,167 232,167 316,206 321,216 323,226 323,235 322,245 302,267 296,269 283,276 263,278 258,276" fill="none" stroke="none" stroke-width="0" fill-rule="evenodd"/>
    <polygon points="127,274 97,261 91,252 90,246 90,240 90,233 91,227 94,215 101,202 118,192 135,184 151,177 166,170 171,169 171,168 197,178 195,185 194,206 193,227 192,237 188,247 184,258 176,269 170,272 164,273 159,274 154,275 145,275 134,276 127,274" fill="#fff500" stroke="none" stroke-width="0" fill-rule="evenodd"/>
    <polyline points="127,274 97,261 91,252 90,246 90,240 90,233 91,227 94,215 101,202 118,192 135,184 151,177 166,170 171,169 171,168 197,178 195,185 194,206 193,227 192,237 188,247 184,258 176,269 170,272 164,273 159,274 154,275 145,275 134,276 127,274" fill="none" stroke="none" stroke-width="0"/>
    <polyline points="351,263 352,255 354,247 355,243 355,238 355,234 353,230 359,228 360,228 362,233 363,237 363,242 363,247 361,254 358,263 351,263" fill="none" stroke="none" stroke-width="0"/>
    <polyline points="313,192 241,157 241,141 265,130 290,118 302,114 314,111 321,110 326,109 333,109 339,110 370,124 377,131 377,133 377,134 380,141 381,148 380,155 379,161 376,167 371,173 367,180 360,187 356,189 356,189 346,192 337,194 329,194 321,194 313,192" fill="none" stroke="none" stroke-width="0"/>
    <g data-mdcr="group" class="mdcr-region" data-mdcr-region="4" data-mdcr-layer="1" data-mdcr-sound="\Resources\Wav\run.wav" data-mdcr-tag="MDCR-VB" data-mdcr-value=" 4| 1|\Resources\Wav\run.wav">
      <polygon points="313,192 241,157 241,141 265,130 290,118 302,114 314,111 321,110 326,109 333,109 339,110 370,124 377,131 377,133 377,134 380,141 381,148 380,155 379,161 376,167 371,173 367,180 360,187 356,189 356,189 346,192 337,194 329,194 321,194 313,192" fill="#ee9ba0" stroke="none" stroke-width="0" fill-rule="evenodd"/>
      <polygon points="61,188 32,172 32,170 32,169 27,136 51,112 59,111 65,109 73,108 81,108 87,108 95,109 103,111 109,112 125,117 139,123 154,129 170,136 174,156 155,165 138,172 120,179 103,185 93,188 84,190 76,190 68,190 61,188" fill="#ee9ba0" stroke="none" stroke-width="0" fill-rule="evenodd"/>
    </g>
    <polyline points="61,188 61,188 61,188 32,172 32,170 32,169 27,136 51,112 59,111 65,109 73,108 81,108 87,108 95,109 103,111 109,112 125,117 139,123 154,129 170,136 174,156 155,165 138,172 120,179 103,185 93,188 84,190 76,190 68,190 61,188" fill="none" stroke="none" stroke-width="0"/>
    <polygon points="201,165 184,156 184,155 184,154 194,136 210,136 227,145 227,152 215,165 206,167 201,165" fill="#e77845" stroke="none" stroke-width="0" fill-rule="evenodd"/>
    <polyline points="201,165 184,156 184,155 184,154 194,136 210,136 227,145 227,152 215,165 206,167 201,165" fill="none" stroke="none" stroke-width="0"/>
    <polygon points="231,131 208,121 208,98 207,75 208,70 209,64 210,59 214,53 217,47 221,42 227,36 233,30 248,23 264,20 309,35 312,40 314,45 316,50 317,55 319,66 321,76 290,112 236,134 231,131" fill="#fff500" stroke="none" stroke-width="0" fill-rule="evenodd"/>
    <polyline points="231,131 208,121 208,98 207,75 208,70 209,64 210,59 214,53 217,47 221,42 227,36 233,30 248,23 264,20 309,35 312,40 314,45 316,50 317,55 319,66 321,76 290,112 236,134 231,131" fill="none" stroke="none" stroke-width="0"/>
    <g data-mdcr="group" class="mdcr-region" data-mdcr-region="2" data-mdcr-layer="1" data-mdcr-sound="\Resources\Wav\rifle.wav" data-mdcr-tag="MDCR-VF" data-mdcr-value=" 2| 1|\Resources\Wav\rifle.wav">
      <polygon points="258,276 218,256 211,236 211,226 211,175 230,167 232,167 232,167 316,206 321,216 323,226 323,235 322,245 302,267 296,269 283,276 263,278 258,276" fill="#009240" stroke="none" stroke-width="0" fill-rule="evenodd"/>
      <polygon points="174,130 120,106 115,104 111,102 107,99 103,96 97,89 91,82 89,75 88,67 89,59 91,52 95,45 100,39 107,32 115,26 125,24 136,23 146,24 157,26 166,28 175,33 180,36 183,39 187,43 190,46 194,65 196,83 197,102 197,120 178,130 174,130" fill="#009240" stroke="none" stroke-width="0" fill-rule="evenodd"/>
    </g>
    <polyline points="174,130 120,106 115,104 111,102 107,99 103,96 97,89 91,82 89,75 88,67 89,59 91,52 95,45 100,39 107,32 115,26 125,24 136,23 146,24 157,26 166,28 175,33 180,36 183,39 187,43 190,46 194,65 196,83 197,102 197,120 178,130 174,130" fill="none" stroke="none" stroke-width="0"/>
    <polyline points="27,109 25,58 25,40 33,24 49,19 61,17 72,15 84,15 96,16 82,32 72,48 72,60 72,71 73,76 75,82 79,87 84,93 72,96 61,98 49,100 37,105 33,109 27,109" fill="none" stroke="none" stroke-width="0"/>
    <polygon points="369,106 349,99 328,96 332,88 334,79 334,70 333,61 330,52 326,43 321,33 314,24 355,23 371,32 371,33 371,33 371,106 369,106" fill="none" stroke="none" stroke-width="0" fill-rule="evenodd"/>
    <g data-mdcr="group" class="mdcr-region" data-mdcr-region="0" data-mdcr-layer="0" data-mdcr-tag="MDCR-V(0x16)" data-mdcr-value=" 0| 0|">
      <polygon points="351,263 352,255 354,247 355,243 355,238 355,234 353,230 359,228 360,228 362,233 363,237 363,242 363,247 361,254 358,263 351,263" fill="#4e495d" stroke="none" stroke-width="0" fill-rule="evenodd"/>
      <polygon points="44,78 44,49 56,30 68,30 56,47 54,69 49,80 44,78" fill="#4e495d" stroke="none" stroke-width="0" fill-rule="evenodd"/>
    </g>
    <polygon points="44,78 44,49 56,30 68,30 56,47 54,69 49,80 44,78" fill="none" stroke="none" stroke-width="0" fill-rule="evenodd"/>
    <g data-mdcr="group" class="mdcr-region" data-mdcr-region="1" data-mdcr-layer="0" data-mdcr-sound="\Resources\Wav\rifle.wav" data-mdcr-tag="MDCR-VF" data-mdcr-value=" 1| 0|\Resources\Wav\rifle.wav">
      <polygon points="300,287 293,284 336,263 336,212 359,208 361,206 361,206 365,204 366,204 383,191 383,215 385,233 385,247 375,278 357,286 344,287 331,288 319,288 307,289 300,287" fill="#fffdc9" stroke="none" stroke-width="0" fill-rule="evenodd"/>
      <polygon points="63,283 37,280 37,276 37,276 33,263 30,252 28,247 28,242 28,237 31,231 23,207 27,194 31,185 37,190 40,194 45,196 49,198 52,200 61,201 70,203 82,201 68,216 74,250 94,269 94,269 94,269 96,281 68,285 63,283" fill="#fffdc9" stroke="none" stroke-width="0" fill-rule="evenodd"/>
      <polygon points="189,284 200,247 200,256 233,281 245,286 193,286 189,284" fill="#fffdc9" stroke="none" stroke-width="0" fill-rule="evenodd"/>
      <polygon points="27,109 25,58 25,40 33,24 49,19 61,17 72,15 84,15 96,16 82,32 72,48 72,60 72,71 73,76 75,82 79,87 84,93 72,96 61,98 49,100 37,105 33,109 27,109" fill="#fffdc9" stroke="none" stroke-width="0" fill-rule="evenodd"/>
      <polygon points="369,106 349,99 328,96 332,88 334,79 334,70 333,61 330,52 326,43 321,33 314,24 355,23 371,32 371,33 371,33 371,106 369,106" fill="#fffdc9" stroke="none" stroke-width="0" fill-rule="evenodd"/>
      <polygon points="198,40 198,34 186,21 222,19 219,23 218,24 217,25 200,40 198,40" fill="#fffdc9" stroke="none" stroke-width="0" fill-rule="evenodd"/>
    </g>
    <polyline points="198,40 198,34 186,21 222,19 219,23 218,24 217,25 200,40 198,40" fill="none" stroke="none" stroke-width="0"/>
  </g>
</svg>