<svg shape-rendering="geometricPrecision" xmlns="http://www.w3.org/2000/svg" xmlns:mdcr="http://sensory.com/mdcr" viewBox="0 0 401 302" preserveAspectRatio="none">
  <style>polygon,polyline,line,path{stroke-linejoin:round;stroke-linecap:round}</style>
  <metadata>
    <mdcr:info xmlns:mdcr="http://sensory.com/mdcr">
      <mdcr:source format="WMF" generator="wmf2svg.html"/>
      <mdcr:bounds left="0" top="0" right="6015" bottom="4530" inch="1440"/>
      <mdcr:records count="27">
        <mdcr:record tag="MDCR-{"/>
        <mdcr:record tag="MDCR-V&quot;" region="0" layer="0" extra="| 14|-" value=" 0| 0|| 14|-"/>
        <mdcr:record tag="MDCR-{"/>
        <mdcr:record tag="MDCR-}"/>
        <mdcr:record tag="MDCR-VF" region="1" layer="1" file="\Resources\Wav\rifle.wav" value=" 1| 1|\Resources\Wav\rifle.wav"/>
        <mdcr:record tag="MDCR-S"/>
        <mdcr:record tag="MDCR-V(0x16)" region="1" layer="0" value=" 1| 0|"/>
        <mdcr:record tag="MDCR-S"/>
        <mdcr:record tag="MDCR-VF" region="2" layer="1" file="\Resources\Wav\rifle.wav" value=" 2| 1|\Resources\Wav\rifle.wav"/>
        <mdcr:record tag="MDCR-S"/>
        <mdcr:record tag="MDCR-V(0x16)" region="2" layer="1" value=" 2| 1|"/>
        <mdcr:record tag="MDCR-S"/>
        <mdcr:record tag="MDCR-{"/>
        <mdcr:record tag="MDCR-}"/>
        <mdcr:record tag="MDCR-VF" region="4" layer="1" file="\Resources\Wav\rifle.wav" value=" 4| 1|\Resources\Wav\rifle.wav"/>
        <mdcr:record tag="MDCR-S"/>
        <mdcr:record tag="MDCR-{"/>
        <mdcr:record tag="MDCR-}"/>
        <mdcr:record tag="MDCR-VF" region="3" layer="1" file="\Resources\Wav\rifle.wav" value=" 3| 1|\Resources\Wav\rifle.wav"/>
        <mdcr:record tag="MDCR-S"/>
        <mdcr:record tag="MDCR-VB" region="5" layer="1" file="\Resources\Wav\run.wav" value=" 5| 1|\Resources\Wav\run.wav"/>
        <mdcr:record tag="MDCR-S"/>
        <mdcr:record tag="MDCR-{"/>
        <mdcr:record tag="MDCR-}"/>
        <mdcr:record tag="MDCR-V(0x16)" region="1" layer="0" value=" 1| 0|"/>
        <mdcr:record tag="MDCR-S"/>
        <mdcr:record tag="MDCR-}"/>
      </mdcr:records>
    </mdcr:info>
  </metadata>
  <g data-mdcr="group" class="mdcr-region" data-mdcr-region="5" data-mdcr-layer="1" data-mdcr-extra="| 14|-" data-mdcr-tag="MDCR-VB" data-mdcr-value=" 5| 1|\Resources\Wav\run.wav" data-mdcr-sound="\Resources\Wav\run.wav">
    <polygon points="95,301 32,299 11,287 1,267 4,36 23,16 29,13 34,10 40,9 45,7 57,5 68,3 90,3 113,2 130,3 148,5 165,5 183,5 217,4 251,3 268,3 285,3 302,4 319,6 337,8 353,11 371,14 388,20 391,25 393,32 394,38 395,44 396,55 397,66 397,81 397,104 397,152 400,229 395,245 392,260 389,267 384,275 379,282 372,289 362,293 270,297 244,301 230,301 150,297 124,299 100,301 95,301" fill="#4e495d" stroke="none" stroke-width="0" fill-rule="evenodd"/>
    <g data-mdcr="group" class="mdcr-region" data-mdcr-region="1" data-mdcr-layer="1" data-mdcr-sound="\Resources\Wav\rifle.wav" data-mdcr-tag="MDCR-VF" data-mdcr-value=" 1| 1|\Resources\Wav\rifle.wav">
      <polygon points="107,288 42,292 16,269 9,217 13,192 35,171 54,216 40,243 140,251 181,257 212,282 196,292 107,288" fill="#008080" stroke="none" stroke-width="0" fill-rule="evenodd"/>
      <polygon points="302,283 257,280 265,248 309,240 384,236 335,164 363,163 350,139 372,117 391,136 394,229 386,258 368,281 336,281" fill="#008080" stroke="none" stroke-width="0" fill-rule="evenodd"/>
      <polygon points="13,167 14,153 14,140 15,126 16,112 17,99 18,85 18,71 19,56 26,34 37,21 51,18 64,15 78,14 91,14 118,15 146,13 172,12 201,16 206,6 230,7 243,9 255,9 287,8 332,17 356,21 385,27 388,41 390,73 380,74 373,72 363,72 352,73 346,72 340,71 339,74 332,74 323,74 313,74 307,73 303,74 296,74 287,75 273,72 247,45 237,23 213,6 201,21 186,45 128,49 122,61 163,69 153,76 108,76 95,74 75,73 53,75 41,84 38,108 50,136 64,149 74,170 76,187 52,217 16,197" fill="#008080" stroke="none" stroke-width="0" fill-rule="evenodd"/>
    </g>
    <polygon points="84,241 78,236 72,229 66,223 62,217 58,211 54,204 51,198 49,190 47,184 45,177 45,170 45,163 46,157 48,150 51,143 53,136 59,126 65,117 73,109 81,101 89,94 98,88 107,82 117,77 127,73 137,69 147,66 157,63 167,62 176,60 186,60 194,59 199,169 152,198 95,241 89,243 84,241" fill="#4e495d" stroke="none" stroke-width="0" fill-rule="evenodd"/>
    <polygon points="85,79 82,78 78,77 75,77 72,77 68,77 64,77 60,78 56,78 54,79 50,81 47,82 46,84 44,86 42,88 41,90 41,93 44,98 47,108 52,120 54,126 56,128 60,133 66,140 73,149 79,156 85,164 89,169 91,172 91,173 91,176 89,178 88,181 84,189 79,196 74,205 68,211 65,214 64,216 61,217 60,218 60,219 59,221 59,223 56,224 54,227 50,230 46,232 45,235 44,236 44,237 44,238 44,238 46,239 50,240 54,241 59,241 70,240 84,239 98,238 111,238 117,237 122,237 127,237 131,238 136,238 141,238 148,238 153,238 159,238 166,237 171,236 176,234 176,236 177,238 178,240 180,242 173,243 167,244 160,245 154,245 154,246 154,247 154,249 155,249 157,250 157,251 158,251 159,251 162,252 164,251 167,251 171,250 173,250 177,250 181,250 183,251 186,251 187,252 188,253 190,254 191,255 192,256 194,258 195,260 196,262 199,264 202,267 206,269 209,270 213,273 213,274 214,275 215,276 215,277 216,279 220,283 221,285 224,287 225,288 228,289 229,288 232,285 233,283 235,280 237,278 238,276 239,275 241,274 241,274 242,274 242,271 243,269 244,266 246,262 248,259 251,255 253,251 257,248 260,245 263,241 267,239 271,236 275,235 279,233 280,233 283,233 285,233 286,233 291,234 298,235 303,236 309,236 321,236 332,236 345,235 356,234 366,234 378,233 378,231 377,229 375,228 374,225 370,222 365,218 360,214 355,210 352,207 351,205 350,202 349,199 347,196 346,193 344,190 342,188 337,182 332,175 331,172 330,169 327,166 327,163 326,160 327,156 327,153 330,149 340,154 346,157 349,159 351,159 351,159 352,159 352,158 351,156 349,152 347,149 346,149 345,149 342,148 341,146 338,144 336,142 345,135 355,127 360,122 363,117 365,115 366,113 366,110 368,108 369,107 370,104 373,100 377,96 380,92 383,89 384,88 387,87 387,86 388,86 388,84 387,82 385,81 383,80 382,79 378,78 375,78 373,78 365,78 359,78 352,78 347,77 342,79 336,79 328,80 319,81 312,81 304,81 296,81 290,81 284,80 275,80 271,79 269,78 267,77 266,76 266,75 266,74 263,74 262,73 260,71 257,69 253,64 248,57 241,44 237,35 233,29 225,22 223,18 220,14 219,12 218,11 218,9 218,8 215,8 214,8 213,9 211,11 209,16 204,27 201,29 197,32 195,36 192,40 190,43 187,47 183,50 181,53 180,52 178,51 176,51 173,51 169,50 164,51 155,51 146,52 135,51 134,51 131,52 131,52 130,53 130,53 130,54 130,55 131,55 133,56 134,57 136,58 140,58 144,59 148,59 152,59 154,59 157,59 158,58 159,58 160,58 162,58 164,59 177,63 173,66 166,72 158,80 153,84 152,82 150,81 148,80 145,79 143,79 139,78 136,78 133,78 121,79 113,80 112,81 112,81 111,81 110,81 105,82 101,81 92,80 85,79" fill="#ee9ba0" stroke="none" stroke-width="0" fill-rule="evenodd"/>
    <polygon points="94,84 91,83 87,83 85,83 81,83 77,83 75,83 71,83 68,83 64,84 62,85 59,86 57,88 56,90 54,92 53,94 53,97 56,101 59,112 63,123 66,127 67,129 71,134 77,140 84,148 89,156 94,163 98,168 99,170 99,171 99,173 98,176 96,179 92,186 89,193 84,201 78,207 76,210 73,212 72,213 71,213 71,214 70,215 70,217 68,218 64,221 62,224 58,227 56,229 56,230 54,231 54,232 56,233 58,234 61,234 64,234 70,235 81,234 92,233 105,232 118,231 123,231 128,231 133,231 137,232 141,232 146,232 152,232 157,232 162,232 169,231 173,230 178,228 178,230 179,232 180,234 182,235 176,236 170,237 164,238 157,238 159,241 159,243 160,244 162,244 165,244 168,244 170,244 173,244 176,243 179,243 183,243 185,244 189,245 190,246 193,248 193,249 194,251 196,252 197,254 199,256 202,257 206,259 210,262 211,264 212,265 213,266 213,267 213,268 216,270 218,273 221,275 222,277 225,278 226,279 227,278 230,276 231,274 232,271 235,269 236,267 238,265 239,265 239,262 240,260 241,257 243,254 245,251 248,248 250,244 253,241 257,238 259,235 263,233 267,230 269,229 273,228 276,227 277,227 278,227 280,227 286,228 291,229 296,229 301,230 313,230 323,229 334,229 344,228 355,228 365,227 365,225 364,223 362,221 361,219 357,216 353,213 348,210 344,206 342,204 341,201 339,199 338,196 337,193 336,190 334,187 332,184 328,179 323,173 322,170 320,168 319,165 318,162 318,159 318,156 319,153 320,150 329,155 336,157 338,158 339,159 341,159 342,159 342,158 341,156 338,153 337,149 336,149 334,148 333,148 332,146 329,144 327,142 336,135 344,128 348,125 352,120 353,118 355,116 355,114 356,111 357,109 358,107 361,103 364,100 367,96 370,93 371,92 372,91 374,90 375,90 375,88 374,86 372,85 370,84 369,84 366,83 362,83 360,83 347,83 337,83 332,83 327,84 319,85 311,85 304,85 296,85 290,85 283,85 278,85 271,84 267,83 264,83 263,83 262,82 262,81 260,80 259,80 258,79 257,77 254,75 250,70 245,63 239,51 234,43 230,39 225,31 221,27 218,24 217,21 217,18 215,18 212,18 212,19 211,20 208,26 204,36 201,38 198,40 196,44 193,47 190,51 188,54 185,57 183,60 182,59 179,58 178,58 176,57 173,57 168,57 159,58 151,59 140,58 138,58 137,58 137,59 136,59 136,60 136,61 136,61 137,62 138,62 140,63 142,64 145,64 148,65 152,65 156,66 159,65 160,65 161,65 162,64 164,64 165,64 168,65 179,69 175,72 169,78 161,85 157,89 156,87 155,86 152,85 150,84 147,84 145,83 141,83 138,83 127,84 120,85 119,85 118,85 118,86 117,86 113,86 108,85 100,85 94,84" fill="#6d619e" stroke="none" stroke-width="0" fill-rule="evenodd"/>
    <g data-mdcr="group" class="mdcr-region" data-mdcr-region="4" data-mdcr-layer="1" data-mdcr-sound="\Resources\Wav\rifle.wav" data-mdcr-tag="MDCR-VF" data-mdcr-value=" 4| 1|\Resources\Wav\rifle.wav">
      <polygon points="221,61 224,61 228,62 232,64 234,65 237,67 239,69 240,71 242,74 243,77 243,79 243,81 242,83 242,84 240,84 239,85 238,85 237,86 235,86 234,86 232,86 219,86 202,85 199,85 195,84 192,84 190,83 187,82 186,80 186,79 186,79 186,77 187,77 189,74 191,70 195,66 200,62 204,58 208,53 210,49 213,46 213,46 214,45 215,44 216,43 218,43 219,43 220,43 221,44 223,45 224,46 224,47 224,49 224,51 224,54 223,57 221,61" fill="#3bb3c3" stroke="none" stroke-width="0" fill-rule="evenodd"/>
      <polygon points="224,260 222,256 219,253 215,249 210,246 206,243 202,239 199,235 196,232 199,231 200,231 202,231 205,231 210,231 217,231 222,232 227,232 229,232 232,231 234,231 237,230 237,231 237,233 237,234 236,236 234,241 233,245 231,250 228,254 225,258 224,260" fill="#3bb3c3" stroke="none" stroke-width="0" fill-rule="evenodd"/>
    </g>
    <g data-mdcr="group" class="mdcr-region" data-mdcr-region="3" data-mdcr-layer="1" data-mdcr-sound="\Resources\Wav\rifle.wav" data-mdcr-tag="MDCR-VF" data-mdcr-value=" 3| 1|\Resources\Wav\rifle.wav">
      <polygon points="138,120 136,123 131,129 126,137 119,143 116,146 113,148 111,150 108,151 107,151 106,151 106,150 104,149 104,148 103,147 103,145 103,143 102,143 101,141 98,140 97,138 92,133 88,127 79,116 75,109 74,104 74,100 74,99 74,97 75,96 77,96 77,95 78,94 79,94 80,93 84,93 88,93 98,94 108,95 114,96 121,96 127,96 135,95 121,98 125,97 130,96 135,96 140,96 141,96 142,97 143,97 145,98 146,100 146,101 146,103 145,105 142,108 141,112 140,116 138,120" fill="#7cc5a1" stroke="none" stroke-width="0" fill-rule="evenodd"/>
      <polygon points="327,115 327,117 327,119 325,121 324,124 322,126 320,128 318,130 315,131 313,133 310,134 308,135 305,135 303,135 300,134 298,133 296,131 294,129 291,124 287,118 284,113 280,107 277,101 276,99 276,98 276,97 276,97 276,96 277,96 279,97 281,98 282,99 285,101 290,105 294,110 299,115 301,117 303,118 304,119 305,119 305,118 305,118 305,117 305,116 305,115 305,115 304,114 303,111 301,109 299,106 298,104 295,102 295,100 295,100 299,99 304,98 311,96 319,95 327,95 329,95 333,95 334,96 337,97 337,98 338,99 338,100 338,101 337,104 335,107 333,109 330,112 329,114 327,115" fill="#7cc5a1" stroke="none" stroke-width="0" fill-rule="evenodd"/>
      <polygon points="143,205 146,206 150,208 154,211 155,212 156,212 156,213 157,213 159,214 160,215 160,216 160,217 160,218 159,219 159,219 157,220 156,220 155,221 152,221 146,221 138,221 128,221 118,221 109,220 100,219 96,219 94,218 91,218 90,217 98,211 104,206 108,202 110,200 112,198 113,196 113,194 113,192 113,189 113,186 114,185 114,183 115,182 117,181 122,185 131,193 138,201 143,205" fill="#7cc5a1" stroke="none" stroke-width="0" fill-rule="evenodd"/>
      <polygon points="319,197 323,201 325,204 328,206 329,209 329,211 329,213 328,215 326,216 324,217 321,218 319,218 314,218 310,217 305,216 298,215 292,212 287,211 283,209 282,208 280,208 279,207 279,206 279,205 279,204 280,202 280,201 284,197 289,194 292,191 293,188 296,185 297,182 301,176 303,171 307,177 312,184 315,188 317,192 319,195 319,197" fill="#7cc5a1" stroke="none" stroke-width="0" fill-rule="evenodd"/>
    </g>
    <polygon points="297,148 289,161 283,175 278,182 274,189 270,195 265,200 260,205 254,209 251,211 249,213 245,215 242,217 238,218 235,219 231,220 227,221 223,221 218,221 214,221 209,221 203,219 194,218 189,217 185,215 180,213 175,212 171,210 166,208 162,205 159,203 157,200 154,199 153,197 153,196 153,194 152,193 152,192 150,192 149,191 149,190 147,190 143,189 140,188 138,186 135,184 133,183 131,180 130,178 128,175 126,173 126,170 125,167 125,165 126,163 126,161 129,159 134,162 144,166 147,167 149,167 150,167 152,167 152,167 152,165 150,164 149,162 145,159 142,155 140,153 139,151 138,150 135,149 139,145 142,141 145,136 149,132 153,128 157,124 161,119 163,116 166,112 168,109 171,106 173,104 176,102 179,100 182,99 186,98 189,97 193,96 196,96 200,96 210,96 221,97 229,97 240,98 243,98 249,98 252,97 256,96 259,99 261,101 264,104 266,108 270,114 274,120 279,127 283,134 287,138 289,142 293,145 297,148" fill="#44926d" stroke="none" stroke-width="0" fill-rule="evenodd"/>
    <g data-mdcr="group" class="mdcr-region" data-mdcr-region="1" data-mdcr-layer="0" data-mdcr-tag="MDCR-V(0x16)" data-mdcr-value=" 1| 0|">
      <polygon points="40,81 37,71 50,62 62,52 68,49 74,46 80,43 87,42 122,32 129,42 118,43 107,46 96,49 85,53 75,58 66,64 55,71 47,79 40,81" fill="#4e495d" stroke="none" stroke-width="0" fill-rule="evenodd"/>
      <polygon points="360,73 352,62 317,44 362,59 367,64 364,74 360,73" fill="#4e495d" stroke="none" stroke-width="0" fill-rule="evenodd"/>
      <polygon points="48,42 76,26 76,30 76,30 67,36 53,43 48,42" fill="#4e495d" stroke="none" stroke-width="0" fill-rule="evenodd"/>
      <polygon points="50,274 76,263 101,262 101,262 94,277 59,275 50,274" fill="#4e495d" stroke="none" stroke-width="0" fill-rule="evenodd"/>
    </g>
  </g>
</svg>