<svg shape-rendering="geometricPrecision" xmlns="http://www.w3.org/2000/svg" xmlns:mdcr="http://sensory.com/mdcr" viewBox="0 0 400 301" preserveAspectRatio="none">
  <style>polygon,polyline,line,path{stroke-linejoin:round;stroke-linecap:round}</style>
  <metadata>
    <mdcr:info xmlns:mdcr="http://sensory.com/mdcr">
      <mdcr:source format="WMF" generator="wmf2svg.html"/>
      <mdcr:bounds left="0" top="0" right="6000" bottom="4515" inch="1440"/>
      <mdcr:records count="44">
        <mdcr:record tag="MDCR-{"/>
        <mdcr:record tag="MDCR-V&quot;" region="0" layer="0" extra="| 15|-" value=" 0| 0|| 15|-"/>
        <mdcr:record tag="MDCR-V(0x16)" region="0" layer="0" value=" 0| 0|"/>
        <mdcr:record tag="MDCR-VF" region="1" layer="0" file="\Resources\Wav\rifle.wav" value=" 1| 0|\Resources\Wav\rifle.wav"/>
        <mdcr:record tag="MDCR-S"/>
        <mdcr:record tag="MDCR-V(0x16)" region="0" layer="0" value=" 0| 0|"/>
        <mdcr:record tag="MDCR-V(0x16)" region="1" layer="0" value=" 1| 0|"/>
        <mdcr:record tag="MDCR-S"/>
        <mdcr:record tag="MDCR-V(0x16)" region="0" layer="0" value=" 0| 0|"/>
        <mdcr:record tag="MDCR-VF" region="2" layer="1" file="\Resources\Wav\rifle.wav" value=" 2| 1|\Resources\Wav\rifle.wav"/>
        <mdcr:record tag="MDCR-S"/>
        <mdcr:record tag="MDCR-V(0x16)" region="0" layer="0" value=" 0| 0|"/>
        <mdcr:record tag="MDCR-V(0x16)" region="0" layer="0" value=" 0| 0|"/>
        <mdcr:record tag="MDCR-V(0x16)" region="0" layer="0" value=" 0| 0|"/>
        <mdcr:record tag="MDCR-V(0x16)" region="0" layer="0" value=" 0| 0|"/>
        <mdcr:record tag="MDCR-V(0x16)" region="0" layer="0" value=" 0| 0|"/>
        <mdcr:record tag="MDCR-V(0x16)" region="0" layer="0" value=" 0| 0|"/>
        <mdcr:record tag="MDCR-V(0x16)" region="0" layer="0" value=" 0| 0|"/>
        <mdcr:record tag="MDCR-V(0x16)" region="0" layer="0" value=" 0| 0|"/>
        <mdcr:record tag="MDCR-V(0x16)" region="0" layer="0" value=" 0| 0|"/>
        <mdcr:record tag="MDCR-V(0x16)" region="0" layer="0" value=" 0| 0|"/>
        <mdcr:record tag="MDCR-V(0x16)" region="0" layer="0" value=" 0| 0|"/>
        <mdcr:record tag="MDCR-V(0x16)" region="0" layer="0" value=" 0| 0|"/>
        <mdcr:record tag="MDCR-{"/>
        <mdcr:record tag="MDCR-}"/>
        <mdcr:record tag="MDCR-V(0x16)" region="0" layer="1" value=" 0| 1|"/>
        <mdcr:record tag="MDCR-V(0x16)" region="0" layer="0" value=" 0| 0|"/>
        <mdcr:record tag="MDCR-V(0x16)" region="0" layer="0" value=" 0| 0|"/>
        <mdcr:record tag="MDCR-{"/>
        <mdcr:record tag="MDCR-}"/>
        <mdcr:record tag="MDCR-VB" region="3" layer="1" file="\Resources\Wav\run.wav" value=" 3| 1|\Resources\Wav\run.wav"/>
        <mdcr:record tag="MDCR-S"/>
        <mdcr:record tag="MDCR-V(0x16)" region="0" layer="0" value=" 0| 0|"/>
        <mdcr:record tag="MDCR-V(0x16)" region="0" layer="0" value=" 0| 0|"/>
        <mdcr:record tag="MDCR-V(0x16)" region="0" layer="0" value=" 0| 0|"/>
        <mdcr:record tag="MDCR-V(0x16)" region="0" layer="0" value=" 0| 0|"/>
        <mdcr:record tag="MDCR-V(0x16)" region="0" layer="0" value=" 0| 0|"/>
        <mdcr:record tag="MDCR-{"/>
        <mdcr:record tag="MDCR-{"/>
        <mdcr:record tag="MDCR-}"/>
        <mdcr:record tag="MDCR-}"/>
        <mdcr:record tag="MDCR-V(0x16)" region="1" layer="0" value=" 1| 0|"/>
        <mdcr:record tag="MDCR-S"/>
        <mdcr:record tag="MDCR-}"/>
      </mdcr:records>
    </mdcr:info>
  </metadata>
  <g data-mdcr="group" class="mdcr-region" data-mdcr-region="0" data-mdcr-layer="0" data-mdcr-extra="| 15|-" data-mdcr-tag="MDCR-V(0x16)" data-mdcr-value=" 0| 0|" data-mdcr-sound="\Resources\Wav\rifle.wav">
    <polygon points="202,298 175,298 149,297 123,297 95,297 85,297 76,297 66,296 56,294 46,292 37,289 28,284 20,278 11,271 5,235 3,229 1,223 1,217 1,211 2,200 3,187 8,172 10,158 10,144 8,129 8,100 9,70 11,57 16,42 20,35 23,27 28,20 34,13 45,9 55,5 65,5 74,4 95,4 190,2 212,5 233,5 255,5 277,5 299,5 320,5 331,5 342,7 353,9 364,12 368,12 373,13 376,15 378,18 383,22 385,25 399,89 392,158 392,238 390,267 392,273 369,295 298,298 206,300 202,298" fill="#4e495d" stroke="none" stroke-width="0" fill-rule="evenodd"/>
    <polyline points="202,298 175,298 149,297 123,297 95,297 85,297 76,297 66,296 56,294 46,292 37,289 28,284 20,278 11,271 5,235 3,229 1,223 1,217 1,211 2,200 3,187 8,172 10,158 10,144 8,129 8,100 9,70 11,57 16,42 20,35 23,27 28,20 34,13 45,9 55,5 65,5 74,4 95,4 190,2 212,5 233,5 255,5 277,5 299,5 320,5 331,5 342,7 353,9 364,12 368,12 373,13 376,15 378,18 383,22 385,25 399,89 392,158 392,238 390,267 392,273 369,295 298,298 206,300 202,298" fill="none" stroke="none" stroke-width="0"/>
    <polygon points="264,281 295,277 310,270 322,262 333,255 343,246 352,237 360,229 365,219 371,210 375,201 375,252 359,275 343,284 264,282 264,281" fill="#fff500" stroke="none" stroke-width="0" fill-rule="evenodd"/>
    <polygon points="264,281 295,277 310,270 322,262 333,255 343,246 352,237 360,229 365,219 371,210 375,201 375,252 359,275 343,284 264,282 264,281" fill="none" stroke="none" stroke-width="0" fill-rule="evenodd"/>
    <polygon points="71,277 29,264 29,263 29,263 26,243 25,223 26,203 27,184 28,165 29,146 29,126 27,107 32,69 50,19 67,18 83,17 91,17 98,17 106,17 115,17 186,14 190,16 190,16 220,19 234,19 249,20 262,21 276,21 286,18 295,17 303,16 313,16 336,23 368,41 372,49 377,58 378,69 379,78 378,88 378,97 377,107 378,116 379,127 372,141 354,100 322,75 312,69 302,63 292,58 283,53 273,49 262,45 252,43 242,40 232,38 222,37 212,37 201,36 192,37 182,37 172,39 161,41 121,56 108,62 100,71 91,80 84,88 78,97 72,107 67,115 62,125 59,134 56,144 53,153 51,162 50,172 50,181 50,190 51,199 52,208 73,237 79,243 84,249 91,254 97,258 110,267 124,276 114,276 102,276 90,276 78,279 71,277" fill="#fff500" stroke="none" stroke-width="0" fill-rule="evenodd"/>
    <polyline points="71,277 29,264 29,263 29,263 26,243 25,223 26,203 27,184 28,165 29,146 29,126 27,107 32,69 50,19 67,18 83,17 91,17 98,17 106,17 115,17 186,14 190,16 190,16 220,19 234,19 249,20 262,21 276,21 286,18 295,17 303,16 313,16 336,23 368,41 372,49 377,58 378,69 379,78 378,88 378,97 377,107 378,116 379,127 372,141 354,100 322,75 312,69 302,63 292,58 283,53 273,49 262,45 252,43 242,40 232,38 222,37 212,37 201,36 192,37 182,37 172,39 161,41 121,56 108,62 100,71 91,80 84,88 78,97 72,107 67,115 62,125 59,134 56,144 53,153 51,162 50,172 50,181 50,190 51,199 52,208 73,237 79,243 84,249 91,254 97,258 110,267 124,276 114,276 102,276 90,276 78,279 71,277" fill="none" stroke="none" stroke-width="0"/>
    <polygon points="199,276 190,276 181,275 172,274 162,272 154,269 144,266 134,262 124,258 115,253 106,248 98,242 90,236 83,229 78,221 74,213 69,205 67,185 68,170 69,155 72,140 77,124 80,116 83,109 89,102 94,95 101,87 110,80 119,73 129,66 139,62 149,57 160,54 170,51 180,50 190,48 200,47 210,47 219,47 229,48 238,50 248,51 258,54 268,57 277,62 287,66 297,70 306,75 314,80 321,84 334,95 345,108 354,122 358,131 360,140 362,148 363,157 363,166 363,175 362,184 360,192 356,202 352,211 348,218 341,227 333,236 326,243 315,251 304,258 291,263 279,268 267,272 253,275 241,276 229,277 217,278 205,278 199,276" fill="#009240" stroke="none" stroke-width="0" fill-rule="evenodd"/>
    <polyline points="199,276 190,276 181,275 172,274 162,272 154,269 144,266 134,262 124,258 115,253 106,248 98,242 90,236 83,229 78,221 74,213 69,205 67,185 68,170 69,155 72,140 77,124 80,116 83,109 89,102 94,95 101,87 110,80 119,73 129,66 139,62 149,57 160,54 170,51 180,50 190,48 200,47 210,47 219,47 229,48 238,50 248,51 258,54 268,57 277,62 287,66 297,70 306,75 314,80 321,84 334,95 345,108 354,122 358,131 360,140 362,148 363,157 363,166 363,175 362,184 360,192 356,202 352,211 348,218 341,227 333,236 326,243 315,251 304,258 291,263 279,268 267,272 253,275 241,276 229,277 217,278 205,278 199,276" fill="none" stroke="none" stroke-width="0"/>
    <polyline points="203,264 203,264 203,264 189,264 176,262 163,259 150,254 137,248 125,241 113,233 101,222 87,202 85,194 84,186 84,178 83,169 191,159 195,161 196,161 209,164 213,175 216,188 217,199 218,210 218,234 216,257 207,264 203,264" fill="none" stroke="none" stroke-width="0"/>
    <polyline points="241,262 241,262 241,262 228,168 237,164 329,161 338,158 348,164 349,171 348,178 347,185 345,193 341,200 338,208 334,214 328,222 322,229 315,235 307,241 300,247 291,252 282,256 272,260 262,262 246,264 241,262" fill="none" stroke="none" stroke-width="0"/>
    <polygon points="52,260 43,253 41,240 58,245 60,253 58,262 52,260" fill="none" stroke="none" stroke-width="0" fill-rule="evenodd"/>
    <polyline points="349,258 349,258 349,258 361,251 361,255 361,258 361,259 360,260 359,261 357,260 349,258" fill="none" stroke="none" stroke-width="0"/>
    <polygon points="175,251 150,237 140,232 131,227 123,221 117,215 111,208 107,202 105,195 104,189 96,174 107,175 117,174 127,174 136,173 146,172 155,171 165,172 175,173 183,171 200,173 198,200 198,225 202,245 179,253 175,251" fill="none" stroke="none" stroke-width="0" fill-rule="evenodd"/>
    <polygon points="251,244 245,194 253,177 262,177 278,177 308,176 322,176 333,173 324,204 280,244 264,246 251,246 251,244" fill="none" stroke="none" stroke-width="0" fill-rule="evenodd"/>
    <polyline points="170,231 161,227 165,220 180,227 178,230 178,231 170,231" fill="none" stroke="none" stroke-width="0"/>
    <polyline points="264,232 264,232 264,232 274,224 280,220 287,216 293,210 298,205 302,200 305,195 308,189 310,184 312,187 312,189 312,193 312,195 310,202 307,207 301,213 295,219 288,224 280,230 269,233 264,232" fill="none" stroke="none" stroke-width="0"/>
    <polygon points="277,207 284,194 288,194 288,194 281,209 277,207" fill="#4e495d" stroke="none" stroke-width="0" fill-rule="evenodd"/>
    <polygon points="137,205 131,200 137,189 147,194 142,207 137,205" fill="none" stroke="none" stroke-width="0" fill-rule="evenodd"/>
    <polyline points="94,151 85,146 85,140 87,134 89,127 92,121 96,114 99,107 105,101 109,95 116,89 121,83 129,78 135,73 143,70 151,66 160,64 168,62 184,62 198,66 203,84 207,101 209,117 211,135 202,148 196,150 188,150 181,151 175,151 161,152 147,153 99,151 94,151" fill="none" stroke="none" stroke-width="0"/>
    <g data-mdcr="group" class="mdcr-region" data-mdcr-region="0" data-mdcr-layer="0" data-mdcr-tag="MDCR-V(0x16)" data-mdcr-value=" 0| 0|">
      <polygon points="203,264 189,264 176,262 163,259 150,254 137,248 125,241 113,233 101,222 87,202 85,194 84,186 84,178 83,169 191,159 195,161 196,161 209,164 213,175 216,188 217,199 218,210 218,234 216,257 207,264 203,264" fill="#4e495d" stroke="none" stroke-width="0" fill-rule="evenodd"/>
      <polygon points="241,262 228,168 237,164 329,161 338,158 348,164 349,171 348,178 347,185 345,193 341,200 338,208 334,214 328,222 322,229 315,235 307,241 300,247 291,252 282,256 272,260 262,262 246,264 241,262" fill="#4e495d" stroke="none" stroke-width="0" fill-rule="evenodd"/>
      <polygon points="94,151 85,146 85,140 87,134 89,127 92,121 96,114 99,107 105,101 109,95 116,89 121,83 129,78 135,73 143,70 151,66 160,64 168,62 184,62 198,66 203,84 207,101 209,117 211,135 202,148 196,150 188,150 181,151 175,151 161,152 147,153 99,151 94,151" fill="#4e495d" stroke="none" stroke-width="0" fill-rule="evenodd"/>
      <polygon points="241,149 236,149 223,142 223,79 223,62 236,64 250,66 264,71 277,76 289,83 301,91 312,99 322,110 336,134 337,141 330,148 261,149 245,151 241,149" fill="#4e495d" stroke="none" stroke-width="0" fill-rule="evenodd"/>
    </g>
    <polygon points="241,149 236,149 223,142 223,79 223,62 236,64 250,66 264,71 277,76 289,83 301,91 312,99 322,110 336,134 337,141 330,148 261,149 245,151 241,149" fill="none" stroke="none" stroke-width="0" fill-rule="evenodd"/>
    <polygon points="270,140 239,140 237,78 267,86 275,90 283,94 290,100 296,106 302,112 307,118 315,124 323,129 327,140 285,139 274,142 270,140" fill="none" stroke="none" stroke-width="0" fill-rule="evenodd"/>
    <g data-mdcr="group" class="mdcr-region" data-mdcr-region="3" data-mdcr-layer="1" data-mdcr-sound="\Resources\Wav\run.wav" data-mdcr-tag="MDCR-VB" data-mdcr-value=" 3| 1|\Resources\Wav\run.wav">
      <polygon points="175,251 150,237 140,232 131,227 123,221 117,215 111,208 107,202 105,195 104,189 96,174 107,175 117,174 127,174 136,173 146,172 155,171 165,172 175,173 183,171 200,173 198,200 198,225 202,245 179,253 175,251" fill="#fff500" stroke="none" stroke-width="0" fill-rule="evenodd"/>
      <polygon points="251,244 245,194 253,177 262,177 278,177 308,176 322,176 333,173 324,204 280,244 264,246 251,246 251,244" fill="#fff500" stroke="none" stroke-width="0" fill-rule="evenodd"/>
      <polygon points="270,140 239,140 237,78 267,86 275,90 283,94 290,100 296,106 302,112 307,118 315,124 323,129 327,140 285,139 274,142 270,140" fill="#fff500" stroke="none" stroke-width="0" fill-rule="evenodd"/>
      <polygon points="100,141 107,127 115,114 120,107 126,100 133,94 140,87 145,85 146,85 161,79 175,72 186,72 191,88 194,104 195,113 195,120 194,127 191,135 104,141 100,141" fill="#fff500" stroke="none" stroke-width="0" fill-rule="evenodd"/>
    </g>
    <polyline points="100,141 107,127 115,114 120,107 126,100 133,94 140,87 145,85 146,85 161,79 175,72 186,72 191,88 194,104 195,113 195,120 194,127 191,135 104,141 100,141" fill="none" stroke="none" stroke-width="0"/>
    <polygon points="127,130 127,126 128,120 131,115 135,110 146,99 159,88 173,93 165,97 159,101 153,106 148,110 143,114 140,120 137,125 134,130 127,130" fill="none" stroke="none" stroke-width="0" fill-rule="evenodd"/>
    <polygon points="159,120 152,109 170,112 163,122 159,120" fill="none" stroke="none" stroke-width="0" fill-rule="evenodd"/>
    <polygon points="265,113 265,106 268,106 272,107 274,108 275,110 276,111 276,112 275,114 273,115 265,113" fill="none" stroke="none" stroke-width="0" fill-rule="evenodd"/>
    <polyline points="49,60 50,58 51,55 52,52 56,50 62,44 70,38 84,35 53,62 49,60" fill="none" stroke="none" stroke-width="0"/>
    <g data-mdcr="group" class="mdcr-region" data-mdcr-region="1" data-mdcr-layer="0" data-mdcr-tag="MDCR-V(0x16)" data-mdcr-value=" 1| 0|">
      <polygon points="49,111 42,101 57,82 75,62 85,53 95,46 106,39 118,33 122,32 122,32 126,30 127,30 133,32 134,32 113,46 102,52 92,59 85,66 77,75 70,83 64,91 60,100 56,108 49,111" fill="#4e495d" stroke="none" stroke-width="0" fill-rule="evenodd"/>
      <polygon points="339,63 325,55 309,45 316,40 348,66 344,66 339,63" fill="#4e495d" stroke="none" stroke-width="0" fill-rule="evenodd"/>
      <g data-mdcr="group" class="mdcr-region">
        <polygon points="52,260 43,253 41,240 58,245 60,253 58,262 52,260" fill="#4e495d" stroke="none" stroke-width="0" fill-rule="evenodd"/>
        <polygon points="349,258 361,251 361,255 361,258 361,259 360,260 359,261 357,260 349,258" fill="#4e495d" stroke="none" stroke-width="0" fill-rule="evenodd"/>
        <polygon points="170,231 161,227 165,220 180,227 178,230 178,231 170,231" fill="#4e495d" stroke="none" stroke-width="0" fill-rule="evenodd"/>
        <polygon points="264,232 274,224 280,220 287,216 293,210 298,205 302,200 305,195 308,189 310,184 312,187 312,189 312,193 312,195 310,202 307,207 301,213 295,219 288,224 280,230 269,233 264,232" fill="#4e495d" stroke="none" stroke-width="0" fill-rule="evenodd"/>
        <polyline points="277,207 277,207 277,207 284,194 288,194 288,194 281,209 277,207" fill="none" stroke="none" stroke-width="0"/>
        <polygon points="137,205 131,200 137,189 147,194 142,207 137,205" fill="#4e495d" stroke="none" stroke-width="0" fill-rule="evenodd"/>
        <polygon points="127,130 127,126 128,120 131,115 135,110 146,99 159,88 173,93 165,97 159,101 153,106 148,110 143,114 140,120 137,125 134,130 127,130" fill="#4e495d" stroke="none" stroke-width="0" fill-rule="evenodd"/>
        <polygon points="159,120 152,109 170,112 163,122 159,120" fill="#4e495d" stroke="none" stroke-width="0" fill-rule="evenodd"/>
        <polygon points="265,113 265,106 268,106 272,107 274,108 275,110 276,111 276,112 275,114 273,115 265,113" fill="#4e495d" stroke="none" stroke-width="0" fill-rule="evenodd"/>
        <polyline points="49,111 42,101 57,82 75,62 85,53 95,46 106,39 118,33 122,32 122,32 126,30 127,30 133,32 134,32 113,46 102,52 92,59 85,66 77,75 70,83 64,91 60,100 56,108 49,111" fill="none" stroke="none" stroke-width="0"/>
        <polyline points="339,63 325,55 309,45 316,40 348,66 344,66 339,63" fill="none" stroke="none" stroke-width="0"/>
        <polygon points="49,60 50,58 51,55 52,52 56,50 62,44 70,38 84,35 53,62 49,60" fill="#4e495d" stroke="none" stroke-width="0" fill-rule="evenodd"/>
        <polygon points="341,49 338,45 327,35 350,45 346,51 341,49" fill="#4e495d" stroke="none" stroke-width="0" fill-rule="evenodd"/>
      </g>
      <polygon points="341,49 338,45 327,35 350,45 346,51 341,49" fill="none" stroke="none" stroke-width="0" fill-rule="evenodd"/>
    </g>
  </g>
</svg>