<svg shape-rendering="geometricPrecision" xmlns="http://www.w3.org/2000/svg" xmlns:mdcr="http://sensory.com/mdcr" viewBox="0 0 401 301" preserveAspectRatio="none">
  <style>polygon,polyline,line,path{stroke-linejoin:round;stroke-linecap:round}</style>
  <metadata>
    <mdcr:info xmlns:mdcr="http://sensory.com/mdcr">
      <mdcr:source format="WMF" generator="wmf2svg.html"/>
      <mdcr:bounds left="0" top="0" right="6015" bottom="4515" inch="1440"/>
      <mdcr:records count="17">
        <mdcr:record tag="MDCR-{"/>
        <mdcr:record tag="MDCR-V&quot;" region="0" layer="0" extra="| 14|-" value=" 0| 0|| 14|-"/>
        <mdcr:record tag="MDCR-{"/>
        <mdcr:record tag="MDCR-}"/>
        <mdcr:record tag="MDCR-VF" region="1" layer="0" file="\Resources\Wav\rifle.wav" value=" 1| 0|\Resources\Wav\rifle.wav"/>
        <mdcr:record tag="MDCR-S"/>
        <mdcr:record tag="MDCR-{"/>
        <mdcr:record tag="MDCR-}"/>
        <mdcr:record tag="MDCR-VB" region="3" layer="1" file="\Resources\Wav\run.wav" value=" 3| 1|\Resources\Wav\run.wav"/>
        <mdcr:record tag="MDCR-S"/>
        <mdcr:record tag="MDCR-{"/>
        <mdcr:record tag="MDCR-}"/>
        <mdcr:record tag="MDCR-VF" region="2" layer="1" file="\Resources\Wav\rifle.wav" value=" 2| 1|\Resources\Wav\rifle.wav"/>
        <mdcr:record tag="MDCR-S"/>
        <mdcr:record tag="MDCR-V(0x16)" region="0" layer="0" value=" 0| 0|"/>
        <mdcr:record tag="MDCR-}"/>
        <mdcr:record tag="MDCR-S"/>
      </mdcr:records>
    </mdcr:info>
  </metadata>
  <g data-mdcr="group" class="mdcr-region" data-mdcr-region="0" data-mdcr-layer="0" data-mdcr-extra="| 14|-" data-mdcr-tag="MDCR-V(0x16)" data-mdcr-value=" 0| 0|">
    <polygon points="121,300 34,294 30,292 26,290 22,288 20,284 15,278 12,272 9,250 9,226 5,207 2,188 1,169 2,148 9,35 32,12 55,5 76,6 99,3 122,2 134,2 145,2 157,3 169,5 196,4 221,3 246,2 271,2 297,4 322,6 347,10 373,16 375,19 375,20 379,32 392,61 396,77 397,93 398,109 398,125 398,157 400,189 396,202 395,215 392,227 391,240 390,253 387,264 384,276 377,289 373,292 373,292 358,296 315,300 249,300 142,300 126,300 121,300" fill="#4e495d" stroke="none" stroke-width="0" fill-rule="evenodd"/>
    <g data-mdcr="group" class="mdcr-region" data-mdcr-region="1" data-mdcr-layer="0" data-mdcr-sound="\Resources\Wav\rifle.wav" data-mdcr-tag="MDCR-VF" data-mdcr-value=" 1| 0|\Resources\Wav\rifle.wav">
      <polygon points="235,288 44,281 36,272 32,265 23,167 27,179 33,192 37,199 42,206 48,214 55,221 63,229 70,236 78,242 86,247 94,251 102,255 111,258 120,261 136,265 154,268 171,269 188,270 199,270 211,269 222,267 234,265 246,261 258,258 270,252 281,247 292,241 302,234 312,227 321,219 329,210 335,202 341,193 345,183 350,169 353,155 354,142 354,130 352,117 347,104 341,92 333,79 325,71 317,63 307,56 297,49 276,38 256,26 279,24 303,22 314,22 327,23 333,25 340,26 345,29 352,32 368,58 371,71 373,85 374,98 375,112 376,134 376,156 376,178 374,199 371,220 367,241 361,262 354,283 342,286 331,287 321,287 311,286 240,290 235,288" fill="#b7ddc8" stroke="none" stroke-width="0" fill-rule="evenodd"/>
      <polygon points="27,94 27,85 26,76 26,68 27,59 29,50 33,41 37,32 44,23 116,19 105,24 93,32 81,41 69,51 58,61 48,72 39,83 31,92 27,94" fill="#b7ddc8" stroke="none" stroke-width="0" fill-rule="evenodd"/>
    </g>
    <g data-mdcr="group" class="mdcr-region" data-mdcr-region="3" data-mdcr-layer="1" data-mdcr-sound="\Resources\Wav\run.wav" data-mdcr-tag="MDCR-VB" data-mdcr-value=" 3| 1|\Resources\Wav\run.wav">
      <polygon points="254,199 247,199 241,198 234,195 229,192 224,190 219,185 214,181 210,177 203,167 198,157 192,148 190,138 188,125 180,114 174,107 165,100 156,95 147,92 128,86 110,83 91,86 65,96 50,107 36,123 40,113 46,103 53,93 60,82 69,72 79,63 90,53 103,45 121,38 138,33 156,30 174,28 191,27 208,28 225,30 242,34 252,37 262,41 270,45 279,51 295,61 311,74 320,91 326,107 331,122 333,138 331,167 301,194 291,198 281,199 270,200 260,201 254,199" fill="#fff500" stroke="none" stroke-width="0" fill-rule="evenodd"/>
      <polygon points="112,161 101,159 91,149 89,142 97,134 108,130 123,139 126,151 116,161 112,161" fill="#fff500" stroke="none" stroke-width="0" fill-rule="evenodd"/>
    </g>
    <g data-mdcr="group" class="mdcr-region" data-mdcr-region="2" data-mdcr-layer="1" data-mdcr-sound="\Resources\Wav\rifle.wav" data-mdcr-tag="MDCR-VF" data-mdcr-value=" 2| 1|\Resources\Wav\rifle.wav">
      <polygon points="276,276 269,275 273,265 290,259 305,252 313,248 320,242 327,237 333,231 345,235 338,242 331,249 324,255 315,260 299,269 283,276 276,276" fill="#4e495d" stroke="none" stroke-width="0" fill-rule="evenodd"/>
      <polygon points="38,243 39,249 40,253 42,256 46,258 52,263 59,269 71,272 71,268 71,266 68,262 66,256 62,253 59,251 52,246 46,242 38,243" fill="#4e495d" stroke="none" stroke-width="0" fill-rule="evenodd"/>
      <polygon points="254,159 244,154 242,137 251,127 267,124 286,134 286,135 286,135 288,146 276,159 258,160 254,159" fill="#4e495d" stroke="none" stroke-width="0" fill-rule="evenodd"/>
    </g>
    <rect x="2" y="2" width="186" height="114" fill="none" stroke="none" stroke-width="0"/>
  </g>
</svg>