<svg shape-rendering="geometricPrecision" xmlns="http://www.w3.org/2000/svg" xmlns:mdcr="http://sensory.com/mdcr" viewBox="0 0 401 304" preserveAspectRatio="none">
  <style>polygon,polyline,line,path{stroke-linejoin:round;stroke-linecap:round}</style>
  <metadata>
    <mdcr:info xmlns:mdcr="http://sensory.com/mdcr">
      <mdcr:source format="WMF" generator="wmf2svg.html"/>
      <mdcr:bounds left="0" top="0" right="6015" bottom="4560" inch="1440"/>
      <mdcr:records count="30">
        <mdcr:record tag="MDCR-{"/>
        <mdcr:record tag="MDCR-V&quot;" region="0" layer="1" extra="| 22|-" value=" 0| 1|| 22|-"/>
        <mdcr:record tag="MDCR-V(0x16)" region="0" layer="1" value=" 0| 1|"/>
        <mdcr:record tag="MDCR-V(0x16)" region="0" layer="1" value=" 0| 1|"/>
        <mdcr:record tag="MDCR-{"/>
        <mdcr:record tag="MDCR-}"/>
        <mdcr:record tag="MDCR-V(0x16)" region="0" layer="1" value=" 0| 1|"/>
        <mdcr:record tag="MDCR-V(0x16)" region="0" layer="1" value=" 0| 1|"/>
        <mdcr:record tag="MDCR-V(0x16)" region="0" layer="1" value=" 0| 1|"/>
        <mdcr:record tag="MDCR-V(0x16)" region="0" layer="1" value=" 0| 1|"/>
        <mdcr:record tag="MDCR-{"/>
        <mdcr:record tag="MDCR-}"/>
        <mdcr:record tag="MDCR-V(0x16)" region="0" layer="1" value=" 0| 1|"/>
        <mdcr:record tag="MDCR-{"/>
        <mdcr:record tag="MDCR-}"/>
        <mdcr:record tag="MDCR-V(0x16)" region="0" layer="1" value=" 0| 1|"/>
        <mdcr:record tag="MDCR-{"/>
        <mdcr:record tag="MDCR-}"/>
        <mdcr:record tag="MDCR-V(0x16)" region="0" layer="1" value=" 0| 1|"/>
        <mdcr:record tag="MDCR-V(0x16)" region="0" layer="1" value=" 0| 1|"/>
        <mdcr:record tag="MDCR-V(0x16)" region="0" layer="1" value=" 0| 1|"/>
        <mdcr:record tag="MDCR-{"/>
        <mdcr:record tag="MDCR-}"/>
        <mdcr:record tag="MDCR-VD" region="1" layer="1" file="\Resources\Wav\clap.wav" value=" 1| 1|\Resources\Wav\clap.wav"/>
        <mdcr:record tag="MDCR-S"/>
        <mdcr:record tag="MDCR-{"/>
        <mdcr:record tag="MDCR-}"/>
        <mdcr:record tag="MDCR-V(0x16)" region="1" layer="1" value=" 1| 1|"/>
        <mdcr:record tag="MDCR-S"/>
        <mdcr:record tag="MDCR-}"/>
      </mdcr:records>
    </mdcr:info>
  </metadata>
  <g data-mdcr="group" class="mdcr-region" data-mdcr-region="0" data-mdcr-layer="1" data-mdcr-extra="| 22|-" data-mdcr-tag="MDCR-V(0x16)" data-mdcr-value=" 0| 1|">
    <polygon points="110,296 111,296 112,296 112,295 113,295 115,294 116,294 116,293 117,293 117,292 117,291 118,291 118,290 119,290 120,289 120,288 121,288 122,287 123,286 124,285 126,284 127,283 129,282 130,282 131,281 132,280 133,279 134,278 135,277 137,276 139,276 140,275 141,274 142,273 144,272 145,272 146,271 147,270 149,270 151,269 152,268 153,268 155,267 156,266 157,266 159,265 160,265 163,264 164,264 165,265 165,266 166,268 167,269 168,270 168,271 169,272 170,274 171,275 172,276 172,277 174,278 175,279 176,280 177,281 178,282 179,282 180,284 181,284 182,285 184,286 186,287 187,288 188,289 189,290 191,290 192,291 193,292 195,292 196,293 197,293 199,294 199,294 199,294 200,294 200,294 200,294 200,294 200,294 201,294 201,294 201,294 201,294 201,294 201,293 201,293 201,293 202,293 200,292 199,291 197,291 196,290 195,289 194,288 193,288 191,287 190,286 189,285 188,284 187,283 186,282 183,282 182,281 181,280 180,279 179,278 178,277 177,276 176,275 175,274 175,272 174,271 172,270 171,269 170,268 170,266 169,265 168,264 168,261 167,260 167,260 166,259 166,257 165,256 165,255 164,254 164,253 164,252 163,252 163,251 162,250 162,249 162,248 160,246 160,245 159,244 159,244 159,243 159,242 159,242 159,241 158,241 158,240 158,239 158,239 158,238 157,238 157,237 157,237 157,236 156,236 156,235 156,234 155,233 155,232 154,231 154,229 153,228 152,227 151,226 151,225 149,225 148,224 147,223 146,223 145,223 144,223 143,222 143,222 142,222 142,222 142,222 142,222 141,222 141,222 141,222 141,223 141,223 140,223 140,223 141,223 142,223 143,224 144,225 144,226 145,226 146,227 147,228 147,229 148,230 149,231 149,232 151,233 151,234 152,235 152,236 153,237 153,238 154,239 154,240 154,242 155,243 155,244 155,245 156,246 156,247 157,248 157,250 157,251 158,252 158,252 159,253 159,254 159,255 160,255 160,256 160,257 160,257 162,259 162,259 162,260 159,260 158,260 157,260 155,261 154,263 152,263 151,264 149,265 147,265 146,266 145,267 143,267 142,268 141,269 140,270 139,271 136,272 134,273 133,274 131,275 130,276 128,278 127,279 124,280 123,281 121,282 120,283 118,284 117,286 116,287 115,288 112,290 112,288 112,287 112,286 112,285 112,283 112,282 112,282 112,281 112,279 112,278 112,277 112,276 112,274 112,273 112,272 113,271 113,269 113,268 113,267 113,266 113,264 115,263 115,261 115,260 115,259 115,257 116,256 116,254 116,253 116,252 117,252 117,250 119,241 119,241 119,240 119,240 119,239 119,239 120,238 120,238 120,237 121,235 122,233 123,231 124,229 126,227 127,225 128,223 129,223 130,222 131,220 132,218 134,216 135,215 137,214 140,212 142,211 142,211 143,211 143,210 144,210 144,210 145,211 145,211 146,211 147,212 148,212 149,213 151,214 152,215 153,215 154,216 155,217 155,217 156,218 157,219 158,219 159,220 160,221 162,221 163,222 164,223 165,223 166,223 167,223 168,223 169,224 170,225 171,225 172,226 174,226 175,227 176,227 177,228 178,229 179,229 180,230 181,230 182,230 182,230 183,231 183,231 184,231 186,231 186,232 187,232 188,232 188,232 189,232 189,233 190,233 191,233 191,233 191,235 191,236 191,238 190,239 190,241 190,242 189,243 189,245 188,246 188,248 188,249 187,251 187,252 187,253 187,254 187,255 188,256 189,257 189,259 190,260 191,261 192,263 192,264 193,265 193,266 194,267 194,269 195,270 196,271 196,272 197,273 197,275 197,276 197,277 199,279 199,280 200,281 200,282 200,283 201,284 201,285 202,287 202,288 203,289 203,290 204,292 204,293 205,294 205,294 205,295 206,295 206,295 206,295 207,295 207,295 208,295 208,294 210,293 211,292 211,291 212,289 213,288 213,287 214,285 214,284 215,283 215,282 216,281 216,280 217,278 218,277 218,276 219,274 220,272 222,271 223,269 224,267 225,266 225,264 226,261 227,260 228,259 229,256 230,255 231,253 232,252 234,251 235,249 234,248 234,247 234,247 232,246 232,245 232,244 231,243 231,242 231,241 230,240 230,239 230,239 230,238 229,237 229,236 229,235 229,234 229,234 228,233 228,233 228,232 228,232 228,231 228,230 228,230 229,230 229,230 229,230 230,230 230,229 230,229 231,229 232,228 235,228 237,227 238,226 240,225 242,224 243,223 246,223 247,223 249,222 251,222 252,221 254,220 255,219 258,218 259,217 261,216 263,215 264,214 266,213 268,213 270,212 272,211 274,210 275,210 277,209 278,209 281,208 283,208 285,208 287,207 289,207 290,209 291,210 292,212 292,213 294,215 295,217 295,219 296,220 296,222 296,223 297,224 297,226 297,228 297,229 297,231 297,233 297,234 297,236 298,237 298,238 298,239 298,241 297,242 297,243 297,245 297,246 297,247 297,249 297,250 296,251 296,252 296,253 296,253 296,254 296,255 296,255 295,256 295,257 295,257 295,259 295,259 295,260 295,260 295,260 294,261 294,261 294,263 294,264 294,264 294,264 294,265 294,265 294,265 294,266 294,266 292,266 292,266 292,266 292,266 292,266 291,266 291,266 290,266 289,265 289,265 288,265 288,265 287,264 287,264 286,264 286,263 285,263 284,263 284,261 283,261 283,261 282,260 281,260 279,260 278,260 277,259 277,259 276,257 275,257 274,257 273,256 272,256 271,256 270,255 268,255 267,255 266,255 265,255 265,254 264,254 264,254 263,254 263,254 262,254 262,254 261,254 261,254 260,254 260,254 260,254 259,254 259,254 258,254 258,253 258,253 258,253 258,253 258,252 258,252 259,252 259,251 259,250 260,249 260,248 260,247 261,246 261,245 262,244 262,243 262,242 263,241 263,240 264,239 264,238 264,237 265,236 265,236 266,235 266,234 266,233 267,232 267,231 268,230 268,229 270,228 270,227 270,226 271,225 271,224 271,223 272,223 272,223 273,223 273,222 274,222 274,221 275,220 275,220 276,219 276,218 277,218 277,217 277,216 278,216 278,215 277,213 276,213 275,214 275,214 274,215 273,215 273,216 272,217 272,217 271,218 271,219 270,219 270,220 268,221 268,221 267,222 267,223 267,223 265,224 264,227 263,229 262,232 261,234 260,237 259,240 258,242 256,245 254,247 253,250 252,252 251,254 250,256 249,260 248,261 246,264 244,267 242,269 241,271 240,273 238,275 236,277 235,279 232,281 230,282 228,283 226,285 224,287 222,288 218,289 216,291 215,291 215,291 215,291 214,291 214,291 214,291 213,292 213,292 213,292 213,292 212,292 212,293 212,293 212,293 212,293 212,293 213,294 214,294 215,294 215,294 216,294 217,293 218,293 219,293 220,292 223,292 224,291 225,290 226,290 227,289 229,288 230,287 231,286 232,285 234,284 235,283 236,282 237,282 238,281 239,280 240,279 241,278 242,276 243,275 244,274 246,272 247,271 247,270 248,268 249,267 250,266 251,264 252,263 252,260 253,260 254,259 255,257 258,257 259,257 261,257 262,259 263,259 265,259 266,259 267,260 268,260 271,260 272,260 273,261 274,261 276,263 277,263 277,264 278,264 279,265 282,266 283,266 284,267 285,267 286,268 288,268 289,269 290,269 291,270 292,270 295,270 296,270 297,271 297,270 298,270 298,269 298,268 298,268 299,267 299,266 299,266 299,265 299,264 299,263 299,263 300,261 300,260 300,260 300,260 300,260 300,259 300,259 300,257 300,257 301,256 301,256 301,255 301,254 301,253 301,252 301,252 302,252 302,251 302,250 302,249 302,248 302,247 302,246 302,245 303,244 303,243 303,242 303,241 303,240 303,239 303,237 302,236 302,235 302,233 302,232 302,231 302,230 302,228 302,227 302,226 301,224 301,223 301,223 301,222 301,221 300,220 300,219 300,217 299,216 299,215 298,214 298,213 297,212 297,211 296,210 296,209 295,208 294,207 292,206 291,205 291,205 291,204 290,204 290,204 289,204 289,204 288,204 288,204 287,204 287,204 286,203 286,203 286,203 285,203 285,203 284,203 282,204 279,204 277,205 277,205 275,206 273,207 271,207 270,208 267,209 265,209 264,210 262,211 260,212 259,213 256,214 255,215 253,215 252,216 250,217 248,218 247,219 244,220 243,221 241,222 240,223 238,223 237,223 235,223 234,224 231,225 229,226 228,226 226,221 227,220 228,220 230,219 231,219 232,219 234,218 235,218 236,217 238,216 239,216 240,215 241,214 242,214 243,213 243,212 244,211 244,211 246,211 246,211 246,211 248,209 249,208 250,207 251,206 252,205 253,203 253,202 254,201 255,200 256,199 256,197 258,196 259,195 260,195 260,193 261,192 261,191 262,189 262,189 262,189 262,188 263,188 263,188 264,188 265,188 265,188 266,187 267,187 268,187 268,187 270,187 271,187 271,187 272,187 272,185 273,185 273,185 274,184 274,184 274,183 274,183 274,182 274,182 274,181 275,181 275,180 275,180 275,179 275,179 275,179 275,178 276,178 276,177 277,177 277,177 279,177 281,177 282,177 283,176 284,176 286,176 287,175 288,175 289,174 290,173 291,173 291,172 292,171 294,170 294,169 294,169 295,168 295,168 295,167 296,167 296,166 296,165 296,165 296,165 297,165 297,164 297,164 297,163 298,162 298,162 299,162 299,162 300,162 301,162 301,162 302,162 303,162 303,162 304,162 306,162 306,162 307,162 308,162 309,162 309,162 310,162 311,162 312,162 314,162 315,161 316,161 318,161 319,161 321,161 322,160 323,160 324,160 325,159 326,159 327,158 329,158 330,157 331,157 332,156 333,156 334,155 335,154 336,154 337,153 338,152 338,151 339,151 341,151 342,150 342,149 343,148 343,147 344,146 344,145 345,144 345,143 346,142 346,141 346,140 346,139 346,138 347,137 347,136 347,135 346,134 346,133 346,132 346,131 345,130 346,130 347,129 348,129 348,128 349,128 350,127 350,127 351,126 352,126 352,125 354,124 354,124 355,123 355,122 356,121 356,120 357,119 357,116 358,115 358,114 358,112 358,110 358,108 358,107 357,106 357,105 356,103 356,101 355,100 355,98 354,97 352,95 346,84 347,84 347,83 348,82 348,81 349,80 349,80 349,79 350,78 350,78 350,78 350,77 350,76 350,75 350,74 350,73 349,72 349,71 348,70 348,69 347,67 346,66 346,65 345,64 344,63 344,63 343,62 342,61 341,60 341,59 339,58 338,57 337,56 336,55 335,55 334,54 333,53 332,52 331,52 330,51 329,50 327,50 326,49 325,49 324,49 323,49 321,49 320,48 319,48 318,48 315,48 314,47 313,47 312,47 311,48 310,48 308,48 307,48 306,48 304,49 303,49 302,49 300,49 299,49 298,49 298,49 297,48 297,48 296,47 296,47 295,46 294,46 294,46 292,44 291,44 291,44 290,43 289,43 289,43 288,43 287,42 286,42 285,43 285,43 284,43 283,43 282,43 282,44 281,44 279,44 278,46 278,46 277,46 277,46 277,47 276,47 275,47 275,46 274,43 273,42 273,41 272,40 271,38 271,37 270,36 268,35 267,34 266,32 266,31 265,30 264,29 263,28 262,27 261,26 260,24 259,23 258,22 256,21 255,20 254,19 253,19 252,19 251,18 249,17 248,16 247,15 246,15 243,14 242,13 241,13 240,12 240,12 239,11 238,11 237,11 236,10 235,10 234,10 232,9 231,9 230,8 229,8 228,8 227,8 226,7 225,7 224,7 223,7 222,6 220,6 219,6 218,6 217,6 216,5 215,5 214,5 213,5 212,5 211,5 210,5 208,5 207,5 206,5 206,5 205,5 204,5 203,6 202,6 202,6 201,6 200,6 199,6 199,6 197,6 197,6 196,7 196,7 194,7 193,8 191,8 190,8 188,9 187,9 184,10 183,10 182,11 180,11 179,12 178,13 177,13 176,14 174,14 172,15 171,16 170,16 169,17 168,18 167,19 165,19 164,19 163,20 162,21 160,22 159,22 158,23 157,24 156,25 155,26 154,27 153,28 153,28 152,29 152,30 151,30 151,31 151,31 149,32 149,33 148,33 148,34 147,34 147,35 147,36 146,36 146,37 146,37 146,37 145,37 145,37 145,37 145,37 145,37 144,37 144,37 143,37 142,36 141,36 141,36 140,36 139,36 137,36 137,36 136,36 135,36 134,36 133,36 132,36 132,36 131,36 130,37 129,37 128,38 128,39 127,39 126,40 124,40 123,40 122,40 120,39 119,39 117,39 117,38 115,38 113,38 111,38 110,38 108,38 107,38 105,38 104,39 101,39 100,39 98,40 97,40 95,40 94,41 93,41 91,42 89,43 88,43 86,44 85,46 84,47 83,47 82,48 80,49 79,49 77,50 76,51 76,52 75,52 75,53 74,53 74,54 74,54 73,55 73,56 72,56 72,57 72,57 71,58 71,58 70,59 70,59 69,59 69,60 68,60 68,60 68,60 67,60 67,60 65,60 65,61 63,61 62,62 60,63 59,64 57,65 56,66 55,67 52,68 51,70 50,71 49,72 48,74 47,75 46,77 45,78 45,78 44,79 44,80 43,80 43,81 41,82 41,83 40,84 40,85 39,86 39,87 39,88 38,89 38,90 38,91 37,92 37,93 37,94 37,95 37,96 36,97 36,98 36,99 36,100 36,102 36,103 36,104 36,105 36,106 36,106 36,107 36,108 36,109 37,110 37,110 37,111 37,112 37,112 38,114 38,114 38,114 38,115 39,115 39,116 40,116 40,116 40,118 41,118 41,119 43,119 43,119 43,119 44,119 44,119 44,120 44,120 45,120 44,121 44,122 44,124 44,125 44,126 44,127 44,129 44,130 44,131 44,133 44,134 44,135 44,136 44,137 44,138 44,140 44,141 45,142 45,144 45,145 46,146 46,147 46,149 47,150 47,151 48,151 48,152 49,153 49,154 50,155 51,156 51,157 52,159 53,159 55,160 56,161 57,162 58,163 59,164 61,164 62,165 63,165 64,165 67,165 68,165 69,165 71,165 72,165 73,165 73,165 74,165 74,165 75,165 75,165 76,165 76,165 77,165 77,165 79,165 79,165 80,165 80,164 80,164 81,164 82,165 83,165 84,166 84,167 85,169 86,170 88,171 89,172 91,174 92,175 93,175 95,176 96,177 98,177 99,178 101,178 103,178 104,178 104,178 105,178 106,177 106,177 107,177 108,177 108,176 109,176 109,176 110,176 111,175 111,175 112,175 112,174 113,176 115,177 116,178 117,179 117,181 118,182 119,183 121,184 122,185 123,185 126,187 128,187 129,187 131,188 133,188 134,188 135,188 136,188 137,188 137,187 139,187 140,187 140,187 141,187 141,187 142,187 143,187 143,185 144,185 144,185 145,184 145,184 146,184 146,183 146,183 147,183 147,184 147,184 148,185 148,185 148,187 148,187 148,187 149,188 149,188 149,189 149,191 149,191 151,192 151,192 151,193 151,194 152,195 152,195 153,196 153,198 154,199 155,200 155,201 156,202 157,203 158,205 159,206 160,207 162,208 163,209 164,209 165,210 166,211 167,212 168,213 169,214 170,214 171,215 174,216 175,216 176,217 177,218 179,218 180,219 181,219 183,220 184,220 186,221 187,221 188,221 189,221 190,221 190,222 191,222 192,222 192,222 192,229 190,229 188,228 187,228 184,227 183,226 181,226 180,225 178,224 177,224 176,223 174,223 172,223 171,222 169,222 168,221 167,220 166,219 164,218 163,217 162,216 160,215 158,215 157,214 156,213 154,212 153,211 152,210 151,209 148,209 147,208 145,207 144,206 144,206 144,206 143,206 143,206 142,207 140,207 139,208 137,209 135,210 134,211 133,212 131,213 130,214 129,215 128,217 127,218 126,219 124,221 124,222 123,223 122,223 121,225 120,227 119,230 118,232 117,234 117,236 116,238 115,241 115,243 113,245 112,248 112,250 111,252 111,254 110,256 110,260 109,261 109,265 109,267 109,269 108,272 108,274 108,277 108,279 108,281 108,283 108,285 108,288 108,290 108,292 108,294 109,295 109,295 109,295 109,296 109,296 110,296 110,296 110,296" fill="#000000" stroke="#000000" stroke-linejoin="round" stroke-linecap="round" stroke-width="2" fill-rule="evenodd"/>
    <polygon points="206,286 206,285 207,284 207,284 207,283 209,282 209,282 209,281 210,280 210,279 210,278 210,278 211,277 211,276 211,275 212,275 212,274 212,273 213,273 213,272 213,271 214,270 214,270 214,270 215,269 215,269 215,268 216,267 216,267 216,266 217,266 217,265 217,264 218,264 218,263 218,262 219,262 219,261 219,261 219,260 220,259 220,259 222,258 222,257 223,256 223,256 224,255 224,253 225,253 225,253 225,252 226,251 226,251 227,249 227,248 228,247 228,246 227,245 226,243 226,241 225,240 225,238 224,236 224,235 223,234 223,232 222,230 222,228 222,226 220,224 220,223 220,221 219,219 218,219 216,219 215,219 214,220 212,220 211,220 209,220 207,220 206,220 204,220 203,220 201,220 200,220 198,220 197,220 196,220 194,221 194,223 194,224 194,226 194,228 194,229 193,231 193,233 193,234 193,236 193,236 192,238 192,240 192,241 191,243 191,245 190,246 189,247 189,249 189,251 189,252 189,253 190,255 190,256 191,257 191,258 192,259 192,260 193,261 194,262 194,263 196,264 196,265 197,266 197,266 197,267 198,268 198,268 198,269 199,270 199,270 200,271 200,272 201,273 201,274 201,275 202,276 202,277 203,278 203,279 203,280 204,281 204,282 204,284 205,285 205,286 205,286 205,286 206,286 206,286 206,286 206,286 206,286 206,286" fill="#ffffff" stroke="#000000" stroke-linejoin="round" stroke-linecap="round" stroke-width="2" fill-rule="evenodd"/>
    <polygon points="203,217 204,217 205,217 206,217 208,217 209,217 210,217 211,217 212,217 214,217 215,216 216,216 217,216 220,216 221,215 222,215 223,215 224,214 226,214 227,214 228,213 229,213 230,212 232,211 233,211 234,210 235,210 236,209 237,208 238,208 239,207 240,206 241,205 242,204 244,202 246,202 247,200 248,199 249,197 250,195 251,194 252,192 253,190 254,189 254,187 256,184 257,182 257,180 258,178 259,176 259,174 260,172 260,171 261,169 261,167 261,165 262,162 262,160 262,158 262,156 262,154 262,152 262,150 262,147 262,145 262,143 262,142 262,140 261,138 261,136 261,134 260,132 260,130 259,128 259,126 258,124 257,122 256,120 256,118 254,116 253,114 254,113 256,113 257,111 258,110 259,108 261,106 262,105 263,103 264,101 265,99 266,97 266,95 268,93 269,91 270,89 271,87 271,85 272,83 272,81 273,79 273,77 274,75 274,73 274,71 274,68 274,66 274,64 274,62 273,60 273,58 272,55 272,53 271,52 270,50 270,48 269,46 268,44 266,42 265,39 264,38 263,36 262,34 261,32 260,31 258,29 257,28 256,26 253,24 252,23 250,22 249,21 247,20 246,19 244,18 241,16 240,15 238,14 236,13 234,12 232,12 229,11 227,10 225,9 223,9 221,8 220,8 218,8 217,8 215,7 214,7 213,7 211,7 210,7 209,7 208,7 206,7 205,7 204,7 202,7 201,8 200,8 199,8 197,8 196,9 195,9 193,9 191,9 190,10 189,10 188,11 186,11 185,12 184,12 183,12 181,13 179,13 179,14 178,14 177,15 176,15 176,15 175,16 174,16 174,16 173,17 172,17 172,18 171,18 169,18 169,19 168,19 167,20 167,20 167,20 167,20 167,20 163,22 162,23 161,24 159,25 157,26 156,27 155,28 154,29 153,30 152,31 152,33 151,34 150,35 149,36 148,38 148,39 147,41 147,42 145,43 145,44 144,45 144,46 144,47 143,48 143,49 143,50 142,51 142,52 142,52 141,53 141,54 141,55 141,56 140,58 140,60 140,62 139,65 139,67 139,69 139,71 139,73 139,75 139,77 139,79 139,82 140,83 140,85 140,87 141,89 141,91 142,93 142,95 143,97 144,99 144,101 145,103 147,105 148,106 149,108 150,110 151,113 152,113 153,113 155,114 156,116 156,116 156,116 156,116 157,115 159,107 157,107 156,106 155,105 154,105 153,104 152,103 151,102 151,101 150,100 149,99 149,98 148,97 148,95 147,94 147,93 147,92 145,90 145,89 145,88 145,87 145,86 145,84 145,83 145,82 145,82 145,81 145,79 145,78 147,77 147,76 147,75 147,74 148,72 148,71 148,70 149,69 149,68 150,67 150,66 151,65 151,64 152,63 152,62 153,61 154,60 154,59 155,58 156,58 156,57 157,56 159,56 159,55 160,55 160,54 161,53 161,53 162,52 163,52 164,52 165,51 166,51 167,50 168,49 169,49 172,49 173,48 174,48 176,48 177,48 178,48 179,48 180,48 183,48 184,49 185,49 186,50 187,50 188,51 189,52 190,52 191,52 191,53 192,54 193,55 193,56 195,57 196,58 196,59 197,60 197,62 197,63 198,65 198,66 199,68 199,69 199,71 199,72 200,74 200,75 200,77 200,79 200,80 200,82 200,82 209,82 209,82 209,82 209,81 209,80 209,80 209,79 209,78 209,77 209,77 209,76 209,75 209,74 209,74 209,73 209,72 209,71 209,70 209,68 209,67 209,65 209,63 210,62 210,60 210,59 211,57 211,56 212,54 213,53 213,52 214,51 215,50 217,49 217,49 218,48 220,48 221,47 222,47 222,46 223,46 224,46 225,45 226,45 227,45 228,45 229,45 230,45 232,45 232,45 234,45 235,45 237,46 238,46 240,47 241,47 242,48 245,48 246,49 247,50 248,50 249,51 250,52 251,52 252,53 253,54 253,55 254,56 254,56 254,57 256,57 256,58 256,59 257,59 257,61 258,62 258,63 258,64 259,65 259,67 259,68 260,69 260,70 260,72 260,73 260,74 260,76 260,77 260,78 260,79 260,81 260,82 260,82 260,84 260,85 260,86 260,87 259,89 259,90 259,91 258,92 258,94 257,95 257,96 257,97 256,98 256,99 254,100 253,100 253,101 252,102 252,102 252,103 251,104 252,105 252,106 253,107 253,109 253,110 253,111 253,113 253,113 253,113 252,114 252,115 252,116 251,117 251,118 250,120 249,121 249,121 248,122 248,123 247,124 246,125 246,125 245,126 244,127 242,127 241,128 241,128 240,129 239,129 238,130 237,130 236,131 234,131 232,132 229,132 227,133 225,133 223,134 221,134 217,135 215,135 213,135 211,136 209,136 206,136 205,136 203,136 200,136 198,136 196,136 193,136 191,136 189,136 187,135 185,135 183,135 180,134 178,134 176,133 174,133 172,132 169,131 167,130 165,129 164,129 164,128 163,128 163,127 162,126 161,126 161,125 160,124 160,124 160,123 159,122 159,122 157,121 157,120 157,119 157,119 156,120 155,121 155,122 154,123 154,125 153,126 153,127 152,128 152,130 152,131 151,132 151,134 151,135 150,136 150,138 150,139 150,140 149,142 149,142 149,144 149,145 149,146 149,148 149,149 149,150 149,152 148,153 148,154 148,156 148,157 148,158 148,160 148,161 149,163 149,165 149,166 149,168 149,170 150,172 150,172 150,174 151,176 151,178 151,179 152,181 152,183 153,184 153,187 154,189 155,190 155,192 156,193 157,195 157,196 159,198 160,199 161,200 162,202 163,202 164,203 165,204 167,205 168,207 169,208 171,208 172,209 172,209 173,210 174,210 175,211 176,211 177,211 178,212 179,212 180,213 181,213 181,213 183,214 184,214 185,214 186,215 187,215 188,215 189,216 190,216 191,216 192,216 195,216 196,216 197,217 198,217 199,217 200,217 201,217 202,217 203,217" fill="#ffcc99" stroke="#000000" stroke-linejoin="round" stroke-linecap="round" stroke-width="2" fill-rule="evenodd"/>
    <g data-mdcr="group" class="mdcr-region" data-mdcr-region="0" data-mdcr-layer="1" data-mdcr-tag="MDCR-V(0x16)" data-mdcr-value=" 0| 1|">
      <polygon points="132,183 133,183 134,183 135,183 135,183 136,183 137,182 138,182 138,182 139,181 141,181 142,181 142,180 143,180 144,180 145,180 146,179 146,179 146,179 146,180 146,180 146,178 145,177 145,175 145,174 145,172 144,171 144,169 144,168 144,167 144,165 144,164 144,162 144,161 143,159 143,158 143,156 143,156 142,156 141,156 139,156 139,156 138,156 137,156 136,156 136,156 135,156 134,156 133,156 132,156 132,156 131,156 130,156 129,156 127,156 126,156 125,156 124,156 123,156 122,155 121,155 120,155 119,155 118,155 117,154 115,154 114,154 113,154 112,153 110,153 109,152 107,151 106,150 103,148 102,147 101,147 99,146 98,144 97,142 96,141 95,140 94,139 94,138 94,136 92,135 92,134 92,132 92,131 92,129 92,128 92,127 92,125 92,124 92,122 92,121 92,120 92,118 92,117 94,115 94,114 94,113 94,111 94,111 95,111 95,110 96,108 96,107 97,106 97,105 98,104 99,102 100,101 100,100 101,99 102,98 103,97 105,96 107,95 108,94 110,93 111,92 113,92 115,91 117,90 119,90 121,89 123,89 125,89 127,89 130,89 131,89 133,89 135,89 135,89 136,89 136,89 136,89 136,88 136,86 136,85 135,83 135,82 135,81 135,79 135,78 135,75 135,74 135,72 135,70 135,69 135,67 135,66 136,64 136,62 136,61 136,59 137,57 137,56 137,54 138,53 138,52 138,50 139,49 139,47 141,46 141,44 142,43 143,41 143,40 143,40 143,39 143,39 143,39 143,39 142,39 141,38 139,38 138,38 137,38 137,38 136,38 135,38 134,38 133,38 133,39 132,39 131,39 131,40 130,40 130,40 129,41 129,41 129,41 129,41 129,42 127,42 127,42 126,42 125,42 123,42 122,42 121,41 119,41 118,41 117,41 114,41 113,41 111,41 110,41 109,41 107,41 106,41 103,41 102,41 101,42 99,42 98,42 97,42 95,43 94,43 94,44 91,44 90,45 89,45 88,46 87,46 86,47 84,48 83,49 83,50 81,50 80,51 80,52 79,52 79,52 78,53 77,53 77,54 76,55 76,56 75,56 75,57 75,58 74,59 74,60 74,60 74,60 74,60 74,60 73,60 73,60 72,61 71,61 71,61 70,61 70,61 68,61 67,62 67,62 66,62 66,62 65,62 64,63 64,63 63,63 62,64 60,65 59,66 57,67 55,69 54,70 53,71 52,74 51,74 50,76 49,78 49,80 48,81 47,82 45,83 44,85 44,86 43,86 43,87 43,88 43,89 42,90 42,91 42,92 41,93 41,94 41,95 41,96 41,96 40,97 40,98 40,99 40,100 40,101 40,102 40,103 40,104 40,105 40,106 40,107 40,107 40,108 41,109 41,110 41,111 41,111 42,111 42,112 42,112 43,113 43,113 44,113 45,114 45,114 47,114 48,114 48,114 48,114 49,115 49,115 49,115 49,116 50,116 50,116 49,118 49,119 49,121 49,122 48,124 48,125 48,127 48,128 48,130 48,131 48,133 48,134 48,136 48,137 49,139 49,139 49,140 49,140 49,141 49,141 49,141 49,142 50,142 50,143 50,143 50,144 50,144 50,144 50,146 50,146 51,147 51,147 51,147 52,148 52,151 53,152 53,153 54,154 55,155 55,155 56,156 57,157 59,158 60,159 61,159 62,160 63,160 64,161 65,161 66,161 67,162 68,162 70,162 71,162 72,162 73,161 74,161 75,161 76,161 77,160 78,160 79,159 80,158 80,158 81,158 81,158 83,158 83,158 83,158 84,159 84,159 84,159 84,159 85,159 85,160 85,160 85,161 86,162 86,163 87,164 87,165 88,166 89,166 89,167 90,168 91,169 92,169 92,170 94,170 94,171 95,172 96,172 97,173 97,173 98,173 99,173 99,173 100,173 101,173 101,173 102,173 103,173 103,173 105,173 105,173 106,173 106,172 107,172 108,171 109,171 109,170 110,170 111,169 111,169 112,169 113,169 114,169 114,169 115,170 115,171 115,171 117,172 117,173 118,173 118,174 118,174 119,175 119,176 120,176 120,177 121,177 121,178 122,178 122,179 123,179 123,179 124,180 124,180 125,180 125,181 126,181 127,181 127,182 129,182 129,182 130,182 131,183 131,183 132,183" fill="#00ccff" stroke="#000000" stroke-linejoin="round" stroke-linecap="round" stroke-width="2" fill-rule="evenodd"/>
      <polygon points="263,183 264,183 265,183 265,183 266,182 266,182 267,182 267,181 268,181 268,180 268,180 268,179 268,179 268,178 268,178 269,177 269,177 269,177 269,176 269,176 269,175 269,175 269,174 269,174 269,173 269,173 269,173 271,173 271,172 272,172 272,172 273,172 273,172 274,172 275,172 276,172 277,172 278,172 278,172 279,172 280,172 281,172 283,172 284,171 285,171 285,171 286,170 287,170 287,169 288,169 288,169 289,168 289,167 290,167 290,166 291,165 291,164 291,163 292,162 292,162 292,161 293,160 293,159 293,158 293,157 294,157 297,157 298,157 299,157 300,158 301,158 303,158 304,158 305,158 306,158 308,158 309,157 310,157 311,157 313,157 314,157 315,157 316,157 318,156 320,156 321,156 322,155 323,155 324,154 325,154 326,153 327,153 328,152 329,150 330,149 331,149 333,148 334,147 335,146 335,145 336,144 337,143 338,142 338,141 339,140 339,139 339,138 340,136 340,135 340,134 340,133 340,131 340,130 339,129 339,128 339,128 339,127 338,126 338,126 338,125 339,124 339,124 340,124 340,124 340,124 341,123 341,123 342,123 342,123 343,123 343,122 345,122 345,122 346,121 346,121 347,121 347,120 348,120 348,119 349,118 349,117 350,116 350,115 350,115 350,114 351,114 351,114 351,113 351,112 351,111 351,110 351,109 351,108 351,107 351,106 350,105 350,104 350,103 350,102 349,101 349,100 349,99 348,98 348,98 348,97 347,96 347,95 346,94 346,93 346,92 345,92 345,91 343,90 343,90 342,89 342,89 342,88 341,88 341,87 340,87 340,87 340,86 339,86 339,85 339,85 339,84 339,84 339,83 339,83 339,82 339,82 340,82 340,81 341,81 341,81 341,80 342,79 342,79 342,77 343,77 343,76 343,75 343,75 343,74 343,73 343,72 343,72 343,71 343,71 342,69 341,68 341,66 340,65 339,64 338,62 337,61 336,60 335,59 334,58 331,57 330,56 329,55 328,54 326,53 325,52 323,51 322,51 320,50 317,50 316,49 314,49 312,49 310,50 309,50 308,50 305,50 303,51 302,51 300,51 298,51 297,51 296,51 296,50 294,50 294,49 293,48 293,48 292,47 291,47 291,47 290,46 289,46 289,46 288,45 287,45 287,45 286,45 285,45 284,45 284,46 283,46 283,46 281,46 281,47 280,47 280,47 279,47 279,47 278,48 277,48 277,48 276,48 276,49 276,50 277,51 277,52 277,53 277,54 278,55 278,56 278,57 278,58 279,59 279,59 279,60 279,61 279,63 279,64 279,65 279,66 279,67 279,68 279,69 279,70 279,71 279,72 279,73 279,75 279,76 279,77 279,79 278,80 278,81 278,82 278,83 279,83 280,83 281,83 284,83 285,83 286,83 287,83 288,83 289,83 290,83 292,83 293,84 294,84 296,84 297,85 298,85 299,85 300,86 301,86 302,87 303,87 304,87 305,87 306,88 308,89 308,90 308,90 309,91 310,92 310,93 311,94 312,95 312,96 312,96 312,97 313,98 313,98 313,99 314,99 314,100 314,101 314,101 315,102 315,103 315,103 315,104 316,105 316,105 316,106 316,108 316,109 316,110 316,111 316,112 316,113 317,114 317,114 317,115 317,116 316,117 316,118 316,120 316,121 316,122 316,123 316,124 315,125 315,126 315,127 315,128 314,130 314,131 314,132 313,133 313,134 312,135 312,136 311,136 310,137 310,138 309,139 308,140 308,141 306,141 305,142 304,143 303,143 302,144 301,145 300,146 299,146 297,147 296,148 294,148 293,149 292,149 290,150 289,150 288,152 287,152 285,152 284,153 283,153 280,153 279,154 278,154 276,154 275,154 274,155 272,155 271,155 268,155 268,157 268,158 267,160 267,162 267,163 267,165 267,167 266,169 266,170 266,171 266,173 265,175 265,177 264,178 264,180 263,182 263,182 263,182 263,183 263,183 263,183 263,183 263,183 263,183" fill="#00ccff" stroke="#000000" stroke-linejoin="round" stroke-linecap="round" stroke-width="2" fill-rule="evenodd"/>
    </g>
    <polygon points="200,208 201,208 202,208 204,208 205,208 207,208 208,208 210,208 211,207 213,207 214,207 215,207 217,206 219,206 221,206 222,205 224,205 226,204 228,203 231,201 233,200 235,199 237,197 239,196 242,194 244,192 245,190 247,189 248,187 249,185 250,183 251,180 252,178 254,176 254,175 254,172 255,171 255,170 256,167 256,165 256,164 257,162 257,160 257,159 258,157 258,156 258,154 258,153 258,152 258,151 258,150 258,149 258,149 258,148 258,147 257,146 257,146 257,145 257,144 256,144 256,143 256,142 256,142 255,141 255,140 254,140 252,139 251,138 251,137 250,137 249,136 248,136 247,136 246,136 244,137 243,137 242,137 240,138 238,139 237,139 236,140 235,141 234,142 233,143 232,143 231,144 229,145 228,146 227,147 226,148 225,149 224,150 223,151 222,152 221,153 220,154 219,154 217,154 216,155 215,156 214,156 213,157 211,157 210,158 208,158 207,158 207,159 204,159 203,159 201,159 200,159 198,159 197,159 194,159 193,159 191,158 190,158 189,157 187,157 186,156 185,155 183,154 182,154 181,153 180,152 179,151 178,150 177,149 176,148 175,147 175,146 173,145 171,145 170,144 169,143 168,143 166,143 165,143 165,143 164,144 164,144 163,144 163,144 162,145 162,145 160,145 160,146 159,146 159,146 158,147 158,147 157,148 157,148 157,149 156,150 156,151 156,152 156,153 156,154 155,154 155,155 155,156 155,157 155,158 155,159 155,160 155,161 155,162 155,163 155,164 155,165 155,166 155,167 156,168 156,170 156,171 156,172 156,172 156,174 157,175 157,176 157,177 157,178 157,179 158,180 158,181 158,182 158,182 159,183 159,184 159,184 159,185 160,186 160,186 160,187 162,188 162,188 162,189 163,189 163,190 163,190 164,190 164,191 164,191 165,192 165,193 165,193 166,194 166,194 167,195 167,195 168,196 168,196 168,197 169,197 170,198 170,198 170,198 171,199 171,199 171,199 174,200 175,201 176,202 178,203 179,204 181,204 182,205 185,206 186,206 188,206 190,207 192,207 193,207 196,208 198,208 200,208" fill="#000000" stroke="#000000" stroke-linejoin="round" stroke-linecap="round" stroke-width="2" fill-rule="evenodd"/>
    <polygon points="203,205 204,205 205,205 206,205 207,205 208,205 209,205 210,204 211,204 214,204 215,204 216,203 217,203 218,203 220,202 221,202 222,201 223,201 225,201 226,200 227,199 228,199 229,198 230,198 231,197 232,196 233,196 234,195 235,194 237,193 238,192 238,192 239,191 240,190 241,189 242,188 242,187 243,186 244,185 245,183 245,182 246,181 246,179 248,178 249,177 249,175 250,173 250,172 251,171 251,168 251,167 252,165 252,164 252,162 252,161 253,159 253,158 253,157 253,156 253,155 253,153 253,152 253,150 253,149 253,147 253,147 252,147 252,146 252,146 252,146 252,146 252,145 252,145 251,144 251,144 251,143 250,143 250,142 249,142 248,141 246,141 246,141 245,141 244,141 243,142 243,142 242,142 241,143 241,143 240,143 240,144 239,144 239,145 238,145 238,146 237,146 237,147 235,148 234,150 232,151 231,152 230,153 229,154 228,155 226,156 225,157 223,157 221,158 220,159 219,159 217,160 216,161 215,161 214,162 214,162 213,162 213,162 211,162 211,162 210,162 210,163 209,163 209,163 208,163 208,163 207,163 207,163 207,163 207,163 205,164 204,164 202,164 200,164 198,164 196,164 195,164 193,163 192,163 190,163 188,162 187,162 185,161 184,160 183,159 182,159 181,158 180,157 179,157 178,156 178,155 176,155 175,154 175,153 174,152 173,151 172,150 171,149 171,149 170,148 169,148 168,147 167,148 165,148 164,149 163,149 163,150 162,151 161,151 161,152 161,152 161,153 161,153 161,154 161,154 161,154 161,155 161,155 161,156 161,156 161,157 160,157 160,157 160,157 160,158 160,158 160,159 160,161 160,162 160,163 160,164 160,166 160,167 160,168 160,171 161,172 161,173 161,175 161,176 161,177 162,178 162,180 163,181 163,182 163,183 164,185 164,186 165,187 165,188 167,189 168,189 168,190 169,191 170,192 171,193 171,194 172,195 173,196 174,197 176,198 178,199 180,200 181,201 183,202 185,202 186,203 188,203 191,204 193,204 194,204 196,205 198,205 200,205 203,205" fill="#33cc33" stroke="#000000" stroke-linejoin="round" stroke-linecap="round" stroke-width="2" fill-rule="evenodd"/>
    <polygon points="199,188 202,188 204,188 206,188 208,188 209,187 211,187 214,186 216,186 217,185 219,184 221,183 222,182 224,181 225,180 227,179 229,179 230,177 231,176 232,175 233,174 234,174 235,173 236,172 237,171 239,170 239,169 240,167 241,166 242,165 243,164 243,163 244,162 243,160 241,159 240,160 239,161 237,162 236,163 236,165 235,166 234,167 233,168 232,169 231,170 230,171 229,172 228,173 227,174 225,174 224,175 222,176 221,177 220,178 219,179 218,180 216,181 215,181 214,182 211,182 210,183 209,183 207,184 206,184 204,184 202,184 201,185 198,184 196,184 194,184 192,183 191,182 189,181 186,181 185,180 184,179 182,177 181,176 180,175 179,174 178,173 177,171 176,170 176,169 176,168 174,168 174,167 174,166 173,166 173,165 173,165 172,164 172,164 172,164 171,164 171,164 171,164 170,164 170,164 170,164 170,164 170,165 169,165 169,165 169,165 169,165 169,166 170,167 170,169 171,170 172,172 172,173 173,174 174,175 176,177 177,178 178,179 180,180 181,181 182,182 183,183 185,184 186,185 188,185 189,185 190,186 190,186 191,186 192,186 193,187 193,187 194,187 195,187 195,187 196,187 197,188 198,188 198,188 199,188" fill="#000000" stroke="#000000" stroke-linejoin="round" stroke-linecap="round" stroke-width="2" fill-rule="evenodd"/>
    <g data-mdcr="group" class="mdcr-region" data-mdcr-region="0" data-mdcr-layer="1" data-mdcr-tag="MDCR-V(0x16)" data-mdcr-value=" 0| 1|">
      <polygon points="130,153 143,153 143,152 143,151 143,150 143,149 143,148 143,147 143,146 143,145 144,144 144,143 144,142 144,141 144,140 144,140 144,139 145,138 145,137 145,136 145,135 146,133 146,132 146,131 148,130 148,128 149,127 149,126 150,125 150,122 151,122 151,121 151,119 152,118 144,108 143,108 143,107 142,107 141,107 141,107 140,106 139,106 139,106 138,106 137,106 136,106 136,106 134,106 133,106 132,106 132,106 130,106 129,106 128,106 126,106 125,106 124,107 122,107 121,108 119,108 118,109 117,110 116,110 116,111 115,112 114,113 113,114 109,114 109,114 109,114 109,114 109,113 108,113 108,113 108,113 108,112 108,111 109,110 109,110 110,109 110,108 111,108 113,107 113,107 114,106 115,106 115,106 116,106 117,106 118,105 119,105 119,104 120,104 121,104 121,104 122,104 124,103 124,103 125,103 125,103 126,103 127,103 128,103 129,103 130,103 131,103 132,103 133,103 134,103 136,103 136,103 137,103 138,103 139,103 140,103 141,103 138,92 137,92 137,92 136,92 136,92 134,92 134,91 133,91 133,91 132,91 130,91 129,91 128,91 126,91 125,91 124,91 122,92 121,92 119,92 118,92 117,93 116,93 115,94 114,94 113,95 110,96 108,97 107,99 106,100 104,102 103,103 102,105 101,106 99,107 99,109 98,111 97,112 97,114 96,116 96,118 95,121 95,122 95,123 95,126 95,128 95,129 95,131 95,132 96,134 96,136 96,137 97,138 98,139 98,140 99,141 101,142 103,144 104,145 105,146 106,147 108,148 109,149 111,149 113,150 115,151 117,151 118,152 120,152 122,152 125,152 126,153 128,153 130,153" fill="#ffe5c6" stroke="#000000" stroke-linejoin="round" stroke-linecap="round" stroke-width="2" fill-rule="evenodd"/>
      <polygon points="269,151 271,151 272,151 274,151 277,150 279,150 281,150 282,149 284,149 287,148 289,148 290,147 292,147 293,146 295,145 296,144 299,143 300,142 302,141 303,140 305,139 306,138 307,136 309,135 310,134 310,132 311,131 312,129 312,127 313,125 313,123 313,122 314,119 314,118 314,118 314,117 314,115 314,113 314,112 314,111 314,110 314,109 314,108 314,107 313,106 313,105 313,104 313,103 313,102 312,101 312,101 311,101 311,100 311,99 310,98 310,97 309,96 309,95 307,95 307,94 306,93 305,92 305,92 304,91 303,90 302,90 301,89 300,88 299,88 297,87 296,87 295,86 294,86 293,86 292,86 291,85 290,85 288,85 287,85 285,85 284,85 283,85 282,85 282,85 281,85 280,85 279,85 278,85 277,86 277,86 277,86 277,87 275,87 275,88 275,88 275,89 275,90 274,90 274,91 274,91 274,92 274,93 274,93 273,94 273,94 275,94 277,94 279,94 280,94 282,94 283,94 285,94 287,95 289,95 290,96 292,97 293,97 294,98 295,99 296,100 297,101 299,101 299,101 300,102 300,103 301,104 301,104 302,105 302,106 302,107 303,107 303,108 303,109 304,110 304,110 304,111 304,112 304,113 304,113 305,113 305,113 305,114 305,114 305,114 305,114 305,117 304,118 304,118 303,118 302,118 302,118 302,118 301,118 301,117 300,117 300,117 300,115 300,115 300,115 300,114 299,113 299,111 297,110 297,109 296,108 296,107 295,106 295,105 294,104 293,103 292,102 292,101 291,101 290,100 288,100 287,99 287,99 285,99 284,99 283,98 282,98 281,98 280,98 279,98 278,98 277,98 275,98 274,99 273,99 272,99 271,99 270,101 270,101 269,102 268,103 268,104 267,105 266,106 266,107 264,108 263,109 263,110 262,112 261,113 260,114 260,115 259,117 260,118 260,118 260,119 261,121 261,122 262,123 262,124 263,125 263,126 263,127 264,128 264,129 266,130 266,131 266,132 267,134 267,135 267,135 267,136 268,137 268,138 268,139 268,141 268,142 268,143 268,144 269,145 269,146 269,147 269,149 269,150 269,151 269,151 269,151 269,151 269,151" fill="#ffe5c6" stroke="#000000" stroke-linejoin="round" stroke-linecap="round" stroke-width="2" fill-rule="evenodd"/>
    </g>
    <g data-mdcr="group" class="mdcr-region" data-mdcr-region="0" data-mdcr-layer="1" data-mdcr-tag="MDCR-V(0x16)" data-mdcr-value=" 0| 1|">
      <polygon points="161,103 162,103 162,103 162,103 162,102 163,102 163,101 164,101 164,100 165,99 165,99 166,98 166,98 167,97 169,96 169,96 170,95 171,95 171,95 172,94 173,93 174,93 175,92 176,91 177,91 180,90 181,90 182,90 183,89 184,89 185,88 187,88 188,87 189,87 191,86 193,85 193,85 193,85 194,85 194,85 195,85 195,85 196,85 196,84 196,83 196,82 196,81 196,80 196,79 196,78 196,77 196,75 196,74 196,73 195,72 195,71 195,70 195,69 195,68 195,67 194,66 194,65 194,64 193,64 193,63 193,62 192,61 192,60 192,59 191,58 191,57 189,57 188,56 188,55 187,54 186,54 186,53 185,53 184,52 184,52 183,52 182,51 181,51 181,51 180,51 178,51 177,51 177,51 176,51 175,51 174,51 173,52 173,52 172,52 171,53 170,53 170,53 169,54 167,54 167,55 166,55 166,55 165,56 164,56 164,57 163,57 163,58 162,58 162,59 161,59 161,60 161,60 160,61 160,61 160,62 160,62 159,62 159,63 159,63 158,64 158,64 158,64 156,64 156,65 155,65 155,66 154,67 154,68 154,69 153,70 153,71 153,72 152,73 152,74 152,75 152,77 151,78 151,79 151,80 151,81 151,82 151,83 151,84 151,85 151,86 151,87 151,88 151,89 152,90 152,90 152,91 152,92 153,93 153,94 153,95 154,96 154,97 155,98 156,99 156,100 158,101 159,102 160,102 161,103" fill="#ffffff" stroke="#000000" stroke-linejoin="round" stroke-linecap="round" stroke-width="2" fill-rule="evenodd"/>
      <polygon points="249,98 249,97 251,96 251,96 252,95 252,94 252,93 253,92 253,91 253,90 254,89 254,89 254,88 254,87 254,86 255,86 255,85 255,84 255,83 255,82 255,81 255,80 255,79 255,78 255,77 255,76 255,75 255,74 255,72 255,71 254,70 254,69 254,68 254,67 254,65 253,64 253,63 252,61 252,60 251,60 251,59 249,58 248,56 248,55 247,54 246,53 245,53 244,52 243,51 242,51 241,50 240,50 238,50 238,49 237,49 236,49 235,49 234,48 233,48 232,48 231,48 230,48 228,48 227,48 226,48 225,48 225,49 224,49 223,49 222,50 221,50 221,51 220,51 219,52 219,52 217,53 217,53 216,54 216,55 215,56 215,56 214,58 214,60 214,60 214,62 213,64 213,65 213,67 213,69 213,70 213,72 213,75 213,76 213,78 213,80 213,82 213,83 213,83 213,83 214,83 214,84 215,84 216,84 217,84 219,84 220,85 222,85 223,85 224,85 225,86 226,86 227,86 230,86 231,86 232,86 233,87 234,87 234,87 234,86 234,86 234,85 234,84 234,84 234,83 235,82 235,82 235,82 235,82 235,82 235,82 236,82 236,82 236,82 237,82 237,83 237,84 238,84 238,85 238,86 238,86 238,87 238,87 238,88 238,88 237,88 237,88 237,88 237,89 237,89 248,98 248,98 248,98 249,98 249,98" fill="#ffffff" stroke="#000000" stroke-linejoin="round" stroke-linecap="round" stroke-width="2" fill-rule="evenodd"/>
      <polygon points="174,88 175,88 176,88 176,88 176,87 176,87 176,87 176,86 176,86 176,85 175,85 175,84 175,84 175,83 175,82 175,82 175,81 175,81 174,80 174,80 174,80 174,80 174,80 173,80 173,80 173,80 172,81 172,81 172,82 172,82 172,83 172,84 172,85 172,85 172,86 173,86 173,86 173,87 173,87 173,87 174,88 174,88" fill="#000000" stroke="#000000" stroke-linejoin="round" stroke-linecap="round" stroke-width="2" fill-rule="evenodd"/>
      <polygon points="156,85 161,81 162,79 162,79 162,79 161,78 161,78 160,78 160,78 159,79 159,79 157,79 157,80 156,80 156,81 155,81 155,81 155,82 155,82 155,82 154,83 154,83 154,83 154,84 154,85 154,85 155,85 155,85 155,85 155,85 155,85 156,85" fill="#000000" stroke="#000000" stroke-linejoin="round" stroke-linecap="round" stroke-width="2" fill-rule="evenodd"/>
      <polygon points="171,79 175,78 175,78 175,78 175,78 175,78 175,76 171,76 171,76 171,76 169,76 169,75 169,75 169,75 169,75 169,75 169,75 169,75 169,74 171,74 171,74 171,74 171,74 171,74 171,73 172,73 172,73 172,73 172,72 172,72 172,72 172,72 172,71 171,71 171,71 171,71 171,71 171,71 169,71 169,71 167,72 167,72 167,73 166,74 166,75 166,75 166,76 166,77 167,78 171,79" fill="#000000" stroke="#000000" stroke-linejoin="round" stroke-linecap="round" stroke-width="2" fill-rule="evenodd"/>
      <polygon points="249,80 251,79 251,79 251,78 251,78 251,78 251,77 250,77 250,77 250,77 250,77 249,76 249,76 248,76 248,76 247,76 247,76 245,75 245,75 244,75 244,75 243,75 243,75 242,75 242,75 241,75 241,76 241,76 241,76 241,76 241,77 241,77 241,77 241,78 249,80" fill="#000000" stroke="#000000" stroke-linejoin="round" stroke-linecap="round" stroke-width="2" fill-rule="evenodd"/>
      <polygon points="234,77 236,76 236,76 236,76 236,76 237,76 237,75 237,75 237,75 237,75 236,73 236,73 236,73 236,73 235,73 235,73 235,73 234,73 234,73 234,73 234,73 234,72 234,72 234,72 234,72 235,72 235,71 235,71 235,71 236,70 236,70 235,69 232,69 231,69 231,70 230,70 230,71 229,72 229,72 229,73 229,74 229,74 229,75 229,75 230,76 230,76 231,76 231,76 231,77 232,77 232,77 232,77 232,77 234,77 234,77 234,77 234,77 234,77 234,77 234,77 234,77" fill="#000000" stroke="#000000" stroke-linejoin="round" stroke-linecap="round" stroke-width="2" fill-rule="evenodd"/>
      <polygon points="220,74 221,74 221,74 221,74 221,74 222,74 222,73 222,73 222,73 222,72 222,71 221,71 220,71 220,71 218,70 217,70 217,70 216,70 215,70 215,70 215,71 215,71 215,71 215,71 215,72 215,72 215,72 220,74" fill="#000000" stroke="#000000" stroke-linejoin="round" stroke-linecap="round" stroke-width="2" fill-rule="evenodd"/>
      <polygon points="184,73 192,72 192,71 192,71 192,71 192,70 192,70 192,70 192,70 192,70 191,69 191,69 191,69 191,69 182,71 182,72 182,73 182,73 182,73 183,73 183,73 183,73 184,73 184,73 184,73 184,73 184,73 184,73" fill="#000000" stroke="#000000" stroke-linejoin="round" stroke-linecap="round" stroke-width="2" fill-rule="evenodd"/>
      <polygon points="169,67 171,67 172,66 172,65 172,65 172,64 172,63 172,62 172,61 172,60 171,60 171,60 171,59 171,59 170,59 170,59 169,59 169,59 169,59 168,60 168,60 168,61 168,61 168,62 168,62 168,63 168,63 168,64 168,64 168,65 169,65 169,66 169,66 169,67 169,67 169,67 169,67 169,67" fill="#000000" stroke="#000000" stroke-linejoin="round" stroke-linecap="round" stroke-width="2" fill-rule="evenodd"/>
      <polygon points="235,65 236,64 236,63 236,63 236,62 236,61 236,60 236,59 235,59 235,58 235,58 235,58 235,58 233,57 233,57 233,57 233,57 232,57 232,58 232,59 232,60 232,61 232,62 233,63 233,64 233,65 234,65 235,65 235,65 235,65 235,65" fill="#000000" stroke="#000000" stroke-linejoin="round" stroke-linecap="round" stroke-width="2" fill-rule="evenodd"/>
    </g>
    <g data-mdcr="group" class="mdcr-region" data-mdcr-region="0" data-mdcr-layer="1" data-mdcr-tag="MDCR-V(0x16)" data-mdcr-value=" 0| 1|">
      <polygon points="155,49 157,49 157,49 158,48 160,48 160,47 161,47 161,46 162,46 162,45 163,45 163,45 164,44 164,44 165,43 166,43 166,43 167,42 168,42 168,41 169,41 170,41 171,40 172,40 174,40 175,40 176,40 177,40 178,40 179,40 180,40 180,40 181,40 182,40 183,40 183,41 184,41 185,41 185,42 185,42 186,43 186,43 188,44 188,44 189,44 189,45 190,45 191,45 191,45 192,45 192,44 192,44 192,44 193,44 193,44 193,43 193,42 193,42 193,41 193,40 193,40 192,39 192,38 192,38 192,37 192,37 192,36 192,36 192,35 192,35 192,35 191,35 191,34 191,34 191,33 191,33 191,32 190,32 190,31 190,31 190,30 190,30 190,29 190,28 189,28 189,27 189,27 189,26 189,26 189,25 188,25 188,24 188,23 188,23 188,22 186,22 186,22 185,22 185,21 185,21 184,21 184,21 183,21 183,21 182,21 182,21 181,21 181,21 180,21 180,21 179,21 178,22 178,22 177,22 177,22 176,22 175,22 175,23 174,23 174,23 172,23 172,24 171,24 171,24 170,25 170,25 169,25 169,26 168,26 168,26 167,26 167,27 166,27 166,28 166,28 165,28 165,29 164,29 164,30 163,30 163,30 163,31 162,32 161,33 160,34 160,35 158,35 157,36 157,37 156,38 156,39 155,40 155,41 154,42 154,44 153,45 153,46 153,47 153,48 153,48 154,48 154,48 154,49 155,49 155,49 155,49" fill="#000000" stroke="#000000" stroke-linejoin="round" stroke-linecap="round" stroke-width="2" fill-rule="evenodd"/>
      <polygon points="251,49 252,49 252,49 252,49 253,49 253,49 253,49 254,49 254,48 254,48 254,47 254,46 253,46 253,45 253,44 253,44 252,43 252,42 252,42 251,41 251,40 251,40 250,39 250,39 250,38 250,38 249,38 249,37 249,37 249,37 249,36 248,36 248,35 246,35 246,35 246,34 245,34 244,32 243,31 242,30 240,28 239,27 238,26 236,25 235,24 232,24 231,23 229,22 227,22 226,21 224,21 222,21 219,21 219,21 219,21 218,21 218,22 218,22 218,22 218,23 218,23 218,23 218,23 218,24 218,24 214,40 215,42 215,42 216,42 216,42 216,42 217,42 217,42 217,42 218,43 218,42 219,42 221,41 221,41 222,40 223,40 223,40 224,39 225,39 226,39 227,39 227,39 228,39 229,39 230,39 231,39 232,39 234,39 235,39 236,39 237,39 238,40 239,40 240,41 241,41 242,42 243,42 244,43 244,44 245,44 246,45 248,46 248,46 248,47 249,47 249,47 249,48 249,48 250,48 250,49 251,49" fill="#000000" stroke="#000000" stroke-linejoin="round" stroke-linecap="round" stroke-width="2" fill-rule="evenodd"/>
      <polygon points="162,41 163,40 163,40 164,40 165,39 166,39 166,38 167,38 168,38 170,37 171,37 171,37 172,36 173,36 174,36 175,36 176,36 176,36 177,36 178,36 178,36 179,36 179,36 180,36 180,36 181,36 181,36 182,36 182,36 184,36 184,36 185,36 185,36 186,36 186,36 187,37 187,37 188,37 188,37 189,37 189,37 185,25 185,25 184,25 182,25 181,25 181,25 180,26 179,26 178,26 178,27 177,27 176,28 175,28 175,28 174,29 173,29 173,29 172,30 171,31 170,32 170,32 168,33 167,33 167,34 166,35 166,35 165,36 164,37 164,38 163,39 163,39 162,40 162,41 162,41 162,41 162,41 162,41" fill="#ff00ff" stroke="#000000" stroke-linejoin="round" stroke-linecap="round" stroke-width="2" fill-rule="evenodd"/>
      <polygon points="244,38 243,37 242,36 241,35 240,34 239,33 237,32 236,31 235,30 234,30 233,29 232,28 230,28 229,27 228,27 225,26 224,26 223,26 223,26 223,26 222,26 221,36 222,36 223,36 225,36 226,36 228,35 230,35 231,35 232,35 234,35 235,36 236,36 239,36 240,36 241,37 243,37 244,38 244,38 244,38 244,38 244,38" fill="#ff00ff" stroke="#000000" stroke-linejoin="round" stroke-linecap="round" stroke-width="2" fill-rule="evenodd"/>
    </g>
    <polygon points="86,193 88,193 90,194 90,194 91,195 94,196 96,197 99,198 101,200 103,201 107,202 111,203 113,205 117,207 121,209 124,210 129,212 132,214 136,217 141,218 146,221 149,223 159,227 167,232 177,237 199,246 207,251 217,256 227,260 237,265 245,269 250,271 254,274 258,275 262,278 265,280 270,282 274,283 277,285 282,287 285,289 287,290 290,291 293,292 297,293 299,294 300,295 303,296 305,297 307,297 308,298 308,298 308,298 310,298 312,298 315,298 316,298 316,298 318,298 318,298 320,298 320,298 320,298 320,298 320,298 320,298 320,298 320,297 320,297 320,296 320,295 320,294 320,293 320,292 320,291 320,290 320,288 320,287 320,285 320,282 320,281 320,278 320,275 318,274 318,272 316,267 316,264 315,260 312,258 312,257 310,254 310,252 310,249 308,247 308,244 308,242 307,239 307,235 307,234 307,233 307,231 307,228 307,226 307,225 307,223 307,221 308,217 308,217 308,213 308,210 308,209 310,206 310,203 310,201 312,198 312,195 312,192 315,189 315,190 312,190 312,191 310,192 310,193 308,193 307,195 305,196 303,198 300,199 299,201 295,202 293,204 290,206 287,208 283,209 282,211 277,213 274,215 270,217 265,219 262,222 254,226 247,231 237,235 229,241 219,245 212,249 202,254 194,258 184,263 177,267 173,269 169,271 166,274 161,274 157,276 154,279 152,281 148,282 144,284 142,286 138,287 136,289 132,290 131,290 129,292 126,293 124,293 123,294 121,295 121,296 119,296 119,296 116,297 113,298 111,298 109,298 107,299 106,300 103,300 103,301 101,301 101,301 101,302 99,302 99,302 99,302 99,302 99,302 99,302 99,301 99,301 99,300 99,300 99,299 99,298 99,298 99,297 99,296 99,295 98,294 98,292 98,291 98,290 96,289 96,286 94,284 94,282 94,281 94,279 94,276 94,274 94,272 94,270 94,267 94,265 94,263 94,260 96,258 96,256 96,253 96,250 96,247 96,244 96,242 96,238 96,234 96,232 96,228 94,224 94,219 94,217 91,211 90,207 90,202 88,198 86,193 86,193" fill="#800080" stroke="#000000" stroke-linejoin="round" stroke-linecap="round" stroke-width="2" fill-rule="evenodd"/>
    <polygon points="194,134 196,134 199,134 200,134 202,134 205,134 206,134 207,134 210,134 212,133 215,133 216,133 218,133 221,133 223,132 224,132 227,132 229,131 231,131 233,130 234,130 236,128 238,128 239,127 241,126 243,126 244,125 245,124 247,123 248,122 249,122 249,121 250,120 251,118 251,117 253,116 253,114 254,113 254,112 254,111 254,110 254,109 254,106 254,105 253,104 253,103 253,102 251,101 250,100 249,97 248,96 247,95 245,94 243,93 242,92 239,91 238,90 236,89 233,89 232,87 229,86 227,86 224,85 223,85 221,85 218,84 217,84 215,84 213,84 212,84 210,83 209,83 207,83 206,83 205,83 204,83 201,83 200,83 199,83 197,84 195,84 194,84 193,85 191,85 190,86 189,86 188,87 186,87 184,87 183,89 182,89 180,90 179,90 178,91 177,92 175,92 174,93 173,93 172,94 172,95 170,95 169,96 168,96 167,96 166,97 166,98 164,100 163,101 162,102 162,102 161,103 159,104 159,105 158,106 158,107 158,109 158,110 157,112 157,113 157,114 157,115 157,116 157,117 157,118 157,120 158,121 158,121 158,122 159,122 159,123 161,124 162,125 162,125 163,126 164,126 166,127 166,127 167,128 168,128 169,130 170,130 172,131 173,131 174,131 175,131 177,132 177,132 178,132 179,132 180,133 182,133 183,133 184,133 185,133 186,133 188,133 189,134 190,134 191,134 193,134 194,134" fill="#ff0000" stroke="#000000" stroke-linejoin="round" stroke-linecap="round" stroke-width="2" fill-rule="evenodd"/>
    <g data-mdcr="group" class="mdcr-region" data-mdcr-region="1" data-mdcr-layer="1" data-mdcr-sound="\Resources\Wav\clap.wav" data-mdcr-tag="MDCR-VD" data-mdcr-value=" 1| 1|\Resources\Wav\clap.wav">
      <ellipse cx="123.5" cy="236" rx="9.5" ry="10" fill="#ffff00" stroke="none" stroke-width="0"/>
      <ellipse cx="149.5" cy="250" rx="9.5" ry="10" fill="#00ffff" stroke="none" stroke-width="0"/>
      <ellipse cx="125.5" cy="262" rx="9.5" ry="10" fill="#ffffff" stroke="none" stroke-width="0"/>
    </g>
    <g data-mdcr="group" class="mdcr-region" data-mdcr-region="1" data-mdcr-layer="1" data-mdcr-tag="MDCR-V(0x16)" data-mdcr-value=" 1| 1|">
      <ellipse cx="288.5" cy="234" rx="9.5" ry="10" fill="#ffff00" stroke="none" stroke-width="0"/>
      <ellipse cx="265.5" cy="250" rx="9.5" ry="10" fill="#00ffff" stroke="none" stroke-width="0"/>
      <ellipse cx="292.5" cy="262" rx="9.5" ry="10" fill="#ffffff" stroke="none" stroke-width="0"/>
    </g>
  </g>
</svg>